<svg class="main-svg" xmlns="http://www.w3.org/2000/svg" xmlns:xlink="http://www.w3.org/1999/xlink" width="700" height="450" style="" viewBox="0 0 700 450"><rect x="0" y="0" width="700" height="450" style="fill: rgb(255, 255, 255); fill-opacity: 1;"/><defs id="defs-182b19"><g class="clips"><clipPath id="clip182b19xyplot" class="plotclip"><rect width="468" height="330"/></clipPath><clipPath class="axesclip" id="clip182b19x"><rect x="60" y="0" width="468" height="450"/></clipPath><clipPath class="axesclip" id="clip182b19y"><rect x="0" y="60" width="700" height="330"/></clipPath><clipPath class="axesclip" id="clip182b19xy"><rect x="60" y="60" width="468" height="330"/></clipPath></g><g class="gradients"/></defs><g class="bglayer"/><g class="layer-below"><g class="imagelayer"/><g class="shapelayer"/></g><g class="cartesianlayer"><g class="subplot xy"><g class="layer-subplot"><g class="shapelayer"/><g class="imagelayer"/></g><g class="gridlayer"><g class="x"><path class="xgrid crisp" transform="translate(137.87,0)" d="M0,60v330" style="stroke: rgb(238, 238, 238); stroke-opacity: 1; stroke-width: 1px;"/><path class="xgrid crisp" transform="translate(215.9,0)" d="M0,60v330" style="stroke: rgb(238, 238, 238); stroke-opacity: 1; stroke-width: 1px;"/><path class="xgrid crisp" transform="translate(293.91999999999996,0)" d="M0,60v330" style="stroke: rgb(238, 238, 238); stroke-opacity: 1; stroke-width: 1px;"/><path class="xgrid crisp" transform="translate(371.95,0)" d="M0,60v330" style="stroke: rgb(238, 238, 238); stroke-opacity: 1; stroke-width: 1px;"/><path class="xgrid crisp" transform="translate(449.97,0)" d="M0,60v330" style="stroke: rgb(238, 238, 238); stroke-opacity: 1; stroke-width: 1px;"/></g><g class="y"><path class="ygrid crisp" transform="translate(0,328.48)" d="M60,0h468" style="stroke: rgb(238, 238, 238); stroke-opacity: 1; stroke-width: 1px;"/><path class="ygrid crisp" transform="translate(0,283.47)" d="M60,0h468" style="stroke: rgb(238, 238, 238); stroke-opacity: 1; stroke-width: 1px;"/><path class="ygrid crisp" transform="translate(0,238.45)" d="M60,0h468" style="stroke: rgb(238, 238, 238); stroke-opacity: 1; stroke-width: 1px;"/><path class="ygrid crisp" transform="translate(0,193.43)" d="M60,0h468" style="stroke: rgb(238, 238, 238); stroke-opacity: 1; stroke-width: 1px;"/><path class="ygrid crisp" transform="translate(0,148.41)" d="M60,0h468" style="stroke: rgb(238, 238, 238); stroke-opacity: 1; stroke-width: 1px;"/><path class="ygrid crisp" transform="translate(0,103.4)" d="M60,0h468" style="stroke: rgb(238, 238, 238); stroke-opacity: 1; stroke-width: 1px;"/></g></g><g class="zerolinelayer"><path class="yzl zl crisp" transform="translate(0,373.5)" d="M60,0h468" style="stroke: rgb(68, 68, 68); stroke-opacity: 1; stroke-width: 1px;"/></g><path class="xlines-below"/><path class="ylines-below"/><g class="overlines-below"/><g class="xaxislayer-below"/><g class="yaxislayer-below"/><g class="overaxes-below"/><g class="plot" transform="translate(60, 60)" clip-path="url(#clip182b19xyplot)"><g class="scatterlayer mlayer"><g class="trace scatter tracea4e310" style="stroke-miterlimit: 2; opacity: 1;"><g class="fills"/><g class="errorbars"/><g class="lines"><path class="js-line" d="M0,313.5L34.8,312.82L34.96,312.71L39.64,312.04L39.79,311.92L43.69,311.25L43.85,311.14L47.91,310.46L48.06,310.35L51.03,309.67L51.19,309.56L53.53,308.89L53.68,308.77L57.74,308.21L57.9,307.99L59.61,307.54L59.77,307.54L62.26,306.97L62.42,306.75L64.14,306.3L64.29,306.3L67.1,305.62L67.26,305.4L92.38,295.83L92.54,295.61L95.5,294.14L95.66,294.14L98.47,293.02L98.62,293.02L99.87,292.34L100.03,292.34L103.15,290.99L103.31,290.99L106.27,289.64L106.43,289.64L109.7,288.07L109.86,288.07L112.2,286.94L112.36,286.94L113.76,286.04L113.92,286.04L115.48,285.36L115.63,285.25L116.88,284.8L117.04,284.69L122.03,282.1L122.19,282.1L125.62,280.41L125.78,280.41L129.21,278.61L129.37,278.61L130.46,278.05L130.62,277.82L132.18,277.15L132.33,277.04L133.89,276.47L134.05,276.25L137.79,274.22L137.95,274.11L138.89,273.55L139.04,273.32L139.98,272.87L140.13,272.53L142.32,271.86L142.48,271.52L147.16,268.82L147.31,268.82L149.19,267.36L149.34,267.36L150.59,266.68L150.75,266.57L151.68,265.89L151.84,265.78L153.24,265.22L153.4,264.99L168.85,255.09L169,255.09L178.99,248.79L179.15,248.79L180.86,247.32L181.02,247.32L182.58,246.65L182.74,246.42L184.77,245.07L184.92,244.85L185.86,244.17L186.01,244.06L252.02,198.37L252.18,198.14L253.58,197.47L253.74,197.24L254.36,196.79L254.52,196.46L273.72,181.6L273.87,181.26L274.81,180.92L274.96,180.47L275.9,179.91L276.06,179.69L277.77,178.34L277.93,178.34L284.17,173.61L284.33,173.61L286.2,171.81L286.36,171.81L286.98,171.25L287.14,171.02L288.85,169.67L289.01,169.67L292.6,166.18L292.75,165.96L293.85,165.28L294,165.17L294.78,164.49L294.94,164.38L305.71,155.83L305.86,155.49L308.05,153.69L308.2,153.69L308.67,153.13L308.83,152.9L309.76,152.23L309.92,151.89L310.86,151.44L311.01,151.1L315.85,147.16L316.01,146.82L317.25,145.7L317.41,145.7L318.5,145.25L318.66,144.91L330.99,135.23L331.14,134.89L336.76,130.39L336.92,130.17L337.7,129.49L337.85,129.38L342.38,125.78L342.53,125.33L343.78,124.77L343.94,124.54L352.52,117.34L352.68,117.11L353.93,116.44L354.08,116.21L358.14,112.84L358.3,112.5L359.86,111.26L360.01,111.26L364.07,107.66L364.23,107.43L366.1,106.08L366.25,105.75L368.59,103.61L368.75,103.5L374.21,98.77L374.37,98.54L375.62,97.87L375.77,97.42L380.77,93.25L380.92,93.03L382.48,92.02L382.64,91.9L384.51,90.1L384.67,90.1L388.1,86.73L388.26,86.5L394.66,81.44L394.81,80.87L395.75,80.2L395.9,80.09L398.4,77.72L398.56,77.72L403.86,73.22L404.02,72.77L405.74,71.53L405.89,71.42L409.17,68.61L409.32,68.04L410.57,67.37L410.73,67.26L416.81,61.74L416.97,61.29L418.84,59.94L419,59.94L420.4,58.59L420.56,58.48L421.18,57.8L421.34,57.69L425.55,54.09L425.71,53.75L430.24,50.26L430.39,49.81L431.8,48.57L431.95,48.35L436.95,44.07L437.1,43.74L438.35,43.06L438.51,43.06L441.94,39.68L442.1,39.35L443.03,38.67L443.19,38.56L445.37,36.53L445.53,36.42L447.56,34.51L447.71,34.51L448.34,33.83L448.49,33.72L450.37,32.26L450.52,32.14L454.11,28.88L454.27,28.54L456.45,26.52L456.61,26.52L458.64,24.72L458.79,24.6L460.98,22.8L461.13,22.8L461.6,22.13L461.76,22.01L467.38,17.4L467.53,16.95L468,16.5" style="vector-effect: non-scaling-stroke; fill: none; stroke: rgb(31, 119, 180); stroke-opacity: 1; stroke-width: 2px; opacity: 1;"/></g><g class="points"/><g class="text"/></g><g class="trace scatter trace516037" style="stroke-miterlimit: 2; opacity: 1;"><g class="fills"/><g class="errorbars"/><g class="lines"><path class="js-line" d="M0,313.5L54.62,312.82L54.77,312.71L84.42,312.04L84.58,311.92L97.69,311.25L97.84,311.14L106.27,310.46L106.43,310.35L117.98,309.67L118.13,309.56L128.9,308.89L129.06,308.77L136.55,308.1L136.7,307.99L142.63,307.42L142.79,307.2L148.25,306.52L148.41,306.41L156.36,305.73L156.52,305.62L164.48,304.95L164.63,304.83L168.07,304.16L168.22,304.05L172.91,303.37L173.06,303.26L178.99,302.58L179.15,302.47L184.92,301.8L185.08,301.68L188.98,301.01L189.14,300.9L192.26,300.22L192.41,300.11L197.09,299.43L197.25,299.32L200.21,298.64L200.37,298.53L203.65,297.86L203.8,297.74L207.39,297.07L207.55,296.84L211.61,296.17L211.76,295.94L213.32,295.72L213.48,295.72L216.76,295.04L216.91,294.93L218.78,294.48L218.94,294.48L220.19,293.92L220.35,293.92L222.53,293.24L222.69,293.02L225.65,292.34L225.81,292.23L228.93,291.67L229.08,291.44L231.89,290.77L232.05,290.65L234.08,289.98L234.23,289.87L236.26,289.19L236.42,289.08L237.82,288.97L237.98,288.97L238.92,288.29L239.07,288.18L241.26,287.5L241.41,287.5L243.44,286.83L243.6,286.71L245.78,286.04L245.94,286.04L248.28,285.25L248.43,285.25L250.31,284.58L250.46,284.46L252.8,283.79L252.96,283.68L255.3,283L255.46,282.89L257.95,282.21L258.11,282.1L261.39,280.64L261.54,280.64L263.73,279.96L263.88,279.96L267.16,278.27L267.32,278.27L269.35,277.71L269.5,277.49L271.06,277.04L271.22,277.04L273.72,275.91L273.87,275.91L274.96,275.24L275.12,275.12L277.93,274L278.08,274L279.65,273.32L279.8,273.21L283.23,271.75L283.39,271.75L284.48,271.07L284.64,270.96L286.36,270.4L286.51,270.17L288.07,269.27L288.23,269.27L290.26,268.6L290.41,268.37L294,266.79L294.16,266.79L297.12,265.44L297.28,265.44L300.56,263.87L300.71,263.87L305.39,261.51L305.55,261.51L308.51,260.15L308.67,260.15L309.61,259.48L309.76,259.37L311.79,258.8L311.95,258.47L314.6,257.23L314.76,257.23L315.85,256.55L316.01,256.44L317.72,255.77L317.88,255.65L318.81,255.2L318.97,255.2L320.37,254.53L320.53,254.3L324.43,252.5L324.59,252.5L328.02,250.81L328.18,250.81L329.27,249.91L329.43,249.91L330.99,249.46L331.14,249.13L333.02,248.45L333.17,248.34L334.11,247.78L334.26,247.55L335.82,246.87L335.98,246.76L339.26,245.41L339.41,245.41L344.41,242.82L344.56,242.82L345.81,242.26L345.97,242.04L349.09,240.46L349.24,240.46L354.39,237.76L354.55,237.76L355.33,237.31L355.49,236.97L357.52,236.3L357.67,236.18L362.98,233.37L363.13,233.37L364.23,232.69L364.38,232.58L365.47,232.02L365.63,232.02L366.88,231.46L367.03,231.23L370.78,229.43L370.94,229.43L374.68,227.4L374.84,227.18L378.58,225.27L378.74,225.27L380.14,224.48L380.3,224.37L382.33,223.24L382.48,223.13L383.58,222.45L383.73,222.34L385.45,221.67L385.6,221.44L387.01,220.76L387.17,220.65L388.57,219.86L388.73,219.75L394.5,216.26L394.66,216.26L400.12,213.22L400.27,213.22L405.27,210.64L405.42,210.64L406.67,209.96L406.83,209.85L408.08,209.17L408.23,208.84L409.48,208.27L409.64,208.05L411.2,207.37L411.35,207.26L412.76,206.58L412.91,206.47L414.16,205.91L414.32,205.68L416.35,205.01L416.5,204.67L418.06,203.66L418.22,203.66L419.62,202.98L419.78,202.76L424.93,199.94L425.09,199.94L426.02,199.38L426.18,199.16L428.05,198.59L428.21,198.59L429.77,197.36L429.92,197.36L430.86,196.68L431.02,196.57L434.29,194.99L434.45,194.99L438.66,192.4L438.82,192.4L439.91,191.73L440.07,191.5L441.78,190.83L441.94,190.49L443.66,189.82L443.81,189.7L445.68,188.24L445.84,188.24L446.78,187.68L446.93,187.45L448.03,186.66L448.18,186.66L449.27,186.44L449.43,185.88L453.8,183.4L453.96,183.4L455.05,182.5L455.2,182.39L456.61,181.83L456.76,181.6L458.01,180.7L458.17,180.59L459.57,179.91L459.73,179.69L460.98,179.01L461.13,178.9L462.69,178.22L462.85,178.11L468,175.3" style="vector-effect: non-scaling-stroke; fill: none; stroke: rgb(255, 127, 14); stroke-opacity: 1; stroke-width: 2px; opacity: 1;"/></g><g class="points"/><g class="text"/></g></g></g><g class="overplot"/><path class="xlines-above crisp" d="M0,0" style="fill: none;"/><path class="ylines-above crisp" d="M0,0" style="fill: none;"/><g class="overlines-above"/><g class="xaxislayer-above"><g class="xtick"><text text-anchor="middle" x="0" y="403" transform="translate(137.87,0)" style="font-family: 'Open Sans', verdana, arial, sans-serif; font-size: 12px; fill: rgb(68, 68, 68); fill-opacity: 1; white-space: pre;">500</text></g><g class="xtick"><text text-anchor="middle" x="0" y="403" transform="translate(215.9,0)" style="font-family: 'Open Sans', verdana, arial, sans-serif; font-size: 12px; fill: rgb(68, 68, 68); fill-opacity: 1; white-space: pre;">1000</text></g><g class="xtick"><text text-anchor="middle" x="0" y="403" transform="translate(293.91999999999996,0)" style="font-family: 'Open Sans', verdana, arial, sans-serif; font-size: 12px; fill: rgb(68, 68, 68); fill-opacity: 1; white-space: pre;">1500</text></g><g class="xtick"><text text-anchor="middle" x="0" y="403" transform="translate(371.95,0)" style="font-family: 'Open Sans', verdana, arial, sans-serif; font-size: 12px; fill: rgb(68, 68, 68); fill-opacity: 1; white-space: pre;">2000</text></g><g class="xtick"><text text-anchor="middle" x="0" y="403" transform="translate(449.97,0)" style="font-family: 'Open Sans', verdana, arial, sans-serif; font-size: 12px; fill: rgb(68, 68, 68); fill-opacity: 1; white-space: pre;">2500</text></g><g class="xtick"><text text-anchor="middle" x="0" y="403" transform="translate(528,0)" style="font-family: 'Open Sans', verdana, arial, sans-serif; font-size: 12px; fill: rgb(68, 68, 68); fill-opacity: 1; white-space: pre;">3000</text></g></g><g class="yaxislayer-above"><g class="ytick"><text text-anchor="end" x="59" y="4.199999999999999" transform="translate(0,373.5)" style="font-family: 'Open Sans', verdana, arial, sans-serif; font-size: 12px; fill: rgb(68, 68, 68); fill-opacity: 1; white-space: pre;">0</text></g><g class="ytick"><text text-anchor="end" x="59" y="4.199999999999999" transform="translate(0,328.48)" style="font-family: 'Open Sans', verdana, arial, sans-serif; font-size: 12px; fill: rgb(68, 68, 68); fill-opacity: 1; white-space: pre;">20</text></g><g class="ytick"><text text-anchor="end" x="59" y="4.199999999999999" transform="translate(0,283.47)" style="font-family: 'Open Sans', verdana, arial, sans-serif; font-size: 12px; fill: rgb(68, 68, 68); fill-opacity: 1; white-space: pre;">40</text></g><g class="ytick"><text text-anchor="end" x="59" y="4.199999999999999" transform="translate(0,238.45)" style="font-family: 'Open Sans', verdana, arial, sans-serif; font-size: 12px; fill: rgb(68, 68, 68); fill-opacity: 1; white-space: pre;">60</text></g><g class="ytick"><text text-anchor="end" x="59" y="4.199999999999999" transform="translate(0,193.43)" style="font-family: 'Open Sans', verdana, arial, sans-serif; font-size: 12px; fill: rgb(68, 68, 68); fill-opacity: 1; white-space: pre;">80</text></g><g class="ytick"><text text-anchor="end" x="59" y="4.199999999999999" transform="translate(0,148.41)" style="font-family: 'Open Sans', verdana, arial, sans-serif; font-size: 12px; fill: rgb(68, 68, 68); fill-opacity: 1; white-space: pre;">100</text></g><g class="ytick"><text text-anchor="end" x="59" y="4.199999999999999" transform="translate(0,103.4)" style="font-family: 'Open Sans', verdana, arial, sans-serif; font-size: 12px; fill: rgb(68, 68, 68); fill-opacity: 1; white-space: pre;">120</text></g></g><g class="overaxes-above"/></g></g><g class="polarlayer"/><g class="ternarylayer"/><g class="geolayer"/><g class="pielayer"/><g class="glimages"/><defs id="topdefs-182b19"><g class="clips"/><clipPath id="legend182b19"><rect width="151" height="48" x="0" y="0"/></clipPath></defs><g class="layer-above"><g class="imagelayer"/><g class="shapelayer"/></g><g class="infolayer"><g class="legend" pointer-events="all" transform="translate(537.36, 60)"><rect class="bg" shape-rendering="crispEdges" width="151" height="48" x="0" y="0" style="stroke: rgb(68, 68, 68); stroke-opacity: 1; fill: rgb(255, 255, 255); fill-opacity: 1; stroke-width: 0px;"/><g class="scrollbox" transform="translate(0, 0)" clip-path="url(#legend182b19)"><g class="groups"><g class="traces" transform="translate(0, 14.5)" style="opacity: 1;"><g class="layers" style="opacity: 1;"><g class="legendfill"/><g class="legendlines"><path class="js-line" d="M5,0h30" style="fill: none; stroke: rgb(31, 119, 180); stroke-opacity: 1; stroke-width: 2px;"/></g><g class="legendsymbols"><g class="legendpoints"/></g></g><text class="legendtext user-select-none" text-anchor="start" x="40" y="4.680000000000001" style="font-family: 'Open Sans', verdana, arial, sans-serif; font-size: 12px; fill: rgb(68, 68, 68); fill-opacity: 1; white-space: pre;">Dyna-Q</text><rect class="legendtoggle" pointer-events="all" x="0" y="-9.5" width="191" height="19" style="cursor: pointer; fill: rgb(0, 0, 0); fill-opacity: 0;"/></g><g class="traces" transform="translate(0, 33.5)" style="opacity: 1;"><g class="layers" style="opacity: 1;"><g class="legendfill"/><g class="legendlines"><path class="js-line" d="M5,0h30" style="fill: none; stroke: rgb(255, 127, 14); stroke-opacity: 1; stroke-width: 2px;"/></g><g class="legendsymbols"><g class="legendpoints"/></g></g><text class="legendtext user-select-none" text-anchor="start" x="40" y="4.680000000000001" style="font-family: 'Open Sans', verdana, arial, sans-serif; font-size: 12px; fill: rgb(68, 68, 68); fill-opacity: 1; white-space: pre;">Priority Sweeping</text><rect class="legendtoggle" pointer-events="all" x="0" y="-9.5" width="191" height="19" style="cursor: pointer; fill: rgb(0, 0, 0); fill-opacity: 0;"/></g></g></g><rect class="scrollbar" rx="20" ry="3" width="0" height="0" x="0" y="0" style="fill: rgb(128, 139, 164); fill-opacity: 1;"/></g><g class="g-gtitle"><text class="gtitle" x="350" y="30" text-anchor="middle" dy="0em" style="font-family: 'Open Sans', verdana, arial, sans-serif; font-size: 17px; fill: rgb(68, 68, 68); opacity: 1; font-weight: normal; white-space: pre;">Cumulative Reward - Basic Maze</text></g><g class="g-xtitle"/><g class="g-ytitle"/></g></svg>