<svg class="main-svg" xmlns="http://www.w3.org/2000/svg" xmlns:xlink="http://www.w3.org/1999/xlink" width="700" height="450" style="" viewBox="0 0 700 450"><rect x="0" y="0" width="700" height="450" style="fill: rgb(255, 255, 255); fill-opacity: 1;"/><defs id="defs-f6e0cb"><g class="clips"><clipPath id="clipf6e0cbxyplot" class="plotclip"><rect width="468" height="330"/></clipPath><clipPath class="axesclip" id="clipf6e0cbx"><rect x="60" y="0" width="468" height="450"/></clipPath><clipPath class="axesclip" id="clipf6e0cby"><rect x="0" y="60" width="700" height="330"/></clipPath><clipPath class="axesclip" id="clipf6e0cbxy"><rect x="60" y="60" width="468" height="330"/></clipPath></g><g class="gradients"/></defs><g class="bglayer"/><g class="layer-below"><g class="imagelayer"/><g class="shapelayer"/></g><g class="cartesianlayer"><g class="subplot xy"><g class="layer-subplot"><g class="shapelayer"/><g class="imagelayer"/></g><g class="gridlayer"><g class="x"><path class="xgrid crisp" transform="translate(138.03,0)" d="M0,60v330" style="stroke: rgb(238, 238, 238); stroke-opacity: 1; stroke-width: 1px;"/><path class="xgrid crisp" transform="translate(216.05,0)" d="M0,60v330" style="stroke: rgb(238, 238, 238); stroke-opacity: 1; stroke-width: 1px;"/><path class="xgrid crisp" transform="translate(294.08000000000004,0)" d="M0,60v330" style="stroke: rgb(238, 238, 238); stroke-opacity: 1; stroke-width: 1px;"/><path class="xgrid crisp" transform="translate(372.1,0)" d="M0,60v330" style="stroke: rgb(238, 238, 238); stroke-opacity: 1; stroke-width: 1px;"/><path class="xgrid crisp" transform="translate(450.13,0)" d="M0,60v330" style="stroke: rgb(238, 238, 238); stroke-opacity: 1; stroke-width: 1px;"/></g><g class="y"><path class="ygrid crisp" transform="translate(0,324.83)" d="M60,0h468" style="stroke: rgb(238, 238, 238); stroke-opacity: 1; stroke-width: 1px;"/><path class="ygrid crisp" transform="translate(0,276.15999999999997)" d="M60,0h468" style="stroke: rgb(238, 238, 238); stroke-opacity: 1; stroke-width: 1px;"/><path class="ygrid crisp" transform="translate(0,227.49)" d="M60,0h468" style="stroke: rgb(238, 238, 238); stroke-opacity: 1; stroke-width: 1px;"/><path class="ygrid crisp" transform="translate(0,178.82999999999998)" d="M60,0h468" style="stroke: rgb(238, 238, 238); stroke-opacity: 1; stroke-width: 1px;"/><path class="ygrid crisp" transform="translate(0,130.16)" d="M60,0h468" style="stroke: rgb(238, 238, 238); stroke-opacity: 1; stroke-width: 1px;"/><path class="ygrid crisp" transform="translate(0,81.49)" d="M60,0h468" style="stroke: rgb(238, 238, 238); stroke-opacity: 1; stroke-width: 1px;"/></g></g><g class="zerolinelayer"><path class="xzl zl crisp" transform="translate(60,0)" d="M0,60v330" style="stroke: rgb(68, 68, 68); stroke-opacity: 1; stroke-width: 1px;"/><path class="yzl zl crisp" transform="translate(0,373.5)" d="M60,0h468" style="stroke: rgb(68, 68, 68); stroke-opacity: 1; stroke-width: 1px;"/></g><path class="xlines-below"/><path class="ylines-below"/><g class="overlines-below"/><g class="xaxislayer-below"/><g class="yaxislayer-below"/><g class="overaxes-below"/><g class="plot" transform="translate(60, 60)" clip-path="url(#clipf6e0cbxyplot)"><g class="scatterlayer mlayer"><g class="trace scatter tracecccca6" style="stroke-miterlimit: 2; opacity: 1;"><g class="fills"/><g class="errorbars"/><g class="lines"><path class="js-line" d="M0,313.5L23.41,312.77L23.56,312.65L33.08,311.92L33.24,311.8L39.64,311.07L39.79,310.82L46.66,310.09L46.82,309.97L48.06,309.85L48.22,309.85L52.12,309.12L52.28,309L58.21,308.27L58.36,308.02L63.36,307.29L63.51,307.05L65.39,306.56L65.54,306.56L68.66,305.83L68.82,305.59L72.88,304.86L73.03,304.74L76.31,304.01L76.47,303.89L79.43,303.16L79.59,303.04L83.33,302.31L83.49,302.18L85.98,301.45L86.14,301.33L87.86,300.97L88.01,300.97L90.2,300.24L90.35,300.24L92.54,299.51L92.69,299.39L94.1,299.14L94.26,299.14L103.93,295.98L104.09,295.98L106.12,295.25L106.27,295.25L108.92,294.15L109.08,294.15L111.27,293.42L111.42,293.3L113.45,292.57L113.61,292.45L116.26,291.72L116.41,291.6L117.2,290.87L117.35,290.75L120,290.02L120.16,289.77L123.13,289.04L123.28,288.8L126.09,287.58L126.25,287.58L128.74,286.49L128.9,286.49L129.84,285.88L129.99,285.88L131.4,285.15L131.55,285.03L133.89,284.3L134.05,284.18L136.23,283.33L136.39,283.33L139.2,281.99L139.35,281.99L140.91,280.89L141.07,280.89L143.57,279.92L143.72,279.92L144.97,279.19L145.13,279.19L146.69,278.46L146.84,278.34L148.56,277.73L148.72,277.49L151.68,275.78L151.84,275.78L154.49,274.57L154.65,274.57L157.46,273.11L157.61,273.11L158.7,272.38L158.86,272.25L162.29,270.55L162.45,270.55L163.39,269.82L163.54,269.7L165.26,268.97L165.42,268.6L167.13,267.87L167.29,267.75L168.22,267.14L168.38,266.9L169.94,266.29L170.1,266.05L175.87,262.28L176.03,262.28L177.28,261.55L177.43,261.42L183.83,257.29L183.99,257.29L191.48,252.06L191.63,252.06L202.71,243.78L202.87,243.78L221.59,229.3L221.75,229.3L222.69,228.21L222.84,228.21L223.93,227.72L224.09,227.36L225.5,226.26L225.65,226.26L241.26,213.73L241.41,213.49L243.13,212.76L243.29,212.27L256.24,202.54L256.39,202.54L258.27,200.71L258.42,200.71L259.36,199.98L259.51,199.62L260.76,198.89L260.92,198.76L261.86,198.03L262.01,197.91L263.1,196.94L263.26,196.82L264.51,196.09L264.66,195.84L266.07,194.99L266.22,194.87L275.74,187.21L275.9,186.84L277.62,186.11L277.77,185.87L300.4,167.01L300.56,166.76L301.8,166.03L301.96,165.67L308.98,159.83L309.14,159.46L315.85,153.87L316.01,153.5L317.41,152.53L317.57,152.53L323.65,146.81L323.81,146.57L330.05,141.46L330.21,141.09L331.45,140.36L331.61,140L342.53,130.63L342.69,130.26L343.78,129.53L343.94,129.17L350.8,123.08L350.96,122.84L352.21,122.11L352.37,121.99L362.2,113.35L362.35,113.11L363.91,112.01L364.07,111.89L365.47,110.43L365.63,110.43L366.57,109.82L366.72,109.46L375.93,101.79L376.09,101.43L402.46,78.43L402.61,77.94L407.45,73.69L407.61,73.44L413.23,68.21L413.38,67.97L417.91,64.2L418.06,63.95L425.09,57.75L425.24,57.5L426.33,56.77L426.49,56.41L427.43,55.68L427.58,55.43L428.36,54.7L428.52,54.58L433.2,50.32L433.36,50.08L434.76,49.11L434.92,49.11L438.51,45.34L438.66,45.09L443.03,40.96L443.19,40.71L447.4,36.7L447.56,36.45L452.08,32.32L452.24,31.83L453.96,30.49L454.11,30.25L457.54,26.84L457.7,26.48L461.91,22.58L462.07,22.22L466.91,18.08L467.06,17.6L468,16.5" style="vector-effect: non-scaling-stroke; fill: none; stroke: rgb(31, 119, 180); stroke-opacity: 1; stroke-width: 2px; opacity: 1;"/></g><g class="points"/><g class="text"/></g><g class="trace scatter trace3b3e55" style="stroke-miterlimit: 2; opacity: 1;"><g class="fills"/><g class="errorbars"/><g class="lines"><path class="js-line" d="M0,313.5L0.96,308.02L0.97,308.02L1.93,302.67L1.95,302.67L4.31,279.19L4.31,278.95L5.05,268.24L5.06,268.24L5.07,268.24L7.5,196.09L7.5,195.84L8.25,175.28L8.26,175.16L8.52,160.19L8.53,160.19" style="vector-effect: non-scaling-stroke; fill: none; stroke: rgb(255, 127, 14); stroke-opacity: 1; stroke-width: 2px; opacity: 1;"/></g><g class="points"/><g class="text"/></g></g></g><g class="overplot"/><path class="xlines-above crisp" d="M0,0" style="fill: none;"/><path class="ylines-above crisp" d="M0,0" style="fill: none;"/><g class="overlines-above"/><g class="xaxislayer-above"><g class="xtick"><text text-anchor="middle" x="0" y="403" transform="translate(60,0)" style="font-family: 'Open Sans', verdana, arial, sans-serif; font-size: 12px; fill: rgb(68, 68, 68); fill-opacity: 1; white-space: pre;">0</text></g><g class="xtick"><text text-anchor="middle" x="0" y="403" transform="translate(138.03,0)" style="font-family: 'Open Sans', verdana, arial, sans-serif; font-size: 12px; fill: rgb(68, 68, 68); fill-opacity: 1; white-space: pre;">10k</text></g><g class="xtick"><text text-anchor="middle" x="0" y="403" transform="translate(216.05,0)" style="font-family: 'Open Sans', verdana, arial, sans-serif; font-size: 12px; fill: rgb(68, 68, 68); fill-opacity: 1; white-space: pre;">20k</text></g><g class="xtick"><text text-anchor="middle" x="0" y="403" transform="translate(294.08000000000004,0)" style="font-family: 'Open Sans', verdana, arial, sans-serif; font-size: 12px; fill: rgb(68, 68, 68); fill-opacity: 1; white-space: pre;">30k</text></g><g class="xtick"><text text-anchor="middle" x="0" y="403" transform="translate(372.1,0)" style="font-family: 'Open Sans', verdana, arial, sans-serif; font-size: 12px; fill: rgb(68, 68, 68); fill-opacity: 1; white-space: pre;">40k</text></g><g class="xtick"><text text-anchor="middle" x="0" y="403" transform="translate(450.13,0)" style="font-family: 'Open Sans', verdana, arial, sans-serif; font-size: 12px; fill: rgb(68, 68, 68); fill-opacity: 1; white-space: pre;">50k</text></g></g><g class="yaxislayer-above"><g class="ytick"><text text-anchor="end" x="59" y="4.199999999999999" transform="translate(0,373.5)" style="font-family: 'Open Sans', verdana, arial, sans-serif; font-size: 12px; fill: rgb(68, 68, 68); fill-opacity: 1; white-space: pre;">0</text></g><g class="ytick"><text text-anchor="end" x="59" y="4.199999999999999" transform="translate(0,324.83)" style="font-family: 'Open Sans', verdana, arial, sans-serif; font-size: 12px; fill: rgb(68, 68, 68); fill-opacity: 1; white-space: pre;">20</text></g><g class="ytick"><text text-anchor="end" x="59" y="4.199999999999999" transform="translate(0,276.15999999999997)" style="font-family: 'Open Sans', verdana, arial, sans-serif; font-size: 12px; fill: rgb(68, 68, 68); fill-opacity: 1; white-space: pre;">40</text></g><g class="ytick"><text text-anchor="end" x="59" y="4.199999999999999" transform="translate(0,227.49)" style="font-family: 'Open Sans', verdana, arial, sans-serif; font-size: 12px; fill: rgb(68, 68, 68); fill-opacity: 1; white-space: pre;">60</text></g><g class="ytick"><text text-anchor="end" x="59" y="4.199999999999999" transform="translate(0,178.82999999999998)" style="font-family: 'Open Sans', verdana, arial, sans-serif; font-size: 12px; fill: rgb(68, 68, 68); fill-opacity: 1; white-space: pre;">80</text></g><g class="ytick"><text text-anchor="end" x="59" y="4.199999999999999" transform="translate(0,130.16)" style="font-family: 'Open Sans', verdana, arial, sans-serif; font-size: 12px; fill: rgb(68, 68, 68); fill-opacity: 1; white-space: pre;">100</text></g><g class="ytick"><text text-anchor="end" x="59" y="4.199999999999999" transform="translate(0,81.49)" style="font-family: 'Open Sans', verdana, arial, sans-serif; font-size: 12px; fill: rgb(68, 68, 68); fill-opacity: 1; white-space: pre;">120</text></g></g><g class="overaxes-above"/></g></g><g class="polarlayer"/><g class="ternarylayer"/><g class="geolayer"/><g class="pielayer"/><g class="glimages"/><defs id="topdefs-f6e0cb"><g class="clips"/><clipPath id="legendf6e0cb"><rect width="151" height="48" x="0" y="0"/></clipPath></defs><g class="layer-above"><g class="imagelayer"/><g class="shapelayer"/></g><g class="infolayer"><g class="legend" pointer-events="all" transform="translate(537.36, 60)"><rect class="bg" shape-rendering="crispEdges" width="151" height="48" x="0" y="0" style="stroke: rgb(68, 68, 68); stroke-opacity: 1; fill: rgb(255, 255, 255); fill-opacity: 1; stroke-width: 0px;"/><g class="scrollbox" transform="translate(0, 0)" clip-path="url(#legendf6e0cb)"><g class="groups"><g class="traces" transform="translate(0, 14.5)" style="opacity: 1;"><g class="layers" style="opacity: 1;"><g class="legendfill"/><g class="legendlines"><path class="js-line" d="M5,0h30" style="fill: none; stroke: rgb(31, 119, 180); stroke-opacity: 1; stroke-width: 2px;"/></g><g class="legendsymbols"><g class="legendpoints"/></g></g><text class="legendtext user-select-none" text-anchor="start" x="40" y="4.680000000000001" style="font-family: 'Open Sans', verdana, arial, sans-serif; font-size: 12px; fill: rgb(68, 68, 68); fill-opacity: 1; white-space: pre;">Dyna-Q</text><rect class="legendtoggle" pointer-events="all" x="0" y="-9.5" width="191" height="19" style="cursor: pointer; fill: rgb(0, 0, 0); fill-opacity: 0;"/></g><g class="traces" transform="translate(0, 33.5)" style="opacity: 1;"><g class="layers" style="opacity: 1;"><g class="legendfill"/><g class="legendlines"><path class="js-line" d="M5,0h30" style="fill: none; stroke: rgb(255, 127, 14); stroke-opacity: 1; stroke-width: 2px;"/></g><g class="legendsymbols"><g class="legendpoints"/></g></g><text class="legendtext user-select-none" text-anchor="start" x="40" y="4.680000000000001" style="font-family: 'Open Sans', verdana, arial, sans-serif; font-size: 12px; fill: rgb(68, 68, 68); fill-opacity: 1; white-space: pre;">Priority Sweeping</text><rect class="legendtoggle" pointer-events="all" x="0" y="-9.5" width="191" height="19" style="cursor: pointer; fill: rgb(0, 0, 0); fill-opacity: 0;"/></g></g></g><rect class="scrollbar" rx="20" ry="3" width="0" height="0" x="0" y="0" style="fill: rgb(128, 139, 164); fill-opacity: 1;"/></g><g class="g-gtitle"><text class="gtitle" x="350" y="30" text-anchor="middle" dy="0em" style="font-family: 'Open Sans', verdana, arial, sans-serif; font-size: 17px; fill: rgb(68, 68, 68); opacity: 1; font-weight: normal; white-space: pre;">Cumulative Reward - Basic Maze</text></g><g class="g-xtitle"><text class="xtitle" x="294" y="442" text-anchor="middle" style="font-family: 'Open Sans', verdana, arial, sans-serif; font-size: 14px; fill: rgb(68, 68, 68); opacity: 1; font-weight: normal; white-space: pre;">Parameter Updates</text></g><g class="g-ytitle"/></g></svg>