<svg class="main-svg" xmlns="http://www.w3.org/2000/svg" xmlns:xlink="http://www.w3.org/1999/xlink" width="700" height="450" style="" viewBox="0 0 700 450"><rect x="0" y="0" width="700" height="450" style="fill: rgb(255, 255, 255); fill-opacity: 1;"/><defs id="defs-b58c00"><g class="clips"><clipPath id="clipb58c00xyplot" class="plotclip"><rect width="468" height="330"/></clipPath><clipPath class="axesclip" id="clipb58c00x"><rect x="60" y="0" width="468" height="450"/></clipPath><clipPath class="axesclip" id="clipb58c00y"><rect x="0" y="60" width="700" height="330"/></clipPath><clipPath class="axesclip" id="clipb58c00xy"><rect x="60" y="60" width="468" height="330"/></clipPath></g><g class="gradients"/></defs><g class="bglayer"/><g class="layer-below"><g class="imagelayer"/><g class="shapelayer"/></g><g class="cartesianlayer"><g class="subplot xy"><g class="layer-subplot"><g class="shapelayer"/><g class="imagelayer"/></g><g class="gridlayer"><g class="x"><path class="xgrid crisp" transform="translate(137.87,0)" d="M0,60v330" style="stroke: rgb(238, 238, 238); stroke-opacity: 1; stroke-width: 1px;"/><path class="xgrid crisp" transform="translate(215.9,0)" d="M0,60v330" style="stroke: rgb(238, 238, 238); stroke-opacity: 1; stroke-width: 1px;"/><path class="xgrid crisp" transform="translate(293.91999999999996,0)" d="M0,60v330" style="stroke: rgb(238, 238, 238); stroke-opacity: 1; stroke-width: 1px;"/><path class="xgrid crisp" transform="translate(371.95,0)" d="M0,60v330" style="stroke: rgb(238, 238, 238); stroke-opacity: 1; stroke-width: 1px;"/><path class="xgrid crisp" transform="translate(449.97,0)" d="M0,60v330" style="stroke: rgb(238, 238, 238); stroke-opacity: 1; stroke-width: 1px;"/></g><g class="y"><path class="ygrid crisp" transform="translate(0,307.61)" d="M60,0h468" style="stroke: rgb(238, 238, 238); stroke-opacity: 1; stroke-width: 1px;"/><path class="ygrid crisp" transform="translate(0,241.72)" d="M60,0h468" style="stroke: rgb(238, 238, 238); stroke-opacity: 1; stroke-width: 1px;"/><path class="ygrid crisp" transform="translate(0,175.82999999999998)" d="M60,0h468" style="stroke: rgb(238, 238, 238); stroke-opacity: 1; stroke-width: 1px;"/><path class="ygrid crisp" transform="translate(0,109.94)" d="M60,0h468" style="stroke: rgb(238, 238, 238); stroke-opacity: 1; stroke-width: 1px;"/></g></g><g class="zerolinelayer"><path class="yzl zl crisp" transform="translate(0,373.5)" d="M60,0h468" style="stroke: rgb(68, 68, 68); stroke-opacity: 1; stroke-width: 1px;"/></g><path class="xlines-below"/><path class="ylines-below"/><g class="overlines-below"/><g class="xaxislayer-below"/><g class="yaxislayer-below"/><g class="overaxes-below"/><g class="plot" transform="translate(60, 60)" clip-path="url(#clipb58c00xyplot)"><g class="scatterlayer mlayer"><g class="trace scatter trace29c5c6" style="stroke-miterlimit: 2; opacity: 1;"><g class="fills"/><g class="errorbars"/><g class="lines"><path class="js-line" d="M0,313.5L18.26,312.84L18.41,312.68L21.85,312.02L22,311.85L25.28,311.19L25.44,311.03L27.15,310.37L27.31,310.21L28.71,309.55L28.87,309.22L29.96,308.72L30.12,308.39L31.52,307.9L31.68,307.57L34.49,305.59L34.64,305.59L35.58,304.93L35.74,304.93L38.08,303.12L38.23,303.12L41.35,300.49L41.51,300.49L42.29,299.99L42.45,299.66L46.04,296.86L46.19,296.86L50.72,292.91L50.87,292.91L51.81,291.59L51.97,291.43L54.62,289.29L54.77,289.12L56.02,287.64L56.18,287.64L59.3,284.84L59.46,284.84L61.33,282.53L61.48,282.37L62.42,281.71L62.58,281.05L63.36,280.39L63.51,280.23L71.63,271L71.78,270.51L72.88,270.01L73.03,269.68L74.9,267.38L75.06,267.21L79.9,261.45L80.05,261.12L83.64,257.33L83.8,256.5L88.48,251.07L88.64,250.74L90.35,248.6L90.51,248.6L92.85,245.47L93.01,245.3L96.91,240.69L97.06,240.03L97.84,239.54L98,239.04L98.78,238.39L98.94,238.06L100.19,236.9L100.34,236.74L101.43,235.42L101.59,235.26L104.09,231.8L104.24,231.63L105.96,229.65L106.12,229.49L111.73,222.74L111.89,222.41L116.1,217.3L116.26,216.81L117.35,215.65L117.51,215.16L117.98,214.83L118.13,214.34L119.07,213.68L119.22,212.85L120.16,212.19L120.32,212.03L122.81,208.57L122.97,207.75L126.87,202.97L127.03,202.48L129.21,199.18L129.37,198.69L132.49,194.73L132.64,194.24L135.3,190.29L135.45,190.29L136.08,189.79L136.23,188.97L138.89,185.18L139.04,185.01L142.16,180.07L142.32,180.07L142.94,179.58L143.1,179.25L145.28,176.28L145.44,176.12L148.56,171.34L148.72,171.18L151.84,167.22L151.99,166.56L154.34,163.27L154.49,162.94L154.96,162.28L155.12,161.79L157.3,159.98L157.46,159.98L189.29,159.32L189.45,159.15L197.56,158.49L197.72,158.33L201.78,157.67L201.93,157.5L207.08,156.85L207.24,156.52L212.54,156.02L212.7,155.69L218,155.03L218.16,154.87L219.25,154.7L219.41,154.7L222.69,154.05L222.84,153.88L227.84,153.22L227.99,153.06L231.11,152.4L231.27,152.07L232.36,151.9L232.52,151.9L236.42,151.25L236.57,151.08L237.98,150.59L238.14,150.59L241.26,149.93L241.41,149.76L243.29,149.1L243.44,148.94L246.41,148.28L246.56,148.12L249.37,147.62L249.53,147.29L252.18,146.63L252.34,146.47L253.27,145.97L253.43,145.64L256.39,144.99L256.55,144.82L257.64,144.66L257.8,144.66L259.51,143.83L259.67,143.83L261.54,143.01L261.7,143.01L263.1,142.51L263.26,142.51L264.2,141.86L264.35,141.69L267.16,141.03L267.32,140.54L270.44,139.88L270.59,139.71L271.69,139.06L271.84,138.89L273.09,138.56L273.25,138.56L274.81,137.9L274.96,137.41L276.84,136.91L276.99,136.58L278.55,135.93L278.71,135.76L280.11,135.27L280.27,134.94L282.77,134.28L282.92,134.11L283.86,133.62L284.01,133.62L286.04,132.63L286.2,132.63L287.45,131.97L287.6,131.81L289.48,131.15L289.63,130.98L290.72,130.33L290.88,130.16L292.44,129.5L292.6,129.5L294.78,128.18L294.94,128.18L297.28,126.7L297.44,126.7L299.31,125.71L299.46,125.71L300.24,125.05L300.4,124.89L302.12,124.4L302.27,123.9L303.37,123.41L303.52,123.08L305.55,122.42L305.71,122.25L307.89,120.94L308.05,120.94L309.3,120.44L309.45,120.11L311.17,119.45L311.32,119.12L313.82,117.64L313.98,117.64L326.62,110.89L326.77,110.39L328.8,109.73L328.96,109.57L330.52,108.75L330.67,108.75L331.77,108.09L331.92,107.92L333.48,107.26L333.64,107.1L334.73,106.44L334.89,106.28L336.92,105.78L337.07,105.45L340.04,103.48L340.19,103.48L340.82,102.98L340.97,102.65L342.22,101.99L342.38,101.83L344.25,100.67L344.41,100.67L346.28,99.69L346.44,99.69L350.18,97.05L350.34,96.72L352.37,96.06L352.52,95.9L353.15,95.4L353.3,95.07L354.55,94.42L354.71,94.25L355.8,93.59L355.95,93.26L357.36,92.6L357.52,92.44L358.3,91.94L358.45,91.61L360.17,90.96L360.32,90.63L361.1,90.13L361.26,89.8L362.98,89.31L363.13,88.98L364.07,88.32L364.23,87.99L365.79,87.33L365.94,87.33L366.88,86.84L367.03,86.51L369.06,85.36L369.22,85.36L371.72,83.71L371.87,83.71L374.68,81.73L374.84,81.73L375.93,81.24L376.09,80.91L378.11,79.59L378.27,79.59L379.21,79.26L379.36,78.6L380.77,77.94L380.92,77.61L382.48,76.95L382.64,76.79L383.89,75.8L384.04,75.8L384.98,75.14L385.14,74.98L386.07,74.32L386.23,74.15L387.63,73.66L387.79,73.33L390.29,71.85L390.44,71.85L393.41,69.71L393.56,69.71L396.22,67.89L396.37,67.89L399.18,66.08L399.34,66.08L400.74,65.42L400.9,65.26L401.68,64.6L401.83,64.44L403.55,63.61L403.71,63.61L405.11,62.29L405.27,62.13L406.83,61.63L406.98,61.31L408.08,60.32L408.23,60.32L409.32,59.66L409.48,59.49L410.1,59L410.26,58.5L411.51,58.18L411.67,58.18L414.16,56.2L414.32,56.2L415.57,55.54L415.72,55.38L418.69,53.23L418.84,53.23L419.78,52.74L419.94,52.41L421.18,51.75L421.34,51.59L422.43,50.93L422.59,50.76L424.77,49.45L424.93,49.45L425.87,48.79L426.02,48.46L426.65,48.13L426.8,47.63L428.67,47.14L428.83,46.64L431.17,45.33L431.33,45.33L433.36,43.68L433.51,43.68L436.17,41.7L436.32,41.7L440.53,38.41L440.69,38.41L441.78,37.09L441.94,37.09L442.41,36.6L442.56,36.27L443.97,35.61L444.12,35.44L444.9,34.95L445.06,34.62L449.74,30.83L449.9,30.83L453.18,28.36L453.33,28.36L454.27,27.37L454.42,27.21L455.36,26.55L455.52,26.38L456.14,25.89L456.3,25.56L459.11,23.58L459.26,23.25L461.29,22.1L461.45,22.1L463.01,20.29L463.16,20.12L464.41,19.47L464.57,19.14L466.6,17.82L466.75,17.82L468,16.5" style="vector-effect: non-scaling-stroke; fill: none; stroke: rgb(31, 119, 180); stroke-opacity: 1; stroke-width: 2px; opacity: 1;"/></g><g class="points"/><g class="text"/></g><g class="trace scatter tracee61979" style="stroke-miterlimit: 2; opacity: 1;"><g class="fills"/><g class="errorbars"/><g class="lines"><path class="js-line" d="M0,313.5L36.98,312.84L37.14,312.68L48.38,312.02L48.53,311.85L60.08,311.19L60.24,311.03L64.61,310.37L64.76,310.21L67.88,309.55L68.04,309.38L70.54,308.89L70.69,308.89L77.71,308.23L77.87,308.06L83.64,307.41L83.8,307.24L91.45,306.58L91.6,306.42L95.35,305.76L95.5,305.59L98.47,304.93L98.62,304.77L99.72,304.6L99.87,304.6L101.43,303.95L101.59,303.95L102.99,303.45L103.15,303.45L105.65,301.97L105.8,301.97L107.52,301.15L107.68,301.15L110.02,300.49L110.17,300.16L112.51,299.5L112.67,299.17L114.85,298.51L115.01,298.18L117.2,297.52L117.35,297.19L119.22,296.53L119.38,296.37L120.94,295.71L121.1,295.71L123.13,294.39L123.28,294.39L124.69,293.9L124.84,293.9L126.09,292.91L126.25,292.91L126.87,292.25L127.03,292.09L128.74,291.43L128.9,291.26L130.62,290.6L130.77,290.44L132.8,289.29L132.96,289.29L134.2,288.63L134.36,288.46L137.01,286.81L137.17,286.81L138.42,286.16L138.57,285.99L141.38,284.18L141.54,284.18L142.63,283.52L142.79,283.36L144.97,281.87L145.13,281.87L147.31,280.55L147.47,280.55L148.41,279.9L148.56,279.73L150.75,278.58L150.9,278.58L153.71,276.44L153.87,276.44L155.12,275.94L155.27,275.45L165.1,274.79L165.26,274.62L189.29,273.97L189.45,273.8L190.54,273.64L190.7,273.64L231.43,272.98L231.58,272.81L261.39,272.15L261.54,271.99L276.06,271.33L276.21,271.17L309.3,270.51L309.45,270.34L317.88,269.68L318.03,269.52L328.02,268.86L328.18,268.69L334.58,268.04L334.73,267.87L343.94,267.21L344.09,267.05L351.12,266.39L351.27,266.22L356.58,265.56L356.73,265.4L358.14,264.91L358.3,264.91L362.04,264.25L362.2,264.08L366.41,263.42L366.57,263.26L369.22,262.6L369.38,262.44L373.9,261.78L374.06,261.61L376.24,261.28L376.4,261.28L377.8,260.79L377.96,260.79L382.48,260.13L382.64,259.96L387.17,259.31L387.32,259.14L390.6,258.48L390.75,258.32L391.85,258.15L392,258.15L395.44,257.49L395.59,257.33L397,256.83L397.15,256.83L399.96,256.18L400.12,256.01L403.71,255.35L403.86,255.19L405.11,254.86L405.27,254.86L408.54,254.2L408.7,254.03L411.98,253.38L412.13,253.21L413.38,252.88L413.54,252.88L415.41,252.39L415.57,252.06L420.09,251.4L420.25,251.23L422.74,250.57L422.9,250.57L424.31,250.08L424.46,250.08L427.74,249.42L427.89,249.26L430.7,248.6L430.86,248.43L433.82,247.77L433.98,247.61L436.01,247.12L436.17,246.79L439.91,246.13L440.07,245.96L443.5,245.3L443.66,245.14L446.93,244.15L447.09,244.15L450.05,243.66L450.21,243.33L453.49,242.67L453.64,242.5L454.74,242.34L454.89,242.34L457.08,241.68L457.23,241.51L460.51,240.86L460.67,240.69L461.6,240.36L461.76,240.2L462.85,240.03L463.01,240.03L464.88,239.04L465.04,239.04L467.38,238.39L467.53,238.22L468,238.22" style="vector-effect: non-scaling-stroke; fill: none; stroke: rgb(255, 127, 14); stroke-opacity: 1; stroke-width: 2px; opacity: 1;"/></g><g class="points"/><g class="text"/></g></g></g><g class="overplot"/><path class="xlines-above crisp" d="M0,0" style="fill: none;"/><path class="ylines-above crisp" d="M0,0" style="fill: none;"/><g class="overlines-above"/><g class="xaxislayer-above"><g class="xtick"><text text-anchor="middle" x="0" y="403" transform="translate(137.87,0)" style="font-family: 'Open Sans', verdana, arial, sans-serif; font-size: 12px; fill: rgb(68, 68, 68); fill-opacity: 1; white-space: pre;">500</text></g><g class="xtick"><text text-anchor="middle" x="0" y="403" transform="translate(215.9,0)" style="font-family: 'Open Sans', verdana, arial, sans-serif; font-size: 12px; fill: rgb(68, 68, 68); fill-opacity: 1; white-space: pre;">1000</text></g><g class="xtick"><text text-anchor="middle" x="0" y="403" transform="translate(293.91999999999996,0)" style="font-family: 'Open Sans', verdana, arial, sans-serif; font-size: 12px; fill: rgb(68, 68, 68); fill-opacity: 1; white-space: pre;">1500</text></g><g class="xtick"><text text-anchor="middle" x="0" y="403" transform="translate(371.95,0)" style="font-family: 'Open Sans', verdana, arial, sans-serif; font-size: 12px; fill: rgb(68, 68, 68); fill-opacity: 1; white-space: pre;">2000</text></g><g class="xtick"><text text-anchor="middle" x="0" y="403" transform="translate(449.97,0)" style="font-family: 'Open Sans', verdana, arial, sans-serif; font-size: 12px; fill: rgb(68, 68, 68); fill-opacity: 1; white-space: pre;">2500</text></g><g class="xtick"><text text-anchor="middle" x="0" y="403" transform="translate(528,0)" style="font-family: 'Open Sans', verdana, arial, sans-serif; font-size: 12px; fill: rgb(68, 68, 68); fill-opacity: 1; white-space: pre;">3000</text></g></g><g class="yaxislayer-above"><g class="ytick"><text text-anchor="end" x="59" y="4.199999999999999" transform="translate(0,373.5)" style="font-family: 'Open Sans', verdana, arial, sans-serif; font-size: 12px; fill: rgb(68, 68, 68); fill-opacity: 1; white-space: pre;">0</text></g><g class="ytick"><text text-anchor="end" x="59" y="4.199999999999999" transform="translate(0,307.61)" style="font-family: 'Open Sans', verdana, arial, sans-serif; font-size: 12px; fill: rgb(68, 68, 68); fill-opacity: 1; white-space: pre;">20</text></g><g class="ytick"><text text-anchor="end" x="59" y="4.199999999999999" transform="translate(0,241.72)" style="font-family: 'Open Sans', verdana, arial, sans-serif; font-size: 12px; fill: rgb(68, 68, 68); fill-opacity: 1; white-space: pre;">40</text></g><g class="ytick"><text text-anchor="end" x="59" y="4.199999999999999" transform="translate(0,175.82999999999998)" style="font-family: 'Open Sans', verdana, arial, sans-serif; font-size: 12px; fill: rgb(68, 68, 68); fill-opacity: 1; white-space: pre;">60</text></g><g class="ytick"><text text-anchor="end" x="59" y="4.199999999999999" transform="translate(0,109.94)" style="font-family: 'Open Sans', verdana, arial, sans-serif; font-size: 12px; fill: rgb(68, 68, 68); fill-opacity: 1; white-space: pre;">80</text></g></g><g class="overaxes-above"/></g></g><g class="polarlayer"/><g class="ternarylayer"/><g class="geolayer"/><g class="pielayer"/><g class="glimages"/><defs id="topdefs-b58c00"><g class="clips"/><clipPath id="legendb58c00"><rect width="151" height="48" x="0" y="0"/></clipPath></defs><g class="layer-above"><g class="imagelayer"/><g class="shapelayer"/></g><g class="infolayer"><g class="legend" pointer-events="all" transform="translate(537.36, 60)"><rect class="bg" shape-rendering="crispEdges" width="151" height="48" x="0" y="0" style="stroke: rgb(68, 68, 68); stroke-opacity: 1; fill: rgb(255, 255, 255); fill-opacity: 1; stroke-width: 0px;"/><g class="scrollbox" transform="translate(0, 0)" clip-path="url(#legendb58c00)"><g class="groups"><g class="traces" transform="translate(0, 14.5)" style="opacity: 1;"><g class="layers" style="opacity: 1;"><g class="legendfill"/><g class="legendlines"><path class="js-line" d="M5,0h30" style="fill: none; stroke: rgb(31, 119, 180); stroke-opacity: 1; stroke-width: 2px;"/></g><g class="legendsymbols"><g class="legendpoints"/></g></g><text class="legendtext user-select-none" text-anchor="start" x="40" y="4.680000000000001" style="font-family: 'Open Sans', verdana, arial, sans-serif; font-size: 12px; fill: rgb(68, 68, 68); fill-opacity: 1; white-space: pre;">Dyna-Q</text><rect class="legendtoggle" pointer-events="all" x="0" y="-9.5" width="191" height="19" style="cursor: pointer; fill: rgb(0, 0, 0); fill-opacity: 0;"/></g><g class="traces" transform="translate(0, 33.5)" style="opacity: 1;"><g class="layers" style="opacity: 1;"><g class="legendfill"/><g class="legendlines"><path class="js-line" d="M5,0h30" style="fill: none; stroke: rgb(255, 127, 14); stroke-opacity: 1; stroke-width: 2px;"/></g><g class="legendsymbols"><g class="legendpoints"/></g></g><text class="legendtext user-select-none" text-anchor="start" x="40" y="4.680000000000001" style="font-family: 'Open Sans', verdana, arial, sans-serif; font-size: 12px; fill: rgb(68, 68, 68); fill-opacity: 1; white-space: pre;">Priority Sweeping</text><rect class="legendtoggle" pointer-events="all" x="0" y="-9.5" width="191" height="19" style="cursor: pointer; fill: rgb(0, 0, 0); fill-opacity: 0;"/></g></g></g><rect class="scrollbar" rx="20" ry="3" width="0" height="0" x="0" y="0" style="fill: rgb(128, 139, 164); fill-opacity: 1;"/></g><g class="g-gtitle"><text class="gtitle" x="350" y="30" text-anchor="middle" dy="0em" style="font-family: 'Open Sans', verdana, arial, sans-serif; font-size: 17px; fill: rgb(68, 68, 68); opacity: 1; font-weight: normal; white-space: pre;">Cumulative Reward - Blocking Maze</text></g><g class="g-xtitle"/><g class="g-ytitle"/></g></svg>