<svg class="main-svg" xmlns="http://www.w3.org/2000/svg" xmlns:xlink="http://www.w3.org/1999/xlink" width="700" height="450" style="" viewBox="0 0 700 450"><rect x="0" y="0" width="700" height="450" style="fill: rgb(255, 255, 255); fill-opacity: 1;"/><defs id="defs-8aa3bd"><g class="clips"><clipPath id="clip8aa3bdxyplot" class="plotclip"><rect width="468" height="330"/></clipPath><clipPath class="axesclip" id="clip8aa3bdx"><rect x="60" y="0" width="468" height="450"/></clipPath><clipPath class="axesclip" id="clip8aa3bdy"><rect x="0" y="60" width="700" height="330"/></clipPath><clipPath class="axesclip" id="clip8aa3bdxy"><rect x="60" y="60" width="468" height="330"/></clipPath></g><g class="gradients"/></defs><g class="bglayer"/><g class="layer-below"><g class="imagelayer"/><g class="shapelayer"/></g><g class="cartesianlayer"><g class="subplot xy"><g class="layer-subplot"><g class="shapelayer"/><g class="imagelayer"/></g><g class="gridlayer"><g class="x"><path class="xgrid crisp" transform="translate(138.01,0)" d="M0,60v330" style="stroke: rgb(238, 238, 238); stroke-opacity: 1; stroke-width: 1px;"/><path class="xgrid crisp" transform="translate(216.03,0)" d="M0,60v330" style="stroke: rgb(238, 238, 238); stroke-opacity: 1; stroke-width: 1px;"/><path class="xgrid crisp" transform="translate(294.03999999999996,0)" d="M0,60v330" style="stroke: rgb(238, 238, 238); stroke-opacity: 1; stroke-width: 1px;"/><path class="xgrid crisp" transform="translate(372.05,0)" d="M0,60v330" style="stroke: rgb(238, 238, 238); stroke-opacity: 1; stroke-width: 1px;"/><path class="xgrid crisp" transform="translate(450.07,0)" d="M0,60v330" style="stroke: rgb(238, 238, 238); stroke-opacity: 1; stroke-width: 1px;"/></g><g class="y"><path class="ygrid crisp" transform="translate(0,320.19)" d="M60,0h468" style="stroke: rgb(238, 238, 238); stroke-opacity: 1; stroke-width: 1px;"/><path class="ygrid crisp" transform="translate(0,266.88)" d="M60,0h468" style="stroke: rgb(238, 238, 238); stroke-opacity: 1; stroke-width: 1px;"/><path class="ygrid crisp" transform="translate(0,213.56)" d="M60,0h468" style="stroke: rgb(238, 238, 238); stroke-opacity: 1; stroke-width: 1px;"/><path class="ygrid crisp" transform="translate(0,160.25)" d="M60,0h468" style="stroke: rgb(238, 238, 238); stroke-opacity: 1; stroke-width: 1px;"/><path class="ygrid crisp" transform="translate(0,106.94)" d="M60,0h468" style="stroke: rgb(238, 238, 238); stroke-opacity: 1; stroke-width: 1px;"/></g></g><g class="zerolinelayer"><path class="xzl zl crisp" transform="translate(60,0)" d="M0,60v330" style="stroke: rgb(68, 68, 68); stroke-opacity: 1; stroke-width: 1px;"/><path class="yzl zl crisp" transform="translate(0,373.5)" d="M60,0h468" style="stroke: rgb(68, 68, 68); stroke-opacity: 1; stroke-width: 1px;"/></g><path class="xlines-below"/><path class="ylines-below"/><g class="overlines-below"/><g class="xaxislayer-below"/><g class="yaxislayer-below"/><g class="overaxes-below"/><g class="plot" transform="translate(60, 60)" clip-path="url(#clip8aa3bdxyplot)"><g class="scatterlayer mlayer"><g class="trace scatter trace7ec706" style="stroke-miterlimit: 2; opacity: 1;"><g class="fills"/><g class="errorbars"/><g class="lines"><path class="js-line" d="M0,313.5L28.94,312.75L29.02,312.7L37.6,311.95L37.68,311.9L42.13,311.15L42.21,311.1L61.24,304.22L61.32,304.06L70.6,300.33L70.68,300.23L74.42,298.52L74.5,298.52L76.84,297.24L76.92,297.24L79.81,295.64L79.89,295.48L81.21,294.79L81.29,294.68L84.96,292.87L85.03,292.76L86.83,291.54L86.91,291.54L88.54,290.79L88.62,290.68L91.82,289.03L91.9,288.92L94.94,287.27L95.02,287.11L96.58,286.36L96.66,286.31L98.22,285.56L98.3,285.51L99.39,284.82L99.47,284.82L104.23,282.21L104.3,282.05L108.52,279.75L108.59,279.7L111.25,278.26L111.32,278.05L115.15,275.97L115.23,275.86L131.37,265.95L131.45,265.95L132.7,265.09L132.78,265.04L134.65,263.71L134.73,263.71L137.69,261.57L137.77,261.57L139.72,260.24L139.8,260.03L142.22,258.43L142.3,258.22L144.64,256.62L144.71,256.46L145.88,255.71L145.96,255.6L148.38,254.06L148.46,254L150.18,252.67L150.25,252.46L151.42,251.82L151.5,251.66L166.48,240.62L166.56,240.52L168.66,238.97L168.74,238.81L187.93,224.9L188.01,224.74L190.2,223.19L190.27,223.14L192.46,221.59L192.54,221.48L205.56,211.94L205.64,211.78L207.67,210.39L207.75,210.24L208.92,209.49L209,209.38L212.12,207.14L212.2,207.09L214.38,205.6L214.46,205.44L216.49,203.84L216.56,203.78L223.59,198.51L223.66,198.45L230.14,193.55L230.22,193.44L232.48,192L232.56,191.84L233.65,191.15L233.73,191.1L302.69,139.7L302.77,139.6L305.26,137.94L305.34,137.78L309.24,134.91L309.32,134.91L311.43,133.36L311.51,133.31L313.69,131.65L313.77,131.55L343.57,109L343.65,108.89L344.82,108.14L344.9,108.04L421.19,51.47L421.27,51.37L424.08,49.55L424.16,49.55L425.33,48.59L425.4,48.59L430.01,44.92L430.09,44.92L432.27,43.37L432.35,43.21L435.47,40.97L435.55,40.92L437.03,39.8L437.11,39.74L438.82,38.52L438.9,38.3L440.07,37.56L440.15,37.56L441.94,35.91L442.02,35.85L443.97,34.63L444.05,34.47L445.84,33.08L445.92,32.92L446.94,32.23L447.01,32.12L459.89,22.47L459.96,22.42L468,16.5" style="vector-effect: non-scaling-stroke; fill: none; stroke: rgb(31, 119, 180); stroke-opacity: 1; stroke-width: 2px; opacity: 1;"/></g><g class="points"/><g class="text"/></g><g class="trace scatter trace9ad7df" style="stroke-miterlimit: 2; opacity: 1;"><g class="fills"/><g class="errorbars"/><g class="lines"><path class="js-line" d="M0,313.5L0.75,309.5L0.76,309.5L2.05,298.95L2.05,298.95L2.06,298.84L2.8,292.02L2.81,292.02L2.82,291.96L3.74,283.01L3.74,282.9L4.49,267.39L4.5,267.33L4.87,261.52L4.87,261.41L5.49,239.56L5.49,239.45L6.24,113.85L6.25,113.79L6.31,105.85" style="vector-effect: non-scaling-stroke; fill: none; stroke: rgb(255, 127, 14); stroke-opacity: 1; stroke-width: 2px; opacity: 1;"/></g><g class="points"/><g class="text"/></g></g></g><g class="overplot"/><path class="xlines-above crisp" d="M0,0" style="fill: none;"/><path class="ylines-above crisp" d="M0,0" style="fill: none;"/><g class="overlines-above"/><g class="xaxislayer-above"><g class="xtick"><text text-anchor="middle" x="0" y="403" transform="translate(60,0)" style="font-family: 'Open Sans', verdana, arial, sans-serif; font-size: 12px; fill: rgb(68, 68, 68); fill-opacity: 1; white-space: pre;">0</text></g><g class="xtick"><text text-anchor="middle" x="0" y="403" transform="translate(138.01,0)" style="font-family: 'Open Sans', verdana, arial, sans-serif; font-size: 12px; fill: rgb(68, 68, 68); fill-opacity: 1; white-space: pre;">20k</text></g><g class="xtick"><text text-anchor="middle" x="0" y="403" transform="translate(216.03,0)" style="font-family: 'Open Sans', verdana, arial, sans-serif; font-size: 12px; fill: rgb(68, 68, 68); fill-opacity: 1; white-space: pre;">40k</text></g><g class="xtick"><text text-anchor="middle" x="0" y="403" transform="translate(294.03999999999996,0)" style="font-family: 'Open Sans', verdana, arial, sans-serif; font-size: 12px; fill: rgb(68, 68, 68); fill-opacity: 1; white-space: pre;">60k</text></g><g class="xtick"><text text-anchor="middle" x="0" y="403" transform="translate(372.05,0)" style="font-family: 'Open Sans', verdana, arial, sans-serif; font-size: 12px; fill: rgb(68, 68, 68); fill-opacity: 1; white-space: pre;">80k</text></g><g class="xtick"><text text-anchor="middle" x="0" y="403" transform="translate(450.07,0)" style="font-family: 'Open Sans', verdana, arial, sans-serif; font-size: 12px; fill: rgb(68, 68, 68); fill-opacity: 1; white-space: pre;">100k</text></g></g><g class="yaxislayer-above"><g class="ytick"><text text-anchor="end" x="59" y="4.199999999999999" transform="translate(0,373.5)" style="font-family: 'Open Sans', verdana, arial, sans-serif; font-size: 12px; fill: rgb(68, 68, 68); fill-opacity: 1; white-space: pre;">0</text></g><g class="ytick"><text text-anchor="end" x="59" y="4.199999999999999" transform="translate(0,320.19)" style="font-family: 'Open Sans', verdana, arial, sans-serif; font-size: 12px; fill: rgb(68, 68, 68); fill-opacity: 1; white-space: pre;">50</text></g><g class="ytick"><text text-anchor="end" x="59" y="4.199999999999999" transform="translate(0,266.88)" style="font-family: 'Open Sans', verdana, arial, sans-serif; font-size: 12px; fill: rgb(68, 68, 68); fill-opacity: 1; white-space: pre;">100</text></g><g class="ytick"><text text-anchor="end" x="59" y="4.199999999999999" transform="translate(0,213.56)" style="font-family: 'Open Sans', verdana, arial, sans-serif; font-size: 12px; fill: rgb(68, 68, 68); fill-opacity: 1; white-space: pre;">150</text></g><g class="ytick"><text text-anchor="end" x="59" y="4.199999999999999" transform="translate(0,160.25)" style="font-family: 'Open Sans', verdana, arial, sans-serif; font-size: 12px; fill: rgb(68, 68, 68); fill-opacity: 1; white-space: pre;">200</text></g><g class="ytick"><text text-anchor="end" x="59" y="4.199999999999999" transform="translate(0,106.94)" style="font-family: 'Open Sans', verdana, arial, sans-serif; font-size: 12px; fill: rgb(68, 68, 68); fill-opacity: 1; white-space: pre;">250</text></g></g><g class="overaxes-above"/></g></g><g class="polarlayer"/><g class="ternarylayer"/><g class="geolayer"/><g class="pielayer"/><g class="glimages"/><defs id="topdefs-8aa3bd"><g class="clips"/><clipPath id="legend8aa3bd"><rect width="151" height="48" x="0" y="0"/></clipPath></defs><g class="layer-above"><g class="imagelayer"/><g class="shapelayer"/></g><g class="infolayer"><g class="legend" pointer-events="all" transform="translate(537.36, 60)"><rect class="bg" shape-rendering="crispEdges" width="151" height="48" x="0" y="0" style="stroke: rgb(68, 68, 68); stroke-opacity: 1; fill: rgb(255, 255, 255); fill-opacity: 1; stroke-width: 0px;"/><g class="scrollbox" transform="translate(0, 0)" clip-path="url(#legend8aa3bd)"><g class="groups"><g class="traces" transform="translate(0, 14.5)" style="opacity: 1;"><g class="layers" style="opacity: 1;"><g class="legendfill"/><g class="legendlines"><path class="js-line" d="M5,0h30" style="fill: none; stroke: rgb(31, 119, 180); stroke-opacity: 1; stroke-width: 2px;"/></g><g class="legendsymbols"><g class="legendpoints"/></g></g><text class="legendtext user-select-none" text-anchor="start" x="40" y="4.680000000000001" style="font-family: 'Open Sans', verdana, arial, sans-serif; font-size: 12px; fill: rgb(68, 68, 68); fill-opacity: 1; white-space: pre;">Dyna-Q</text><rect class="legendtoggle" pointer-events="all" x="0" y="-9.5" width="191" height="19" style="cursor: pointer; fill: rgb(0, 0, 0); fill-opacity: 0;"/></g><g class="traces" transform="translate(0, 33.5)" style="opacity: 1;"><g class="layers" style="opacity: 1;"><g class="legendfill"/><g class="legendlines"><path class="js-line" d="M5,0h30" style="fill: none; stroke: rgb(255, 127, 14); stroke-opacity: 1; stroke-width: 2px;"/></g><g class="legendsymbols"><g class="legendpoints"/></g></g><text class="legendtext user-select-none" text-anchor="start" x="40" y="4.680000000000001" style="font-family: 'Open Sans', verdana, arial, sans-serif; font-size: 12px; fill: rgb(68, 68, 68); fill-opacity: 1; white-space: pre;">Priority Sweeping</text><rect class="legendtoggle" pointer-events="all" x="0" y="-9.5" width="191" height="19" style="cursor: pointer; fill: rgb(0, 0, 0); fill-opacity: 0;"/></g></g></g><rect class="scrollbar" rx="20" ry="3" width="0" height="0" x="0" y="0" style="fill: rgb(128, 139, 164); fill-opacity: 1;"/></g><g class="g-gtitle"><text class="gtitle" x="350" y="30" text-anchor="middle" dy="0em" style="font-family: 'Open Sans', verdana, arial, sans-serif; font-size: 17px; fill: rgb(68, 68, 68); opacity: 1; font-weight: normal; white-space: pre;">Cumulative Reward - Shortcut Maze</text></g><g class="g-xtitle"><text class="xtitle" x="294" y="442" text-anchor="middle" style="font-family: 'Open Sans', verdana, arial, sans-serif; font-size: 14px; fill: rgb(68, 68, 68); opacity: 1; font-weight: normal; white-space: pre;">Parameter Updates</text></g><g class="g-ytitle"/></g></svg>