<svg class="main-svg" xmlns="http://www.w3.org/2000/svg" xmlns:xlink="http://www.w3.org/1999/xlink" width="700" height="450" style="" viewBox="0 0 700 450"><rect x="0" y="0" width="700" height="450" style="fill: rgb(255, 255, 255); fill-opacity: 1;"/><defs id="defs-652356"><g class="clips"><clipPath id="clip652356xyplot" class="plotclip"><rect width="520" height="330"/></clipPath><clipPath class="axesclip" id="clip652356x"><rect x="60" y="0" width="520" height="450"/></clipPath><clipPath class="axesclip" id="clip652356y"><rect x="0" y="60" width="700" height="330"/></clipPath><clipPath class="axesclip" id="clip652356xy"><rect x="60" y="60" width="520" height="330"/></clipPath></g><g class="gradients"/></defs><g class="bglayer"/><g class="layer-below"><g class="imagelayer"/><g class="shapelayer"/></g><g class="cartesianlayer"><g class="subplot xy"><g class="layer-subplot"><g class="shapelayer"/><g class="imagelayer"/></g><g class="gridlayer"><g class="x"><path class="xgrid crisp" transform="translate(164,0)" d="M0,60v330" style="stroke: rgb(238, 238, 238); stroke-opacity: 1; stroke-width: 1px;"/><path class="xgrid crisp" transform="translate(268,0)" d="M0,60v330" style="stroke: rgb(238, 238, 238); stroke-opacity: 1; stroke-width: 1px;"/><path class="xgrid crisp" transform="translate(372,0)" d="M0,60v330" style="stroke: rgb(238, 238, 238); stroke-opacity: 1; stroke-width: 1px;"/><path class="xgrid crisp" transform="translate(476,0)" d="M0,60v330" style="stroke: rgb(238, 238, 238); stroke-opacity: 1; stroke-width: 1px;"/></g><g class="y"><path class="ygrid crisp" transform="translate(0,348.4)" d="M60,0h520" style="stroke: rgb(238, 238, 238); stroke-opacity: 1; stroke-width: 1px;"/><path class="ygrid crisp" transform="translate(0,275.19)" d="M60,0h520" style="stroke: rgb(238, 238, 238); stroke-opacity: 1; stroke-width: 1px;"/><path class="ygrid crisp" transform="translate(0,201.98)" d="M60,0h520" style="stroke: rgb(238, 238, 238); stroke-opacity: 1; stroke-width: 1px;"/><path class="ygrid crisp" transform="translate(0,128.76999999999998)" d="M60,0h520" style="stroke: rgb(238, 238, 238); stroke-opacity: 1; stroke-width: 1px;"/></g></g><g class="zerolinelayer"><path class="xzl zl crisp" transform="translate(60,0)" d="M0,60v330" style="stroke: rgb(68, 68, 68); stroke-opacity: 1; stroke-width: 1px;"/></g><path class="xlines-below"/><path class="ylines-below"/><g class="overlines-below"/><g class="xaxislayer-below"/><g class="yaxislayer-below"/><g class="overaxes-below"/><g class="plot" transform="translate(60, 60)" clip-path="url(#clip652356xyplot)"><g class="scatterlayer mlayer"><g class="trace scatter trace554414" style="stroke-miterlimit: 2; opacity: 1;"><g class="fills"/><g class="errorbars"/><g class="lines"><path class="js-line" d="M0,16.5L10.4,71.49L15.6,96.76L26,140.94L31.2,160.9L41.6,197.85L46.8,215.05L57.2,237.52L62.4,245.04L67.6,254.19L72.8,259.65L78,266.19L83.2,270.82L93.6,276.06L98.8,279.09L104,280.6L109.2,280.75L114.4,280.98L119.6,280.2L135.2,277.2L140.4,274.46L150.8,273.46L156,274.51L161.2,271.39L166.4,272.7L171.6,271.1L176.8,272.01L182,270.64L187.2,266.59L192.4,267.92L197.6,270.55L202.8,266.74L208,264L213.2,266.58L218.4,263.32L223.6,262.27L228.8,259.89L234,260.19L239.2,259.37L244.4,258.7L249.6,259.41L254.8,261.48L260,261.83L265.2,261.43L270.4,259.27L275.6,262.19L280.8,261.53L286,262.39L291.2,259.53L301.6,262.48L306.8,266.26L312,265.85L317.2,263.64L322.4,260.57L327.6,261.5L338,260.59L343.2,257.03L348.4,258.37L353.6,254.94L358.8,254.24L364,257.61L369.2,255.85L374.4,255.34L379.6,255.76L384.8,254.12L390,254.3L395.2,256.96L405.6,257.31L410.8,257.01L416,256.88L421.2,255.52L426.4,259.01L431.6,259.45L436.8,257.76L442,259.31L447.2,258.23L452.4,259.76L457.6,259.15L462.8,259.75L468,259.41L473.2,260.03L478.4,260.75L483.6,258.77L494,255.87L499.2,257.23L504.4,258.06L509.6,255.47L514.8,255.45L520,256.27" style="vector-effect: non-scaling-stroke; fill: none; stroke: rgb(31, 119, 180); stroke-opacity: 1; stroke-width: 2px; opacity: 1;"/></g><g class="points"/><g class="text"/></g><g class="trace scatter trace147966" style="stroke-miterlimit: 2; opacity: 1;"><g class="fills"/><g class="errorbars"/><g class="lines"><path class="js-line" d="M0,16.5L10.4,55.11L15.6,72.66L26,105.63L31.2,120.83L46.8,161.21L52,173.28L62.4,195.07L67.6,204.58L83.2,231.03L88.4,238.92L104,257.65L109.2,261.59L114.4,267.63L119.6,271.81L130,279.71L135.2,282.59L140.4,286.05L145.6,286.78L156,291.29L161.2,290.89L166.4,290.4L171.6,293.92L176.8,291.21L182,290.16L187.2,293.47L192.4,292.34L202.8,289.65L208,291.82L223.6,291.21L228.8,289.06L234,288.42L239.2,289.99L244.4,291.54L249.6,291.58L254.8,290.55L260,287.85L265.2,289.08L270.4,287.06L275.6,286.39L280.8,287.37L286,290.68L291.2,289.98L296.4,289.53L301.6,287.66L306.8,289.33L312,287.68L317.2,285.04L322.4,284.09L327.6,283.74L332.8,279.9L338,277.92L343.2,277.87L348.4,275.26L353.6,273.62L358.8,272.98L364,274.26L369.2,272.37L374.4,271.69L379.6,272.7L384.8,271.86L400.4,278.91L405.6,278.26L410.8,276.57L416,277.14L426.4,279.18L431.6,278.2L447.2,278.69L452.4,278.06L462.8,281.28L468,281.44L473.2,283.88L478.4,282.05L483.6,281.44L488.8,281.79L494,281.23L499.2,279.27L504.4,280.02L509.6,279.83L514.8,279.37L520,276.83" style="vector-effect: non-scaling-stroke; fill: none; stroke: rgb(255, 127, 14); stroke-opacity: 1; stroke-width: 2px; opacity: 1;"/></g><g class="points"/><g class="text"/></g><g class="trace scatter trace2c1991" style="stroke-miterlimit: 2; opacity: 1;"><g class="fills"/><g class="errorbars"/><g class="lines"><path class="js-line" d="M0,16.5L20.8,55.55L26,64.55L41.6,90.5L46.8,98.58L62.4,121.57L67.6,128.52L78,141.76L83.2,148.31L98.8,167.7L104,173.18L119.6,190.74L124.8,195.81L135.2,205.82L140.4,210.39L156,224.39L161.2,228.3L187.2,247.03L192.4,249.83L208,259.42L213.2,262.01L228.8,269.94L234,271.89L249.6,278.54L254.8,279.84L260,280.59L265.2,282.6L275.6,285.01L280.8,286.48L286,288.98L291.2,290.25L306.8,293.16L312,294.71L322.4,298.91L327.6,300.08L343.2,305.16L348.4,305.85L358.8,308.82L364,310.01L384.8,311.96L390,312.23L395.2,311.66L400.4,312.28L410.8,312.38L416,311.59L421.2,313.37L426.4,313.5L442,312.43L447.2,312.83L462.8,312.97L468,311.75L483.6,310.51L488.8,309.23L494,308.93L499.2,309.61L504.4,310.12L509.6,309.44L520,309.63" style="vector-effect: non-scaling-stroke; fill: none; stroke: rgb(44, 160, 44); stroke-opacity: 1; stroke-width: 2px; opacity: 1;"/></g><g class="points"/><g class="text"/></g></g></g><g class="overplot"/><path class="xlines-above crisp" d="M0,0" style="fill: none;"/><path class="ylines-above crisp" d="M0,0" style="fill: none;"/><g class="overlines-above"/><g class="xaxislayer-above"><g class="xtick"><text text-anchor="middle" x="0" y="403" transform="translate(60,0)" style="font-family: 'Open Sans', verdana, arial, sans-serif; font-size: 12px; fill: rgb(68, 68, 68); fill-opacity: 1; white-space: pre;">0</text></g><g class="xtick"><text text-anchor="middle" x="0" y="403" transform="translate(164,0)" style="font-family: 'Open Sans', verdana, arial, sans-serif; font-size: 12px; fill: rgb(68, 68, 68); fill-opacity: 1; white-space: pre;">20</text></g><g class="xtick"><text text-anchor="middle" x="0" y="403" transform="translate(268,0)" style="font-family: 'Open Sans', verdana, arial, sans-serif; font-size: 12px; fill: rgb(68, 68, 68); fill-opacity: 1; white-space: pre;">40</text></g><g class="xtick"><text text-anchor="middle" x="0" y="403" transform="translate(372,0)" style="font-family: 'Open Sans', verdana, arial, sans-serif; font-size: 12px; fill: rgb(68, 68, 68); fill-opacity: 1; white-space: pre;">60</text></g><g class="xtick"><text text-anchor="middle" x="0" y="403" transform="translate(476,0)" style="font-family: 'Open Sans', verdana, arial, sans-serif; font-size: 12px; fill: rgb(68, 68, 68); fill-opacity: 1; white-space: pre;">80</text></g><g class="xtick"><text text-anchor="middle" x="0" y="403" transform="translate(580,0)" style="font-family: 'Open Sans', verdana, arial, sans-serif; font-size: 12px; fill: rgb(68, 68, 68); fill-opacity: 1; white-space: pre;">100</text></g></g><g class="yaxislayer-above"><g class="ytick"><text text-anchor="end" x="59" y="4.199999999999999" transform="translate(0,348.4)" style="font-family: 'Open Sans', verdana, arial, sans-serif; font-size: 12px; fill: rgb(68, 68, 68); fill-opacity: 1; white-space: pre;">0.05</text></g><g class="ytick"><text text-anchor="end" x="59" y="4.199999999999999" transform="translate(0,275.19)" style="font-family: 'Open Sans', verdana, arial, sans-serif; font-size: 12px; fill: rgb(68, 68, 68); fill-opacity: 1; white-space: pre;">0.1</text></g><g class="ytick"><text text-anchor="end" x="59" y="4.199999999999999" transform="translate(0,201.98)" style="font-family: 'Open Sans', verdana, arial, sans-serif; font-size: 12px; fill: rgb(68, 68, 68); fill-opacity: 1; white-space: pre;">0.15</text></g><g class="ytick"><text text-anchor="end" x="59" y="4.199999999999999" transform="translate(0,128.76999999999998)" style="font-family: 'Open Sans', verdana, arial, sans-serif; font-size: 12px; fill: rgb(68, 68, 68); fill-opacity: 1; white-space: pre;">0.2</text></g></g><g class="overaxes-above"/></g></g><g class="polarlayer"/><g class="ternarylayer"/><g class="geolayer"/><g class="pielayer"/><g class="glimages"/><defs id="topdefs-652356"><g class="clips"/><clipPath id="legend652356"><rect width="98" height="67" x="0" y="0"/></clipPath></defs><g class="layer-above"><g class="imagelayer"/><g class="shapelayer"/></g><g class="infolayer"><g class="legend" pointer-events="all" transform="translate(590.4, 60)"><rect class="bg" shape-rendering="crispEdges" width="98" height="67" x="0" y="0" style="stroke: rgb(68, 68, 68); stroke-opacity: 1; fill: rgb(255, 255, 255); fill-opacity: 1; stroke-width: 0px;"/><g class="scrollbox" transform="translate(0, 0)" clip-path="url(#legend652356)"><g class="groups"><g class="traces" transform="translate(0, 14.5)" style="opacity: 1;"><g class="layers" style="opacity: 1;"><g class="legendfill"/><g class="legendlines"><path class="js-line" d="M5,0h30" style="fill: none; stroke: rgb(31, 119, 180); stroke-opacity: 1; stroke-width: 2px;"/></g><g class="legendsymbols"><g class="legendpoints"/></g></g><text class="legendtext user-select-none" text-anchor="start" x="40" y="4.680000000000001" style="font-family: 'Open Sans', verdana, arial, sans-serif; font-size: 12px; fill: rgb(68, 68, 68); fill-opacity: 1; white-space: pre;">⍺ = 0.15</text><rect class="legendtoggle" pointer-events="all" x="0" y="-9.5" width="138" height="19" style="cursor: pointer; fill: rgb(0, 0, 0); fill-opacity: 0;"/></g><g class="traces" transform="translate(0, 33.5)" style="opacity: 1;"><g class="layers" style="opacity: 1;"><g class="legendfill"/><g class="legendlines"><path class="js-line" d="M5,0h30" style="fill: none; stroke: rgb(255, 127, 14); stroke-opacity: 1; stroke-width: 2px;"/></g><g class="legendsymbols"><g class="legendpoints"/></g></g><text class="legendtext user-select-none" text-anchor="start" x="40" y="4.680000000000001" style="font-family: 'Open Sans', verdana, arial, sans-serif; font-size: 12px; fill: rgb(68, 68, 68); fill-opacity: 1; white-space: pre;">⍺ = 0.1</text><rect class="legendtoggle" pointer-events="all" x="0" y="-9.5" width="138" height="19" style="cursor: pointer; fill: rgb(0, 0, 0); fill-opacity: 0;"/></g><g class="traces" transform="translate(0, 52.5)" style="opacity: 1;"><g class="layers" style="opacity: 1;"><g class="legendfill"/><g class="legendlines"><path class="js-line" d="M5,0h30" style="fill: none; stroke: rgb(44, 160, 44); stroke-opacity: 1; stroke-width: 2px;"/></g><g class="legendsymbols"><g class="legendpoints"/></g></g><text class="legendtext user-select-none" text-anchor="start" x="40" y="4.680000000000001" style="font-family: 'Open Sans', verdana, arial, sans-serif; font-size: 12px; fill: rgb(68, 68, 68); fill-opacity: 1; white-space: pre;">⍺ = 0.05</text><rect class="legendtoggle" pointer-events="all" x="0" y="-9.5" width="138" height="19" style="cursor: pointer; fill: rgb(0, 0, 0); fill-opacity: 0;"/></g></g></g><rect class="scrollbar" rx="20" ry="3" width="0" height="0" x="0" y="0" style="fill: rgb(128, 139, 164); fill-opacity: 1;"/></g><g class="g-gtitle"><text class="gtitle" x="350" y="30" text-anchor="middle" dy="0em" style="font-family: 'Open Sans', verdana, arial, sans-serif; font-size: 17px; fill: rgb(68, 68, 68); opacity: 1; font-weight: normal; white-space: pre;">RMS Error</text></g><g class="g-xtitle"/><g class="g-ytitle"/></g></svg>