<svg class="main-svg" xmlns="http://www.w3.org/2000/svg" xmlns:xlink="http://www.w3.org/1999/xlink" width="700" height="450" style="" viewBox="0 0 700 450"><rect x="0" y="0" width="700" height="450" style="fill: rgb(255, 255, 255); fill-opacity: 1;"/><defs id="defs-0994b8"><g class="clips"><clipPath id="clip0994b8xyplot" class="plotclip"><rect width="543" height="330"/></clipPath><clipPath class="axesclip" id="clip0994b8x"><rect x="60" y="0" width="543" height="450"/></clipPath><clipPath class="axesclip" id="clip0994b8y"><rect x="0" y="60" width="700" height="330"/></clipPath><clipPath class="axesclip" id="clip0994b8xy"><rect x="60" y="60" width="543" height="330"/></clipPath><clipPath class="contourclip" id="clip9cfff1"><path d="M0,0L543,0L543,330L0,330Z"/></clipPath></g><g class="gradients"/></defs><g class="bglayer"/><g class="layer-below"><g class="imagelayer"/><g class="shapelayer"/></g><g class="cartesianlayer"><g class="subplot xy"><g class="layer-subplot"><g class="shapelayer"/><g class="imagelayer"/></g><g class="gridlayer"><g class="x"><path class="xgrid crisp" transform="translate(195.75,0)" d="M0,60v330" style="stroke: rgb(238, 238, 238); stroke-opacity: 1; stroke-width: 1px;"/><path class="xgrid crisp" transform="translate(331.5,0)" d="M0,60v330" style="stroke: rgb(238, 238, 238); stroke-opacity: 1; stroke-width: 1px;"/><path class="xgrid crisp" transform="translate(467.25,0)" d="M0,60v330" style="stroke: rgb(238, 238, 238); stroke-opacity: 1; stroke-width: 1px;"/></g><g class="y"><path class="ygrid crisp" transform="translate(0,307.5)" d="M60,0h543" style="stroke: rgb(238, 238, 238); stroke-opacity: 1; stroke-width: 1px;"/><path class="ygrid crisp" transform="translate(0,225)" d="M60,0h543" style="stroke: rgb(238, 238, 238); stroke-opacity: 1; stroke-width: 1px;"/><path class="ygrid crisp" transform="translate(0,142.5)" d="M60,0h543" style="stroke: rgb(238, 238, 238); stroke-opacity: 1; stroke-width: 1px;"/></g></g><g class="zerolinelayer"><path class="xzl zl crisp" transform="translate(60,0)" d="M0,60v330" style="stroke: rgb(68, 68, 68); stroke-opacity: 1; stroke-width: 1px;"/><path class="yzl zl crisp" transform="translate(0,390)" d="M60,0h543" style="stroke: rgb(68, 68, 68); stroke-opacity: 1; stroke-width: 1px;"/></g><path class="xlines-below"/><path class="ylines-below"/><g class="overlines-below"/><g class="xaxislayer-below"/><g class="yaxislayer-below"/><g class="overaxes-below"/><g class="plot" transform="translate(60, 60)" clip-path="url(#clip0994b8xyplot)"><g class="contourlayer mlayer"><g class="contour" clip-path="url(#clip9cfff1)" style="opacity: 1;"><g class="heatmapcoloring"/><g class="contourbg"><path d="M0,0L543,0L543,330L0,330Z" style="stroke: none; fill: rgb(68, 1, 84);"/></g><g class="contourfill"><path d="M17.25,330L0,319.4L0,0L543,0L543,330Z" style="stroke: none; fill: rgb(72, 33, 114);"/><path d="M72.69,330Q59.36,322.1 54.3,319.05C50.73,316.9 48.72,315.7 45.18,313.5C40.17,310.38 31.92,305.09 27.15,302.04C24,300.02 22.48,299.12 19.31,297Q14.28,293.64 0,283.63L0,0L543,0L543,330Z" style="stroke: none; fill: rgb(67, 62, 133);"/><path d="M131.83,330Q113.96,320.26 108.6,317.25C105.74,315.65 104.85,315.13 102.07,313.5C97.11,310.59 86.41,304.15 81.45,301.12C78.62,299.39 77.63,298.81 74.83,297C69.85,293.78 58.48,286.06 54.3,283.23C52.45,281.98 52.17,281.82 50.32,280.5C45.83,277.3 35.02,269.26 27.57,263.685C20.31,258.26 11.17,251.27 6.18,247.5Q3.5,245.47 0,242.82L0,0L543,0L543,330Z" style="stroke: none; fill: rgb(56, 88, 140);"/><path d="M198.1,330Q193.5,327.8 190.05,326.11C183.79,323.05 172.62,317.72 163.7,313.08500000000004C154.29,308.19 144.36,302.84 135,297.43C125.78,292.11 116.6,286.61 107.94,280.91999999999996C99.61,275.45 87.82,266.86 83.94,264C82.67,263.06 82.67,263.02 81.45,262.08C78.1,259.49 67.62,251.38 62.61,247.5C59.28,244.92 57.38,243.45 54.3,241.07C50.43,238.09 45.66,234.42 41.22,231C36.62,227.45 31.08,223.19 27.15,220.16C24.31,217.97 22.86,216.85 19.82,214.5Q14.82,210.64 0,199.2L0,0L543,0L543,330Z" style="stroke: none; fill: rgb(45, 111, 142);"/><path d="M270.07,330Q250.68,320.75 244.35,317.72C240.64,315.95 238.99,315.16 235.52,313.5C230.52,311.11 223.08,307.59 217.2,304.75C211.73,302.1 206.2,299.45 201.38,297C197.27,294.91 194.3,293.33 190.05,291.04C184.5,288.05 175.96,283.42 170.98,280.5C167.69,278.57 166.1,277.53 162.9,275.5C158.12,272.47 150.11,267.36 145.16,264C141.5,261.51 139.14,259.77 135.75,257.31C131.7,254.37 126.97,250.89 122.53,247.5C117.92,243.98 112.47,239.61 108.6,236.57C105.84,234.4 104.48,233.34 101.5,231C96.43,227.02 87.88,220.32 80.975,214.875C73.93,209.32 64.38,201.75 59.64,198C57.27,196.12 56.54,195.55 54.3,193.77C50.48,190.74 43.62,185.3 38.83,181.5C34.66,178.19 30.8,175.13 27.15,172.23C23.92,169.67 21.59,167.82 18.04,165Q13.04,161.03 0,150.67L0,0L543,0L543,330Z" style="stroke: none; fill: rgb(37, 134, 142);"/><path d="M349.97,330Q332.36,321.82 325.8,318.78C321.3,316.69 318.52,315.4 314.42,313.5C309.59,311.26 304.2,308.76 298.65,306.18C292.43,303.29 283.88,299.31 278.88,297C275.83,295.59 274.73,295.13 271.5,293.62C265.25,290.71 253.21,285.35 244.095,280.63C234.69,275.75 225.07,270.29 215.945,264.74C206.98,259.29 198.12,253.44 189.81,247.66500000000002C181.94,242.19 171.85,234.47 167.27,231C165.23,229.46 164.81,229.11 162.9,227.6C159.2,224.66 151.57,218.44 146.7,214.5C142.69,211.26 139.27,208.48 135.75,205.64C132.48,203 129.94,200.95 126.3,198C121.32,193.97 111.9,186.33 108.6,183.66C107.32,182.62 107.24,182.56 105.94,181.5C102.36,178.58 90.06,168.5 85.8,165C83.82,163.37 83.35,162.98 81.45,161.42C77.85,158.45 70.62,152.48 65.81,148.5C61.68,145.09 57.84,141.92 54.3,138.99C51.26,136.48 49.23,134.81 45.84,132C40.71,127.76 32.97,121.47 26.53,116.02000000000001C19.97,110.47 11.72,103.25 6.86,99Q3.98,96.48 0,92.95L0,0L543,0L543,330Z" style="stroke: none; fill: rgb(32, 155, 137);"/><path d="M440.95,330Q437.33,328.4 434.4,327.1C428.44,324.45 411.97,317.13 407.25,315.02C405.58,314.27 405.51,314.24 403.87,313.5C399.53,311.55 386.83,305.84 380.1,302.82C375.13,300.59 371.56,298.97 367.14,297C362.52,294.94 358.25,293.07 352.95,290.72C346.18,287.73 334.39,282.56 329.85,280.5C327.94,279.63 327.75,279.54 325.8,278.61C320.6,276.12 306.52,269.56 297.34,264.66999999999996C288.43,259.92 276.22,252.53 271.5,249.74C269.7,248.68 269.55,248.62 267.8,247.5C263.27,244.61 251.6,236.93 243.76999999999998,231.4C236.02,225.93 225.44,217.85 221.04,214.5C219.21,213.11 218.93,212.87 217.2,211.51C213.56,208.64 205.25,201.99 200.33,198C196.47,194.87 193.41,192.37 190.05,189.58C186.79,186.87 184.19,184.64 180.47,181.5C175.3,177.13 168.23,171.19 161.91500000000002,165.82999999999998C155.3,160.21 146.37,152.55 141.64,148.5C139.09,146.31 138.11,145.47 135.75,143.44C132.21,140.39 126.93,135.85 122.45,132C117.88,128.07 112.13,123.13 108.6,120.09C106.41,118.2 105.6,117.51 103.28,115.5C98.89,111.7 87.75,102.06 84.24,99C82.89,97.83 82.76,97.71 81.45,96.56C78.3,93.8 70.29,86.76 65.43,82.5C61.38,78.95 57.65,75.7 54.3,72.74C51.52,70.29 49.8,68.76 46.7,66C41.79,61.62 33.77,54.63 27.71,48.989999999999995C21.95,43.63 16.11,37.83 11.14,33Q7.05,29.03 0,22.09L0,0L543,0L543,330Z" style="stroke: none; fill: rgb(43, 176, 126);"/><path d="M543,327.85Q521.8,318.84 515.85,316.3C512.93,315.05 512.11,314.69 509.33,313.5C504.38,311.38 495.33,307.5 488.7,304.66C482.53,302.02 475.81,299.12 470.82,297C467.23,295.47 465.48,294.75 461.55,293.08C454.67,290.16 442.41,284.98 433.17499999999995,281.025C424.33,277.24 414.5,272.97 407.25,269.84C402.02,267.58 398.22,266.07 393.73,264C389.17,261.9 385.02,259.77 380.1,257.3C374.25,254.36 365.93,250.22 360.95,247.5C357.68,245.72 356.2,244.77 352.95,242.85C347.84,239.82 338.3,234.16 333.32,231C330.2,229.02 328.79,228.01 325.8,225.98C321.33,222.95 314.02,217.98 309.13,214.5C305.21,211.71 302.22,209.45 298.65,206.78C294.87,203.96 291.18,201.19 287.05,198C282.23,194.28 275.31,188.77 271.5,185.74C269.28,183.97 268.57,183.4 266.24,181.5C261.57,177.69 252.03,169.84 245.32,164.18C239.01,158.85 232.26,152.95 227.11,148.5C223.3,145.21 220.41,142.72 217.2,139.9C214.15,137.22 211.8,135.11 208.31,132C203.28,127.52 196.03,121.1 189.945,115.595C183.87,110.1 176.82,103.57 171.84,99C168.34,95.79 165.89,93.54 162.9,90.8C159.89,88.04 157.38,85.74 153.85,82.5C148.86,77.93 141.77,71.47 135.81,65.945C129.9,60.47 123.22,54.16 118.24,49.5C114.55,46.05 111.66,43.35 108.6,40.48C105.82,37.87 103.84,36.01 100.64,33C95.78,28.43 88.22,21.34 82.285,15.7Q76.66,10.35 65.92,0L543,0Z" style="stroke: none; fill: rgb(81, 196, 105);"/><path d="M543,275.17Q524.39,267.93 515.255,264.24C506.29,260.62 496.01,256.35 488.7,253.25C483.52,251.05 479.91,249.58 475.48,247.5C470.87,245.34 466.49,243.01 461.55,240.48C455.88,237.57 448.34,233.76 443.37,231C439.83,229.03 437.91,227.81 434.4,225.7C429.35,222.67 420.99,217.68 416.01,214.5C412.53,212.27 410.57,210.88 407.25,208.62C402.83,205.61 396.63,201.4 391.87,198C387.66,194.99 383.89,192.14 380.1,189.31C376.54,186.65 373.63,184.47 369.79,181.5C364.84,177.67 356.6,171.09 352.95,168.17C351.18,166.76 350.83,166.48 349.03,165C344.96,161.66 333.17,151.79 329.28,148.5C327.64,147.11 327.37,146.88 325.8,145.52C322.47,142.64 315.08,136.2 310.28,132C306.12,128.36 302.03,124.76 298.65,121.76C296.02,119.42 294.56,118.11 291.65,115.5C286.82,111.16 278.59,103.81 272.43,98.14500000000001C266.63,92.82 260.73,87.22 255.69,82.5C251.54,78.61 247.54,74.88 244.35,71.85C242,69.62 240.79,68.45 238.25,66C234,61.9 224.94,53.19 221.24,49.5C219.41,47.67 218.9,47.1 217.2,45.35C214.27,42.33 209.49,37.39 205.24,33C200.39,27.99 194.86,22.35 189.655,16.905Q184.35,11.36 173.72,0L543,0Z" style="stroke: none; fill: rgb(134, 212, 74);"/><path d="M543,207.21Q531.03,200.81 526.12,198C522.25,195.78 519.6,194.2 515.85,191.83C511.17,188.87 505.08,184.79 500.3,181.5C496.12,178.62 492.5,176 488.7,173.22C484.97,170.49 481.69,168.06 477.69,165C472.8,161.26 465.33,155.33 461.55,152.33C459.49,150.69 458.91,150.24 456.79,148.5C452.44,144.94 440.57,134.99 437.05,132C435.75,130.9 435.65,130.8 434.4,129.71C431.3,127 423.15,119.83 418.3,115.5C414.26,111.9 410.53,108.54 407.25,105.56C404.6,103.15 403,101.69 400.1,99C395.52,94.76 385.66,85.52 382.5,82.5C381.32,81.38 381.23,81.27 380.1,80.16C377.33,77.43 370.42,70.64 365.8,66C361.39,61.57 355.83,55.87 352.95,52.92C351.48,51.41 351.11,51.09 349.63,49.5C346.44,46.08 339.12,38.15 334.89,33C331.4,28.75 328.1,23.99 325.8,20.96C324.4,19.11 323.89,18.46 322.4,16.5Q319.54,12.74 309.92,0L543,0Z" style="stroke: none; fill: rgb(194, 223, 37);"/><path d="M543,70.98Q539.9,68.17 537.67,66C533.71,62.13 525.46,53.82 521.51,49.5C519.08,46.85 517.85,45.34 515.85,42.89C513.44,39.95 510.78,36.8 508.13,33C504.83,28.27 500.97,22.08 497.86,16.5Q494.84,11.07 489.69,0L543,0Z" style="stroke: none; fill: rgb(253, 231, 37);"/></g><g class="contourlines"><g class="contourlevel"><path class="openline" d="M17.25,330L0,319.4" style="stroke-miterlimit: 1; vector-effect: non-scaling-stroke; fill: none; stroke: rgb(0, 0, 0); stroke-opacity: 1; stroke-width: 0.5px;"/></g><g class="contourlevel"><path class="openline" d="M72.69,330Q59.36,322.1 54.3,319.05C50.73,316.9 48.72,315.7 45.18,313.5C40.17,310.38 31.92,305.09 27.15,302.04C24,300.02 22.48,299.12 19.31,297Q14.28,293.64 0,283.63" style="stroke-miterlimit: 1; vector-effect: non-scaling-stroke; fill: none; stroke: rgb(0, 0, 0); stroke-opacity: 1; stroke-width: 0.5px;"/></g><g class="contourlevel"><path class="openline" d="M131.83,330Q113.96,320.26 108.6,317.25C105.74,315.65 104.85,315.13 102.07,313.5C97.11,310.59 86.41,304.15 81.45,301.12C78.62,299.39 77.63,298.81 74.83,297C69.85,293.78 58.48,286.06 54.3,283.23C52.45,281.98 52.17,281.82 50.32,280.5C45.83,277.3 35.02,269.26 27.57,263.685C20.31,258.26 11.17,251.27 6.18,247.5Q3.5,245.47 0,242.82" style="stroke-miterlimit: 1; vector-effect: non-scaling-stroke; fill: none; stroke: rgb(0, 0, 0); stroke-opacity: 1; stroke-width: 0.5px;"/></g><g class="contourlevel"><path class="openline" d="M198.1,330Q193.5,327.8 190.05,326.11C183.79,323.05 172.62,317.72 163.7,313.08500000000004C154.29,308.19 144.36,302.84 135,297.43C125.78,292.11 116.6,286.61 107.94,280.91999999999996C99.61,275.45 87.82,266.86 83.94,264C82.67,263.06 82.67,263.02 81.45,262.08C78.1,259.49 67.62,251.38 62.61,247.5C59.28,244.92 57.38,243.45 54.3,241.07C50.43,238.09 45.66,234.42 41.22,231C36.62,227.45 31.08,223.19 27.15,220.16C24.31,217.97 22.86,216.85 19.82,214.5Q14.82,210.64 0,199.2" style="stroke-miterlimit: 1; vector-effect: non-scaling-stroke; fill: none; stroke: rgb(0, 0, 0); stroke-opacity: 1; stroke-width: 0.5px;"/></g><g class="contourlevel"><path class="openline" d="M270.07,330Q250.68,320.75 244.35,317.72C240.64,315.95 238.99,315.16 235.52,313.5C230.52,311.11 223.08,307.59 217.2,304.75C211.73,302.1 206.2,299.45 201.38,297C197.27,294.91 194.3,293.33 190.05,291.04C184.5,288.05 175.96,283.42 170.98,280.5C167.69,278.57 166.1,277.53 162.9,275.5C158.12,272.47 150.11,267.36 145.16,264C141.5,261.51 139.14,259.77 135.75,257.31C131.7,254.37 126.97,250.89 122.53,247.5C117.92,243.98 112.47,239.61 108.6,236.57C105.84,234.4 104.48,233.34 101.5,231C96.43,227.02 87.88,220.32 80.975,214.875C73.93,209.32 64.38,201.75 59.64,198C57.27,196.12 56.54,195.55 54.3,193.77C50.48,190.74 43.62,185.3 38.83,181.5C34.66,178.19 30.8,175.13 27.15,172.23C23.92,169.67 21.59,167.82 18.04,165Q13.04,161.03 0,150.67" style="stroke-miterlimit: 1; vector-effect: non-scaling-stroke; fill: none; stroke: rgb(0, 0, 0); stroke-opacity: 1; stroke-width: 0.5px;"/></g><g class="contourlevel"><path class="openline" d="M349.97,330Q332.36,321.82 325.8,318.78C321.3,316.69 318.52,315.4 314.42,313.5C309.59,311.26 304.2,308.76 298.65,306.18C292.43,303.29 283.88,299.31 278.88,297C275.83,295.59 274.73,295.13 271.5,293.62C265.25,290.71 253.21,285.35 244.095,280.63C234.69,275.75 225.07,270.29 215.945,264.74C206.98,259.29 198.12,253.44 189.81,247.66500000000002C181.94,242.19 171.85,234.47 167.27,231C165.23,229.46 164.81,229.11 162.9,227.6C159.2,224.66 151.57,218.44 146.7,214.5C142.69,211.26 139.27,208.48 135.75,205.64C132.48,203 129.94,200.95 126.3,198C121.32,193.97 111.9,186.33 108.6,183.66C107.32,182.62 107.24,182.56 105.94,181.5C102.36,178.58 90.06,168.5 85.8,165C83.82,163.37 83.35,162.98 81.45,161.42C77.85,158.45 70.62,152.48 65.81,148.5C61.68,145.09 57.84,141.92 54.3,138.99C51.26,136.48 49.23,134.81 45.84,132C40.71,127.76 32.97,121.47 26.53,116.02000000000001C19.97,110.47 11.72,103.25 6.86,99Q3.98,96.48 0,92.95" style="stroke-miterlimit: 1; vector-effect: non-scaling-stroke; fill: none; stroke: rgb(0, 0, 0); stroke-opacity: 1; stroke-width: 0.5px;"/></g><g class="contourlevel"><path class="openline" d="M440.95,330Q437.33,328.4 434.4,327.1C428.44,324.45 411.97,317.13 407.25,315.02C405.58,314.27 405.51,314.24 403.87,313.5C399.53,311.55 386.83,305.84 380.1,302.82C375.13,300.59 371.56,298.97 367.14,297C362.52,294.94 358.25,293.07 352.95,290.72C346.18,287.73 334.39,282.56 329.85,280.5C327.94,279.63 327.75,279.54 325.8,278.61C320.6,276.12 306.52,269.56 297.34,264.66999999999996C288.43,259.92 276.22,252.53 271.5,249.74C269.7,248.68 269.55,248.62 267.8,247.5C263.27,244.61 251.6,236.93 243.76999999999998,231.4C236.02,225.93 225.44,217.85 221.04,214.5C219.21,213.11 218.93,212.87 217.2,211.51C213.56,208.64 205.25,201.99 200.33,198C196.47,194.87 193.41,192.37 190.05,189.58C186.79,186.87 184.19,184.64 180.47,181.5C175.3,177.13 168.23,171.19 161.91500000000002,165.82999999999998C155.3,160.21 146.37,152.55 141.64,148.5C139.09,146.31 138.11,145.47 135.75,143.44C132.21,140.39 126.93,135.85 122.45,132C117.88,128.07 112.13,123.13 108.6,120.09C106.41,118.2 105.6,117.51 103.28,115.5C98.89,111.7 87.75,102.06 84.24,99C82.89,97.83 82.76,97.71 81.45,96.56C78.3,93.8 70.29,86.76 65.43,82.5C61.38,78.95 57.65,75.7 54.3,72.74C51.52,70.29 49.8,68.76 46.7,66C41.79,61.62 33.77,54.63 27.71,48.989999999999995C21.95,43.63 16.11,37.83 11.14,33Q7.05,29.03 0,22.09" style="stroke-miterlimit: 1; vector-effect: non-scaling-stroke; fill: none; stroke: rgb(0, 0, 0); stroke-opacity: 1; stroke-width: 0.5px;"/></g><g class="contourlevel"><path class="openline" d="M543,327.85Q521.8,318.84 515.85,316.3C512.93,315.05 512.11,314.69 509.33,313.5C504.38,311.38 495.33,307.5 488.7,304.66C482.53,302.02 475.81,299.12 470.82,297C467.23,295.47 465.48,294.75 461.55,293.08C454.67,290.16 442.41,284.98 433.17499999999995,281.025C424.33,277.24 414.5,272.97 407.25,269.84C402.02,267.58 398.22,266.07 393.73,264C389.17,261.9 385.02,259.77 380.1,257.3C374.25,254.36 365.93,250.22 360.95,247.5C357.68,245.72 356.2,244.77 352.95,242.85C347.84,239.82 338.3,234.16 333.32,231C330.2,229.02 328.79,228.01 325.8,225.98C321.33,222.95 314.02,217.98 309.13,214.5C305.21,211.71 302.22,209.45 298.65,206.78C294.87,203.96 291.18,201.19 287.05,198C282.23,194.28 275.31,188.77 271.5,185.74C269.28,183.97 268.57,183.4 266.24,181.5C261.57,177.69 252.03,169.84 245.32,164.18C239.01,158.85 232.26,152.95 227.11,148.5C223.3,145.21 220.41,142.72 217.2,139.9C214.15,137.22 211.8,135.11 208.31,132C203.28,127.52 196.03,121.1 189.945,115.595C183.87,110.1 176.82,103.57 171.84,99C168.34,95.79 165.89,93.54 162.9,90.8C159.89,88.04 157.38,85.74 153.85,82.5C148.86,77.93 141.77,71.47 135.81,65.945C129.9,60.47 123.22,54.16 118.24,49.5C114.55,46.05 111.66,43.35 108.6,40.48C105.82,37.87 103.84,36.01 100.64,33C95.78,28.43 88.22,21.34 82.285,15.7Q76.66,10.35 65.92,0" style="stroke-miterlimit: 1; vector-effect: non-scaling-stroke; fill: none; stroke: rgb(0, 0, 0); stroke-opacity: 1; stroke-width: 0.5px;"/></g><g class="contourlevel"><path class="openline" d="M543,275.17Q524.39,267.93 515.255,264.24C506.29,260.62 496.01,256.35 488.7,253.25C483.52,251.05 479.91,249.58 475.48,247.5C470.87,245.34 466.49,243.01 461.55,240.48C455.88,237.57 448.34,233.76 443.37,231C439.83,229.03 437.91,227.81 434.4,225.7C429.35,222.67 420.99,217.68 416.01,214.5C412.53,212.27 410.57,210.88 407.25,208.62C402.83,205.61 396.63,201.4 391.87,198C387.66,194.99 383.89,192.14 380.1,189.31C376.54,186.65 373.63,184.47 369.79,181.5C364.84,177.67 356.6,171.09 352.95,168.17C351.18,166.76 350.83,166.48 349.03,165C344.96,161.66 333.17,151.79 329.28,148.5C327.64,147.11 327.37,146.88 325.8,145.52C322.47,142.64 315.08,136.2 310.28,132C306.12,128.36 302.03,124.76 298.65,121.76C296.02,119.42 294.56,118.11 291.65,115.5C286.82,111.16 278.59,103.81 272.43,98.14500000000001C266.63,92.82 260.73,87.22 255.69,82.5C251.54,78.61 247.54,74.88 244.35,71.85C242,69.62 240.79,68.45 238.25,66C234,61.9 224.94,53.19 221.24,49.5C219.41,47.67 218.9,47.1 217.2,45.35C214.27,42.33 209.49,37.39 205.24,33C200.39,27.99 194.86,22.35 189.655,16.905Q184.35,11.36 173.72,0" style="stroke-miterlimit: 1; vector-effect: non-scaling-stroke; fill: none; stroke: rgb(0, 0, 0); stroke-opacity: 1; stroke-width: 0.5px;"/></g><g class="contourlevel"><path class="openline" d="M543,207.21Q531.03,200.81 526.12,198C522.25,195.78 519.6,194.2 515.85,191.83C511.17,188.87 505.08,184.79 500.3,181.5C496.12,178.62 492.5,176 488.7,173.22C484.97,170.49 481.69,168.06 477.69,165C472.8,161.26 465.33,155.33 461.55,152.33C459.49,150.69 458.91,150.24 456.79,148.5C452.44,144.94 440.57,134.99 437.05,132C435.75,130.9 435.65,130.8 434.4,129.71C431.3,127 423.15,119.83 418.3,115.5C414.26,111.9 410.53,108.54 407.25,105.56C404.6,103.15 403,101.69 400.1,99C395.52,94.76 385.66,85.52 382.5,82.5C381.32,81.38 381.23,81.27 380.1,80.16C377.33,77.43 370.42,70.64 365.8,66C361.39,61.57 355.83,55.87 352.95,52.92C351.48,51.41 351.11,51.09 349.63,49.5C346.44,46.08 339.12,38.15 334.89,33C331.4,28.75 328.1,23.99 325.8,20.96C324.4,19.11 323.89,18.46 322.4,16.5Q319.54,12.74 309.92,0" style="stroke-miterlimit: 1; vector-effect: non-scaling-stroke; fill: none; stroke: rgb(0, 0, 0); stroke-opacity: 1; stroke-width: 0.5px;"/></g><g class="contourlevel"><path class="openline" d="M543,70.98Q539.9,68.17 537.67,66C533.71,62.13 525.46,53.82 521.51,49.5C519.08,46.85 517.85,45.34 515.85,42.89C513.44,39.95 510.78,36.8 508.13,33C504.83,28.27 500.97,22.08 497.86,16.5Q494.84,11.07 489.69,0" style="stroke-miterlimit: 1; vector-effect: non-scaling-stroke; fill: none; stroke: rgb(0, 0, 0); stroke-opacity: 1; stroke-width: 0.5px;"/></g></g></g></g></g><g class="overplot"/><path class="xlines-above crisp" d="" style="fill: none; stroke-width: 1px; stroke: rgb(0, 0, 0); stroke-opacity: 0;"/><path class="ylines-above crisp" d="" style="fill: none; stroke-width: 1px; stroke: rgb(0, 0, 0); stroke-opacity: 0;"/><g class="overlines-above"/><g class="xaxislayer-above"><path class="xtick ticks crisp" d="M0,391v5" transform="translate(60,0)" style="stroke: rgb(68, 68, 68); stroke-opacity: 1; stroke-width: 1px;"/><path class="xtick ticks crisp" d="M0,391v5" transform="translate(195.75,0)" style="stroke: rgb(68, 68, 68); stroke-opacity: 1; stroke-width: 1px;"/><path class="xtick ticks crisp" d="M0,391v5" transform="translate(331.5,0)" style="stroke: rgb(68, 68, 68); stroke-opacity: 1; stroke-width: 1px;"/><path class="xtick ticks crisp" d="M0,391v5" transform="translate(467.25,0)" style="stroke: rgb(68, 68, 68); stroke-opacity: 1; stroke-width: 1px;"/><path class="xtick ticks crisp" d="M0,391v5" transform="translate(603,0)" style="stroke: rgb(68, 68, 68); stroke-opacity: 1; stroke-width: 1px;"/><g class="xtick"><text text-anchor="middle" x="0" y="410.4" transform="translate(60,0)" style="font-family: 'Open Sans', verdana, arial, sans-serif; font-size: 12px; fill: rgb(68, 68, 68); fill-opacity: 1; white-space: pre;">0</text></g><g class="xtick"><text text-anchor="middle" x="0" y="410.4" transform="translate(195.75,0)" style="font-family: 'Open Sans', verdana, arial, sans-serif; font-size: 12px; fill: rgb(68, 68, 68); fill-opacity: 1; white-space: pre;">5</text></g><g class="xtick"><text text-anchor="middle" x="0" y="410.4" transform="translate(331.5,0)" style="font-family: 'Open Sans', verdana, arial, sans-serif; font-size: 12px; fill: rgb(68, 68, 68); fill-opacity: 1; white-space: pre;">10</text></g><g class="xtick"><text text-anchor="middle" x="0" y="410.4" transform="translate(467.25,0)" style="font-family: 'Open Sans', verdana, arial, sans-serif; font-size: 12px; fill: rgb(68, 68, 68); fill-opacity: 1; white-space: pre;">15</text></g><g class="xtick"><text text-anchor="middle" x="0" y="410.4" transform="translate(603,0)" style="font-family: 'Open Sans', verdana, arial, sans-serif; font-size: 12px; fill: rgb(68, 68, 68); fill-opacity: 1; white-space: pre;">20</text></g></g><g class="yaxislayer-above"><path class="ytick ticks crisp" d="M59,0h-5" transform="translate(0,390)" style="stroke: rgb(68, 68, 68); stroke-opacity: 1; stroke-width: 1px;"/><path class="ytick ticks crisp" d="M59,0h-5" transform="translate(0,307.5)" style="stroke: rgb(68, 68, 68); stroke-opacity: 1; stroke-width: 1px;"/><path class="ytick ticks crisp" d="M59,0h-5" transform="translate(0,225)" style="stroke: rgb(68, 68, 68); stroke-opacity: 1; stroke-width: 1px;"/><path class="ytick ticks crisp" d="M59,0h-5" transform="translate(0,142.5)" style="stroke: rgb(68, 68, 68); stroke-opacity: 1; stroke-width: 1px;"/><path class="ytick ticks crisp" d="M59,0h-5" transform="translate(0,60)" style="stroke: rgb(68, 68, 68); stroke-opacity: 1; stroke-width: 1px;"/><g class="ytick"><text text-anchor="end" x="51.6" y="4.199999999999999" transform="translate(0,390)" style="font-family: 'Open Sans', verdana, arial, sans-serif; font-size: 12px; fill: rgb(68, 68, 68); fill-opacity: 1; white-space: pre;">0</text></g><g class="ytick"><text text-anchor="end" x="51.6" y="4.199999999999999" transform="translate(0,307.5)" style="font-family: 'Open Sans', verdana, arial, sans-serif; font-size: 12px; fill: rgb(68, 68, 68); fill-opacity: 1; white-space: pre;">5</text></g><g class="ytick"><text text-anchor="end" x="51.6" y="4.199999999999999" transform="translate(0,225)" style="font-family: 'Open Sans', verdana, arial, sans-serif; font-size: 12px; fill: rgb(68, 68, 68); fill-opacity: 1; white-space: pre;">10</text></g><g class="ytick"><text text-anchor="end" x="51.6" y="4.199999999999999" transform="translate(0,142.5)" style="font-family: 'Open Sans', verdana, arial, sans-serif; font-size: 12px; fill: rgb(68, 68, 68); fill-opacity: 1; white-space: pre;">15</text></g><g class="ytick"><text text-anchor="end" x="51.6" y="4.199999999999999" transform="translate(0,60)" style="font-family: 'Open Sans', verdana, arial, sans-serif; font-size: 12px; fill: rgb(68, 68, 68); fill-opacity: 1; white-space: pre;">20</text></g></g><g class="overaxes-above"/></g></g><g class="polarlayer"/><g class="ternarylayer"/><g class="geolayer"/><g class="pielayer"/><g class="glimages"/><defs id="topdefs-0994b8"><g class="clips"/></defs><g class="layer-above"><g class="imagelayer"/><g class="shapelayer"/></g><g class="infolayer"><g class="cb9cfff1 colorbar" transform="translate(60,60)"><rect class="cbbg" x="553.5" y="-0.5" width="73.875" height="331" style="fill: rgb(0, 0, 0); fill-opacity: 0; stroke: rgb(68, 68, 68); stroke-opacity: 1; stroke-width: 0;"/><g class="cbfills" transform="translate(0,10)"><rect class="cbfill" x="564" width="30" y="1" height="309" fill="#440154" style="stroke: none;"/><rect class="cbfill" x="564" width="30" y="1" height="295" fill="#482172" style="stroke: none;"/><rect class="cbfill" x="564" width="30" y="1" height="267" fill="#433e85" style="stroke: none;"/><rect class="cbfill" x="564" width="30" y="1" height="239" fill="#38588c" style="stroke: none;"/><rect class="cbfill" x="564" width="30" y="1" height="210" fill="#2d6f8e" style="stroke: none;"/><rect class="cbfill" x="564" width="30" y="1" height="182" fill="#25868e" style="stroke: none;"/><rect class="cbfill" x="564" width="30" y="1" height="154" fill="#209b89" style="stroke: none;"/><rect class="cbfill" x="564" width="30" y="1" height="126" fill="#2bb07e" style="stroke: none;"/><rect class="cbfill" x="564" width="30" y="1" height="98" fill="#51c469" style="stroke: none;"/><rect class="cbfill" x="564" width="30" y="1" height="69" fill="#86d44a" style="stroke: none;"/><rect class="cbfill" x="564" width="30" y="1" height="41" fill="#c2df25" style="stroke: none;"/><rect class="cbfill" x="564" width="30" y="0" height="14" fill="#fde725" style="stroke: none;"/></g><g class="cblines" transform="translate(0,10)"><path class="cbline" d="M564,296.25h30" style="fill: none; stroke: rgb(0, 0, 0); stroke-opacity: 1; stroke-width: 0.5px;"/><path class="cbline" d="M564,268.25h30" style="fill: none; stroke: rgb(0, 0, 0); stroke-opacity: 1; stroke-width: 0.5px;"/><path class="cbline" d="M564,240.25h30" style="fill: none; stroke: rgb(0, 0, 0); stroke-opacity: 1; stroke-width: 0.5px;"/><path class="cbline" d="M564,211.25h30" style="fill: none; stroke: rgb(0, 0, 0); stroke-opacity: 1; stroke-width: 0.5px;"/><path class="cbline" d="M564,183.25h30" style="fill: none; stroke: rgb(0, 0, 0); stroke-opacity: 1; stroke-width: 0.5px;"/><path class="cbline" d="M564,155.25h30" style="fill: none; stroke: rgb(0, 0, 0); stroke-opacity: 1; stroke-width: 0.5px;"/><path class="cbline" d="M564,127.25h30" style="fill: none; stroke: rgb(0, 0, 0); stroke-opacity: 1; stroke-width: 0.5px;"/><path class="cbline" d="M564,99.25h30" style="fill: none; stroke: rgb(0, 0, 0); stroke-opacity: 1; stroke-width: 0.5px;"/><path class="cbline" d="M564,70.25h30" style="fill: none; stroke: rgb(0, 0, 0); stroke-opacity: 1; stroke-width: 0.5px;"/><path class="cbline" d="M564,42.25h30" style="fill: none; stroke: rgb(0, 0, 0); stroke-opacity: 1; stroke-width: 0.5px;"/><path class="cbline" d="M564,14.25h30" style="fill: none; stroke: rgb(0, 0, 0); stroke-opacity: 1; stroke-width: 0.5px;"/></g><g class="cbaxis crisp" transform="translate(0,-60)"><g class="ycb9cfff1tick"><text text-anchor="start" x="597.4" y="4.199999999999999" transform="translate(0,337.73)" style="font-family: 'Open Sans', verdana, arial, sans-serif; font-size: 12px; fill: rgb(68, 68, 68); fill-opacity: 1; white-space: pre;">440</text></g><g class="ycb9cfff1tick"><text text-anchor="start" x="597.4" y="4.199999999999999" transform="translate(0,281.36)" style="font-family: 'Open Sans', verdana, arial, sans-serif; font-size: 12px; fill: rgb(68, 68, 68); fill-opacity: 1; white-space: pre;">480</text></g><g class="ycb9cfff1tick"><text text-anchor="start" x="597.4" y="4.199999999999999" transform="translate(0,225)" style="font-family: 'Open Sans', verdana, arial, sans-serif; font-size: 12px; fill: rgb(68, 68, 68); fill-opacity: 1; white-space: pre;">520</text></g><g class="ycb9cfff1tick"><text text-anchor="start" x="597.4" y="4.199999999999999" transform="translate(0,168.64)" style="font-family: 'Open Sans', verdana, arial, sans-serif; font-size: 12px; fill: rgb(68, 68, 68); fill-opacity: 1; white-space: pre;">560</text></g><g class="ycb9cfff1tick"><text text-anchor="start" x="597.4" y="4.199999999999999" transform="translate(0,112.26999999999998)" style="font-family: 'Open Sans', verdana, arial, sans-serif; font-size: 12px; fill: rgb(68, 68, 68); fill-opacity: 1; white-space: pre;">600</text></g></g><g class="cbtitleunshift" transform="translate(-60,-60)"><g class="cbtitle"/></g><rect class="cboutline" x="564" y="10" width="30" height="310" style="stroke: rgb(68, 68, 68); stroke-opacity: 1; fill: none; stroke-width: 1;"/></g><g class="g-gtitle"><text class="gtitle" x="350" y="30" text-anchor="middle" dy="0em" style="font-family: 'Open Sans', verdana, arial, sans-serif; font-size: 17px; fill: rgb(68, 68, 68); opacity: 1; font-weight: normal; white-space: pre;">Values - Car Rental</text></g><g class="g-xtitle"/><g class="g-ytitle"/></g></svg>