<svg class="main-svg" xmlns="http://www.w3.org/2000/svg" xmlns:xlink="http://www.w3.org/1999/xlink" width="700" height="450" style="" viewBox="0 0 700 450"><rect x="0" y="0" width="700" height="450" style="fill: rgb(255, 255, 255); fill-opacity: 1;"/><defs id="defs-0ad4c7"><g class="clips"><clipPath id="clip0ad4c7xyplot" class="plotclip"><rect width="580" height="330"/></clipPath><clipPath class="axesclip" id="clip0ad4c7x"><rect x="60" y="0" width="580" height="450"/></clipPath><clipPath class="axesclip" id="clip0ad4c7y"><rect x="0" y="60" width="700" height="330"/></clipPath><clipPath class="axesclip" id="clip0ad4c7xy"><rect x="60" y="60" width="580" height="330"/></clipPath></g><g class="gradients"/></defs><g class="bglayer"/><g class="layer-below"><g class="imagelayer"/><g class="shapelayer"/></g><g class="cartesianlayer"><g class="subplot xy"><g class="layer-subplot"><g class="shapelayer"/><g class="imagelayer"/></g><g class="gridlayer"><g class="x"><path class="xgrid crisp" transform="translate(200.9,0)" d="M0,60v330" style="stroke: rgb(238, 238, 238); stroke-opacity: 1; stroke-width: 1px;"/><path class="xgrid crisp" transform="translate(347.36,0)" d="M0,60v330" style="stroke: rgb(238, 238, 238); stroke-opacity: 1; stroke-width: 1px;"/><path class="xgrid crisp" transform="translate(493.83,0)" d="M0,60v330" style="stroke: rgb(238, 238, 238); stroke-opacity: 1; stroke-width: 1px;"/></g><g class="y"><path class="ygrid crisp" transform="translate(0,309.75)" d="M60,0h580" style="stroke: rgb(238, 238, 238); stroke-opacity: 1; stroke-width: 1px;"/><path class="ygrid crisp" transform="translate(0,232)" d="M60,0h580" style="stroke: rgb(238, 238, 238); stroke-opacity: 1; stroke-width: 1px;"/><path class="ygrid crisp" transform="translate(0,154.25)" d="M60,0h580" style="stroke: rgb(238, 238, 238); stroke-opacity: 1; stroke-width: 1px;"/><path class="ygrid crisp" transform="translate(0,76.5)" d="M60,0h580" style="stroke: rgb(238, 238, 238); stroke-opacity: 1; stroke-width: 1px;"/></g></g><g class="zerolinelayer"><path class="yzl zl crisp" transform="translate(0,387.49)" d="M60,0h580" style="stroke: rgb(68, 68, 68); stroke-opacity: 1; stroke-width: 1px;"/></g><path class="xlines-below"/><path class="ylines-below"/><g class="overlines-below"/><g class="xaxislayer-below"/><g class="yaxislayer-below"/><g class="overaxes-below"/><g class="plot" transform="translate(60, 60)" clip-path="url(#clip0ad4c7xyplot)"><g class="scatterlayer mlayer"><g class="trace scatter trace95f26b" style="stroke-miterlimit: 2; opacity: 1;"><g class="fills"/><g class="errorbars"/><g class="lines"><path class="js-line" d="M0,311.95L5.86,313.5L11.72,311.95L17.58,310.39L23.43,310.39L29.29,308.84L35.15,273.07L41.01,313.5L46.87,297.95L52.73,307.28L58.59,296.4L64.44,276.18L70.3,287.07L76.16,271.52L82.02,294.84L87.88,271.52L93.74,212.43L99.6,285.51L105.45,243.53L111.31,273.07L117.17,291.73L123.03,170.44L128.89,159.56L134.75,288.62L140.61,237.31L146.46,168.89L152.32,265.3L158.18,220.2L164.04,204.65L169.9,293.29L175.76,269.96L181.62,280.85L187.47,276.18L193.33,263.74L199.19,296.4L205.05,241.97L210.91,241.97L216.77,122.24L222.63,287.07L228.48,147.12L234.34,153.34L240.2,16.5L246.06,283.96L251.92,100.47L257.78,16.5L263.64,117.57L269.49,19.61L275.35,16.5L281.21,70.92L287.07,16.5L292.93,290.18L298.79,293.29L304.65,75.59L310.51,16.5L316.36,296.4L322.22,16.5L328.08,283.96L333.94,112.91L339.8,33.6L345.66,80.25L351.52,153.34L357.37,80.25L363.23,16.5L369.09,16.5L374.95,263.74L380.81,296.4L386.67,16.5L404.24,16.5L410.1,38.27L415.96,283.96L421.82,16.5L427.68,63.15L433.54,116.02L439.39,159.56L445.25,294.84L451.11,83.36L456.97,162.67L462.83,134.68L468.69,72.48L474.55,269.96L480.4,136.23L486.26,16.5L492.12,16.5L497.98,16.5L503.84,128.46L509.7,16.5L515.56,16.5L521.41,36.71L527.27,95.8L533.13,16.5L538.99,46.04L544.85,16.5L550.71,167.33L556.57,16.5L562.42,111.35L568.28,117.57L574.14,16.5L580,16.5" style="vector-effect: non-scaling-stroke; fill: none; stroke: rgb(31, 119, 180); stroke-opacity: 1; stroke-width: 2px; opacity: 1;"/></g><g class="points"/><g class="text"/></g></g></g><g class="overplot"/><path class="xlines-above crisp" d="M0,0" style="fill: none;"/><path class="ylines-above crisp" d="M0,0" style="fill: none;"/><g class="overlines-above"/><g class="xaxislayer-above"><g class="xtick"><text text-anchor="middle" x="0" y="403" transform="translate(200.9,0)" style="font-family: 'Open Sans', verdana, arial, sans-serif; font-size: 12px; fill: rgb(68, 68, 68); fill-opacity: 1; white-space: pre;">500</text></g><g class="xtick"><text text-anchor="middle" x="0" y="403" transform="translate(347.36,0)" style="font-family: 'Open Sans', verdana, arial, sans-serif; font-size: 12px; fill: rgb(68, 68, 68); fill-opacity: 1; white-space: pre;">1000</text></g><g class="xtick"><text text-anchor="middle" x="0" y="403" transform="translate(493.83,0)" style="font-family: 'Open Sans', verdana, arial, sans-serif; font-size: 12px; fill: rgb(68, 68, 68); fill-opacity: 1; white-space: pre;">1500</text></g></g><g class="yaxislayer-above"><g class="ytick"><text text-anchor="end" x="59" y="4.199999999999999" transform="translate(0,387.49)" style="font-family: 'Open Sans', verdana, arial, sans-serif; font-size: 12px; fill: rgb(68, 68, 68); fill-opacity: 1; white-space: pre;">0</text></g><g class="ytick"><text text-anchor="end" x="59" y="4.199999999999999" transform="translate(0,309.75)" style="font-family: 'Open Sans', verdana, arial, sans-serif; font-size: 12px; fill: rgb(68, 68, 68); fill-opacity: 1; white-space: pre;">50</text></g><g class="ytick"><text text-anchor="end" x="59" y="4.199999999999999" transform="translate(0,232)" style="font-family: 'Open Sans', verdana, arial, sans-serif; font-size: 12px; fill: rgb(68, 68, 68); fill-opacity: 1; white-space: pre;">100</text></g><g class="ytick"><text text-anchor="end" x="59" y="4.199999999999999" transform="translate(0,154.25)" style="font-family: 'Open Sans', verdana, arial, sans-serif; font-size: 12px; fill: rgb(68, 68, 68); fill-opacity: 1; white-space: pre;">150</text></g><g class="ytick"><text text-anchor="end" x="59" y="4.199999999999999" transform="translate(0,76.5)" style="font-family: 'Open Sans', verdana, arial, sans-serif; font-size: 12px; fill: rgb(68, 68, 68); fill-opacity: 1; white-space: pre;">200</text></g></g><g class="overaxes-above"/></g></g><g class="polarlayer"/><g class="ternarylayer"/><g class="geolayer"/><g class="pielayer"/><g class="glimages"/><defs id="topdefs-0ad4c7"><g class="clips"/></defs><g class="layer-above"><g class="imagelayer"/><g class="shapelayer"/></g><g class="infolayer"><g class="g-gtitle"><text class="gtitle" x="350" y="30" text-anchor="middle" dy="0em" style="font-family: 'Open Sans', verdana, arial, sans-serif; font-size: 17px; fill: rgb(68, 68, 68); opacity: 1; font-weight: normal; white-space: pre;">Ep Length - CartPole</text></g><g class="g-xtitle"/><g class="g-ytitle"/></g></svg>