<svg class="main-svg" xmlns="http://www.w3.org/2000/svg" xmlns:xlink="http://www.w3.org/1999/xlink" width="700" height="450" style="" viewBox="0 0 700 450"><rect x="0" y="0" width="700" height="450" style="fill: rgb(255, 255, 255); fill-opacity: 1;"/><defs id="defs-90fccb"><g class="clips"><clipPath id="clip90fccbxyplot" class="plotclip"><rect width="549" height="330"/></clipPath><clipPath class="axesclip" id="clip90fccbx"><rect x="60" y="0" width="549" height="450"/></clipPath><clipPath class="axesclip" id="clip90fccby"><rect x="0" y="60" width="700" height="330"/></clipPath><clipPath class="axesclip" id="clip90fccbxy"><rect x="60" y="60" width="549" height="330"/></clipPath><clipPath class="contourclip" id="clip63be2f"><path d="M0,0L549,0L549,330L0,330Z"/></clipPath></g><g class="gradients"/></defs><g class="bglayer"/><g class="layer-below"><g class="imagelayer"/><g class="shapelayer"/></g><g class="cartesianlayer"><g class="subplot xy"><g class="layer-subplot"><g class="shapelayer"/><g class="imagelayer"/></g><g class="gridlayer"><g class="x"><path class="xgrid crisp" transform="translate(197.25,0)" d="M0,60v330" style="stroke: rgb(238, 238, 238); stroke-opacity: 1; stroke-width: 1px;"/><path class="xgrid crisp" transform="translate(334.5,0)" d="M0,60v330" style="stroke: rgb(238, 238, 238); stroke-opacity: 1; stroke-width: 1px;"/><path class="xgrid crisp" transform="translate(471.75,0)" d="M0,60v330" style="stroke: rgb(238, 238, 238); stroke-opacity: 1; stroke-width: 1px;"/></g><g class="y"><path class="ygrid crisp" transform="translate(0,307.5)" d="M60,0h549" style="stroke: rgb(238, 238, 238); stroke-opacity: 1; stroke-width: 1px;"/><path class="ygrid crisp" transform="translate(0,225)" d="M60,0h549" style="stroke: rgb(238, 238, 238); stroke-opacity: 1; stroke-width: 1px;"/><path class="ygrid crisp" transform="translate(0,142.5)" d="M60,0h549" style="stroke: rgb(238, 238, 238); stroke-opacity: 1; stroke-width: 1px;"/></g></g><g class="zerolinelayer"><path class="xzl zl crisp" transform="translate(60,0)" d="M0,60v330" style="stroke: rgb(68, 68, 68); stroke-opacity: 1; stroke-width: 1px;"/><path class="yzl zl crisp" transform="translate(0,390)" d="M60,0h549" style="stroke: rgb(68, 68, 68); stroke-opacity: 1; stroke-width: 1px;"/></g><path class="xlines-below"/><path class="ylines-below"/><g class="overlines-below"/><g class="xaxislayer-below"/><g class="yaxislayer-below"/><g class="overaxes-below"/><g class="plot" transform="translate(60, 60)" clip-path="url(#clip90fccbxyplot)"><g class="contourlayer mlayer"><g class="contour" clip-path="url(#clip63be2f)" style="opacity: 1;"><g class="heatmapcoloring"/><g class="contourbg"><path d="M0,0L549,0L549,330L0,330Z" style="stroke: none; fill: rgb(68, 1, 84);"/></g><g class="contourfill"><path d="M549,313.5Q530.7,313.5 521.55,313.5C512.4,313.5 503.25,313.5 494.1,313.5C484.95,313.5 475.47,311.05 466.65,313.5C457.12,316.14 448.73,327.36 439.2,330C430.38,332.45 420.9,330 411.75,330C402.6,330 393.45,330 384.3,330Q375.15,330 356.85,330L0,330L0,0L549,0Z" style="stroke: none; fill: rgb(71, 45, 123);"/><path d="M549,297Q530.7,297 521.55,297C512.4,297 503.25,297 494.1,297C484.95,297 475.8,297 466.65,297C457.5,297 448.02,294.55 439.2,297C429.67,299.64 421.28,310.86 411.75,313.5C402.93,315.95 393.45,313.5 384.3,313.5C375.15,313.5 366,313.5 356.85,313.5C347.7,313.5 338.22,311.05 329.4,313.5C319.87,316.14 311.48,327.36 301.95,330Q293.13,332.45 274.5,330L0,330L0,0L549,0Z" style="stroke: none; fill: rgb(59, 82, 139);"/><path d="M549,264Q531.08,277.86 521.55,280.5C512.73,282.95 503.25,280.5 494.1,280.5C484.95,280.5 475.8,280.5 466.65,280.5C457.5,280.5 448.35,280.5 439.2,280.5C430.05,280.5 420.57,278.05 411.75,280.5C402.22,283.14 393.83,294.36 384.3,297C375.48,299.45 366,297 356.85,297C347.7,297 338.55,297 329.4,297C320.25,297 310.77,294.55 301.95,297C292.42,299.64 284.03,310.86 274.5,313.5C265.68,315.95 255.87,311.05 247.05,313.5Q237.52,316.14 219.6,330L0,330L0,0L549,0Z" style="stroke: none; fill: rgb(44, 114, 142);"/><path d="M466.65,0Q448.73,13.86 439.2,16.5C430.38,18.95 420.9,16.5 411.75,16.5C402.6,16.5 393.45,16.5 384.3,16.5C375.15,16.5 366,16.5 356.85,16.5C347.7,16.5 338.22,14.05 329.4,16.5C319.87,19.14 311.48,30.36 301.95,33C293.13,35.45 283.65,33 274.5,33C265.35,33 256.2,33 247.05,33C237.9,33 228.42,30.55 219.6,33C210.07,35.64 195.97,42.74 192.15,49.5C189.41,54.35 192.15,60.5 192.15,66C192.15,71.5 192.15,77 192.15,82.5C192.15,88 192.15,93.5 192.15,99C192.15,104.5 192.15,110 192.15,115.5C192.15,121 192.15,126.5 192.15,132C192.15,137.5 192.15,143 192.15,148.5C192.15,154 194.89,160.15 192.15,165C188.33,171.76 168.52,174.74 164.7,181.5C161.96,186.35 167.44,193.15 164.7,198C160.88,204.76 141.07,207.74 137.25,214.5C134.51,219.35 139.99,226.15 137.25,231C133.43,237.76 119.33,244.86 109.8,247.5C100.98,249.95 91.17,245.05 82.35,247.5C72.82,250.14 64.43,261.36 54.9,264C46.08,266.45 36.6,264 27.45,264Q18.3,264 0,264L0,0Z" style="stroke: none; fill: rgb(33, 145, 140);"/><path d="M301.95,0Q284.03,13.86 274.5,16.5C265.68,18.95 256.2,16.5 247.05,16.5C237.9,16.5 228.75,16.5 219.6,16.5C210.45,16.5 200.97,14.05 192.15,16.5C182.62,19.14 168.52,26.24 164.7,33C161.96,37.85 164.7,44 164.7,49.5C164.7,55 164.7,60.5 164.7,66C164.7,71.5 164.7,77 164.7,82.5C164.7,88 164.7,93.5 164.7,99C164.7,104.5 164.7,110 164.7,115.5C164.7,121 164.7,126.5 164.7,132C164.7,137.5 167.44,143.65 164.7,148.5C160.88,155.26 141.07,158.24 137.25,165C134.51,169.85 139.99,176.65 137.25,181.5C133.43,188.26 113.62,191.24 109.8,198C107.06,202.85 112.54,209.65 109.8,214.5C105.98,221.26 91.88,228.36 82.35,231C73.53,233.45 63.72,228.55 54.9,231C45.37,233.64 36.98,244.86 27.45,247.5Q18.63,249.95 0,247.5L0,0Z" style="stroke: none; fill: rgb(40, 173, 128);"/><path d="M164.7,0Q141.07,9.74 137.25,16.5C134.51,21.35 137.25,27.5 137.25,33C137.25,38.5 137.25,44 137.25,49.5C137.25,55 137.25,60.5 137.25,66C137.25,71.5 137.25,77 137.25,82.5C137.25,88 137.25,93.5 137.25,99C137.25,104.5 137.25,110 137.25,115.5C137.25,121 139.99,127.15 137.25,132C133.43,138.76 113.62,141.74 109.8,148.5C107.06,153.35 112.54,160.15 109.8,165C105.98,171.76 86.17,174.74 82.35,181.5C79.61,186.35 85.09,193.15 82.35,198C78.53,204.76 64.43,211.86 54.9,214.5C46.08,216.95 36.27,212.05 27.45,214.5Q17.92,217.14 0,231L0,0Z" style="stroke: none; fill: rgb(93, 200, 99);"/><path d="M109.8,0Q109.8,11 109.8,16.5C109.8,22 109.8,27.5 109.8,33C109.8,38.5 109.8,44 109.8,49.5C109.8,55 109.8,60.5 109.8,66C109.8,71.5 109.8,77 109.8,82.5C109.8,88 109.8,93.5 109.8,99C109.8,104.5 112.54,110.65 109.8,115.5C105.98,122.26 86.17,125.24 82.35,132C79.61,136.85 85.09,143.65 82.35,148.5C78.53,155.26 58.72,158.24 54.9,165C52.16,169.85 57.64,176.65 54.9,181.5C51.08,188.26 36.98,195.36 27.45,198Q18.63,200.45 0,198L0,0Z" style="stroke: none; fill: rgb(171, 220, 49);"/><path d="M82.35,0Q82.35,11 82.35,16.5C82.35,22 82.35,27.5 82.35,33C82.35,38.5 82.35,44 82.35,49.5C82.35,55 82.35,60.5 82.35,66C82.35,71.5 82.35,77 82.35,82.5C82.35,88 85.09,94.15 82.35,99C78.53,105.76 58.72,108.74 54.9,115.5C52.16,120.35 57.64,127.15 54.9,132C51.08,138.76 31.27,141.74 27.45,148.5C24.71,153.35 30.19,160.15 27.45,165Q23.63,171.76 0,181.5L0,0Z" style="stroke: none; fill: rgb(253, 231, 37);"/></g><g class="contourlines"><g class="contourlevel"><path class="openline" d="M549,313.5Q530.7,313.5 521.55,313.5C512.4,313.5 503.25,313.5 494.1,313.5C484.95,313.5 475.47,311.05 466.65,313.5C457.12,316.14 448.73,327.36 439.2,330C430.38,332.45 420.9,330 411.75,330C402.6,330 393.45,330 384.3,330Q375.15,330 356.85,330" style="stroke-miterlimit: 1; vector-effect: non-scaling-stroke; fill: none; stroke: rgb(0, 0, 0); stroke-opacity: 1; stroke-width: 0.5px;"/></g><g class="contourlevel"><path class="openline" d="M549,297Q530.7,297 521.55,297C512.4,297 503.25,297 494.1,297C484.95,297 475.8,297 466.65,297C457.5,297 448.02,294.55 439.2,297C429.67,299.64 421.28,310.86 411.75,313.5C402.93,315.95 393.45,313.5 384.3,313.5C375.15,313.5 366,313.5 356.85,313.5C347.7,313.5 338.22,311.05 329.4,313.5C319.87,316.14 311.48,327.36 301.95,330Q293.13,332.45 274.5,330" style="stroke-miterlimit: 1; vector-effect: non-scaling-stroke; fill: none; stroke: rgb(0, 0, 0); stroke-opacity: 1; stroke-width: 0.5px;"/></g><g class="contourlevel"><path class="openline" d="M549,264Q531.08,277.86 521.55,280.5C512.73,282.95 503.25,280.5 494.1,280.5C484.95,280.5 475.8,280.5 466.65,280.5C457.5,280.5 448.35,280.5 439.2,280.5C430.05,280.5 420.57,278.05 411.75,280.5C402.22,283.14 393.83,294.36 384.3,297C375.48,299.45 366,297 356.85,297C347.7,297 338.55,297 329.4,297C320.25,297 310.77,294.55 301.95,297C292.42,299.64 284.03,310.86 274.5,313.5C265.68,315.95 255.87,311.05 247.05,313.5Q237.52,316.14 219.6,330" style="stroke-miterlimit: 1; vector-effect: non-scaling-stroke; fill: none; stroke: rgb(0, 0, 0); stroke-opacity: 1; stroke-width: 0.5px;"/></g><g class="contourlevel"><path class="openline" d="M466.65,0Q448.73,13.86 439.2,16.5C430.38,18.95 420.9,16.5 411.75,16.5C402.6,16.5 393.45,16.5 384.3,16.5C375.15,16.5 366,16.5 356.85,16.5C347.7,16.5 338.22,14.05 329.4,16.5C319.87,19.14 311.48,30.36 301.95,33C293.13,35.45 283.65,33 274.5,33C265.35,33 256.2,33 247.05,33C237.9,33 228.42,30.55 219.6,33C210.07,35.64 195.97,42.74 192.15,49.5C189.41,54.35 192.15,60.5 192.15,66C192.15,71.5 192.15,77 192.15,82.5C192.15,88 192.15,93.5 192.15,99C192.15,104.5 192.15,110 192.15,115.5C192.15,121 192.15,126.5 192.15,132C192.15,137.5 192.15,143 192.15,148.5C192.15,154 194.89,160.15 192.15,165C188.33,171.76 168.52,174.74 164.7,181.5C161.96,186.35 167.44,193.15 164.7,198C160.88,204.76 141.07,207.74 137.25,214.5C134.51,219.35 139.99,226.15 137.25,231C133.43,237.76 119.33,244.86 109.8,247.5C100.98,249.95 91.17,245.05 82.35,247.5C72.82,250.14 64.43,261.36 54.9,264C46.08,266.45 36.6,264 27.45,264Q18.3,264 0,264" style="stroke-miterlimit: 1; vector-effect: non-scaling-stroke; fill: none; stroke: rgb(0, 0, 0); stroke-opacity: 1; stroke-width: 0.5px;"/></g><g class="contourlevel"><path class="openline" d="M301.95,0Q284.03,13.86 274.5,16.5C265.68,18.95 256.2,16.5 247.05,16.5C237.9,16.5 228.75,16.5 219.6,16.5C210.45,16.5 200.97,14.05 192.15,16.5C182.62,19.14 168.52,26.24 164.7,33C161.96,37.85 164.7,44 164.7,49.5C164.7,55 164.7,60.5 164.7,66C164.7,71.5 164.7,77 164.7,82.5C164.7,88 164.7,93.5 164.7,99C164.7,104.5 164.7,110 164.7,115.5C164.7,121 164.7,126.5 164.7,132C164.7,137.5 167.44,143.65 164.7,148.5C160.88,155.26 141.07,158.24 137.25,165C134.51,169.85 139.99,176.65 137.25,181.5C133.43,188.26 113.62,191.24 109.8,198C107.06,202.85 112.54,209.65 109.8,214.5C105.98,221.26 91.88,228.36 82.35,231C73.53,233.45 63.72,228.55 54.9,231C45.37,233.64 36.98,244.86 27.45,247.5Q18.63,249.95 0,247.5" style="stroke-miterlimit: 1; vector-effect: non-scaling-stroke; fill: none; stroke: rgb(0, 0, 0); stroke-opacity: 1; stroke-width: 0.5px;"/></g><g class="contourlevel"><path class="openline" d="M164.7,0Q141.07,9.74 137.25,16.5C134.51,21.35 137.25,27.5 137.25,33C137.25,38.5 137.25,44 137.25,49.5C137.25,55 137.25,60.5 137.25,66C137.25,71.5 137.25,77 137.25,82.5C137.25,88 137.25,93.5 137.25,99C137.25,104.5 137.25,110 137.25,115.5C137.25,121 139.99,127.15 137.25,132C133.43,138.76 113.62,141.74 109.8,148.5C107.06,153.35 112.54,160.15 109.8,165C105.98,171.76 86.17,174.74 82.35,181.5C79.61,186.35 85.09,193.15 82.35,198C78.53,204.76 64.43,211.86 54.9,214.5C46.08,216.95 36.27,212.05 27.45,214.5Q17.92,217.14 0,231" style="stroke-miterlimit: 1; vector-effect: non-scaling-stroke; fill: none; stroke: rgb(0, 0, 0); stroke-opacity: 1; stroke-width: 0.5px;"/></g><g class="contourlevel"><path class="openline" d="M109.8,0Q109.8,11 109.8,16.5C109.8,22 109.8,27.5 109.8,33C109.8,38.5 109.8,44 109.8,49.5C109.8,55 109.8,60.5 109.8,66C109.8,71.5 109.8,77 109.8,82.5C109.8,88 109.8,93.5 109.8,99C109.8,104.5 112.54,110.65 109.8,115.5C105.98,122.26 86.17,125.24 82.35,132C79.61,136.85 85.09,143.65 82.35,148.5C78.53,155.26 58.72,158.24 54.9,165C52.16,169.85 57.64,176.65 54.9,181.5C51.08,188.26 36.98,195.36 27.45,198Q18.63,200.45 0,198" style="stroke-miterlimit: 1; vector-effect: non-scaling-stroke; fill: none; stroke: rgb(0, 0, 0); stroke-opacity: 1; stroke-width: 0.5px;"/></g><g class="contourlevel"><path class="openline" d="M82.35,0Q82.35,11 82.35,16.5C82.35,22 82.35,27.5 82.35,33C82.35,38.5 82.35,44 82.35,49.5C82.35,55 82.35,60.5 82.35,66C82.35,71.5 82.35,77 82.35,82.5C82.35,88 85.09,94.15 82.35,99C78.53,105.76 58.72,108.74 54.9,115.5C52.16,120.35 57.64,127.15 54.9,132C51.08,138.76 31.27,141.74 27.45,148.5C24.71,153.35 30.19,160.15 27.45,165Q23.63,171.76 0,181.5" style="stroke-miterlimit: 1; vector-effect: non-scaling-stroke; fill: none; stroke: rgb(0, 0, 0); stroke-opacity: 1; stroke-width: 0.5px;"/></g></g></g></g></g><g class="overplot"/><path class="xlines-above crisp" d="" style="fill: none; stroke-width: 1px; stroke: rgb(0, 0, 0); stroke-opacity: 0;"/><path class="ylines-above crisp" d="" style="fill: none; stroke-width: 1px; stroke: rgb(0, 0, 0); stroke-opacity: 0;"/><g class="overlines-above"/><g class="xaxislayer-above"><path class="xtick ticks crisp" d="M0,391v5" transform="translate(60,0)" style="stroke: rgb(68, 68, 68); stroke-opacity: 1; stroke-width: 1px;"/><path class="xtick ticks crisp" d="M0,391v5" transform="translate(197.25,0)" style="stroke: rgb(68, 68, 68); stroke-opacity: 1; stroke-width: 1px;"/><path class="xtick ticks crisp" d="M0,391v5" transform="translate(334.5,0)" style="stroke: rgb(68, 68, 68); stroke-opacity: 1; stroke-width: 1px;"/><path class="xtick ticks crisp" d="M0,391v5" transform="translate(471.75,0)" style="stroke: rgb(68, 68, 68); stroke-opacity: 1; stroke-width: 1px;"/><path class="xtick ticks crisp" d="M0,391v5" transform="translate(609,0)" style="stroke: rgb(68, 68, 68); stroke-opacity: 1; stroke-width: 1px;"/><g class="xtick"><text text-anchor="middle" x="0" y="410.4" transform="translate(60,0)" style="font-family: 'Open Sans', verdana, arial, sans-serif; font-size: 12px; fill: rgb(68, 68, 68); fill-opacity: 1; white-space: pre;">0</text></g><g class="xtick"><text text-anchor="middle" x="0" y="410.4" transform="translate(197.25,0)" style="font-family: 'Open Sans', verdana, arial, sans-serif; font-size: 12px; fill: rgb(68, 68, 68); fill-opacity: 1; white-space: pre;">5</text></g><g class="xtick"><text text-anchor="middle" x="0" y="410.4" transform="translate(334.5,0)" style="font-family: 'Open Sans', verdana, arial, sans-serif; font-size: 12px; fill: rgb(68, 68, 68); fill-opacity: 1; white-space: pre;">10</text></g><g class="xtick"><text text-anchor="middle" x="0" y="410.4" transform="translate(471.75,0)" style="font-family: 'Open Sans', verdana, arial, sans-serif; font-size: 12px; fill: rgb(68, 68, 68); fill-opacity: 1; white-space: pre;">15</text></g><g class="xtick"><text text-anchor="middle" x="0" y="410.4" transform="translate(609,0)" style="font-family: 'Open Sans', verdana, arial, sans-serif; font-size: 12px; fill: rgb(68, 68, 68); fill-opacity: 1; white-space: pre;">20</text></g></g><g class="yaxislayer-above"><path class="ytick ticks crisp" d="M59,0h-5" transform="translate(0,390)" style="stroke: rgb(68, 68, 68); stroke-opacity: 1; stroke-width: 1px;"/><path class="ytick ticks crisp" d="M59,0h-5" transform="translate(0,307.5)" style="stroke: rgb(68, 68, 68); stroke-opacity: 1; stroke-width: 1px;"/><path class="ytick ticks crisp" d="M59,0h-5" transform="translate(0,225)" style="stroke: rgb(68, 68, 68); stroke-opacity: 1; stroke-width: 1px;"/><path class="ytick ticks crisp" d="M59,0h-5" transform="translate(0,142.5)" style="stroke: rgb(68, 68, 68); stroke-opacity: 1; stroke-width: 1px;"/><path class="ytick ticks crisp" d="M59,0h-5" transform="translate(0,60)" style="stroke: rgb(68, 68, 68); stroke-opacity: 1; stroke-width: 1px;"/><g class="ytick"><text text-anchor="end" x="51.6" y="4.199999999999999" transform="translate(0,390)" style="font-family: 'Open Sans', verdana, arial, sans-serif; font-size: 12px; fill: rgb(68, 68, 68); fill-opacity: 1; white-space: pre;">0</text></g><g class="ytick"><text text-anchor="end" x="51.6" y="4.199999999999999" transform="translate(0,307.5)" style="font-family: 'Open Sans', verdana, arial, sans-serif; font-size: 12px; fill: rgb(68, 68, 68); fill-opacity: 1; white-space: pre;">5</text></g><g class="ytick"><text text-anchor="end" x="51.6" y="4.199999999999999" transform="translate(0,225)" style="font-family: 'Open Sans', verdana, arial, sans-serif; font-size: 12px; fill: rgb(68, 68, 68); fill-opacity: 1; white-space: pre;">10</text></g><g class="ytick"><text text-anchor="end" x="51.6" y="4.199999999999999" transform="translate(0,142.5)" style="font-family: 'Open Sans', verdana, arial, sans-serif; font-size: 12px; fill: rgb(68, 68, 68); fill-opacity: 1; white-space: pre;">15</text></g><g class="ytick"><text text-anchor="end" x="51.6" y="4.199999999999999" transform="translate(0,60)" style="font-family: 'Open Sans', verdana, arial, sans-serif; font-size: 12px; fill: rgb(68, 68, 68); fill-opacity: 1; white-space: pre;">20</text></g></g><g class="overaxes-above"/></g></g><g class="polarlayer"/><g class="ternarylayer"/><g class="geolayer"/><g class="pielayer"/><g class="glimages"/><defs id="topdefs-90fccb"><g class="clips"/></defs><g class="layer-above"><g class="imagelayer"/><g class="shapelayer"/></g><g class="infolayer"><g class="cb63be2f colorbar" transform="translate(60,60)"><rect class="cbbg" x="559.5" y="-0.5" width="68.4375" height="331" style="fill: rgb(0, 0, 0); fill-opacity: 0; stroke: rgb(68, 68, 68); stroke-opacity: 1; stroke-width: 0;"/><g class="cbfills" transform="translate(0,10)"><rect class="cbfill" x="570" width="30" y="1" height="309" fill="#440154" style="stroke: none;"/><rect class="cbfill" x="570" width="30" y="1" height="290" fill="#472d7b" style="stroke: none;"/><rect class="cbfill" x="570" width="30" y="1" height="251" fill="#3b528b" style="stroke: none;"/><rect class="cbfill" x="570" width="30" y="1" height="212" fill="#2c728e" style="stroke: none;"/><rect class="cbfill" x="570" width="30" y="1" height="173" fill="#21918c" style="stroke: none;"/><rect class="cbfill" x="570" width="30" y="1" height="135" fill="#28ad80" style="stroke: none;"/><rect class="cbfill" x="570" width="30" y="1" height="96" fill="#5dc863" style="stroke: none;"/><rect class="cbfill" x="570" width="30" y="1" height="57" fill="#abdc31" style="stroke: none;"/><rect class="cbfill" x="570" width="30" y="0" height="19" fill="#fde725" style="stroke: none;"/></g><g class="cblines" transform="translate(0,10)"><path class="cbline" d="M570,291.25h30" style="fill: none; stroke: rgb(0, 0, 0); stroke-opacity: 1; stroke-width: 0.5px;"/><path class="cbline" d="M570,252.25h30" style="fill: none; stroke: rgb(0, 0, 0); stroke-opacity: 1; stroke-width: 0.5px;"/><path class="cbline" d="M570,213.25h30" style="fill: none; stroke: rgb(0, 0, 0); stroke-opacity: 1; stroke-width: 0.5px;"/><path class="cbline" d="M570,174.25h30" style="fill: none; stroke: rgb(0, 0, 0); stroke-opacity: 1; stroke-width: 0.5px;"/><path class="cbline" d="M570,136.25h30" style="fill: none; stroke: rgb(0, 0, 0); stroke-opacity: 1; stroke-width: 0.5px;"/><path class="cbline" d="M570,97.25h30" style="fill: none; stroke: rgb(0, 0, 0); stroke-opacity: 1; stroke-width: 0.5px;"/><path class="cbline" d="M570,58.25h30" style="fill: none; stroke: rgb(0, 0, 0); stroke-opacity: 1; stroke-width: 0.5px;"/><path class="cbline" d="M570,19.25h30" style="fill: none; stroke: rgb(0, 0, 0); stroke-opacity: 1; stroke-width: 0.5px;"/></g><g class="cbaxis crisp" transform="translate(0,-60)"><g class="ycb63be2ftick"><text text-anchor="start" x="603.4" y="4.199999999999999" transform="translate(0,321.88)" style="font-family: 'Open Sans', verdana, arial, sans-serif; font-size: 12px; fill: rgb(68, 68, 68); fill-opacity: 1; white-space: pre;">−2</text></g><g class="ycb63be2ftick"><text text-anchor="start" x="603.4" y="4.199999999999999" transform="translate(0,244.38)" style="font-family: 'Open Sans', verdana, arial, sans-serif; font-size: 12px; fill: rgb(68, 68, 68); fill-opacity: 1; white-space: pre;">0</text></g><g class="ycb63be2ftick"><text text-anchor="start" x="603.4" y="4.199999999999999" transform="translate(0,166.88)" style="font-family: 'Open Sans', verdana, arial, sans-serif; font-size: 12px; fill: rgb(68, 68, 68); fill-opacity: 1; white-space: pre;">2</text></g><g class="ycb63be2ftick"><text text-anchor="start" x="603.4" y="4.199999999999999" transform="translate(0,89.37999999999998)" style="font-family: 'Open Sans', verdana, arial, sans-serif; font-size: 12px; fill: rgb(68, 68, 68); fill-opacity: 1; white-space: pre;">4</text></g></g><g class="cbtitleunshift" transform="translate(-60,-60)"><g class="cbtitle"/></g><rect class="cboutline" x="570" y="10" width="30" height="310" style="stroke: rgb(68, 68, 68); stroke-opacity: 1; fill: none; stroke-width: 1;"/></g><g class="g-gtitle"><text class="gtitle" x="350" y="30" text-anchor="middle" dy="0em" style="font-family: 'Open Sans', verdana, arial, sans-serif; font-size: 17px; fill: rgb(68, 68, 68); opacity: 1; font-weight: normal; white-space: pre;">Policy - Car Rental</text></g><g class="g-xtitle"/><g class="g-ytitle"/></g></svg>