<svg class="main-svg" xmlns="http://www.w3.org/2000/svg" xmlns:xlink="http://www.w3.org/1999/xlink" width="700" height="450" style="" viewBox="0 0 700 450"><rect x="0" y="0" width="700" height="450" style="fill: rgb(255, 255, 255); fill-opacity: 1;"/><defs id="defs-d0a53f"><g class="clips"><clipPath id="clipd0a53fxyplot" class="plotclip"><rect width="580" height="330"/></clipPath><clipPath class="axesclip" id="clipd0a53fx"><rect x="60" y="0" width="580" height="450"/></clipPath><clipPath class="axesclip" id="clipd0a53fy"><rect x="0" y="60" width="700" height="330"/></clipPath><clipPath class="axesclip" id="clipd0a53fxy"><rect x="60" y="60" width="580" height="330"/></clipPath></g><g class="gradients"/></defs><g class="bglayer"/><g class="layer-below"><g class="imagelayer"/><g class="shapelayer"/></g><g class="cartesianlayer"><g class="subplot xy"><g class="layer-subplot"><g class="shapelayer"/><g class="imagelayer"/></g><g class="gridlayer"><g class="x"><path class="xgrid crisp" transform="translate(176.12,0)" d="M0,60v330" style="stroke: rgb(238, 238, 238); stroke-opacity: 1; stroke-width: 1px;"/><path class="xgrid crisp" transform="translate(292.23,0)" d="M0,60v330" style="stroke: rgb(238, 238, 238); stroke-opacity: 1; stroke-width: 1px;"/><path class="xgrid crisp" transform="translate(408.35,0)" d="M0,60v330" style="stroke: rgb(238, 238, 238); stroke-opacity: 1; stroke-width: 1px;"/><path class="xgrid crisp" transform="translate(524.46,0)" d="M0,60v330" style="stroke: rgb(238, 238, 238); stroke-opacity: 1; stroke-width: 1px;"/></g><g class="y"><path class="ygrid crisp" transform="translate(0,324.96)" d="M60,0h580" style="stroke: rgb(238, 238, 238); stroke-opacity: 1; stroke-width: 1px;"/><path class="ygrid crisp" transform="translate(0,272.49)" d="M60,0h580" style="stroke: rgb(238, 238, 238); stroke-opacity: 1; stroke-width: 1px;"/><path class="ygrid crisp" transform="translate(0,220.02)" d="M60,0h580" style="stroke: rgb(238, 238, 238); stroke-opacity: 1; stroke-width: 1px;"/><path class="ygrid crisp" transform="translate(0,167.54000000000002)" d="M60,0h580" style="stroke: rgb(238, 238, 238); stroke-opacity: 1; stroke-width: 1px;"/><path class="ygrid crisp" transform="translate(0,115.07)" d="M60,0h580" style="stroke: rgb(238, 238, 238); stroke-opacity: 1; stroke-width: 1px;"/><path class="ygrid crisp" transform="translate(0,62.59)" d="M60,0h580" style="stroke: rgb(238, 238, 238); stroke-opacity: 1; stroke-width: 1px;"/></g></g><g class="zerolinelayer"><path class="xzl zl crisp" transform="translate(60,0)" d="M0,60v330" style="stroke: rgb(68, 68, 68); stroke-opacity: 1; stroke-width: 1px;"/><path class="yzl zl crisp" transform="translate(0,377.44)" d="M60,0h580" style="stroke: rgb(68, 68, 68); stroke-opacity: 1; stroke-width: 1px;"/></g><path class="xlines-below"/><path class="ylines-below"/><g class="overlines-below"/><g class="xaxislayer-below"/><g class="yaxislayer-below"/><g class="overaxes-below"/><g class="plot" transform="translate(60, 60)" clip-path="url(#clipd0a53fxyplot)"><g class="scatterlayer mlayer"><g class="trace scatter trace81cd1a" style="stroke-miterlimit: 2; opacity: 1;"><g class="fills"/><g class="errorbars"/><g class="lines"><path class="js-line" d="M0,16.5L1.16,264.7L1.74,304.32L2.32,306.94L2.9,304.84L3.48,256.83L4.06,272.05L4.64,304.58L5.23,303.79L5.81,291.46L6.97,295.92L7.55,305.89L8.13,278.34L8.71,292.25L9.87,308.78L10.45,303.27L11.03,309.3L11.61,302.74L12.19,305.37L12.77,300.64L13.35,285.16L13.93,298.02L14.51,307.73L15.1,284.9L15.68,270.73L16.26,310.35L16.84,295.66L17.42,301.69L18,309.3L18.58,305.37L19.74,310.88L20.32,267.32L20.9,307.47L21.48,302.74L22.06,298.28L22.64,309.04L23.22,304.05L23.8,302.74L24.38,295.4L24.96,304.32L25.55,304.05L26.13,305.1L26.71,299.33L27.29,304.84L27.87,307.47L28.45,304.32L29.03,305.37L29.61,301.96L31.93,312.19L32.51,289.62L33.09,309.04L33.67,302.48L34.83,309.83L35.42,311.4L37.16,308.25L37.74,310.61L38.32,309.83L38.9,289.89L39.48,311.66L40.06,309.3L40.64,310.61L41.22,309.3L41.8,312.19L42.38,312.71L42.96,306.68L43.54,312.19L44.12,310.61L44.7,309.56L45.29,307.47L45.87,307.99L46.45,311.4L47.03,310.35L47.61,307.73L48.19,310.09L48.77,308.78L49.93,311.14L50.51,311.14L51.09,307.73L51.67,313.5L52.83,306.68L53.41,310.35L54.57,313.24L55.16,305.1L56.32,309.56L56.9,309.83L58.06,312.19L58.64,311.66L59.22,310.88L59.8,311.93L60.96,310.09L61.54,306.68L62.7,312.71L63.28,311.66L63.86,309.04L64.44,310.35L65.03,309.3L65.61,312.45L66.19,309.04L66.77,309.83L67.35,312.45L67.93,309.83L68.51,310.88L69.09,309.56L69.67,311.93L70.83,312.19L71.41,310.88L72.57,312.71L73.15,307.47L74.31,312.45L74.89,312.98L75.48,312.71L76.06,308.25L77.22,310.35L77.8,306.68L79.54,312.19L80.12,311.66L81.86,311.93L82.44,313.24L83.02,312.71L83.6,308.25L84.76,311.4L85.35,311.4L85.93,306.42L86.51,313.24L87.67,313.5L88.25,312.19L89.99,313.24L90.57,313.24L91.15,310.09L91.73,313.5L94.05,311.14L94.63,311.4L95.22,312.45L95.8,310.35L96.96,313.24L97.54,313.24L99.86,311.66L100.44,312.98L101.6,313.24L102.18,311.4L103.34,313.24L103.92,309.3L104.5,312.71L105.09,309.83L106.25,313.24L106.83,312.98L107.41,312.71L107.99,310.09L108.57,313.24L109.15,310.35L109.73,311.93L110.31,312.98L110.89,311.14L111.47,312.45L112.05,310.35L113.21,312.19L113.79,309.3L114.37,310.35L114.95,308.52L115.54,308.52L116.12,307.73L116.7,301.17L117.28,311.14L117.86,312.45L118.44,311.4L119.02,309.04L119.6,312.71L120.18,310.35L120.76,312.71L121.34,310.35L121.92,312.45L122.5,313.24L123.08,312.71L124.24,311.93L124.82,313.24L126.57,311.66L127.15,312.98L128.89,313.5L129.47,311.4L130.63,313.24L131.21,312.71L131.79,312.98L132.37,308.52L132.95,306.15L133.53,311.66L134.69,312.98L135.28,311.4L135.86,309.56L136.44,311.93L137.02,310.61L137.6,311.66L138.18,313.24L138.76,310.61L139.34,311.66L139.92,310.88L140.5,307.73L141.08,311.14L141.66,309.83L142.24,310.35L142.82,312.45L143.4,312.71L143.98,311.14L145.15,313.24L145.73,313.24L146.31,313.24L146.89,311.4L148.63,313.24L149.21,313.24L150.37,312.45L150.95,313.24L153.27,312.19L153.85,312.98L154.43,309.04L155.02,311.66L155.6,310.09L156.18,312.98L156.76,313.24L157.34,311.4L157.92,313.5L158.5,311.14L159.66,312.98L160.24,312.98L160.82,309.3L161.4,313.5L163.14,311.66L163.72,313.5L164.88,312.45L165.47,313.5L167.21,312.45L167.79,312.71L168.37,313.24L168.95,311.4L170.69,313.24L171.27,313.24L171.85,313.24L172.43,310.35L173.59,311.66L174.17,308.52L175.34,311.4L175.92,307.73L177.08,312.98L177.66,311.4L178.24,312.71L178.82,311.93L179.4,311.14L179.98,308.78L181.72,312.71L182.3,312.45L182.88,313.24L183.46,312.71L184.04,312.19L184.62,312.98L185.21,312.45L185.79,313.24L187.53,313.5L188.11,312.98L188.69,311.4L189.27,313.5L191.01,313.5L191.59,312.45L192.17,313.5L192.75,312.71L195.08,313.5L195.66,312.19L196.24,313.5L196.82,313.24L197.4,313.5L197.98,310.35L198.56,313.24L199.14,313.24L199.72,312.45L200.88,313.24L201.46,312.71L202.04,311.66L202.62,313.24L203.2,310.35L203.78,312.19L206.69,312.71L207.27,310.35L207.85,311.4L208.43,310.88L209.01,311.4L209.59,309.04L210.17,310.88L210.75,307.99L211.33,313.24L211.91,312.98L212.49,313.5L215.98,313.5L216.56,311.4L217.72,313.5L218.3,312.98L218.88,311.14L219.46,312.71L220.04,313.5L220.62,312.19L221.2,312.98L221.78,311.66L223.52,313.24L224.1,311.66L224.68,311.66L225.27,312.71L225.85,311.4L226.43,312.98L227.01,310.35L227.59,313.24L228.17,313.24L228.75,312.19L229.33,312.98L229.91,312.45L230.49,311.66L231.07,312.45L231.65,300.91L232.23,310.61L233.39,313.5L233.97,312.98L236.88,313.5L237.46,312.71L239.2,312.98L239.78,312.71L240.36,311.4L240.94,312.71L242.1,313.5L242.68,312.19L243.84,313.5L244.42,313.24L245.59,311.66L246.17,312.71L246.75,313.5L247.33,312.45L247.91,311.4L248.49,312.19L250.23,311.14L250.81,312.71L251.39,311.14L251.97,312.45L253.13,313.24L253.71,312.98L254.29,312.98L254.87,311.4L256.04,313.24L256.62,313.24L257.2,308.78L257.78,311.66L259.52,313.5L260.1,312.19L260.68,312.98L261.26,310.61L262.42,313.5L263,312.45L264.16,312.98L264.74,311.66L265.33,313.5L265.91,311.93L267.07,313.24L267.65,313.24L269.97,313.5L270.55,313.5L271.13,313.5L271.71,311.93L272.29,313.5L272.87,312.98L273.45,312.98L275.78,312.71L276.36,312.45L276.94,311.66L277.52,313.24L278.68,312.45L279.26,311.14L280.42,312.45L281,311.93L281.58,313.5L282.16,313.24L282.74,312.19L283.32,312.19L283.9,313.24L285.65,312.98L286.23,312.19L287.39,312.98L287.97,312.71L289.71,313.24L290.29,311.66L291.45,313.5L292.03,312.19L292.61,312.98L293.19,311.14L294.35,313.5L294.93,313.24L296.1,313.5L296.68,309.04L297.84,313.24L298.42,313.5L300.16,313.24L300.74,313.5L301.9,312.71L302.48,312.98L303.06,312.71L303.64,313.5L304.22,312.98L304.8,313.5L305.97,312.19L306.55,310.35L307.71,313.5L308.29,312.98L308.87,311.66L309.45,307.99L310.03,312.45L310.61,312.45L311.19,313.24L312.93,313.24L313.51,313.5L314.67,312.45L315.26,313.24L315.84,311.93L316.42,313.24L318.16,312.98L318.74,313.24L319.32,312.71L319.9,313.24L320.48,312.71L321.06,313.24L322.8,313.5L323.38,312.71L324.54,312.45L325.13,310.61L325.71,311.14L326.29,310.61L326.87,312.71L327.45,312.45L328.03,312.19L328.61,312.98L329.19,311.93L329.77,312.98L330.35,311.93L331.51,312.45L332.09,312.71L332.67,310.35L333.25,313.5L334.41,313.5L334.99,312.45L335.58,313.5L336.16,312.71L336.74,313.5L337.32,312.45L337.9,313.5L338.48,312.98L339.64,313.24L340.22,312.45L340.8,313.5L341.38,312.71L342.54,312.19L343.12,313.5L343.7,313.5L344.28,312.71L344.86,312.98L345.45,311.93L346.03,311.4L346.61,312.98L347.77,313.24L348.35,311.4L349.51,313.24L350.09,312.98L350.67,311.4L351.25,312.98L351.83,313.5L352.41,312.45L353.57,313.5L354.15,311.66L354.73,313.5L355.32,312.45L355.9,313.5L356.48,309.83L357.06,312.45L357.64,306.94L358.22,312.45L358.8,307.73L359.38,308.78L359.96,312.19L360.54,311.14L361.12,311.93L361.7,309.83L362.28,310.88L362.86,301.43L363.44,312.45L364.02,311.93L364.6,308.25L365.19,311.66L365.77,310.88L366.35,312.45L367.51,312.71L368.09,310.61L368.67,311.66L369.25,311.14L369.83,312.98L370.41,311.93L371.57,312.98L372.15,311.93L372.73,312.19L373.31,310.61L373.89,311.93L374.47,310.09L375.06,312.71L375.64,310.88L376.22,312.19L376.8,310.09L377.96,312.71L378.54,312.98L379.12,312.98L379.7,312.19L380.28,311.4L380.86,312.71L382.02,310.61L382.6,312.45L383.76,311.93L384.34,312.19L384.92,313.24L385.51,311.4L386.09,310.35L386.67,312.45L388.41,308.25L388.99,312.45L389.57,310.88L390.15,312.19L390.73,313.24L391.31,312.45L392.47,313.24L393.05,312.71L393.63,313.24L394.21,312.45L394.79,312.45L395.38,313.24L395.96,312.71L396.54,311.14L397.7,312.71L398.28,311.93L401.76,313.24L402.34,312.98L402.92,313.5L403.5,309.56L404.08,313.24L404.66,312.98L405.25,313.24L405.83,312.98L406.41,309.3L406.99,313.24L407.57,311.93L408.73,313.24L409.31,313.24L410.47,312.98L411.05,312.98L412.21,313.24L412.79,312.45L413.95,313.24L414.53,312.19L415.7,313.5L416.28,312.71L418.02,312.71L418.6,312.71L419.18,313.24L419.76,311.93L423.24,312.98L423.82,312.45L424.98,313.24L425.57,312.71L426.15,312.45L426.73,313.24L427.89,313.5L428.47,312.45L429.63,313.5L430.21,313.24L431.95,313.24L432.53,313.24L433.69,312.98L434.27,307.2L434.85,312.19L435.44,299.33L436.6,312.71L437.18,311.66L437.76,313.24L438.34,311.66L438.92,312.71L439.5,311.66L440.66,313.24L441.24,312.45L441.82,310.35L442.4,311.4L442.98,313.24L443.56,312.45L444.72,313.24L445.31,307.73L446.47,312.45L447.05,312.45L448.21,312.45L448.79,311.66L450.53,311.93L451.11,311.14L451.69,311.93L452.27,310.88L452.85,311.93L453.43,310.88L454.59,311.4L455.18,309.83L455.76,313.5L456.34,311.4L457.5,313.5L458.08,313.24L459.24,310.88L459.82,313.5L461.56,311.93L462.14,313.24L463.3,312.71L463.88,313.5L464.46,311.66L465.05,312.19L465.63,311.66L466.21,312.71L466.79,312.19L467.95,312.71L468.53,312.45L469.69,311.4L470.27,311.66L470.85,305.63L471.43,306.68L472.01,308.78L472.59,309.56L473.17,311.93L474.33,308.78L474.91,311.66L476.66,310.61L477.24,303.79L478.98,310.61L479.56,312.19L480.14,310.35L480.72,312.19L481.3,313.5L481.88,312.98L482.46,310.35L483.04,310.61L483.62,309.3L484.2,308.78L484.78,312.45L485.37,311.66L485.95,312.98L486.53,310.61L487.11,313.24L487.69,311.93L488.27,312.19L488.85,311.93L489.43,312.71L490.01,305.63L491.17,312.98L491.75,311.93L492.33,312.98L492.91,312.45L493.49,310.88L494.07,311.14L494.65,313.24L495.24,312.45L495.82,312.98L496.4,313.5L496.98,311.66L497.56,313.24L498.14,312.71L498.72,313.5L499.3,313.5L499.88,312.71L500.46,311.93L501.04,313.24L502.2,312.45L502.78,313.24L503.36,311.66L503.94,312.45L504.52,310.88L505.11,312.19L505.69,312.71L506.27,311.93L506.85,312.19L507.43,311.4L508.01,311.14L508.59,312.71L509.17,312.19L509.75,310.09L510.91,311.93L511.49,310.09L513.23,312.45L513.81,311.66L515.56,313.24L516.14,313.5L516.72,312.71L517.3,310.61L517.88,313.5L518.46,311.4L519.62,311.4L520.2,312.19L520.78,313.5L521.36,313.24L521.94,309.3L522.52,312.71L523.1,311.93L523.68,312.98L524.26,312.19L524.84,313.5L526.01,312.98L526.59,313.5L527.75,312.98L528.33,313.5L529.49,311.93L530.07,310.09L531.23,313.5L531.81,312.98L532.97,313.5L533.55,312.71L534.13,313.5L534.71,312.45L535.3,313.5L535.88,310.09L536.46,309.56L537.04,312.71L537.62,310.61L538.2,312.98L539.36,310.35L539.94,310.88L542.26,313.5L542.84,310.35L544,313.5L544.58,311.4L545.75,313.24L546.33,312.98L548.07,312.98L548.65,312.98L549.23,313.5L549.81,312.71L550.39,311.66L550.97,312.19L552.13,312.98L552.71,312.71L556.2,312.71L556.78,310.35L557.36,312.45L557.94,311.93L558.52,311.14L559.1,307.99L559.68,312.19L560.26,309.83L560.84,311.4L562,311.93L562.58,308.78L563.16,311.93L563.74,311.4L564.32,310.88L564.9,309.83L565.49,311.14L566.65,310.35L567.23,311.66L568.39,311.14L568.97,311.93L569.55,311.14L570.13,312.98L571.29,312.19L571.87,308.52L573.61,313.24L574.19,309.56L575.36,313.5L575.94,311.14L576.52,310.35L577.1,313.5L579.42,313.24L580,312.71" style="vector-effect: non-scaling-stroke; fill: none; stroke: rgb(31, 119, 180); stroke-opacity: 1; stroke-width: 2px; opacity: 1;"/></g><g class="points"/><g class="text"/></g></g></g><g class="overplot"/><path class="xlines-above crisp" d="M0,0" style="fill: none;"/><path class="ylines-above crisp" d="M0,0" style="fill: none;"/><g class="overlines-above"/><g class="xaxislayer-above"><g class="xtick"><text text-anchor="middle" x="0" y="403" transform="translate(60,0)" style="font-family: 'Open Sans', verdana, arial, sans-serif; font-size: 12px; fill: rgb(68, 68, 68); fill-opacity: 1; white-space: pre;">0</text></g><g class="xtick"><text text-anchor="middle" x="0" y="403" transform="translate(176.12,0)" style="font-family: 'Open Sans', verdana, arial, sans-serif; font-size: 12px; fill: rgb(68, 68, 68); fill-opacity: 1; white-space: pre;">200</text></g><g class="xtick"><text text-anchor="middle" x="0" y="403" transform="translate(292.23,0)" style="font-family: 'Open Sans', verdana, arial, sans-serif; font-size: 12px; fill: rgb(68, 68, 68); fill-opacity: 1; white-space: pre;">400</text></g><g class="xtick"><text text-anchor="middle" x="0" y="403" transform="translate(408.35,0)" style="font-family: 'Open Sans', verdana, arial, sans-serif; font-size: 12px; fill: rgb(68, 68, 68); fill-opacity: 1; white-space: pre;">600</text></g><g class="xtick"><text text-anchor="middle" x="0" y="403" transform="translate(524.46,0)" style="font-family: 'Open Sans', verdana, arial, sans-serif; font-size: 12px; fill: rgb(68, 68, 68); fill-opacity: 1; white-space: pre;">800</text></g></g><g class="yaxislayer-above"><g class="ytick"><text text-anchor="end" x="59" y="4.199999999999999" transform="translate(0,377.44)" style="font-family: 'Open Sans', verdana, arial, sans-serif; font-size: 12px; fill: rgb(68, 68, 68); fill-opacity: 1; white-space: pre;">0</text></g><g class="ytick"><text text-anchor="end" x="59" y="4.199999999999999" transform="translate(0,324.96)" style="font-family: 'Open Sans', verdana, arial, sans-serif; font-size: 12px; fill: rgb(68, 68, 68); fill-opacity: 1; white-space: pre;">200</text></g><g class="ytick"><text text-anchor="end" x="59" y="4.199999999999999" transform="translate(0,272.49)" style="font-family: 'Open Sans', verdana, arial, sans-serif; font-size: 12px; fill: rgb(68, 68, 68); fill-opacity: 1; white-space: pre;">400</text></g><g class="ytick"><text text-anchor="end" x="59" y="4.199999999999999" transform="translate(0,220.02)" style="font-family: 'Open Sans', verdana, arial, sans-serif; font-size: 12px; fill: rgb(68, 68, 68); fill-opacity: 1; white-space: pre;">600</text></g><g class="ytick"><text text-anchor="end" x="59" y="4.199999999999999" transform="translate(0,167.54000000000002)" style="font-family: 'Open Sans', verdana, arial, sans-serif; font-size: 12px; fill: rgb(68, 68, 68); fill-opacity: 1; white-space: pre;">800</text></g><g class="ytick"><text text-anchor="end" x="59" y="4.199999999999999" transform="translate(0,115.07)" style="font-family: 'Open Sans', verdana, arial, sans-serif; font-size: 12px; fill: rgb(68, 68, 68); fill-opacity: 1; white-space: pre;">1000</text></g><g class="ytick"><text text-anchor="end" x="59" y="4.199999999999999" transform="translate(0,62.59)" style="font-family: 'Open Sans', verdana, arial, sans-serif; font-size: 12px; fill: rgb(68, 68, 68); fill-opacity: 1; white-space: pre;">1200</text></g></g><g class="overaxes-above"/></g></g><g class="polarlayer"/><g class="ternarylayer"/><g class="geolayer"/><g class="pielayer"/><g class="glimages"/><defs id="topdefs-d0a53f"><g class="clips"/></defs><g class="layer-above"><g class="imagelayer"/><g class="shapelayer"/></g><g class="infolayer"><g class="g-gtitle"><text class="gtitle" x="350" y="30" text-anchor="middle" dy="0em" style="font-family: 'Open Sans', verdana, arial, sans-serif; font-size: 17px; fill: rgb(68, 68, 68); opacity: 1; font-weight: normal; white-space: pre;">Episode Length - 4 Actions</text></g><g class="g-xtitle"/><g class="g-ytitle"/></g></svg>