<svg class="main-svg" xmlns="http://www.w3.org/2000/svg" xmlns:xlink="http://www.w3.org/1999/xlink" width="700" height="450" style="" viewBox="0 0 700 450"><rect x="0" y="0" width="700" height="450" style="fill: rgb(255, 255, 255); fill-opacity: 1;"/><defs id="defs-aa4023"><g class="clips"><clipPath id="clipaa4023xyplot" class="plotclip"><rect width="580" height="330"/></clipPath><clipPath class="axesclip" id="clipaa4023x"><rect x="60" y="0" width="580" height="450"/></clipPath><clipPath class="axesclip" id="clipaa4023y"><rect x="0" y="60" width="700" height="330"/></clipPath><clipPath class="axesclip" id="clipaa4023xy"><rect x="60" y="60" width="580" height="330"/></clipPath></g><g class="gradients"/></defs><g class="bglayer"/><g class="layer-below"><g class="imagelayer"/><g class="shapelayer"/></g><g class="cartesianlayer"><g class="subplot xy"><g class="layer-subplot"><g class="shapelayer"/><g class="imagelayer"/></g><g class="gridlayer"><g class="x"><path class="xgrid crisp" transform="translate(176,0)" d="M0,60v330" style="stroke: rgb(238, 238, 238); stroke-opacity: 1; stroke-width: 1px;"/><path class="xgrid crisp" transform="translate(292.58000000000004,0)" d="M0,60v330" style="stroke: rgb(238, 238, 238); stroke-opacity: 1; stroke-width: 1px;"/><path class="xgrid crisp" transform="translate(409.17,0)" d="M0,60v330" style="stroke: rgb(238, 238, 238); stroke-opacity: 1; stroke-width: 1px;"/><path class="xgrid crisp" transform="translate(525.75,0)" d="M0,60v330" style="stroke: rgb(238, 238, 238); stroke-opacity: 1; stroke-width: 1px;"/></g><g class="y"><path class="ygrid crisp" transform="translate(0,309.75)" d="M60,0h580" style="stroke: rgb(238, 238, 238); stroke-opacity: 1; stroke-width: 1px;"/><path class="ygrid crisp" transform="translate(0,232)" d="M60,0h580" style="stroke: rgb(238, 238, 238); stroke-opacity: 1; stroke-width: 1px;"/><path class="ygrid crisp" transform="translate(0,154.25)" d="M60,0h580" style="stroke: rgb(238, 238, 238); stroke-opacity: 1; stroke-width: 1px;"/><path class="ygrid crisp" transform="translate(0,76.5)" d="M60,0h580" style="stroke: rgb(238, 238, 238); stroke-opacity: 1; stroke-width: 1px;"/></g></g><g class="zerolinelayer"><path class="yzl zl crisp" transform="translate(0,387.49)" d="M60,0h580" style="stroke: rgb(68, 68, 68); stroke-opacity: 1; stroke-width: 1px;"/></g><path class="xlines-below"/><path class="ylines-below"/><g class="overlines-below"/><g class="xaxislayer-below"/><g class="yaxislayer-below"/><g class="overaxes-below"/><g class="plot" transform="translate(60, 60)" clip-path="url(#clipaa4023xyplot)"><g class="scatterlayer mlayer"><g class="trace scatter trace8d4c98" style="stroke-miterlimit: 2; opacity: 1;"><g class="fills"/><g class="errorbars"/><g class="lines"><path class="js-line" d="M0,302.62L2.91,308.84L5.83,311.95L8.74,294.84L11.66,302.62L14.57,274.63L17.49,310.39L20.4,304.17L23.32,304.17L26.23,293.29L29.15,301.06L32.06,282.4L34.97,248.19L37.89,294.84L40.8,296.4L43.72,304.17L46.63,301.06L49.55,299.51L52.46,280.85L55.38,313.5L58.29,313.5L61.21,279.29L64.12,311.95L67.04,294.84L69.95,310.39L75.78,221.76L78.69,305.73L81.61,307.28L84.52,307.28L87.44,296.4L90.35,296.4L93.27,301.06L96.18,304.17L99.1,287.07L102.01,265.3L104.92,254.41L107.84,234.2L110.75,305.73L113.67,308.84L116.58,305.73L119.5,280.85L122.41,274.63L125.33,302.62L128.24,238.86L131.16,294.84L134.07,279.29L136.98,259.08L139.9,274.63L142.81,305.73L145.73,251.3L148.64,276.18L151.56,260.63L154.47,282.4L157.39,302.62L160.3,296.4L163.22,299.51L166.13,279.29L169.05,287.07L171.96,310.39L174.87,263.74L177.79,299.51L180.7,304.17L183.62,301.06L186.53,293.29L189.45,282.4L192.36,280.85L195.28,287.07L198.19,307.28L201.11,262.19L204.02,266.85L206.93,254.41L209.85,255.97L212.76,262.19L215.68,285.51L218.59,297.95L221.51,287.07L224.42,310.39L227.34,294.84L230.25,304.17L233.17,280.85L236.08,293.29L238.99,308.84L241.91,282.4L244.82,243.53L247.74,307.28L250.65,235.75L253.57,308.84L256.48,287.07L259.4,301.06L265.23,265.3L268.14,301.06L271.06,238.86L273.97,285.51L276.88,167.33L279.8,274.63L282.71,277.74L285.63,246.64L288.54,285.51L291.46,302.62L294.37,293.29L297.29,266.85L300.2,273.07L303.12,252.86L306.03,266.85L308.94,271.52L311.86,249.75L314.77,285.51L317.69,280.85L320.6,251.3L323.52,263.74L326.43,246.64L329.35,156.45L332.26,293.29L335.18,263.74L338.09,262.19L341.01,190.66L343.92,262.19L346.83,274.63L349.75,291.73L352.66,229.53L355.58,148.67L358.49,291.73L361.41,120.68L364.32,227.98L367.24,193.77L370.15,173.55L373.07,210.87L375.98,257.52L378.89,262.19L381.81,206.21L384.72,269.96L387.64,168.89L390.55,249.75L393.47,266.85L396.38,229.53L399.3,184.44L402.21,285.51L405.13,294.84L408.04,255.97L410.95,255.97L413.87,262.19L416.78,217.09L419.7,277.74L422.61,288.62L425.53,238.86L428.44,245.08L431.36,263.74L437.19,217.09L440.1,277.74L443.02,190.66L445.93,201.54L448.84,185.99L451.76,207.76L454.67,198.43L457.59,266.85L460.5,237.31L463.42,218.65L466.33,212.43L469.25,276.18L472.16,234.2L475.08,173.55L477.99,269.96L480.9,175.11L483.82,190.66L486.73,274.63L489.65,276.18L492.56,296.4L495.48,206.21L498.39,75.59L501.31,203.1L504.22,18.05L507.14,164.22L510.05,254.41L512.96,16.5L515.88,130.01L518.79,42.93L521.71,145.56L524.62,282.4L527.54,137.79L530.45,299.51L533.37,16.5L536.28,246.64L539.2,254.41L547.94,70.92L550.85,158L553.77,134.68L556.68,16.5L559.6,111.35L562.51,265.3L565.43,16.5L568.34,112.91L571.26,92.69L574.17,227.98L577.09,88.03L580,217.09" style="vector-effect: non-scaling-stroke; fill: none; stroke: rgb(31, 119, 180); stroke-opacity: 1; stroke-width: 2px; opacity: 1;"/></g><g class="points"/><g class="text"/></g></g></g><g class="overplot"/><path class="xlines-above crisp" d="M0,0" style="fill: none;"/><path class="ylines-above crisp" d="M0,0" style="fill: none;"/><g class="overlines-above"/><g class="xaxislayer-above"><g class="xtick"><text text-anchor="middle" x="0" y="403" transform="translate(176,0)" style="font-family: 'Open Sans', verdana, arial, sans-serif; font-size: 12px; fill: rgb(68, 68, 68); fill-opacity: 1; white-space: pre;">200</text></g><g class="xtick"><text text-anchor="middle" x="0" y="403" transform="translate(292.58000000000004,0)" style="font-family: 'Open Sans', verdana, arial, sans-serif; font-size: 12px; fill: rgb(68, 68, 68); fill-opacity: 1; white-space: pre;">400</text></g><g class="xtick"><text text-anchor="middle" x="0" y="403" transform="translate(409.17,0)" style="font-family: 'Open Sans', verdana, arial, sans-serif; font-size: 12px; fill: rgb(68, 68, 68); fill-opacity: 1; white-space: pre;">600</text></g><g class="xtick"><text text-anchor="middle" x="0" y="403" transform="translate(525.75,0)" style="font-family: 'Open Sans', verdana, arial, sans-serif; font-size: 12px; fill: rgb(68, 68, 68); fill-opacity: 1; white-space: pre;">800</text></g></g><g class="yaxislayer-above"><g class="ytick"><text text-anchor="end" x="59" y="4.199999999999999" transform="translate(0,387.49)" style="font-family: 'Open Sans', verdana, arial, sans-serif; font-size: 12px; fill: rgb(68, 68, 68); fill-opacity: 1; white-space: pre;">0</text></g><g class="ytick"><text text-anchor="end" x="59" y="4.199999999999999" transform="translate(0,309.75)" style="font-family: 'Open Sans', verdana, arial, sans-serif; font-size: 12px; fill: rgb(68, 68, 68); fill-opacity: 1; white-space: pre;">50</text></g><g class="ytick"><text text-anchor="end" x="59" y="4.199999999999999" transform="translate(0,232)" style="font-family: 'Open Sans', verdana, arial, sans-serif; font-size: 12px; fill: rgb(68, 68, 68); fill-opacity: 1; white-space: pre;">100</text></g><g class="ytick"><text text-anchor="end" x="59" y="4.199999999999999" transform="translate(0,154.25)" style="font-family: 'Open Sans', verdana, arial, sans-serif; font-size: 12px; fill: rgb(68, 68, 68); fill-opacity: 1; white-space: pre;">150</text></g><g class="ytick"><text text-anchor="end" x="59" y="4.199999999999999" transform="translate(0,76.5)" style="font-family: 'Open Sans', verdana, arial, sans-serif; font-size: 12px; fill: rgb(68, 68, 68); fill-opacity: 1; white-space: pre;">200</text></g></g><g class="overaxes-above"/></g></g><g class="polarlayer"/><g class="ternarylayer"/><g class="geolayer"/><g class="pielayer"/><g class="glimages"/><defs id="topdefs-aa4023"><g class="clips"/></defs><g class="layer-above"><g class="imagelayer"/><g class="shapelayer"/></g><g class="infolayer"><g class="g-gtitle"><text class="gtitle" x="350" y="30" text-anchor="middle" dy="0em" style="font-family: 'Open Sans', verdana, arial, sans-serif; font-size: 17px; fill: rgb(68, 68, 68); opacity: 1; font-weight: normal; white-space: pre;">REINFORCE - CartPole-v0</text></g><g class="g-xtitle"/><g class="g-ytitle"/></g></svg>