<svg class="main-svg" xmlns="http://www.w3.org/2000/svg" xmlns:xlink="http://www.w3.org/1999/xlink" width="700" height="450" style="" viewBox="0 0 700 450"><rect x="0" y="0" width="700" height="450" style="fill: rgb(255, 255, 255); fill-opacity: 1;"/><defs id="defs-462358"><g class="clips"><clipPath id="clip462358xyplot" class="plotclip"><rect width="580" height="330"/></clipPath><clipPath class="axesclip" id="clip462358x"><rect x="60" y="0" width="580" height="450"/></clipPath><clipPath class="axesclip" id="clip462358y"><rect x="0" y="60" width="700" height="330"/></clipPath><clipPath class="axesclip" id="clip462358xy"><rect x="60" y="60" width="580" height="330"/></clipPath></g><g class="gradients"/></defs><g class="bglayer"/><g class="layer-below"><g class="imagelayer"/><g class="shapelayer"/></g><g class="cartesianlayer"><g class="subplot xy"><g class="layer-subplot"><g class="shapelayer"/><g class="imagelayer"/></g><g class="gridlayer"><g class="x"><path class="xgrid crisp" transform="translate(176,0)" d="M0,60v330" style="stroke: rgb(238, 238, 238); stroke-opacity: 1; stroke-width: 1px;"/><path class="xgrid crisp" transform="translate(292.58000000000004,0)" d="M0,60v330" style="stroke: rgb(238, 238, 238); stroke-opacity: 1; stroke-width: 1px;"/><path class="xgrid crisp" transform="translate(409.17,0)" d="M0,60v330" style="stroke: rgb(238, 238, 238); stroke-opacity: 1; stroke-width: 1px;"/><path class="xgrid crisp" transform="translate(525.75,0)" d="M0,60v330" style="stroke: rgb(238, 238, 238); stroke-opacity: 1; stroke-width: 1px;"/></g><g class="y"><path class="ygrid crisp" transform="translate(0,310.97)" d="M60,0h580" style="stroke: rgb(238, 238, 238); stroke-opacity: 1; stroke-width: 1px;"/><path class="ygrid crisp" transform="translate(0,232.82)" d="M60,0h580" style="stroke: rgb(238, 238, 238); stroke-opacity: 1; stroke-width: 1px;"/><path class="ygrid crisp" transform="translate(0,154.66)" d="M60,0h580" style="stroke: rgb(238, 238, 238); stroke-opacity: 1; stroke-width: 1px;"/><path class="ygrid crisp" transform="translate(0,76.5)" d="M60,0h580" style="stroke: rgb(238, 238, 238); stroke-opacity: 1; stroke-width: 1px;"/></g></g><g class="zerolinelayer"><path class="yzl zl crisp" transform="translate(0,389.13)" d="M60,0h580" style="stroke: rgb(68, 68, 68); stroke-opacity: 1; stroke-width: 1px;"/></g><path class="xlines-below"/><path class="ylines-below"/><g class="overlines-below"/><g class="xaxislayer-below"/><g class="yaxislayer-below"/><g class="overaxes-below"/><g class="plot" transform="translate(60, 60)" clip-path="url(#clip462358xyplot)"><g class="scatterlayer mlayer"><g class="trace scatter trace240c6f" style="stroke-miterlimit: 2; opacity: 1;"><g class="fills"/><g class="errorbars"/><g class="lines"><path class="js-line" d="M0,293.18L2.91,307.25L5.83,293.18L8.74,296.31L11.66,300.99L14.57,299.43L17.49,271.29L20.4,305.68L23.32,294.74L26.23,291.62L29.15,291.62L32.06,300.99L34.97,297.87L37.89,305.68L40.8,300.99L43.72,311.94L46.63,282.24L52.46,300.99L55.38,299.43L58.29,299.43L61.21,310.37L64.12,268.17L67.04,296.31L69.95,308.81L72.86,247.85L78.69,294.74L81.61,219.71L84.52,293.18L87.44,299.43L90.35,302.56L93.27,296.31L96.18,294.74L99.1,294.74L102.01,307.25L104.92,280.67L107.84,269.73L110.75,279.11L113.67,290.05L116.58,274.42L119.5,302.56L122.41,296.31L125.33,261.92L128.24,299.43L131.16,285.36L134.07,293.18L136.98,297.87L139.9,300.99L142.81,294.74L145.73,260.35L148.64,282.24L151.56,275.98L154.47,302.56L157.39,308.81L160.3,247.85L163.22,271.29L166.13,304.12L169.05,244.72L171.96,257.23L174.87,304.12L177.79,197.83L180.7,302.56L183.62,290.05L186.53,283.8L189.45,307.25L192.36,305.68L195.28,254.1L198.19,288.49L201.11,308.81L204.02,299.43L206.93,293.18L209.85,302.56L212.76,310.37L215.68,300.99L218.59,265.04L221.51,293.18L224.42,254.1L227.34,299.43L230.25,247.85L233.17,296.31L236.08,300.99L238.99,265.04L241.91,299.43L244.82,200.95L247.74,224.4L250.65,299.43L253.57,269.73L256.48,285.36L259.4,282.24L262.31,182.19L265.23,202.52L268.14,297.87L271.06,294.74L273.97,302.56L276.88,271.29L279.8,313.5L282.71,305.68L285.63,294.74L288.54,305.68L291.46,200.95L294.37,296.31L297.29,294.74L300.2,272.86L303.12,271.29L306.03,268.17L308.94,280.67L311.86,261.92L314.77,219.71L317.69,241.59L320.6,274.42L323.52,233.78L326.43,275.98L329.35,249.41L332.26,266.61L335.18,299.43L338.09,236.91L341.01,288.49L343.92,258.79L346.83,238.47L349.75,227.53L352.66,121.23L355.58,233.78L358.49,265.04L361.41,255.66L364.32,294.74L367.24,294.74L370.15,232.22L373.07,244.72L375.98,271.29L378.89,274.42L381.81,204.08L384.72,204.08L387.64,163.44L390.55,265.04L393.47,252.54L396.38,132.17L399.3,215.02L402.21,25.88L405.13,194.7L408.04,110.29L410.95,100.91L413.87,66.52L416.78,263.48L419.7,43.07L422.61,121.23L425.53,97.78L428.44,16.5L431.36,299.43L434.27,127.48L437.19,197.83L440.1,211.89L443.02,277.55L445.93,175.94L448.84,224.4L451.76,75.9L454.67,24.32L457.59,186.88L460.5,66.52L463.42,93.09L466.33,205.64L469.25,191.57L472.16,16.5L475.08,146.24L477.99,64.96L480.9,116.54L483.82,16.5L486.73,141.55L489.65,16.5L492.56,274.42L495.48,105.6L498.39,16.5L501.31,130.61L504.22,68.08L507.14,135.3L512.96,94.66L515.88,16.5L521.71,16.5L524.62,58.71L527.54,144.68L530.45,132.17L533.37,258.79L536.28,132.17L539.2,279.11L542.11,124.36L545.03,288.49L547.94,46.2L550.85,119.67L553.77,132.17L556.68,136.86L559.6,16.5L562.51,16.5L565.43,89.97L568.34,16.5L571.26,139.99L574.17,39.95L577.09,16.5L580,19.63" style="vector-effect: non-scaling-stroke; fill: none; stroke: rgb(31, 119, 180); stroke-opacity: 1; stroke-width: 2px; opacity: 1;"/></g><g class="points"/><g class="text"/></g></g></g><g class="overplot"/><path class="xlines-above crisp" d="M0,0" style="fill: none;"/><path class="ylines-above crisp" d="M0,0" style="fill: none;"/><g class="overlines-above"/><g class="xaxislayer-above"><g class="xtick"><text text-anchor="middle" x="0" y="403" transform="translate(176,0)" style="font-family: 'Open Sans', verdana, arial, sans-serif; font-size: 12px; fill: rgb(68, 68, 68); fill-opacity: 1; white-space: pre;">200</text></g><g class="xtick"><text text-anchor="middle" x="0" y="403" transform="translate(292.58000000000004,0)" style="font-family: 'Open Sans', verdana, arial, sans-serif; font-size: 12px; fill: rgb(68, 68, 68); fill-opacity: 1; white-space: pre;">400</text></g><g class="xtick"><text text-anchor="middle" x="0" y="403" transform="translate(409.17,0)" style="font-family: 'Open Sans', verdana, arial, sans-serif; font-size: 12px; fill: rgb(68, 68, 68); fill-opacity: 1; white-space: pre;">600</text></g><g class="xtick"><text text-anchor="middle" x="0" y="403" transform="translate(525.75,0)" style="font-family: 'Open Sans', verdana, arial, sans-serif; font-size: 12px; fill: rgb(68, 68, 68); fill-opacity: 1; white-space: pre;">800</text></g></g><g class="yaxislayer-above"><g class="ytick"><text text-anchor="end" x="59" y="4.199999999999999" transform="translate(0,389.13)" style="font-family: 'Open Sans', verdana, arial, sans-serif; font-size: 12px; fill: rgb(68, 68, 68); fill-opacity: 1; white-space: pre;">0</text></g><g class="ytick"><text text-anchor="end" x="59" y="4.199999999999999" transform="translate(0,310.97)" style="font-family: 'Open Sans', verdana, arial, sans-serif; font-size: 12px; fill: rgb(68, 68, 68); fill-opacity: 1; white-space: pre;">50</text></g><g class="ytick"><text text-anchor="end" x="59" y="4.199999999999999" transform="translate(0,232.82)" style="font-family: 'Open Sans', verdana, arial, sans-serif; font-size: 12px; fill: rgb(68, 68, 68); fill-opacity: 1; white-space: pre;">100</text></g><g class="ytick"><text text-anchor="end" x="59" y="4.199999999999999" transform="translate(0,154.66)" style="font-family: 'Open Sans', verdana, arial, sans-serif; font-size: 12px; fill: rgb(68, 68, 68); fill-opacity: 1; white-space: pre;">150</text></g><g class="ytick"><text text-anchor="end" x="59" y="4.199999999999999" transform="translate(0,76.5)" style="font-family: 'Open Sans', verdana, arial, sans-serif; font-size: 12px; fill: rgb(68, 68, 68); fill-opacity: 1; white-space: pre;">200</text></g></g><g class="overaxes-above"/></g></g><g class="polarlayer"/><g class="ternarylayer"/><g class="geolayer"/><g class="pielayer"/><g class="glimages"/><defs id="topdefs-462358"><g class="clips"/></defs><g class="layer-above"><g class="imagelayer"/><g class="shapelayer"/></g><g class="infolayer"><g class="g-gtitle"><text class="gtitle" x="350" y="30" text-anchor="middle" dy="0em" style="font-family: 'Open Sans', verdana, arial, sans-serif; font-size: 17px; fill: rgb(68, 68, 68); opacity: 1; font-weight: normal; white-space: pre;">REINFORCE - CartPole-v0</text></g><g class="g-xtitle"><text class="xtitle" x="350" y="442" text-anchor="middle" style="font-family: 'Open Sans', verdana, arial, sans-serif; font-size: 14px; fill: rgb(68, 68, 68); opacity: 1; font-weight: normal; white-space: pre;">Episode</text></g><g class="g-ytitle"><text class="ytitle" transform="rotate(-90,22,225)" x="22" y="225" text-anchor="middle" style="font-family: 'Open Sans', verdana, arial, sans-serif; font-size: 14px; fill: rgb(68, 68, 68); opacity: 1; font-weight: normal; white-space: pre;">Episode Reward</text></g></g></svg>