<svg class="main-svg" xmlns="http://www.w3.org/2000/svg" xmlns:xlink="http://www.w3.org/1999/xlink" width="700" height="450" style="" viewBox="0 0 700 450"><rect x="0" y="0" width="700" height="450" style="fill: rgb(255, 255, 255); fill-opacity: 1;"/><defs id="defs-7307cc"><g class="clips"><clipPath id="clip7307ccxyplot" class="plotclip"><rect width="580" height="330"/></clipPath><clipPath class="axesclip" id="clip7307ccx"><rect x="60" y="0" width="580" height="450"/></clipPath><clipPath class="axesclip" id="clip7307ccy"><rect x="0" y="60" width="700" height="330"/></clipPath><clipPath class="axesclip" id="clip7307ccxy"><rect x="60" y="60" width="580" height="330"/></clipPath></g><g class="gradients"/></defs><g class="bglayer"/><g class="layer-below"><g class="imagelayer"/><g class="shapelayer"/></g><g class="cartesianlayer"><g class="subplot xy"><g class="layer-subplot"><g class="shapelayer"/><g class="imagelayer"/></g><g class="gridlayer"><g class="x"><path class="xgrid crisp" transform="translate(176,0)" d="M0,60v330" style="stroke: rgb(238, 238, 238); stroke-opacity: 1; stroke-width: 1px;"/><path class="xgrid crisp" transform="translate(292.58000000000004,0)" d="M0,60v330" style="stroke: rgb(238, 238, 238); stroke-opacity: 1; stroke-width: 1px;"/><path class="xgrid crisp" transform="translate(409.17,0)" d="M0,60v330" style="stroke: rgb(238, 238, 238); stroke-opacity: 1; stroke-width: 1px;"/><path class="xgrid crisp" transform="translate(525.75,0)" d="M0,60v330" style="stroke: rgb(238, 238, 238); stroke-opacity: 1; stroke-width: 1px;"/></g><g class="y"><path class="ygrid crisp" transform="translate(0,309.75)" d="M60,0h580" style="stroke: rgb(238, 238, 238); stroke-opacity: 1; stroke-width: 1px;"/><path class="ygrid crisp" transform="translate(0,232)" d="M60,0h580" style="stroke: rgb(238, 238, 238); stroke-opacity: 1; stroke-width: 1px;"/><path class="ygrid crisp" transform="translate(0,154.25)" d="M60,0h580" style="stroke: rgb(238, 238, 238); stroke-opacity: 1; stroke-width: 1px;"/><path class="ygrid crisp" transform="translate(0,76.5)" d="M60,0h580" style="stroke: rgb(238, 238, 238); stroke-opacity: 1; stroke-width: 1px;"/></g></g><g class="zerolinelayer"><path class="yzl zl crisp" transform="translate(0,387.49)" d="M60,0h580" style="stroke: rgb(68, 68, 68); stroke-opacity: 1; stroke-width: 1px;"/></g><path class="xlines-below"/><path class="ylines-below"/><g class="overlines-below"/><g class="xaxislayer-below"/><g class="yaxislayer-below"/><g class="overaxes-below"/><g class="plot" transform="translate(60, 60)" clip-path="url(#clip7307ccxyplot)"><g class="scatterlayer mlayer"><g class="trace scatter trace18272c" style="stroke-miterlimit: 2; opacity: 1;"><g class="fills"/><g class="errorbars"/><g class="lines"><path class="js-line" d="M0,299.51L2.91,307.28L5.83,248.19L8.74,313.5L11.66,287.07L14.57,310.39L17.49,305.73L20.4,282.4L23.32,302.62L26.23,297.95L29.15,308.84L34.97,305.73L37.89,260.63L40.8,291.73L43.72,308.84L46.63,282.4L49.55,297.95L52.46,297.95L55.38,307.28L58.29,304.17L61.21,305.73L64.12,311.95L67.04,313.5L69.95,305.73L72.86,304.17L75.78,276.18L78.69,304.17L81.61,296.4L84.52,291.73L87.44,304.17L90.35,308.84L93.27,294.84L96.18,235.75L99.1,97.36L102.01,245.08L104.92,302.62L107.84,274.63L110.75,251.3L113.67,246.64L116.58,224.87L119.5,285.51L122.41,308.84L125.33,184.44L131.16,237.31L134.07,199.99L136.98,245.08L139.9,249.75L142.81,252.86L145.73,266.85L148.64,231.09L151.56,245.08L154.47,269.96L157.39,263.74L160.3,277.74L163.22,265.3L166.13,210.87L169.05,226.42L171.96,254.41L174.87,142.45L177.79,245.08L180.7,181.33L183.62,16.5L186.53,245.08L189.45,259.08L192.36,190.66L195.28,128.46L198.19,148.67L201.11,203.1L204.02,137.79L206.93,201.54L209.85,95.8L212.76,210.87L215.68,134.68L218.59,232.64L221.51,241.97L224.42,268.41L227.34,255.97L230.25,266.85L233.17,268.41L236.08,271.52L238.99,262.19L241.91,235.75L244.82,224.87L250.65,98.91L253.57,207.76L256.48,235.75L259.4,241.97L262.31,285.51L265.23,287.07L268.14,237.31L271.06,282.4L273.97,218.65L276.88,273.07L279.8,262.19L282.71,254.41L285.63,254.41L288.54,252.86L291.46,260.63L294.37,16.5L297.29,175.11L300.2,238.86L303.12,255.97L306.03,245.08L308.94,271.52L311.86,237.31L314.77,203.1L317.69,232.64L320.6,240.42L323.52,213.98L326.43,153.34L329.35,213.98L332.26,237.31L335.18,109.8L338.09,103.58L341.01,125.35L343.92,108.24L346.83,38.27L349.75,16.5L352.66,126.9L355.58,89.58L358.49,114.46L361.41,78.7L364.32,255.97L367.24,184.44L370.15,28.94L373.07,16.5L375.98,226.42L378.89,168.89L381.81,203.1L384.72,248.19L387.64,210.87L393.47,49.15L396.38,16.5L399.3,39.82L402.21,39.82L405.13,126.9L408.04,172L410.95,217.09L413.87,102.02L416.78,53.82L419.7,72.48L422.61,67.81L425.53,100.47L428.44,77.14L431.36,156.45L434.27,16.5L437.19,159.56L440.1,103.58L443.02,223.31L445.93,114.46L448.84,144.01L451.76,16.5L454.67,16.5L457.59,136.23L460.5,220.2L463.42,161.11L466.33,238.86L469.25,237.31L472.16,161.11L475.08,35.16L477.99,140.9L480.9,122.24L483.82,165.78L486.73,95.8L489.65,114.46L492.56,69.37L495.48,125.35L501.31,16.5L504.22,16.5L507.14,172L510.05,103.58L512.96,112.91L515.88,16.5L518.79,16.5L521.71,86.47L524.62,16.5L527.54,142.45L530.45,70.92L533.37,164.22L539.2,72.48L542.11,88.03L545.03,134.68L547.94,16.5L550.85,116.02L553.77,181.33L559.6,16.5L562.51,162.67L565.43,159.56L568.34,136.23L571.26,16.5L574.17,16.5L577.09,61.59L580,91.14" style="vector-effect: non-scaling-stroke; fill: none; stroke: rgb(31, 119, 180); stroke-opacity: 1; stroke-width: 2px; opacity: 1;"/></g><g class="points"/><g class="text"/></g></g></g><g class="overplot"/><path class="xlines-above crisp" d="M0,0" style="fill: none;"/><path class="ylines-above crisp" d="M0,0" style="fill: none;"/><g class="overlines-above"/><g class="xaxislayer-above"><g class="xtick"><text text-anchor="middle" x="0" y="403" transform="translate(176,0)" style="font-family: 'Open Sans', verdana, arial, sans-serif; font-size: 12px; fill: rgb(68, 68, 68); fill-opacity: 1; white-space: pre;">200</text></g><g class="xtick"><text text-anchor="middle" x="0" y="403" transform="translate(292.58000000000004,0)" style="font-family: 'Open Sans', verdana, arial, sans-serif; font-size: 12px; fill: rgb(68, 68, 68); fill-opacity: 1; white-space: pre;">400</text></g><g class="xtick"><text text-anchor="middle" x="0" y="403" transform="translate(409.17,0)" style="font-family: 'Open Sans', verdana, arial, sans-serif; font-size: 12px; fill: rgb(68, 68, 68); fill-opacity: 1; white-space: pre;">600</text></g><g class="xtick"><text text-anchor="middle" x="0" y="403" transform="translate(525.75,0)" style="font-family: 'Open Sans', verdana, arial, sans-serif; font-size: 12px; fill: rgb(68, 68, 68); fill-opacity: 1; white-space: pre;">800</text></g></g><g class="yaxislayer-above"><g class="ytick"><text text-anchor="end" x="59" y="4.199999999999999" transform="translate(0,387.49)" style="font-family: 'Open Sans', verdana, arial, sans-serif; font-size: 12px; fill: rgb(68, 68, 68); fill-opacity: 1; white-space: pre;">0</text></g><g class="ytick"><text text-anchor="end" x="59" y="4.199999999999999" transform="translate(0,309.75)" style="font-family: 'Open Sans', verdana, arial, sans-serif; font-size: 12px; fill: rgb(68, 68, 68); fill-opacity: 1; white-space: pre;">50</text></g><g class="ytick"><text text-anchor="end" x="59" y="4.199999999999999" transform="translate(0,232)" style="font-family: 'Open Sans', verdana, arial, sans-serif; font-size: 12px; fill: rgb(68, 68, 68); fill-opacity: 1; white-space: pre;">100</text></g><g class="ytick"><text text-anchor="end" x="59" y="4.199999999999999" transform="translate(0,154.25)" style="font-family: 'Open Sans', verdana, arial, sans-serif; font-size: 12px; fill: rgb(68, 68, 68); fill-opacity: 1; white-space: pre;">150</text></g><g class="ytick"><text text-anchor="end" x="59" y="4.199999999999999" transform="translate(0,76.5)" style="font-family: 'Open Sans', verdana, arial, sans-serif; font-size: 12px; fill: rgb(68, 68, 68); fill-opacity: 1; white-space: pre;">200</text></g></g><g class="overaxes-above"/></g></g><g class="polarlayer"/><g class="ternarylayer"/><g class="geolayer"/><g class="pielayer"/><g class="glimages"/><defs id="topdefs-7307cc"><g class="clips"/></defs><g class="layer-above"><g class="imagelayer"/><g class="shapelayer"/></g><g class="infolayer"><g class="g-gtitle"><text class="gtitle" x="350" y="30" text-anchor="middle" dy="0em" style="font-family: 'Open Sans', verdana, arial, sans-serif; font-size: 17px; fill: rgb(68, 68, 68); opacity: 1; font-weight: normal; white-space: pre;">One-Step AC - CartPole-v0</text></g><g class="g-xtitle"><text class="xtitle" x="350" y="442" text-anchor="middle" style="font-family: 'Open Sans', verdana, arial, sans-serif; font-size: 14px; fill: rgb(68, 68, 68); opacity: 1; font-weight: normal; white-space: pre;">Episode</text></g><g class="g-ytitle"><text class="ytitle" transform="rotate(-90,22,225)" x="22" y="225" text-anchor="middle" style="font-family: 'Open Sans', verdana, arial, sans-serif; font-size: 14px; fill: rgb(68, 68, 68); opacity: 1; font-weight: normal; white-space: pre;">Episode Reward</text></g></g></svg>