<svg class="main-svg" xmlns="http://www.w3.org/2000/svg" xmlns:xlink="http://www.w3.org/1999/xlink" width="700" height="450" style="" viewBox="0 0 700 450"><rect x="0" y="0" width="700" height="450" style="fill: rgb(255, 255, 255); fill-opacity: 1;"/><defs id="defs-6949b5"><g class="clips"><clipPath id="clip6949b5xyplot" class="plotclip"><rect width="468" height="330"/></clipPath><clipPath class="axesclip" id="clip6949b5x"><rect x="60" y="0" width="468" height="450"/></clipPath><clipPath class="axesclip" id="clip6949b5y"><rect x="0" y="60" width="700" height="330"/></clipPath><clipPath class="axesclip" id="clip6949b5xy"><rect x="60" y="60" width="468" height="330"/></clipPath></g><g class="gradients"/></defs><g class="bglayer"/><g class="layer-below"><g class="imagelayer"/><g class="shapelayer"/></g><g class="cartesianlayer"><g class="subplot xy"><g class="layer-subplot"><g class="shapelayer"/><g class="imagelayer"/></g><g class="gridlayer"><g class="x"><path class="xgrid crisp" transform="translate(138.03,0)" d="M0,60v330" style="stroke: rgb(238, 238, 238); stroke-opacity: 1; stroke-width: 1px;"/><path class="xgrid crisp" transform="translate(216.05,0)" d="M0,60v330" style="stroke: rgb(238, 238, 238); stroke-opacity: 1; stroke-width: 1px;"/><path class="xgrid crisp" transform="translate(294.08000000000004,0)" d="M0,60v330" style="stroke: rgb(238, 238, 238); stroke-opacity: 1; stroke-width: 1px;"/><path class="xgrid crisp" transform="translate(372.1,0)" d="M0,60v330" style="stroke: rgb(238, 238, 238); stroke-opacity: 1; stroke-width: 1px;"/><path class="xgrid crisp" transform="translate(450.13,0)" d="M0,60v330" style="stroke: rgb(238, 238, 238); stroke-opacity: 1; stroke-width: 1px;"/></g><g class="y"><path class="ygrid crisp" transform="translate(0,304.15)" d="M60,0h468" style="stroke: rgb(238, 238, 238); stroke-opacity: 1; stroke-width: 1px;"/><path class="ygrid crisp" transform="translate(0,234.8)" d="M60,0h468" style="stroke: rgb(238, 238, 238); stroke-opacity: 1; stroke-width: 1px;"/><path class="ygrid crisp" transform="translate(0,165.44)" d="M60,0h468" style="stroke: rgb(238, 238, 238); stroke-opacity: 1; stroke-width: 1px;"/><path class="ygrid crisp" transform="translate(0,96.09)" d="M60,0h468" style="stroke: rgb(238, 238, 238); stroke-opacity: 1; stroke-width: 1px;"/></g></g><g class="zerolinelayer"><path class="xzl zl crisp" transform="translate(60,0)" d="M0,60v330" style="stroke: rgb(68, 68, 68); stroke-opacity: 1; stroke-width: 1px;"/><path class="yzl zl crisp" transform="translate(0,373.5)" d="M60,0h468" style="stroke: rgb(68, 68, 68); stroke-opacity: 1; stroke-width: 1px;"/></g><path class="xlines-below"/><path class="ylines-below"/><g class="overlines-below"/><g class="xaxislayer-below"/><g class="yaxislayer-below"/><g class="overaxes-below"/><g class="plot" transform="translate(60, 60)" clip-path="url(#clip6949b5xyplot)"><g class="scatterlayer mlayer"><g class="trace scatter trace503055" style="stroke-miterlimit: 2; opacity: 1;"><g class="fills"/><g class="errorbars"/><g class="lines"><path class="js-line" d="M0,313.5L11.55,312.81L11.7,312.63L12.8,312.46L12.95,312.46L14.67,311.77L14.82,311.59L18.26,310.9L18.41,310.73L21.54,310.03L21.69,309.86L24.03,309.17L24.19,308.99L26.22,308.3L26.37,308.13L28.25,307.08L28.4,307.08L30.27,306.39L30.43,306.22L31.83,305.7L31.99,305.7L33.4,305L33.55,304.83L35.27,304.14L35.42,303.79L37.45,302.4L37.61,302.4L38.7,301.71L38.86,301.54L44.47,298.94L44.63,298.94L45.88,297.9L46.04,297.9L53.21,293.39L53.37,293.21L54.77,292.52L54.93,292.17L56.18,291.65L56.33,291.13L57.58,290.09L57.74,290.09L58.99,289.4L59.14,289.23L60.39,288.53L60.55,288.19L61.8,287.49L61.95,287.32L62.89,286.45L63.05,286.45L63.83,285.93L63.98,285.41L65.07,284.89L65.23,284.37L66.01,283.68L66.17,282.99L66.95,282.29L67.1,282.12L67.73,281.6L67.88,281.08L68.51,280.73L68.66,280.04L69.91,279.34L70.07,279.17L71.63,277.09L71.78,277.09L72.1,276.74L72.25,276.05L77.25,269.81L77.4,269.63L80.83,265.3L80.99,264.78L81.93,264.09L82.08,263.57L88.17,256.28L88.33,255.42L88.95,254.9L89.11,254.55L94.88,247.1L95.04,246.75L101.12,239.29L101.28,238.6L102.06,238.08L102.21,237.56L104.24,234.79L104.4,234.79L106.43,231.84L106.58,231.84L107.36,229.93L107.52,229.58L108.61,228.89L108.77,228.2L109.86,226.64L110.02,226.46L110.17,226.46L110.33,225.6L113.92,220.39L114.07,219.87L115.79,217.62L115.95,216.75L118.29,213.11L118.44,213.11L119.22,212.42L119.38,211.9L120.47,210.17L120.63,210.17L122.66,206.87L122.81,206L126.09,201.84L126.25,200.8L126.87,200.46L127.03,199.94L129.21,196.47L129.37,195.95L131.86,191.96L132.02,191.61L133.42,189.36L133.58,189.01L134.98,186.76L135.14,186.41L138.26,181.21L138.42,181.21L140.6,178.09L140.76,177.57L141.85,176.01L142.01,175.84L143.72,172.54L143.88,172.54L145.13,170.46L145.28,169.94L145.91,169.25L146.06,168.55L146.69,167.86L146.84,167.34L149.19,163.87L149.34,163.87L152.62,158.32L152.77,158.32L154.65,155.55L154.8,155.03L156.36,152.78L156.52,152.78L191.94,152.08L192.1,151.91L196.47,151.22L196.63,151.04L203.02,150.35L203.18,150.18L204.43,149.83L204.58,149.83L208.33,149.31L208.49,148.96L212.07,148.27L212.23,148.1L217.22,147.4L217.38,147.06L220.66,146.36L220.81,146.19L223.93,145.49L224.09,145.32L227.84,144.63L227.99,144.45L230.96,143.76L231.11,143.59L235.33,142.89L235.48,142.72L236.89,142.2L237.04,142.2L239.23,141.51L239.38,141.33L242.66,140.64L242.82,140.47L245.16,139.95L245.31,139.6L248.28,139.08L248.43,138.73L251.4,138.04L251.56,137.87L254.21,137.17L254.36,137L257.02,136.31L257.17,136.13L259.05,135.44L259.2,135.27L262.01,134.57L262.17,134.4L266.54,132.84L266.69,132.84L268.57,132.14L268.72,131.97L271.37,131.28L271.53,131.1L273.72,130.41L273.87,130.24L275.9,129.54L276.06,129.2L278.24,128.5L278.4,128.33L280.27,127.64L280.43,127.46L281.99,126.94L282.14,126.6L283.39,126.25L283.55,126.25L285.42,125.21L285.58,125.21L287.76,124.52L287.92,124.34L289.32,123.82L289.48,123.82L290.72,123.3L290.88,122.96L293.07,122.44L293.22,122.09L295.72,121.39L295.87,121.22L297.59,120.35L297.75,120.35L299.78,119.14L299.93,119.14L302.27,118.45L302.43,117.93L304.77,117.23L304.93,117.06L305.86,116.37L306.02,116.19L307.73,115.5L307.89,115.15L309.61,114.46L309.76,114.29L310.86,113.42L311.01,113.42L312.1,112.73L312.26,112.55L314.13,111.51L314.29,111.51L315.23,110.82L315.38,110.65L317.57,109.95L317.72,109.61L318.97,108.56L319.13,108.39L321,107.7L321.16,107.35L322.72,106.66L322.87,106.66L324.12,105.96L324.28,105.44L325.99,104.92L326.15,104.58L327.87,103.88L328.02,103.71L329.89,102.67L330.05,102.67L331.3,101.63L331.45,101.46L333.33,100.76L333.48,100.42L335.2,99.72L335.36,99.55L336.6,99.03L336.76,98.68L337.7,97.99L337.85,97.82L339.73,97.12L339.88,96.95L341.6,95.91L341.75,95.91L343,95.21L343.16,95.04L344.72,94.35L344.87,94.17L346.44,93.48L346.59,93.48L347.68,92.79L347.84,92.79L349.24,92.09L349.4,91.92L350.96,91.23L351.12,91.23L353.15,89.84L353.3,89.84L354.55,89.15L354.71,88.97L356.58,87.93L356.73,87.93L358.45,87.24L358.61,87.07L360.64,85.85L360.79,85.85L361.88,85.51L362.04,84.64L363.13,84.46L363.29,84.46L364.54,83.77L364.69,83.6L365.79,82.9L365.94,82.9L367.5,82.21L367.66,82.04L369.06,81.17L369.22,81.17L370.31,80.48L370.47,79.96L371.87,79.44L372.03,79.44L373.12,78.92L373.28,78.57L375.15,77.53L375.31,77.53L376.24,77.01L376.4,76.66L378.11,75.97L378.27,75.62L379.36,74.93L379.52,74.76L381.24,74.41L381.39,73.89L382.95,73.2L383.11,73.02L384.51,72.33L384.67,72.15L386.7,70.94L386.85,70.94L389.35,69.21L389.51,69.21L391.69,67.65L391.85,67.65L393.72,66.95L393.88,66.78L396.06,65.39L396.22,65.39L398.56,63.83L398.71,63.83L399.65,63.49L399.81,63.31L401.05,62.62L401.21,62.45L402.77,61.58L402.93,61.58L404.02,60.89L404.17,60.71L405.27,59.85L405.42,59.85L406.52,59.67L406.67,58.98L408.39,58.28L408.54,58.11L409.64,57.42L409.79,57.07L411.04,56.72L411.2,56.72L413.54,55.16L413.69,55.16L416.19,53.43L416.35,53.43L423.06,48.92L423.21,48.75L424.46,48.23L424.62,47.88L431.95,43.37L432.11,42.85L433.67,42.16L433.82,41.99L436.63,39.91L436.79,39.91L437.88,39.39L438.04,38.87L440.07,37.48L440.22,37.48L441.63,36.79L441.78,36.44L443.34,35.75L443.5,35.4L445.53,34.18L445.68,34.18L448.03,32.62L448.18,32.62L450.68,30.54L450.83,30.54L453.64,28.29L453.8,28.29L454.58,27.77L454.74,27.42L458.95,23.78L459.11,23.78L459.89,23.44L460.04,22.57L461.13,21.87L461.29,21.7L464.72,19.1L464.88,19.1L468,16.5" style="vector-effect: non-scaling-stroke; fill: none; stroke: rgb(31, 119, 180); stroke-opacity: 1; stroke-width: 2px; opacity: 1;"/></g><g class="points"/><g class="text"/></g><g class="trace scatter traceb28253" style="stroke-miterlimit: 2; opacity: 1;"><g class="fills"/><g class="errorbars"/><g class="lines"><path class="js-line" d="M0,313.5L0.75,308.3L0.75,308.3L0.77,308.3L1.27,304.14L1.28,303.79L1.68,298.94L1.7,298.76L2.24,290.61L2.24,289.92L2.78,252.3L2.97,252.3L3.03,252.3L11.49,251.6L11.52,251.43L27.69,250.74L27.72,250.56L34.38,249.87L34.43,249.7L41.58,249L41.6,248.83L44.17,248.14L44.19,247.96L45.58,247.44L45.61,247.44L47.17,245.88L47.19,245.88L48.42,245.01L48.44,245.01L50.56,243.11L50.57,243.11L51.5,242.07L51.52,242.07L52.27,241.37L52.28,241.2L55.68,236.87L55.69,236.52" style="vector-effect: non-scaling-stroke; fill: none; stroke: rgb(255, 127, 14); stroke-opacity: 1; stroke-width: 2px; opacity: 1;"/></g><g class="points"/><g class="text"/></g></g></g><g class="overplot"/><path class="xlines-above crisp" d="M0,0" style="fill: none;"/><path class="ylines-above crisp" d="M0,0" style="fill: none;"/><g class="overlines-above"/><g class="xaxislayer-above"><g class="xtick"><text text-anchor="middle" x="0" y="403" transform="translate(60,0)" style="font-family: 'Open Sans', verdana, arial, sans-serif; font-size: 12px; fill: rgb(68, 68, 68); fill-opacity: 1; white-space: pre;">0</text></g><g class="xtick"><text text-anchor="middle" x="0" y="403" transform="translate(138.03,0)" style="font-family: 'Open Sans', verdana, arial, sans-serif; font-size: 12px; fill: rgb(68, 68, 68); fill-opacity: 1; white-space: pre;">10k</text></g><g class="xtick"><text text-anchor="middle" x="0" y="403" transform="translate(216.05,0)" style="font-family: 'Open Sans', verdana, arial, sans-serif; font-size: 12px; fill: rgb(68, 68, 68); fill-opacity: 1; white-space: pre;">20k</text></g><g class="xtick"><text text-anchor="middle" x="0" y="403" transform="translate(294.08000000000004,0)" style="font-family: 'Open Sans', verdana, arial, sans-serif; font-size: 12px; fill: rgb(68, 68, 68); fill-opacity: 1; white-space: pre;">30k</text></g><g class="xtick"><text text-anchor="middle" x="0" y="403" transform="translate(372.1,0)" style="font-family: 'Open Sans', verdana, arial, sans-serif; font-size: 12px; fill: rgb(68, 68, 68); fill-opacity: 1; white-space: pre;">40k</text></g><g class="xtick"><text text-anchor="middle" x="0" y="403" transform="translate(450.13,0)" style="font-family: 'Open Sans', verdana, arial, sans-serif; font-size: 12px; fill: rgb(68, 68, 68); fill-opacity: 1; white-space: pre;">50k</text></g></g><g class="yaxislayer-above"><g class="ytick"><text text-anchor="end" x="59" y="4.199999999999999" transform="translate(0,373.5)" style="font-family: 'Open Sans', verdana, arial, sans-serif; font-size: 12px; fill: rgb(68, 68, 68); fill-opacity: 1; white-space: pre;">0</text></g><g class="ytick"><text text-anchor="end" x="59" y="4.199999999999999" transform="translate(0,304.15)" style="font-family: 'Open Sans', verdana, arial, sans-serif; font-size: 12px; fill: rgb(68, 68, 68); fill-opacity: 1; white-space: pre;">20</text></g><g class="ytick"><text text-anchor="end" x="59" y="4.199999999999999" transform="translate(0,234.8)" style="font-family: 'Open Sans', verdana, arial, sans-serif; font-size: 12px; fill: rgb(68, 68, 68); fill-opacity: 1; white-space: pre;">40</text></g><g class="ytick"><text text-anchor="end" x="59" y="4.199999999999999" transform="translate(0,165.44)" style="font-family: 'Open Sans', verdana, arial, sans-serif; font-size: 12px; fill: rgb(68, 68, 68); fill-opacity: 1; white-space: pre;">60</text></g><g class="ytick"><text text-anchor="end" x="59" y="4.199999999999999" transform="translate(0,96.09)" style="font-family: 'Open Sans', verdana, arial, sans-serif; font-size: 12px; fill: rgb(68, 68, 68); fill-opacity: 1; white-space: pre;">80</text></g></g><g class="overaxes-above"/></g></g><g class="polarlayer"/><g class="ternarylayer"/><g class="geolayer"/><g class="pielayer"/><g class="glimages"/><defs id="topdefs-6949b5"><g class="clips"/><clipPath id="legend6949b5"><rect width="151" height="48" x="0" y="0"/></clipPath></defs><g class="layer-above"><g class="imagelayer"/><g class="shapelayer"/></g><g class="infolayer"><g class="legend" pointer-events="all" transform="translate(537.36, 60)"><rect class="bg" shape-rendering="crispEdges" width="151" height="48" x="0" y="0" style="stroke: rgb(68, 68, 68); stroke-opacity: 1; fill: rgb(255, 255, 255); fill-opacity: 1; stroke-width: 0px;"/><g class="scrollbox" transform="translate(0, 0)" clip-path="url(#legend6949b5)"><g class="groups"><g class="traces" transform="translate(0, 14.5)" style="opacity: 1;"><g class="layers" style="opacity: 1;"><g class="legendfill"/><g class="legendlines"><path class="js-line" d="M5,0h30" style="fill: none; stroke: rgb(31, 119, 180); stroke-opacity: 1; stroke-width: 2px;"/></g><g class="legendsymbols"><g class="legendpoints"/></g></g><text class="legendtext user-select-none" text-anchor="start" x="40" y="4.680000000000001" style="font-family: 'Open Sans', verdana, arial, sans-serif; font-size: 12px; fill: rgb(68, 68, 68); fill-opacity: 1; white-space: pre;">Dyna-Q</text><rect class="legendtoggle" pointer-events="all" x="0" y="-9.5" width="191" height="19" style="cursor: pointer; fill: rgb(0, 0, 0); fill-opacity: 0;"/></g><g class="traces" transform="translate(0, 33.5)" style="opacity: 1;"><g class="layers" style="opacity: 1;"><g class="legendfill"/><g class="legendlines"><path class="js-line" d="M5,0h30" style="fill: none; stroke: rgb(255, 127, 14); stroke-opacity: 1; stroke-width: 2px;"/></g><g class="legendsymbols"><g class="legendpoints"/></g></g><text class="legendtext user-select-none" text-anchor="start" x="40" y="4.680000000000001" style="font-family: 'Open Sans', verdana, arial, sans-serif; font-size: 12px; fill: rgb(68, 68, 68); fill-opacity: 1; white-space: pre;">Priority Sweeping</text><rect class="legendtoggle" pointer-events="all" x="0" y="-9.5" width="191" height="19" style="cursor: pointer; fill: rgb(0, 0, 0); fill-opacity: 0;"/></g></g></g><rect class="scrollbar" rx="20" ry="3" width="0" height="0" x="0" y="0" style="fill: rgb(128, 139, 164); fill-opacity: 1;"/></g><g class="g-gtitle"><text class="gtitle" x="350" y="30" text-anchor="middle" dy="0em" style="font-family: 'Open Sans', verdana, arial, sans-serif; font-size: 17px; fill: rgb(68, 68, 68); opacity: 1; font-weight: normal; white-space: pre;">Cumulative Reward - Blocking Maze</text></g><g class="g-xtitle"><text class="xtitle" x="294" y="442" text-anchor="middle" style="font-family: 'Open Sans', verdana, arial, sans-serif; font-size: 14px; fill: rgb(68, 68, 68); opacity: 1; font-weight: normal; white-space: pre;">Parameter Updates</text></g><g class="g-ytitle"/></g></svg>