<svg class="main-svg" xmlns="http://www.w3.org/2000/svg" xmlns:xlink="http://www.w3.org/1999/xlink" width="700" height="450" style="" viewBox="0 0 700 450"><rect x="0" y="0" width="700" height="450" style="fill: rgb(255, 255, 255); fill-opacity: 1;"/><defs id="defs-7aa8f3"><g class="clips"><clipPath id="clip7aa8f3xyplot" class="plotclip"><rect width="468" height="330"/></clipPath><clipPath class="axesclip" id="clip7aa8f3x"><rect x="60" y="0" width="468" height="450"/></clipPath><clipPath class="axesclip" id="clip7aa8f3y"><rect x="0" y="60" width="700" height="330"/></clipPath><clipPath class="axesclip" id="clip7aa8f3xy"><rect x="60" y="60" width="468" height="330"/></clipPath></g><g class="gradients"/></defs><g class="bglayer"/><g class="layer-below"><g class="imagelayer"/><g class="shapelayer"/></g><g class="cartesianlayer"><g class="subplot xy"><g class="layer-subplot"><g class="shapelayer"/><g class="imagelayer"/></g><g class="gridlayer"><g class="x"><path class="xgrid crisp" transform="translate(137.93,0)" d="M0,60v330" style="stroke: rgb(238, 238, 238); stroke-opacity: 1; stroke-width: 1px;"/><path class="xgrid crisp" transform="translate(215.95,0)" d="M0,60v330" style="stroke: rgb(238, 238, 238); stroke-opacity: 1; stroke-width: 1px;"/><path class="xgrid crisp" transform="translate(293.96000000000004,0)" d="M0,60v330" style="stroke: rgb(238, 238, 238); stroke-opacity: 1; stroke-width: 1px;"/><path class="xgrid crisp" transform="translate(371.97,0)" d="M0,60v330" style="stroke: rgb(238, 238, 238); stroke-opacity: 1; stroke-width: 1px;"/><path class="xgrid crisp" transform="translate(449.99,0)" d="M0,60v330" style="stroke: rgb(238, 238, 238); stroke-opacity: 1; stroke-width: 1px;"/></g><g class="y"><path class="ygrid crisp" transform="translate(0,321.66)" d="M60,0h468" style="stroke: rgb(238, 238, 238); stroke-opacity: 1; stroke-width: 1px;"/><path class="ygrid crisp" transform="translate(0,269.82)" d="M60,0h468" style="stroke: rgb(238, 238, 238); stroke-opacity: 1; stroke-width: 1px;"/><path class="ygrid crisp" transform="translate(0,217.98)" d="M60,0h468" style="stroke: rgb(238, 238, 238); stroke-opacity: 1; stroke-width: 1px;"/><path class="ygrid crisp" transform="translate(0,166.13)" d="M60,0h468" style="stroke: rgb(238, 238, 238); stroke-opacity: 1; stroke-width: 1px;"/><path class="ygrid crisp" transform="translate(0,114.28999999999999)" d="M60,0h468" style="stroke: rgb(238, 238, 238); stroke-opacity: 1; stroke-width: 1px;"/><path class="ygrid crisp" transform="translate(0,62.45)" d="M60,0h468" style="stroke: rgb(238, 238, 238); stroke-opacity: 1; stroke-width: 1px;"/></g></g><g class="zerolinelayer"><path class="yzl zl crisp" transform="translate(0,373.5)" d="M60,0h468" style="stroke: rgb(68, 68, 68); stroke-opacity: 1; stroke-width: 1px;"/></g><path class="xlines-below"/><path class="ylines-below"/><g class="overlines-below"/><g class="xaxislayer-below"/><g class="yaxislayer-below"/><g class="overaxes-below"/><g class="plot" transform="translate(60, 60)" clip-path="url(#clip7aa8f3xyplot)"><g class="scatterlayer mlayer"><g class="trace scatter trace45569d" style="stroke-miterlimit: 2; opacity: 1;"><g class="fills"/><g class="errorbars"/><g class="lines"><path class="js-line" d="M0,313.5L19.04,312.77L19.11,312.72L23.4,312.15L23.48,312.15L28.55,311.27L28.63,311.27L33.39,310.55L33.47,310.55L36.51,310.13L36.59,310.13L40.18,309.4L40.25,309.35L43.38,308.63L43.45,308.52L55.55,304.12L55.62,304.06L63.42,300.95L63.5,300.8L65.45,300.07L65.53,300.02L68.5,298.47L68.57,298.26L72.79,296.18L72.86,296.08L80.74,291.99L80.82,291.99L82.15,291.21L82.23,291.21L85.19,289.45L85.27,289.34L114.21,270.89L114.29,270.89L117.49,268.66L117.57,268.61L118.74,267.83L118.81,267.78L121.08,266.01L121.15,266.01L123.42,264.56L123.49,264.46L125.13,263.32L125.21,263.16L127.63,261.76L127.71,261.55L164.3,236.46L164.37,236.31L165.54,235.58L165.62,235.43L183.25,222.67L183.33,222.52L185.44,221.12L185.51,220.96L189.34,218.37L189.42,218.32L203.15,208.37L203.22,208.26L210.32,203.08L210.4,202.92L212.35,201.63L212.43,201.47L214.54,200.12L214.61,200.02L215.71,199.19L215.78,199.19L223.51,193.49L223.59,193.33L224.76,192.61L224.83,192.55L228.89,189.75L228.97,189.7L230.45,188.46L230.53,188.46L232.56,187.06L232.63,186.85L234.51,185.5L234.59,185.45L236.54,184L236.61,183.95L256.43,169.69L256.51,169.48L271.49,158.91L271.56,158.75L272.97,157.66L273.05,157.61L274.61,156.58L274.68,156.47L275.7,155.75L275.78,155.64L279.29,153.15L279.36,153.15L283.81,149.94L283.89,149.94L287.24,147.5L287.32,147.5L288.73,146.41L288.8,146.41L293.48,142.99L293.56,142.99L298.79,138.95L298.87,138.95L300.58,137.65L300.66,137.55L302.92,136.1L303,135.99L304.64,134.75L304.72,134.7L307.53,132.78L307.61,132.73L308.85,131.69L308.93,131.64L310.8,130.4L310.88,130.24L317.36,125.42L317.43,125.32L319.85,123.71L319.93,123.6L322.12,122.05L322.19,122.05L324.46,120.23L324.53,120.23L332.57,114.38L332.65,114.32L333.74,113.6L333.82,113.5L336.39,111.73L336.47,111.63L338.19,110.49L338.26,110.28L342.32,107.43L342.4,107.43L346.14,104.63L346.22,104.63L348.41,102.97L348.48,102.92L355.74,97.53L355.82,97.42L358.16,95.97L358.24,95.87L361.67,93.28L361.75,93.23L363.46,92.03L363.54,91.98L368.69,88.09L368.77,87.83L370.95,86.33L371.03,86.28L371.97,85.55L372.04,85.5L374.15,84.1L374.23,84L376.02,82.7L376.1,82.55L395.6,68.55L395.68,68.45L398.26,66.73L398.33,66.63L399.5,65.9L399.58,65.85L401.06,64.66L401.14,64.56L403.33,63.11L403.41,63.05L407.46,60.05L407.54,60.05L408.55,59.32L408.63,59.22L410.58,57.87L410.66,57.77L411.6,57.04L411.67,56.99L413.55,55.64L413.62,55.59L417.6,52.63L417.68,52.58L421.97,49.57L422.05,49.52L431.57,42.73L431.65,42.63L433.67,41.28L433.75,41.12L441.79,35.32L441.87,35.21L445.3,32.78L445.38,32.78L447.17,31.48L447.25,31.48L450.37,29.2L450.45,29.15L451.77,28.16L451.85,28.16L453.02,27.23L453.1,27.13L456.53,24.74L456.61,24.69L458.64,23.39L458.72,23.24L460.59,21.89L460.67,21.79L468,16.5" style="vector-effect: non-scaling-stroke; fill: none; stroke: rgb(31, 119, 180); stroke-opacity: 1; stroke-width: 2px; opacity: 1;"/></g><g class="points"/><g class="text"/></g><g class="trace scatter trace02dfbb" style="stroke-miterlimit: 2; opacity: 1;"><g class="fills"/><g class="errorbars"/><g class="lines"><path class="js-line" d="M0,313.5L36.67,312.77L36.74,312.72L82.15,312L82.23,311.94L102.51,311.22L102.59,311.17L113.82,310.44L113.9,310.39L122.71,309.66L122.79,309.61L132.47,308.89L132.54,308.83L145.03,308.11L145.1,308.06L148.46,307.59L148.54,307.59L156.65,306.92L156.73,306.81L160.47,306.35L160.55,306.35L164.45,305.67L164.53,305.67L169.91,304.74L169.99,304.74L175.76,303.7L175.84,303.7L179.51,302.98L179.59,302.92L183.95,302.2L184.03,302.15L187.86,301.47L187.93,301.37L193.55,300.38L193.63,300.38L195.81,299.81L195.89,299.81L206.11,297.38L206.19,297.38L233.65,287.84L233.73,287.68L240.2,284.88L240.28,284.78L245.27,282.6L245.35,282.4L246.76,281.67L246.83,281.62L248.71,280.89L248.78,280.79L250.11,280.06L250.19,280.01L251.59,279.28L251.67,279.23L285.29,258.19L285.37,258.08L288.65,255.96L288.73,255.96L291.85,253.62L291.92,253.62L294.03,252.28L294.11,252.12L295.44,251.13L295.51,251.03L301.44,246.73L301.52,246.52L303.78,245.12L303.86,244.97L306.36,243.31L306.44,243.15L308.39,241.65L308.46,241.65L310.1,240.46L310.18,240.35L311.12,239.78L311.19,239.57L317.75,234.86L317.82,234.65L319,233.92L319.07,233.87L324.3,229.98L324.38,229.93L331.71,224.18L331.79,224.07L332.96,223.35L333.04,223.3L334.68,221.9L334.75,221.84L340.14,217.75L340.21,217.75L341.62,216.56L341.7,216.5L347.63,211.94L347.7,211.63L353.71,207.02L353.79,207.02L355.74,205.67L355.82,205.51L358,203.75L358.08,203.75L359.41,202.66L359.48,202.51L360.42,201.78L360.5,201.73L363.85,199.19L363.93,199.19L368.07,195.77L368.14,195.66L372.82,192.04L372.9,191.93L374.93,190.64L375.01,190.48L378.75,187.58L378.83,187.58L381.25,185.61L381.33,185.61L382.42,184.78L382.5,184.78L383.9,183.53L383.98,183.48L385.62,182.24L385.7,182.08L386.87,181.36L386.94,181.3L388.89,179.54L388.97,179.49L390.61,178.25L390.69,178.19L392.17,176.95L392.25,176.9L394.04,175.6L394.12,175.39L395.99,174.05L396.07,173.94L401.92,169.43L402,169.43L404.73,167.2L404.81,167.15L407.15,165.23L407.23,165.23L409.18,163.78L409.26,163.78L411.52,161.86L411.6,161.81L416.59,157.87L416.67,157.82L418.07,156.78L418.15,156.68L419.55,155.49L419.63,155.49L425.79,150.35L425.87,150.25L426.89,149.58L426.97,149.42L430.94,146.41L431.02,146.41L432.74,145.12L432.82,145.02L451.93,130.19L452.01,130.08L459.42,124.28L459.5,124.12L461.06,123.09L461.13,122.98L466.83,118.58L466.91,118.47L468,117.69" style="vector-effect: non-scaling-stroke; fill: none; stroke: rgb(255, 127, 14); stroke-opacity: 1; stroke-width: 2px; opacity: 1;"/></g><g class="points"/><g class="text"/></g></g></g><g class="overplot"/><path class="xlines-above crisp" d="M0,0" style="fill: none;"/><path class="ylines-above crisp" d="M0,0" style="fill: none;"/><g class="overlines-above"/><g class="xaxislayer-above"><g class="xtick"><text text-anchor="middle" x="0" y="403" transform="translate(137.93,0)" style="font-family: 'Open Sans', verdana, arial, sans-serif; font-size: 12px; fill: rgb(68, 68, 68); fill-opacity: 1; white-space: pre;">1000</text></g><g class="xtick"><text text-anchor="middle" x="0" y="403" transform="translate(215.95,0)" style="font-family: 'Open Sans', verdana, arial, sans-serif; font-size: 12px; fill: rgb(68, 68, 68); fill-opacity: 1; white-space: pre;">2000</text></g><g class="xtick"><text text-anchor="middle" x="0" y="403" transform="translate(293.96000000000004,0)" style="font-family: 'Open Sans', verdana, arial, sans-serif; font-size: 12px; fill: rgb(68, 68, 68); fill-opacity: 1; white-space: pre;">3000</text></g><g class="xtick"><text text-anchor="middle" x="0" y="403" transform="translate(371.97,0)" style="font-family: 'Open Sans', verdana, arial, sans-serif; font-size: 12px; fill: rgb(68, 68, 68); fill-opacity: 1; white-space: pre;">4000</text></g><g class="xtick"><text text-anchor="middle" x="0" y="403" transform="translate(449.99,0)" style="font-family: 'Open Sans', verdana, arial, sans-serif; font-size: 12px; fill: rgb(68, 68, 68); fill-opacity: 1; white-space: pre;">5000</text></g><g class="xtick"><text text-anchor="middle" x="0" y="403" transform="translate(528,0)" style="font-family: 'Open Sans', verdana, arial, sans-serif; font-size: 12px; fill: rgb(68, 68, 68); fill-opacity: 1; white-space: pre;">6000</text></g></g><g class="yaxislayer-above"><g class="ytick"><text text-anchor="end" x="59" y="4.199999999999999" transform="translate(0,373.5)" style="font-family: 'Open Sans', verdana, arial, sans-serif; font-size: 12px; fill: rgb(68, 68, 68); fill-opacity: 1; white-space: pre;">0</text></g><g class="ytick"><text text-anchor="end" x="59" y="4.199999999999999" transform="translate(0,321.66)" style="font-family: 'Open Sans', verdana, arial, sans-serif; font-size: 12px; fill: rgb(68, 68, 68); fill-opacity: 1; white-space: pre;">50</text></g><g class="ytick"><text text-anchor="end" x="59" y="4.199999999999999" transform="translate(0,269.82)" style="font-family: 'Open Sans', verdana, arial, sans-serif; font-size: 12px; fill: rgb(68, 68, 68); fill-opacity: 1; white-space: pre;">100</text></g><g class="ytick"><text text-anchor="end" x="59" y="4.199999999999999" transform="translate(0,217.98)" style="font-family: 'Open Sans', verdana, arial, sans-serif; font-size: 12px; fill: rgb(68, 68, 68); fill-opacity: 1; white-space: pre;">150</text></g><g class="ytick"><text text-anchor="end" x="59" y="4.199999999999999" transform="translate(0,166.13)" style="font-family: 'Open Sans', verdana, arial, sans-serif; font-size: 12px; fill: rgb(68, 68, 68); fill-opacity: 1; white-space: pre;">200</text></g><g class="ytick"><text text-anchor="end" x="59" y="4.199999999999999" transform="translate(0,114.28999999999999)" style="font-family: 'Open Sans', verdana, arial, sans-serif; font-size: 12px; fill: rgb(68, 68, 68); fill-opacity: 1; white-space: pre;">250</text></g><g class="ytick"><text text-anchor="end" x="59" y="4.199999999999999" transform="translate(0,62.45)" style="font-family: 'Open Sans', verdana, arial, sans-serif; font-size: 12px; fill: rgb(68, 68, 68); fill-opacity: 1; white-space: pre;">300</text></g></g><g class="overaxes-above"/></g></g><g class="polarlayer"/><g class="ternarylayer"/><g class="geolayer"/><g class="pielayer"/><g class="glimages"/><defs id="topdefs-7aa8f3"><g class="clips"/><clipPath id="legend7aa8f3"><rect width="151" height="48" x="0" y="0"/></clipPath></defs><g class="layer-above"><g class="imagelayer"/><g class="shapelayer"/></g><g class="infolayer"><g class="legend" pointer-events="all" transform="translate(537.36, 60)"><rect class="bg" shape-rendering="crispEdges" width="151" height="48" x="0" y="0" style="stroke: rgb(68, 68, 68); stroke-opacity: 1; fill: rgb(255, 255, 255); fill-opacity: 1; stroke-width: 0px;"/><g class="scrollbox" transform="translate(0, 0)" clip-path="url(#legend7aa8f3)"><g class="groups"><g class="traces" transform="translate(0, 14.5)" style="opacity: 1;"><g class="layers" style="opacity: 1;"><g class="legendfill"/><g class="legendlines"><path class="js-line" d="M5,0h30" style="fill: none; stroke: rgb(31, 119, 180); stroke-opacity: 1; stroke-width: 2px;"/></g><g class="legendsymbols"><g class="legendpoints"/></g></g><text class="legendtext user-select-none" text-anchor="start" x="40" y="4.680000000000001" style="font-family: 'Open Sans', verdana, arial, sans-serif; font-size: 12px; fill: rgb(68, 68, 68); fill-opacity: 1; white-space: pre;">Dyna-Q</text><rect class="legendtoggle" pointer-events="all" x="0" y="-9.5" width="191" height="19" style="cursor: pointer; fill: rgb(0, 0, 0); fill-opacity: 0;"/></g><g class="traces" transform="translate(0, 33.5)" style="opacity: 1;"><g class="layers" style="opacity: 1;"><g class="legendfill"/><g class="legendlines"><path class="js-line" d="M5,0h30" style="fill: none; stroke: rgb(255, 127, 14); stroke-opacity: 1; stroke-width: 2px;"/></g><g class="legendsymbols"><g class="legendpoints"/></g></g><text class="legendtext user-select-none" text-anchor="start" x="40" y="4.680000000000001" style="font-family: 'Open Sans', verdana, arial, sans-serif; font-size: 12px; fill: rgb(68, 68, 68); fill-opacity: 1; white-space: pre;">Priority Sweeping</text><rect class="legendtoggle" pointer-events="all" x="0" y="-9.5" width="191" height="19" style="cursor: pointer; fill: rgb(0, 0, 0); fill-opacity: 0;"/></g></g></g><rect class="scrollbar" rx="20" ry="3" width="0" height="0" x="0" y="0" style="fill: rgb(128, 139, 164); fill-opacity: 1;"/></g><g class="g-gtitle"><text class="gtitle" x="350" y="30" text-anchor="middle" dy="0em" style="font-family: 'Open Sans', verdana, arial, sans-serif; font-size: 17px; fill: rgb(68, 68, 68); opacity: 1; font-weight: normal; white-space: pre;">Cumulative Reward - Shortcut Maze</text></g><g class="g-xtitle"/><g class="g-ytitle"/></g></svg>