<svg class="main-svg" xmlns="http://www.w3.org/2000/svg" xmlns:xlink="http://www.w3.org/1999/xlink" width="700" height="450" style="" viewBox="0 0 700 450"><rect x="0" y="0" width="700" height="450" style="fill: rgb(255, 255, 255); fill-opacity: 1;"/><defs id="defs-edeb9f"><g class="clips"><clipPath id="clipedeb9fxyplot" class="plotclip"><rect width="473" height="330"/></clipPath><clipPath class="axesclip" id="clipedeb9fx"><rect x="60" y="0" width="473" height="450"/></clipPath><clipPath class="axesclip" id="clipedeb9fy"><rect x="0" y="60" width="700" height="330"/></clipPath><clipPath class="axesclip" id="clipedeb9fxy"><rect x="60" y="60" width="473" height="330"/></clipPath></g><g class="gradients"/></defs><g class="bglayer"/><g class="layer-below"><g class="imagelayer"/><g class="shapelayer"/></g><g class="cartesianlayer"><g class="subplot xy"><g class="layer-subplot"><g class="shapelayer"/><g class="imagelayer"/></g><g class="gridlayer"><g class="x"><path class="xgrid crisp" transform="translate(154.6,0)" d="M0,60v330" style="stroke: rgb(238, 238, 238); stroke-opacity: 1; stroke-width: 1px;"/><path class="xgrid crisp" transform="translate(249.2,0)" d="M0,60v330" style="stroke: rgb(238, 238, 238); stroke-opacity: 1; stroke-width: 1px;"/><path class="xgrid crisp" transform="translate(343.8,0)" d="M0,60v330" style="stroke: rgb(238, 238, 238); stroke-opacity: 1; stroke-width: 1px;"/><path class="xgrid crisp" transform="translate(438.4,0)" d="M0,60v330" style="stroke: rgb(238, 238, 238); stroke-opacity: 1; stroke-width: 1px;"/></g><g class="y"><path class="ygrid crisp" transform="translate(0,371.71)" d="M60,0h473" style="stroke: rgb(238, 238, 238); stroke-opacity: 1; stroke-width: 1px;"/><path class="ygrid crisp" transform="translate(0,330.52)" d="M60,0h473" style="stroke: rgb(238, 238, 238); stroke-opacity: 1; stroke-width: 1px;"/><path class="ygrid crisp" transform="translate(0,289.32)" d="M60,0h473" style="stroke: rgb(238, 238, 238); stroke-opacity: 1; stroke-width: 1px;"/><path class="ygrid crisp" transform="translate(0,248.13)" d="M60,0h473" style="stroke: rgb(238, 238, 238); stroke-opacity: 1; stroke-width: 1px;"/><path class="ygrid crisp" transform="translate(0,206.94)" d="M60,0h473" style="stroke: rgb(238, 238, 238); stroke-opacity: 1; stroke-width: 1px;"/><path class="ygrid crisp" transform="translate(0,165.74)" d="M60,0h473" style="stroke: rgb(238, 238, 238); stroke-opacity: 1; stroke-width: 1px;"/><path class="ygrid crisp" transform="translate(0,124.55)" d="M60,0h473" style="stroke: rgb(238, 238, 238); stroke-opacity: 1; stroke-width: 1px;"/><path class="ygrid crisp" transform="translate(0,83.36)" d="M60,0h473" style="stroke: rgb(238, 238, 238); stroke-opacity: 1; stroke-width: 1px;"/></g></g><g class="zerolinelayer"><path class="xzl zl crisp" transform="translate(60,0)" d="M0,60v330" style="stroke: rgb(68, 68, 68); stroke-opacity: 1; stroke-width: 1px;"/></g><path class="xlines-below"/><path class="ylines-below"/><g class="overlines-below"/><g class="xaxislayer-below"/><g class="yaxislayer-below"/><g class="overaxes-below"/><g class="plot" transform="translate(60, 60)" clip-path="url(#clipedeb9fxyplot)"><g class="scatterlayer mlayer"><g class="trace scatter trace087c8d" style="stroke-miterlimit: 2; opacity: 1;"><g class="fills"/><g class="errorbars"/><g class="lines"><path class="js-line" d="M0,189.32L0.95,292.35L1.9,285.9L2.84,236.8L3.79,255.52L5.69,243.6L6.64,265.57L7.58,258.01L8.53,266.21L9.48,267.59L10.43,264.91L11.37,240.03L12.32,237.11L14.22,194.7L15.17,188.23L17.06,174.21L18.01,175.42L22.75,144.22L23.7,148.46L24.65,129.16L25.59,137.85L26.54,123.52L27.49,126.73L28.44,119.36L29.38,129.47L30.33,110.93L31.28,126.65L34.12,108.5L35.07,103.54L36.02,108.59L36.97,96.83L37.92,100.92L38.86,92.93L40.76,97.46L41.71,82.2L43.6,85.58L44.55,83.73L45.5,87.41L46.45,95.08L47.39,71.27L48.34,81.32L49.29,64.47L50.24,76.25L51.19,80.33L52.13,70.75L53.08,54.81L54.03,81.63L54.98,73.55L55.93,58.76L56.87,74.23L57.82,55.57L58.77,54.62L59.72,56.15L60.67,57.82L61.61,72.25L63.51,52.4L64.46,53.02L65.4,63.93L66.35,61.56L67.3,65.46L68.25,83.91L70.14,62.86L71.09,60.89L72.04,49.76L72.99,54.34L73.94,49.85L74.88,54.15L75.83,53.64L76.78,57.94L77.73,55.39L78.68,59.96L79.62,52.75L80.57,38.33L81.52,44.16L82.47,40.47L83.41,47.6L84.36,48.16L85.31,40.56L86.26,50.46L87.21,53.49L88.15,40.58L90.05,49.89L91,49.66L91.95,57.75L92.89,45.09L93.84,55.16L94.79,47.93L95.74,55.78L96.69,42.33L97.63,37.49L98.58,39.26L99.53,42.76L100.48,41.05L101.42,41.81L102.37,56.23L103.32,33.64L104.27,53.04L105.22,41.36L106.16,41.48L107.11,42.7L108.06,47.11L109.01,41.42L109.96,50.63L110.9,44.08L111.85,45.77L113.75,45.01L114.7,37.88L115.64,40.08L116.59,37.1L117.54,35.26L118.49,38.87L119.43,37.24L120.38,46.39L121.33,28.28L122.28,35.16L123.23,35.26L124.17,38.5L125.12,48.61L126.07,44.2L127.02,40.23L127.97,42.45L128.91,36.68L129.86,39.59L130.81,37.28L131.76,37.49L132.71,39.69L133.65,32.46L135.55,38.04L136.5,50.42L138.39,36.11L139.34,42.06L140.29,47.52L141.24,38.25L142.18,37.82L143.13,38.83L144.08,45.58L145.03,45.85L146.92,34.75L147.87,42.58L148.82,38.68L149.77,41.4L151.66,38.44L152.61,43.32L153.56,41.34L154.51,37.3L155.45,36.35L156.4,49.33L157.35,35.37L158.3,35.08L159.25,35.84L160.19,45.79L161.14,37.18L162.09,37.18L163.04,35.1L163.99,37.12L164.93,42.41L165.88,38.02L166.83,34.05L167.78,40.6L168.73,35.06L169.67,34.4L170.62,37.43L171.57,36.93L172.52,37.18L173.46,30.94L174.41,31.37L175.36,39.3L176.31,35.28L177.26,37.28L178.2,42.25L179.15,36.09L180.1,35.76L181.05,37.98L182,44.96L182.94,28.84L183.89,34.58L184.84,30.79L185.79,32.96L186.74,40.56L187.68,43.05L188.63,36.79L189.58,37.1L190.53,34.75L191.47,33.99L192.42,29.93L193.37,38.81L194.32,31.82L195.27,43.21L196.21,37.71L197.16,29.87L198.11,32.5L200.95,48.24L201.9,29.5L202.85,34.11L203.8,32.69L204.75,33.45L205.69,40.97L206.64,39.51L207.59,44.22L208.54,33.84L209.48,39.07L211.38,31.72L212.33,37.14L213.28,40.39L214.22,34.36L215.17,33.31L216.12,28.28L217.07,28.9L218.02,27.81L218.96,37.47L219.91,31.49L220.86,35.45L221.81,33.39L222.76,35.72L223.7,31.58L224.65,34.32L225.6,27.05L226.55,26.35L227.49,38.5L228.44,37.65L229.39,29.74L230.34,40.89L231.29,34.81L232.23,48.65L233.18,33.95L234.13,33.82L235.08,35.78L236.03,36.09L236.97,35.12L237.92,48.28L238.87,41.87L239.82,47.97L240.77,31.35L241.71,38.44L242.66,30.94L243.61,44.96L244.56,35.92L246.45,34.27L247.4,30.11L248.35,39.77L249.3,36.87L250.24,29.87L251.19,33.49L252.14,40.99L253.09,37.1L254.04,38.23L254.98,45.5L255.93,33.9L256.88,47.93L257.83,34.71L258.78,32.07L260.67,36.46L261.62,44.49L263.52,34.5L264.46,39.05L265.41,39.9L266.36,37.03L268.25,35.98L269.2,44.08L270.15,44.68L271.1,44.08L272.05,42.02L272.99,33.68L273.94,47.11L274.89,43.15L275.84,36.56L276.79,43.05L279.63,31.8L280.58,33.78L282.47,43.21L283.42,36.79L284.37,35.12L285.32,37.24L286.26,27.54L287.21,34.5L288.16,40L289.11,35.28L290.06,36.6L291,36.21L291.95,31.02L292.9,39.38L293.85,48.32L294.8,36.23L295.74,29.81L296.69,43.89L299.54,29.76L300.48,33.37L301.43,43.15L302.38,36.85L303.33,32.22L304.27,36.23L305.22,31.51L306.17,36.87L307.12,39.2L308.07,35.57L309.01,38.41L309.96,34.32L310.91,40.39L311.86,24.9L312.81,33.68L313.75,28.9L314.7,29.52L315.65,32.07L316.6,36.64L317.55,36.62L318.49,26.04L319.44,30.55L320.39,38.56L321.34,28.57L322.28,36.58L323.23,30.51L324.18,30.98L325.13,29.02L327.97,31.19L328.92,30.55L329.87,32.3L330.82,36.42L331.76,35.59L332.71,32.94L333.66,32.96L334.61,35.26L335.56,30.32L336.5,37.49L340.29,25.15L341.24,33.97L342.19,27.95L343.14,41.13L344.09,30.07L345.03,34.34L345.98,40.93L346.93,31.76L348.83,34.6L349.77,39.57L350.72,33.27L351.67,32.42L353.57,51.23L354.51,36.27L355.46,40.19L356.41,34.48L357.36,34.15L358.3,35.16L359.25,27.56L360.2,40.39L362.1,38.31L363.04,34.36L363.99,32.3L364.94,38.83L365.89,32.3L366.84,42.55L367.78,45.87L368.73,31.47L370.63,42.9L371.58,35.3L372.52,51.64L373.47,32.34L375.37,42.78L376.31,32.24L377.26,35.55L378.21,35.92L379.16,35.24L380.11,30.22L381.05,33.2L382,41.26L382.95,31.78L383.9,37.82L384.85,42.55L385.79,31.31L386.74,26.61L387.69,34.17L388.64,34.27L389.59,36.77L391.48,32.61L392.43,32.48L393.38,39.42L394.32,29.74L395.27,39.03L396.22,32.94L397.17,38.46L398.12,37.92L399.06,37.1L400.01,27.09L400.96,29.76L401.91,53.9L403.8,34.17L404.75,35.04L405.7,44.22L406.65,39.28L408.54,30.03L409.49,36.79L410.44,38.72L411.39,44.76L413.28,36.71L414.23,35.86L415.18,34.69L416.13,40.19L417.07,31.27L418.02,34.58L418.97,34.05L419.92,30.05L420.87,32.26L421.81,41.17L423.71,36.17L424.66,34.03L425.61,30.61L426.55,31.1L427.5,28.22L428.45,37.26L429.4,26.74L430.34,33.18L431.29,25.6L432.24,39.75L433.19,28.36L434.14,30.77L435.08,30.77L436.03,36.68L437.93,26.3L438.88,31.51L439.82,35.35L440.77,28.67L441.72,31.58L442.67,27.09L443.62,38.79L444.56,35.8L445.51,40.78L446.46,36.13L447.41,40.99L448.35,33.22L449.3,27.25L450.25,30.71L451.2,39.94L452.15,27.17L453.09,39.42L454.04,29.76L454.99,37.22L455.94,34.46L456.89,48.36L457.83,31.91L458.78,31.16L459.73,34.54L460.68,34.36L461.63,30.81L462.57,25.71L463.52,37.41L464.47,28.18L465.42,39.71L467.31,30.01L468.26,30.01L469.21,27.33L470.16,35.59L471.1,35.47L472.05,30.3L473,25.4" style="vector-effect: non-scaling-stroke; fill: none; stroke: rgb(31, 119, 180); stroke-opacity: 1; stroke-width: 2px; opacity: 1;"/></g><g class="points"/><g class="text"/></g><g class="trace scatter trace6473f9" style="stroke-miterlimit: 2; opacity: 1;"><g class="fills"/><g class="errorbars"/><g class="lines"><path class="js-line" d="M0,188.32L0.95,286.48L1.9,294.72L2.84,243.25L3.79,251.53L4.74,249.14L5.69,241.78L7.58,261.82L8.53,259.04L9.48,268.17L10.43,255.01L11.37,253.11L12.32,217.99L13.27,214.06L14.22,194.06L16.11,180.59L17.06,171.96L18.01,170.97L18.96,151.82L19.91,162.78L20.85,151.61L22.75,132.75L23.7,138.62L24.65,128.69L25.59,140.76L26.54,120.53L27.49,136.29L28.44,125.58L29.38,129.7L30.33,120.68L31.28,123.6L32.23,94.42L33.18,118L34.12,120.08L35.07,107.89L36.02,113.06L36.97,101.32L37.92,89.02L38.86,91.55L39.81,103.42L40.76,85.77L41.71,84.8L42.66,97.16L43.6,81.46L44.55,85.42L45.5,77.53L46.45,87.48L47.39,79.42L48.34,82.66L49.29,72.79L50.24,79.11L51.19,72.85L52.13,85.99L54.03,67.21L54.98,77.32L55.93,66.88L56.87,74.68L57.82,62.18L58.77,72.65L59.72,69.06L60.67,61.56L61.61,67.81L62.56,65.5L63.51,64.96L64.46,63.32L65.4,45.99L66.35,55.16L68.25,67.29L69.2,60.49L70.14,70.05L71.09,53.99L72.04,65.15L72.99,58.37L73.94,65.79L74.88,52.91L75.83,66.34L76.78,62.27L78.68,51.33L79.62,66.84L80.57,66.16L81.52,69.43L82.47,65.13L83.41,77.84L86.26,50.9L87.21,64.2L88.15,44.06L89.1,57.03L90.05,52.01L91,56.95L91.95,57.16L92.89,62.14L93.84,54.07L94.79,70.9L95.74,64.3L96.69,69.1L97.63,67.23L98.58,54.71L99.53,79.52L100.48,57.98L101.42,59.46L102.37,51.12L103.32,66.86L104.27,53L105.22,61.05L106.16,49.97L107.11,51.2L108.06,43.15L109.96,65.64L110.9,59.05L112.8,53.08L113.75,57.1L115.64,49.99L116.59,58.58L117.54,58.5L118.49,64.12L119.43,55.82L120.38,62.8L121.33,61.71L122.28,56.77L123.23,55.57L124.17,47.89L125.12,53.04L126.07,65.17L128.91,54.27L129.86,71.82L131.76,48.3L132.71,83.46L133.65,48.24L134.6,69.87L135.55,51.91L136.5,73.65L138.39,55.2L139.34,62.86L140.29,68.57L141.24,58.43L143.13,65.33L144.08,53.84L145.03,62.62L145.98,56.68L146.92,54.77L147.87,65.19L148.82,50.13L149.77,50.44L150.72,63.09L151.66,61.48L152.61,59.81L153.56,80.84L154.51,37.36L155.45,70.87L156.4,60.23L157.35,66.78L158.3,68.51L159.25,66.32L160.19,52.56L161.14,55.43L163.99,65.81L164.93,63.73L165.88,50.65L166.83,57.61L168.73,78.66L169.67,74.91L171.57,48.26L172.52,63.75L174.41,57.67L175.36,53.72L176.31,55.28L177.26,64.51L178.2,46.98L179.15,59.69L180.1,38.39L181.05,63.67L182,59.01L182.94,63.19L183.89,60.66L184.84,72.67L185.79,66.59L186.74,54.09L187.68,61.3L188.63,55.39L189.58,43.5L190.53,63.62L191.47,58.23L192.42,64.96L193.37,43.11L194.32,64.39L197.16,43.03L198.11,47.21L199.06,70.28L200.01,67.91L201.9,44.28L202.85,68.22L204.75,53.57L205.69,49.8L206.64,43.81L207.59,65.44L209.48,42.47L210.43,53.64L211.38,63.6L212.33,65.07L213.28,57.2L214.22,67.33L215.17,49.91L216.12,76.52L218.02,53.99L218.96,53.78L220.86,71.08L221.81,65.13L222.76,52.96L223.7,61.73L224.65,50.05L225.6,59.24L226.55,63.32L227.49,45.52L228.44,69.04L229.39,65.93L230.34,62.43L231.29,63.42L233.18,70.22L234.13,49.54L235.08,62.33L236.03,58.41L236.97,66.9L237.92,39.28L239.82,69.95L240.77,66.55L241.71,49.64L242.66,58.99L244.56,52.13L245.51,70.07L247.4,43.95L248.35,56.31L249.3,57.12L250.24,52.94L252.14,64.84L253.09,52.81L254.04,67.25L254.98,55.32L255.93,55.04L256.88,47.15L257.83,67.48L258.78,56.31L259.72,58.85L260.67,57.78L261.62,46.2L262.57,65.44L263.52,50.09L264.46,83.77L265.41,55.59L266.36,59.98L267.31,65.58L268.25,76.72L271.1,52.03L272.05,53.22L272.99,66.26L273.94,68.84L274.89,66.69L275.84,53.82L277.73,44.45L278.68,49.5L279.63,70.03L280.58,58.89L281.53,51.76L282.47,53.08L283.42,43.75L284.37,71.88L286.26,48.61L287.21,51.99L289.11,65.03L290.06,67.62L291,63.42L291.95,66.63L293.85,53.35L294.8,70.15L295.74,49.99L296.69,53L297.64,47.19L298.59,69.43L299.54,58.41L300.48,69.54L301.43,62.82L302.38,50.55L303.33,69.33L304.27,60.1L305.22,47.85L306.17,66.76L307.12,62.84L308.07,51.66L309.01,57.26L309.96,71.25L310.91,48.07L311.86,53.64L312.81,66.43L313.75,59.77L314.7,51.68L315.65,57.45L316.6,53.61L317.55,61.34L318.49,51.74L319.44,56.05L320.39,69.58L321.34,55.34L322.28,52.19L323.23,54.23L324.18,57.55L325.13,67.66L326.08,48.03L327.02,61.32L327.97,46.32L328.92,63.25L329.87,73.92L330.82,45.95L331.76,68.94L332.71,58.72L333.66,64.74L334.61,58.85L335.56,59.07L336.5,48.12L338.4,59.67L339.35,55.78L340.29,56.44L341.24,73.74L342.19,48.65L343.14,53.02L344.09,51.82L345.03,59.26L345.98,45.77L346.93,66.47L347.88,63.32L348.83,57.05L349.77,54.07L350.72,70.67L352.62,46.34L353.57,67.19L355.46,48.67L356.41,63.89L357.36,48.65L358.3,61.17L359.25,74.87L360.2,59.34L361.15,53.9L362.1,73.8L363.99,53.2L364.94,56.15L365.89,38.44L366.84,73.37L367.78,53.82L368.73,60.93L369.68,48.09L370.63,54.62L371.58,45.52L372.52,72.44L373.47,62.78L374.42,66.84L375.37,65.31L376.31,54.07L377.26,48.28L378.21,49.62L379.16,68.07L380.11,69L381.05,66.32L382,57.47L382.95,57.94L383.9,61.61L384.85,58.72L385.79,58.83L386.74,59.42L387.69,48.24L388.64,70.98L389.59,46.24L391.48,69.06L392.43,71.74L393.38,74.68L394.32,51.41L397.17,79.01L398.12,60.21L399.06,64.45L400.01,52.34L400.96,54.48L401.91,68.57L402.86,67.68L403.8,35.08L405.7,77.32L406.65,45.25L407.6,54.79L408.54,54.05L409.49,46.92L410.44,67.06L411.39,59.2L412.33,60.7L415.18,51.6L416.13,68.86L417.07,51.99L418.02,61.56L418.97,72.75L419.92,53.39L420.87,74.5L421.81,57.47L423.71,64.47L424.66,56.89L425.61,63.21L426.55,42.16L427.5,65.93L428.45,60.66L429.4,41.81L430.34,65.33L431.29,59.28L432.24,60.45L433.19,55.67L434.14,59.53L435.08,51.37L436.03,71.12L436.98,76.66L437.93,59.88L438.88,71.45L439.82,72.46L440.77,48.98L441.72,44.98L442.67,66.78L443.62,55.72L444.56,44.37L445.51,50.92L446.46,48.22L447.41,60.95L448.35,62.99L449.3,49.15L450.25,45.54L451.2,55.84L452.15,63.42L453.09,79.11L454.04,38.52L454.99,64.39L455.94,65.81L456.89,53.37L458.78,65.09L459.73,66.88L460.68,51.2L461.63,49.17L462.57,61.83L463.52,51.41L464.47,63.09L465.42,53.66L466.36,57.69L467.31,45.5L468.26,68.36L469.21,64.45L470.16,51.68L471.1,67.31L472.05,44.57L473,61.32" style="vector-effect: non-scaling-stroke; fill: none; stroke: rgb(255, 127, 14); stroke-opacity: 1; stroke-width: 2px; opacity: 1;"/></g><g class="points"/><g class="text"/></g><g class="trace scatter tracec66202" style="stroke-miterlimit: 2; opacity: 1;"><g class="fills"/><g class="errorbars"/><g class="lines"><path class="js-line" d="M0,188.19L0.95,313.5L1.9,277.44L2.84,244.69L3.79,250.25L4.74,249.77L5.69,257.64L6.64,256.76L7.58,265.8L8.53,271.34L9.48,271.87L10.43,259.31L11.37,234.53L13.27,164.2L14.22,174.78L15.17,160.26L16.11,164.05L18.01,142.36L18.96,145.19L19.91,136.87L20.85,140.12L22.75,118.62L23.7,122.88L24.65,109.16L25.59,109.78L26.54,109.84L27.49,101.21L28.44,92.23L29.38,103.91L30.33,100.1L31.28,79.05L32.23,85.79L33.18,79.07L34.12,91.99L35.07,86.03L36.02,68.92L36.97,73.08L37.92,73.57L38.86,70.09L39.81,63.65L40.76,68.49L41.71,57.07L42.66,55.61L43.6,59.55L44.55,55.96L45.5,58.25L46.45,51.93L47.39,48.2L48.34,51.53L49.29,45.81L50.24,57.47L51.19,40.91L52.13,40.78L53.08,34.73L54.03,39.71L54.98,39.38L55.93,31.64L56.87,44.06L57.82,35.08L58.77,32.42L59.72,39.07L61.61,43.25L62.56,31.82L63.51,31.62L64.46,42.84L66.35,28.69L67.3,32.44L68.25,28.26L69.2,34.6L70.14,25.17L71.09,27.66L72.04,31.82L72.99,30.84L73.94,31.49L74.88,20.99L76.78,30.11L77.73,28.59L78.68,33.51L79.62,26.74L80.57,29.78L81.52,24.49L82.47,26.35L83.41,25.97L85.31,26.63L86.26,20.25L87.21,27.07L88.15,22.23L89.1,21.42L90.05,24.59L91.95,28.71L92.89,29.48L94.79,24.7L95.74,18.31L96.69,28.45L97.63,22.74L98.58,33.57L99.53,26.39L100.48,19.82L101.42,26.55L102.37,27.29L103.32,31L104.27,21.53L105.22,21.5L106.16,23.61L107.11,21.53L108.06,24.53L109.01,23.54L109.96,27.7L110.9,23.61L112.8,29.06L113.75,24.59L114.7,28.8L115.64,28.26L116.59,28.75L117.54,24.26L119.43,19.3L120.38,19.07L121.33,27.17L122.28,21.79L123.23,25.17L124.17,31.33L126.07,21.36L127.02,24.74L127.97,26.82L128.91,22.41L129.86,20.52L130.81,30.77L131.76,24.9L132.71,24.78L133.65,28.75L134.6,28.8L135.55,21.73L136.5,23.56L138.39,28.01L139.34,25.91L140.29,22.58L141.24,22.62L142.18,28.16L143.13,20.93L145.03,28.38L145.98,22.64L147.87,30.69L148.82,21.11L149.77,19.03L150.72,19.69L151.66,29.93L152.61,20.85L153.56,24.16L154.51,22.95L155.45,23.05L156.4,29.62L160.19,21.67L161.14,25.32L162.09,33.95L163.04,25.36L163.99,20.54L164.93,24.74L166.83,22.21L167.78,22.27L168.73,21.24L169.67,27.56L170.62,21.22L171.57,27.75L172.52,20.78L173.46,27.4L175.36,21.65L176.31,22.1L177.26,23.63L178.2,28.47L179.15,28.38L180.1,26.49L181.05,24.45L182,28.38L182.94,23.83L183.89,23.38L184.84,22.14L185.79,16.5L187.68,26.12L188.63,22.43L189.58,22.99L190.53,19.8L191.47,26.61L192.42,27.27L193.37,30.01L194.32,26.82L195.27,23.73L196.21,24.68L197.16,24.64L198.11,25.38L199.06,27.31L200.01,31.08L201.9,25.34L202.85,25.93L203.8,19.59L204.75,29.13L205.69,27.7L206.64,32.01L207.59,29.66L208.54,24.78L209.48,26.37L210.43,22.49L211.38,24.68L212.33,22.78L214.22,29.48L215.17,20.85L216.12,24.14L217.07,23.61L218.96,24.64L219.91,20.97L221.81,27.77L222.76,26.63L223.7,20.56L224.65,19.8L225.6,19.36L226.55,30.51L228.44,17.53L229.39,24.53L231.29,19.42L232.23,24.78L233.18,20.27L234.13,23.5L235.08,28.92L236.03,25.36L236.97,19.42L237.92,21.18L239.82,25.97L240.77,20.93L241.71,20.25L242.66,22.7L243.61,25.64L244.56,21.53L245.51,31.25L246.45,23.65L247.4,23.81L248.35,22.47L250.24,24L251.19,19.42L253.09,28.55L254.04,18.81L255.93,27.89L256.88,23.05L257.83,19.22L258.78,24.97L259.72,25.73L260.67,22.68L261.62,24.04L262.57,18.7L263.52,25.25L264.46,21.26L266.36,19.75L267.31,36.52L268.25,24.47L269.2,24.53L270.15,23.21L271.1,23.65L272.05,23.87L272.99,26.63L273.94,24.04L274.89,24.74L276.79,24.29L277.73,25.36L278.68,21.24L279.63,27.02L280.58,27.42L281.53,24.1L282.47,25.99L283.42,22.78L284.37,33.72L285.32,19.86L287.21,27.48L288.16,21.86L289.11,24.47L290.06,22.7L291,27.89L291.95,20.95L292.9,21.92L293.85,19.47L294.8,26.35L295.74,24.76L297.64,18.56L298.59,24.39L300.48,21.61L301.43,28.16L303.33,19.42L304.27,22.66L305.22,24.53L306.17,22.49L307.12,24.08L308.07,23.79L309.01,21.24L309.96,24.97L311.86,23.98L312.81,17.8L313.75,20.33L314.7,26.16L315.65,28.03L316.6,21.69L318.49,18.79L319.44,24.29L321.34,20.37L322.28,20.95L323.23,22.27L324.18,20.6L326.08,21.01L327.02,28.22L327.97,33.14L328.92,30.88L329.87,19.45L330.82,26.98L331.76,26.08L332.71,21.65L333.66,19.67L334.61,22.49L335.56,20.89L336.5,27.73L338.4,20.85L339.35,20.76L341.24,23.73L342.19,19.67L343.14,21.83L344.09,20.62L345.98,27.6L346.93,22.6L348.83,19.3L349.77,19.22L350.72,24.31L351.67,20.21L352.62,20.97L353.57,29.81L354.51,20.99L355.46,22.78L356.41,25.97L357.36,20.5L358.3,19.49L359.25,20.08L360.2,20.6L361.15,27.89L362.1,30.03L363.04,22.14L363.99,22.56L364.94,26.26L365.89,22.72L366.84,26.39L367.78,19.14L368.73,29.13L370.63,21.94L371.58,23.5L372.52,24.24L373.47,23.19L374.42,21.03L375.37,22.02L376.31,22.33L377.26,27.7L379.16,22.37L380.11,24.41L381.05,28.71L382,21.09L382.95,24.16L383.9,24.59L385.79,29.17L386.74,22.82L387.69,24.02L388.64,28.03L390.53,24.35L391.48,26.22L392.43,24.33L393.38,31.23L394.32,22.82L395.27,22.8L396.22,28.63L397.17,18.91L398.12,20.58L399.06,23.79L400.01,24.14L400.96,26.96L401.91,19.69L402.86,26.26L403.8,20.66L404.75,26.82L405.7,30.94L406.65,22.7L407.6,22.62L408.54,26.84L409.49,20.7L410.44,24.33L411.39,19.24L412.33,24L413.28,27.87L414.23,24.9L416.13,20.66L417.07,23.83L418.02,22.14L418.97,28.3L419.92,29.81L420.87,19.16L421.81,20.64L422.76,23.96L423.71,29.13L424.66,29.56L426.55,18.52L427.5,22.45L428.45,28.1L429.4,23.75L430.34,21.13L431.29,25.5L432.24,23.09L433.19,28.18L434.14,25.67L435.08,20.54L436.03,24.43L436.98,24.2L437.93,21.15L438.88,22.99L440.77,18.87L441.72,23.67L442.67,24.92L443.62,20.35L444.56,22.35L445.51,26.82L446.46,28.32L447.41,24.7L449.3,26.02L450.25,26.84L451.2,17.8L452.15,27.77L453.09,19.57L454.04,22.8L454.99,26.47L455.94,20L457.83,25.95L458.78,21.24L459.73,21.77L460.68,20.83L461.63,28.22L462.57,27.68L464.47,22.53L465.42,24.04L466.36,24.2L467.31,18.95L468.26,18.56L469.21,22.18L470.16,23.21L471.1,21.2L472.05,18.89L473,20.52" style="vector-effect: non-scaling-stroke; fill: none; stroke: rgb(44, 160, 44); stroke-opacity: 1; stroke-width: 2px; opacity: 1;"/></g><g class="points"/><g class="text"/></g></g></g><g class="overplot"/><path class="xlines-above crisp" d="M0,0" style="fill: none;"/><path class="ylines-above crisp" d="M0,0" style="fill: none;"/><g class="overlines-above"/><g class="xaxislayer-above"><g class="xtick"><text text-anchor="middle" x="0" y="403" transform="translate(60,0)" style="font-family: 'Open Sans', verdana, arial, sans-serif; font-size: 12px; fill: rgb(68, 68, 68); fill-opacity: 1; white-space: pre;">0</text></g><g class="xtick"><text text-anchor="middle" x="0" y="403" transform="translate(154.6,0)" style="font-family: 'Open Sans', verdana, arial, sans-serif; font-size: 12px; fill: rgb(68, 68, 68); fill-opacity: 1; white-space: pre;">0.2</text></g><g class="xtick"><text text-anchor="middle" x="0" y="403" transform="translate(249.2,0)" style="font-family: 'Open Sans', verdana, arial, sans-serif; font-size: 12px; fill: rgb(68, 68, 68); fill-opacity: 1; white-space: pre;">0.4</text></g><g class="xtick"><text text-anchor="middle" x="0" y="403" transform="translate(343.8,0)" style="font-family: 'Open Sans', verdana, arial, sans-serif; font-size: 12px; fill: rgb(68, 68, 68); fill-opacity: 1; white-space: pre;">0.6</text></g><g class="xtick"><text text-anchor="middle" x="0" y="403" transform="translate(438.4,0)" style="font-family: 'Open Sans', verdana, arial, sans-serif; font-size: 12px; fill: rgb(68, 68, 68); fill-opacity: 1; white-space: pre;">0.8</text></g><g class="xtick"><text text-anchor="middle" x="0" y="403" transform="translate(533,0)" style="font-family: 'Open Sans', verdana, arial, sans-serif; font-size: 12px; fill: rgb(68, 68, 68); fill-opacity: 1; white-space: pre;">1</text></g></g><g class="yaxislayer-above"><g class="ytick"><text text-anchor="end" x="59" y="4.199999999999999" transform="translate(0,371.71)" style="font-family: 'Open Sans', verdana, arial, sans-serif; font-size: 12px; fill: rgb(68, 68, 68); fill-opacity: 1; white-space: pre;">−160</text></g><g class="ytick"><text text-anchor="end" x="59" y="4.199999999999999" transform="translate(0,330.52)" style="font-family: 'Open Sans', verdana, arial, sans-serif; font-size: 12px; fill: rgb(68, 68, 68); fill-opacity: 1; white-space: pre;">−140</text></g><g class="ytick"><text text-anchor="end" x="59" y="4.199999999999999" transform="translate(0,289.32)" style="font-family: 'Open Sans', verdana, arial, sans-serif; font-size: 12px; fill: rgb(68, 68, 68); fill-opacity: 1; white-space: pre;">−120</text></g><g class="ytick"><text text-anchor="end" x="59" y="4.199999999999999" transform="translate(0,248.13)" style="font-family: 'Open Sans', verdana, arial, sans-serif; font-size: 12px; fill: rgb(68, 68, 68); fill-opacity: 1; white-space: pre;">−100</text></g><g class="ytick"><text text-anchor="end" x="59" y="4.199999999999999" transform="translate(0,206.94)" style="font-family: 'Open Sans', verdana, arial, sans-serif; font-size: 12px; fill: rgb(68, 68, 68); fill-opacity: 1; white-space: pre;">−80</text></g><g class="ytick"><text text-anchor="end" x="59" y="4.199999999999999" transform="translate(0,165.74)" style="font-family: 'Open Sans', verdana, arial, sans-serif; font-size: 12px; fill: rgb(68, 68, 68); fill-opacity: 1; white-space: pre;">−60</text></g><g class="ytick"><text text-anchor="end" x="59" y="4.199999999999999" transform="translate(0,124.55)" style="font-family: 'Open Sans', verdana, arial, sans-serif; font-size: 12px; fill: rgb(68, 68, 68); fill-opacity: 1; white-space: pre;">−40</text></g><g class="ytick"><text text-anchor="end" x="59" y="4.199999999999999" transform="translate(0,83.36)" style="font-family: 'Open Sans', verdana, arial, sans-serif; font-size: 12px; fill: rgb(68, 68, 68); fill-opacity: 1; white-space: pre;">−20</text></g></g><g class="overaxes-above"/></g></g><g class="polarlayer"/><g class="ternarylayer"/><g class="geolayer"/><g class="pielayer"/><g class="glimages"/><defs id="topdefs-edeb9f"><g class="clips"/><clipPath id="legendedeb9f"><rect width="146" height="67" x="0" y="0"/></clipPath></defs><g class="layer-above"><g class="imagelayer"/><g class="shapelayer"/></g><g class="infolayer"><g class="legend" pointer-events="all" transform="translate(542.46, 60)"><rect class="bg" shape-rendering="crispEdges" width="146" height="67" x="0" y="0" style="stroke: rgb(68, 68, 68); stroke-opacity: 1; fill: rgb(255, 255, 255); fill-opacity: 1; stroke-width: 0px;"/><g class="scrollbox" transform="translate(0, 0)" clip-path="url(#legendedeb9f)"><g class="groups"><g class="traces" transform="translate(0, 14.5)" style="opacity: 1;"><g class="layers" style="opacity: 1;"><g class="legendfill"/><g class="legendlines"><path class="js-line" d="M5,0h30" style="fill: none; stroke: rgb(31, 119, 180); stroke-opacity: 1; stroke-width: 2px;"/></g><g class="legendsymbols"><g class="legendpoints"/></g></g><text class="legendtext user-select-none" text-anchor="start" x="40" y="4.680000000000001" style="font-family: 'Open Sans', verdana, arial, sans-serif; font-size: 12px; fill: rgb(68, 68, 68); fill-opacity: 1; white-space: pre;">SARSA</text><rect class="legendtoggle" pointer-events="all" x="0" y="-9.5" width="186" height="19" style="cursor: pointer; fill: rgb(0, 0, 0); fill-opacity: 0;"/></g><g class="traces" transform="translate(0, 33.5)" style="opacity: 1;"><g class="layers" style="opacity: 1;"><g class="legendfill"/><g class="legendlines"><path class="js-line" d="M5,0h30" style="fill: none; stroke: rgb(255, 127, 14); stroke-opacity: 1; stroke-width: 2px;"/></g><g class="legendsymbols"><g class="legendpoints"/></g></g><text class="legendtext user-select-none" text-anchor="start" x="40" y="4.680000000000001" style="font-family: 'Open Sans', verdana, arial, sans-serif; font-size: 12px; fill: rgb(68, 68, 68); fill-opacity: 1; white-space: pre;">Q-Learning</text><rect class="legendtoggle" pointer-events="all" x="0" y="-9.5" width="186" height="19" style="cursor: pointer; fill: rgb(0, 0, 0); fill-opacity: 0;"/></g><g class="traces" transform="translate(0, 52.5)" style="opacity: 1;"><g class="layers" style="opacity: 1;"><g class="legendfill"/><g class="legendlines"><path class="js-line" d="M5,0h30" style="fill: none; stroke: rgb(44, 160, 44); stroke-opacity: 1; stroke-width: 2px;"/></g><g class="legendsymbols"><g class="legendpoints"/></g></g><text class="legendtext user-select-none" text-anchor="start" x="40" y="4.680000000000001" style="font-family: 'Open Sans', verdana, arial, sans-serif; font-size: 12px; fill: rgb(68, 68, 68); fill-opacity: 1; white-space: pre;">Expected SARSA</text><rect class="legendtoggle" pointer-events="all" x="0" y="-9.5" width="186" height="19" style="cursor: pointer; fill: rgb(0, 0, 0); fill-opacity: 0;"/></g></g></g><rect class="scrollbar" rx="20" ry="3" width="0" height="0" x="0" y="0" style="fill: rgb(128, 139, 164); fill-opacity: 1;"/></g><g class="g-gtitle"><text class="gtitle" x="350" y="30" text-anchor="middle" dy="0em" style="font-family: 'Open Sans', verdana, arial, sans-serif; font-size: 17px; fill: rgb(68, 68, 68); opacity: 1; font-weight: normal; white-space: pre;">Episode Returns</text></g><g class="g-xtitle"/><g class="g-ytitle"/></g></svg>