<svg class="main-svg" xmlns="http://www.w3.org/2000/svg" xmlns:xlink="http://www.w3.org/1999/xlink" width="700" height="450" style="" viewBox="0 0 700 450"><rect x="0" y="0" width="700" height="450" style="fill: rgb(255, 255, 255); fill-opacity: 1;"/><defs id="defs-b0d39e"><g class="clips"><clipPath id="clipb0d39exyplot" class="plotclip"><rect width="506" height="330"/></clipPath><clipPath class="axesclip" id="clipb0d39ex"><rect x="60" y="0" width="506" height="450"/></clipPath><clipPath class="axesclip" id="clipb0d39ey"><rect x="0" y="60" width="700" height="330"/></clipPath><clipPath class="axesclip" id="clipb0d39exy"><rect x="60" y="60" width="506" height="330"/></clipPath></g><g class="gradients"/></defs><g class="bglayer"/><g class="layer-below"><g class="imagelayer"/><g class="shapelayer"/></g><g class="cartesianlayer"><g class="subplot xy"><g class="layer-subplot"><g class="shapelayer"/><g class="imagelayer"/></g><g class="gridlayer"><g class="x"><path class="xgrid crisp" transform="translate(161.2,0)" d="M0,60v330" style="stroke: rgb(238, 238, 238); stroke-opacity: 1; stroke-width: 1px;"/><path class="xgrid crisp" transform="translate(262.4,0)" d="M0,60v330" style="stroke: rgb(238, 238, 238); stroke-opacity: 1; stroke-width: 1px;"/><path class="xgrid crisp" transform="translate(363.6,0)" d="M0,60v330" style="stroke: rgb(238, 238, 238); stroke-opacity: 1; stroke-width: 1px;"/><path class="xgrid crisp" transform="translate(464.8,0)" d="M0,60v330" style="stroke: rgb(238, 238, 238); stroke-opacity: 1; stroke-width: 1px;"/></g><g class="y"><path class="ygrid crisp" transform="translate(0,345.35)" d="M60,0h506" style="stroke: rgb(238, 238, 238); stroke-opacity: 1; stroke-width: 1px;"/><path class="ygrid crisp" transform="translate(0,300.71000000000004)" d="M60,0h506" style="stroke: rgb(238, 238, 238); stroke-opacity: 1; stroke-width: 1px;"/><path class="ygrid crisp" transform="translate(0,256.07)" d="M60,0h506" style="stroke: rgb(238, 238, 238); stroke-opacity: 1; stroke-width: 1px;"/><path class="ygrid crisp" transform="translate(0,211.43)" d="M60,0h506" style="stroke: rgb(238, 238, 238); stroke-opacity: 1; stroke-width: 1px;"/><path class="ygrid crisp" transform="translate(0,166.79000000000002)" d="M60,0h506" style="stroke: rgb(238, 238, 238); stroke-opacity: 1; stroke-width: 1px;"/><path class="ygrid crisp" transform="translate(0,122.15)" d="M60,0h506" style="stroke: rgb(238, 238, 238); stroke-opacity: 1; stroke-width: 1px;"/><path class="ygrid crisp" transform="translate(0,77.5)" d="M60,0h506" style="stroke: rgb(238, 238, 238); stroke-opacity: 1; stroke-width: 1px;"/></g></g><g class="zerolinelayer"><path class="xzl zl crisp" transform="translate(60,0)" d="M0,60v330" style="stroke: rgb(68, 68, 68); stroke-opacity: 1; stroke-width: 1px;"/></g><path class="xlines-below"/><path class="ylines-below"/><g class="overlines-below"/><g class="xaxislayer-below"/><g class="yaxislayer-below"/><g class="overaxes-below"/><g class="plot" transform="translate(60, 60)" clip-path="url(#clipb0d39exyplot)"><g class="scatterlayer mlayer"><g class="trace scatter trace259bb6" style="stroke-miterlimit: 2; opacity: 1;"><g class="fills"/><g class="errorbars"/><g class="lines"><path class="js-line" d="M0,201.7L1.01,313.5L2.03,312.41L3.04,251.65L4.06,253.7L5.07,249.15L6.08,257.52L7.1,258.19L8.11,268.1L9.13,277.09L10.14,269.75L11.15,283.41L12.17,277.34L14.2,234.15L15.21,218.75L16.22,193.15L17.24,188.7L18.25,173.53L19.27,177.03L20.28,176.07L21.29,157.52L22.31,171.47L23.32,150.25L24.34,161.72L25.35,134.18L26.36,134.09L27.38,159.8L28.39,139.49L29.41,140.27L30.42,137.41L31.43,113.71L32.45,110.65L33.46,131.81L34.48,99.18L35.49,98.69L36.51,111.39L37.52,78.48L39.55,100.76L40.56,75.98L41.58,86.01L42.59,74.62L43.6,73.51L44.62,81.72L45.63,80.74L46.65,83.64L48.67,75.05L49.69,72.61L51.72,67.5L52.73,61.19L53.74,82.73L54.76,79.94L55.77,57.46L56.79,60.83L58.81,67.44L59.83,64.18L60.84,62.55L61.86,47.64L62.87,65.78L63.88,62.7L64.9,48.02L65.91,57.26L66.93,64.07L67.94,52.35L68.95,48.69L69.97,54.96L70.98,57.06L72,51.21L73.01,51.77L74.02,49.98L75.04,51.01L76.05,53.51L77.07,47.37L78.08,47.97L79.09,50.52L80.11,44.58L81.12,52.7L82.14,41.63L83.15,38.04L84.16,41.74L85.18,41.41L86.19,47.5L88.22,37.93L89.23,37.15L90.25,31.08L91.26,33.95L92.28,33.2L93.29,43.53L94.3,48.42L95.32,44.85L96.33,34.38L97.35,42.97L98.36,30.96L99.37,58.15L101.4,41.23L102.42,44.36L103.43,42.77L104.44,37.33L105.46,42.95L106.47,43.64L107.49,35.61L108.5,39.89L109.52,35.92L110.53,44.6L111.54,44.24L112.56,51.95L113.57,39.89L114.59,46.1L115.6,32.26L116.61,40.63L117.63,23.55L118.64,37.5L119.66,37.66L120.67,46.83L121.68,53.55L122.7,41.03L123.71,43.8L124.73,34.29L125.74,26.48L126.75,45.81L127.77,33.11L128.78,41.54L129.8,31.75L130.81,37.68L131.82,40.7L132.84,39.91L133.85,40.41L134.87,23.91L135.88,40.72L136.89,32.33L137.91,37.24L138.92,33.46L139.94,35.87L140.95,31.63L141.96,28.75L142.98,37.5L143.99,33.84L145.01,40.27L146.02,25.76L147.03,35.65L148.05,26.12L149.06,26.19L150.08,29.6L151.09,26.41L152.1,32.1L153.12,31.66L154.13,28.44L155.15,32.3L156.16,39.16L157.17,28.64L158.19,42.64L159.2,32.68L160.22,29.13L161.23,29.89L162.24,41.57L163.26,33.46L164.27,36.21L165.29,31.12L166.3,32.7L167.31,31.54L168.33,38.8L169.34,33.75L171.37,25.5L172.38,31.3L173.4,24.71L174.41,39.96L175.43,36.68L176.44,49.42L177.45,30.99L178.47,45.54L179.48,39.96L180.5,38.73L181.51,38.84L182.53,41.03L183.54,35.83L184.55,26.03L185.57,44.8L186.58,35.27L187.6,33.75L188.61,41.45L189.62,41.57L190.64,37.35L191.65,28.73L192.67,46.21L193.68,31.75L194.69,37.64L195.71,29.98L196.72,34.09L198.75,28.73L199.76,31.79L200.78,26.25L201.79,28.78L202.81,31.52L203.82,28.95L204.83,25.14L205.85,27.46L207.88,40.96L208.89,33.55L209.9,27.21L210.92,33.33L211.93,24.67L212.95,38.08L213.96,27.75L214.97,27.62L215.99,22.66L217,31.92L218.02,42.7L219.03,22.04L220.04,31.63L221.06,28.06L222.07,26.3L223.09,39.69L224.1,27.73L225.11,46.61L227.14,31.52L228.16,32.55L230.18,25.14L231.2,37.95L232.21,26.46L233.23,24L235.25,37.06L236.27,34.16L237.28,30.58L238.3,31.43L239.31,26.95L240.32,35.43L241.34,24.94L242.35,23.22L243.37,31.19L244.38,28.22L245.39,25.34L246.41,29.09L247.42,24.02L248.44,27.37L249.45,28.71L250.46,28.55L251.48,34.83L252.49,31.3L253.51,23.69L254.52,24.94L255.54,25.99L256.55,29.54L257.56,26.1L258.58,30.67L260.61,22.26L261.62,37.91L262.63,22.39L263.65,27.44L264.66,25.45L265.68,27.46L266.69,29.07L267.7,43.31L268.72,27.97L269.73,33.29L270.75,39.94L271.76,25.47L272.77,29.07L273.79,29.69L274.8,25.07L275.82,34.4L276.83,32.55L277.84,33.22L279.87,26.52L280.89,32.15L282.91,35.79L283.93,32.17L286.97,37.3L287.98,29.54L289,25.65L290.01,26.72L291.03,26.25L292.04,29.49L293.05,30.87L294.07,30.25L295.08,31.77L296.1,41.63L297.11,24.98L298.12,25.32L299.14,37.7L300.15,26.21L301.17,34.42L302.18,25.18L303.19,24.54L304.21,22.17L305.22,29.22L306.24,23.55L307.25,22.71L308.26,23L309.28,16.5L310.29,25.36L311.31,28.15L312.32,25.47L313.33,22.48L314.35,34.87L315.36,28.75L316.38,31.7L317.39,28.89L318.4,30.99L319.42,22.1L320.43,23.64L321.45,19.85L322.46,28.13L323.47,23.69L324.49,30.14L325.5,25.79L326.52,26.92L327.53,30.25L328.55,30.12L330.57,32.64L331.59,22.68L332.6,32.5L333.62,27.84L334.63,26.14L335.64,29.07L336.66,25.03L337.67,24.67L340.71,30.09L341.73,30.47L342.74,23.8L343.76,27.88L345.78,22.04L346.8,27.82L347.81,26.23L348.83,26.23L349.84,32.55L350.85,24.11L351.87,34.71L352.88,25.94L353.9,22.68L354.91,23.24L355.92,31.1L356.94,23.17L357.95,24.69L358.97,29.74L359.98,35.74L360.99,32.79L363.02,20.87L364.04,31.05L365.05,30.09L366.06,31.79L368.09,24.76L369.11,34.31L371.13,43.55L372.15,34.31L373.16,36.59L374.18,33.24L375.19,36.92L376.2,31.37L377.22,28.8L378.23,23.93L380.26,26.61L381.27,29.11L382.29,30.54L383.3,23.84L384.32,20.34L385.33,28.17L386.34,24.71L387.36,24L388.37,21.81L389.39,36.79L390.4,39.18L391.41,29L392.43,30.74L393.44,27.39L394.46,27.01L395.47,30.38L396.48,42.57L397.5,33.22L398.51,21.83L399.53,37.5L400.54,23.37L401.56,21.9L403.58,28.51L404.6,21.54L405.61,27.77L406.63,27.55L407.64,33.66L408.65,35.16L409.67,37.19L410.68,25.41L411.7,29.22L412.71,29.47L413.72,38.42L414.74,37.01L415.75,47.35L416.77,34.76L418.79,30.12L419.81,36.79L421.84,31.52L422.85,28.17L423.86,21.19L424.88,43.37L426.91,32.5L427.92,34.13L429.95,30.12L430.96,28.75L431.98,24.38L432.99,26.68L434,31.3L435.02,32.28L437.05,20.18L438.06,21.23L440.09,36.99L441.1,37.77L443.13,27.44L444.14,27.93L445.16,30.29L446.17,28.95L447.19,33.98L448.2,25.36L449.21,25.12L450.23,29.96L451.24,22.04L452.26,27.04L454.28,23.13L455.3,28.8L456.31,25.36L457.33,32.53L458.34,21.88L459.35,26.52L460.37,23.8L461.38,25.45L462.4,25.21L463.41,22.77L464.42,23.51L465.44,25.99L466.45,23.49L467.47,41.52L468.48,24.67L469.49,23.44L470.51,24.83L471.52,35.83L472.54,24.49L473.55,24.07L474.57,30.52L475.58,22.39L476.59,22.93L477.61,31.77L478.62,24.51L479.64,30.56L480.65,24.87L481.66,30.34L482.68,23.96L483.69,22.59L484.71,28.35L485.72,21.66L487.75,31.32L488.76,23.13L489.78,31.57L490.79,28.49L492.82,21.59L493.83,30.92L494.85,24.94L495.86,25.25L497.89,29.56L498.9,21.25L499.92,26.37L500.93,25.58L501.94,32.24L502.96,29.02L503.97,39.45L504.99,28.53L506,36.95" style="vector-effect: non-scaling-stroke; fill: none; stroke: rgb(31, 119, 180); stroke-opacity: 1; stroke-width: 2px; opacity: 1;"/></g><g class="points"/><g class="text"/></g><g class="trace scatter trace37b585" style="stroke-miterlimit: 2; opacity: 1;"><g class="fills"/><g class="errorbars"/><g class="lines"><path class="js-line" d="M0,196.14L1.01,308.66L2.03,306.56L3.04,250.18L4.06,269.33L6.08,255.8L7.1,268.01L9.13,275.31L10.14,289.44L13.18,231.2L14.2,221.85L16.22,198.21L17.24,181.38L18.25,183.82L19.27,189.82L20.28,175.96L21.29,134.24L22.31,180.91L23.32,161.45L24.34,149.15L25.35,148.97L27.38,133.28L28.39,136.01L29.41,122.52L30.42,119.58L31.43,117.3L32.45,117.68L33.46,111.76L34.48,111.97L36.51,96.36L37.52,97.52L38.53,102.55L39.55,94.09L40.56,89.35L41.58,94.94L42.59,98.71L43.6,78.66L44.62,95.25L45.63,98.86L47.66,64.07L48.67,78.71L49.69,94.6L50.7,85.94L51.72,67.24L52.73,73.95L53.74,71.25L54.76,59.53L55.77,82.17L56.79,82.26L59.83,54.2L60.84,75.4L62.87,60.49L63.88,67.88L64.9,66.21L65.91,69.67L67.94,47.01L68.95,54L69.97,63.33L70.98,50.14L72,54.82L73.01,54.51L74.02,69L75.04,66.7L76.05,59.4L77.07,57.55L79.09,45.32L80.11,56.95L81.12,57.68L82.14,61.54L83.15,47.86L84.16,55.45L85.18,50.83L86.19,66.77L87.21,49.09L88.22,46.34L89.23,50.54L90.25,63.84L91.26,55.43L92.28,53.62L93.29,52.84L94.3,65.34L95.32,38.13L96.33,44.33L98.36,61.9L99.37,51.34L100.39,67.99L101.4,59.94L103.43,44.16L104.44,52.7L105.46,55.32L106.47,71.32L107.49,70.67L108.5,66.77L109.52,64L110.53,59L111.54,48.66L112.56,47.48L113.57,57.32L114.59,51.48L115.6,52.19L116.61,68.78L118.64,43.17L119.66,39.98L120.67,60L121.68,51.37L122.7,70.74L123.71,68.78L124.73,41.12L125.74,53.57L126.75,40.07L127.77,64.78L128.78,46.72L129.8,48.46L130.81,43.78L131.82,44.6L132.84,59.07L133.85,62.68L134.87,71.21L135.88,51.03L136.89,55.65L137.91,56.03L139.94,73.44L140.95,45.32L141.96,56.41L142.98,56.81L143.99,56.83L145.01,38.4L147.03,65.83L148.05,61.52L149.06,56.32L150.08,62.64L151.09,58.15L152.1,60.29L153.12,65.05L154.13,52.55L156.16,80.23L157.17,51.37L158.19,69.44L159.2,46.9L160.22,50.61L161.23,64.94L162.24,59.98L163.26,45.54L164.27,61.48L165.29,48.22L166.3,71.57L167.31,73.22L168.33,52.15L169.34,81.16L170.36,53.95L171.37,57.3L172.38,54.22L173.4,62.24L174.41,57.03L175.43,57.57L176.44,38.31L177.45,48.73L178.47,48.4L179.48,49.85L181.51,54.49L182.53,46.25L183.54,47.57L184.55,55.67L185.57,49.56L186.58,58.69L187.6,39.71L188.61,57.91L189.62,62.61L190.64,55.36L191.65,41.01L192.67,56.81L193.68,60.78L194.69,40.23L195.71,58.2L196.72,46.61L197.74,48.08L198.75,50.87L199.76,48.15L200.78,69.18L201.79,57.46L202.81,57.28L203.82,52.99L204.83,64.96L206.86,50.96L207.88,57.73L208.89,50.47L209.9,53.11L210.92,59.82L211.93,40.96L212.95,67.73L213.96,42.59L214.97,64.47L215.99,58.66L218.02,43.22L219.03,51.01L220.04,70.29L221.06,72.48L222.07,76.57L223.09,48.82L224.1,51.21L225.11,58.53L226.13,50.09L227.14,30.74L228.16,54.94L229.17,51.45L230.18,52.75L231.2,47.82L232.21,68.42L233.23,67.1L234.24,64.8L235.25,48.15L236.27,59.47L237.28,52.93L239.31,52.82L240.32,62.75L241.34,63.44L242.35,58.35L243.37,65.65L244.38,58.93L245.39,49.76L246.41,55.63L247.42,60.58L248.44,56.19L249.45,66.48L250.46,52.59L251.48,65.32L252.49,53.62L253.51,54.67L254.52,67.21L255.54,51.74L256.55,66.88L257.56,72.7L258.58,67.32L259.59,66.94L260.61,64.89L261.62,66.63L262.63,52.32L263.65,65.09L264.66,52.57L266.69,38.24L267.7,52.84L268.72,51.92L269.73,55.74L270.75,66.86L271.76,49.4L272.77,51.07L273.79,54.74L275.82,62.82L276.83,73.19L277.84,51.19L278.86,56.97L279.87,50.49L280.89,53.06L281.9,41.86L282.91,50.87L283.93,52.59L284.94,64.8L285.96,61.83L286.97,55.2L287.98,73.4L289,51.74L290.01,50.29L291.03,57.35L292.04,52.32L293.05,56.81L294.07,66.45L295.08,67.5L296.1,65.94L297.11,46.66L298.12,44.24L299.14,66.48L300.15,51.72L301.17,56.41L302.18,67.41L303.19,44.22L304.21,60.52L305.22,56.3L306.24,55.65L307.25,64.91L309.28,47.82L310.29,60.58L311.31,56.39L312.32,72.06L313.33,55.05L314.35,69.74L315.36,67.35L316.38,42.41L317.39,58.6L318.4,51.57L319.42,57.86L320.43,54.76L321.45,38.17L322.46,54.91L323.47,69.18L324.49,52.39L325.5,60.18L326.52,49.62L327.53,46.25L328.55,55.83L329.56,50.36L330.57,50.47L331.59,63.78L332.6,42.53L333.62,61.12L334.63,55L335.64,67.01L336.66,39.8L337.67,46.45L338.69,45.92L339.7,55.9L340.71,54.36L341.73,64.04L342.74,59.67L343.76,46.23L344.77,59.38L345.78,60.81L346.8,44.11L347.81,56.01L348.83,50.81L350.85,72.77L351.87,52.75L353.9,60.7L354.91,59.24L355.92,51.41L356.94,66.94L358.97,43.66L359.98,63.44L360.99,45.23L362.01,66.72L363.02,51.48L364.04,59.96L365.05,56.5L366.06,48.51L367.08,66.5L368.09,57.61L370.12,41.34L371.13,63.31L373.16,42.93L374.18,44.49L375.19,42.24L376.2,52.77L377.22,57.1L378.23,53.51L380.26,57.37L381.27,46.54L382.29,60.14L383.3,54.8L384.32,57.84L385.33,34.18L386.34,58.13L387.36,54.07L388.37,43.71L389.39,68.84L390.4,58.11L391.41,57.97L392.43,66.36L393.44,48.46L394.46,62.99L395.47,40.78L396.48,53.93L397.5,36.43L399.53,58.6L400.54,52.1L401.56,53.95L402.57,60.65L403.58,62.66L404.6,56.72L406.63,67.01L407.64,58.53L408.65,44.89L409.67,48.35L410.68,59.4L411.7,54.42L412.71,61.79L413.72,49.98L414.74,47.99L415.75,38.11L416.77,66.94L417.78,44.62L418.79,53.93L419.81,51.48L420.82,58.35L421.84,42.73L423.86,60.34L424.88,64.49L425.89,54.11L426.91,62.35L427.92,77.77L428.93,58.33L429.95,34.13L430.96,40.67L431.98,42.03L432.99,56.79L434,46.63L435.02,53.04L436.03,46.37L437.05,52.32L438.06,50.14L439.07,49.91L440.09,45.14L441.1,56.45L443.13,39.49L444.14,46.3L446.17,59.76L447.19,69.42L448.2,68.26L449.21,45.07L451.24,64.74L452.26,60.72L453.27,44.27L454.28,66.86L455.3,59.22L456.31,58.02L457.33,54.6L458.34,63.26L459.35,52.46L460.37,51.37L461.38,69.87L462.4,62.12L464.42,41.57L465.44,52.66L466.45,62.44L467.47,38.15L468.48,59.27L469.49,54.56L470.51,52.99L471.52,65.16L474.57,43.11L475.58,69.38L476.59,35.43L477.61,62.66L479.64,53.13L480.65,73.86L481.66,45.56L482.68,58.89L483.69,53.49L484.71,56.77L485.72,66.68L486.73,50.12L487.75,56.39L488.76,56.07L489.78,43.66L490.79,45.49L491.8,58.42L492.82,55.45L494.85,64.29L495.86,54.18L497.89,74.98L498.9,50.87L499.92,70.87L500.93,48.15L501.94,79.51L502.96,58.26L503.97,58.91L504.99,58.62L506,50.07" style="vector-effect: non-scaling-stroke; fill: none; stroke: rgb(255, 127, 14); stroke-opacity: 1; stroke-width: 2px; opacity: 1;"/></g><g class="points"/><g class="text"/></g></g></g><g class="overplot"/><path class="xlines-above crisp" d="M0,0" style="fill: none;"/><path class="ylines-above crisp" d="M0,0" style="fill: none;"/><g class="overlines-above"/><g class="xaxislayer-above"><g class="xtick"><text text-anchor="middle" x="0" y="403" transform="translate(60,0)" style="font-family: 'Open Sans', verdana, arial, sans-serif; font-size: 12px; fill: rgb(68, 68, 68); fill-opacity: 1; white-space: pre;">0</text></g><g class="xtick"><text text-anchor="middle" x="0" y="403" transform="translate(161.2,0)" style="font-family: 'Open Sans', verdana, arial, sans-serif; font-size: 12px; fill: rgb(68, 68, 68); fill-opacity: 1; white-space: pre;">0.2</text></g><g class="xtick"><text text-anchor="middle" x="0" y="403" transform="translate(262.4,0)" style="font-family: 'Open Sans', verdana, arial, sans-serif; font-size: 12px; fill: rgb(68, 68, 68); fill-opacity: 1; white-space: pre;">0.4</text></g><g class="xtick"><text text-anchor="middle" x="0" y="403" transform="translate(363.6,0)" style="font-family: 'Open Sans', verdana, arial, sans-serif; font-size: 12px; fill: rgb(68, 68, 68); fill-opacity: 1; white-space: pre;">0.6</text></g><g class="xtick"><text text-anchor="middle" x="0" y="403" transform="translate(464.8,0)" style="font-family: 'Open Sans', verdana, arial, sans-serif; font-size: 12px; fill: rgb(68, 68, 68); fill-opacity: 1; white-space: pre;">0.8</text></g><g class="xtick"><text text-anchor="middle" x="0" y="403" transform="translate(566,0)" style="font-family: 'Open Sans', verdana, arial, sans-serif; font-size: 12px; fill: rgb(68, 68, 68); fill-opacity: 1; white-space: pre;">1</text></g></g><g class="yaxislayer-above"><g class="ytick"><text text-anchor="end" x="59" y="4.199999999999999" transform="translate(0,390)" style="font-family: 'Open Sans', verdana, arial, sans-serif; font-size: 12px; fill: rgb(68, 68, 68); fill-opacity: 1; white-space: pre;">−160</text></g><g class="ytick"><text text-anchor="end" x="59" y="4.199999999999999" transform="translate(0,345.35)" style="font-family: 'Open Sans', verdana, arial, sans-serif; font-size: 12px; fill: rgb(68, 68, 68); fill-opacity: 1; white-space: pre;">−140</text></g><g class="ytick"><text text-anchor="end" x="59" y="4.199999999999999" transform="translate(0,300.71000000000004)" style="font-family: 'Open Sans', verdana, arial, sans-serif; font-size: 12px; fill: rgb(68, 68, 68); fill-opacity: 1; white-space: pre;">−120</text></g><g class="ytick"><text text-anchor="end" x="59" y="4.199999999999999" transform="translate(0,256.07)" style="font-family: 'Open Sans', verdana, arial, sans-serif; font-size: 12px; fill: rgb(68, 68, 68); fill-opacity: 1; white-space: pre;">−100</text></g><g class="ytick"><text text-anchor="end" x="59" y="4.199999999999999" transform="translate(0,211.43)" style="font-family: 'Open Sans', verdana, arial, sans-serif; font-size: 12px; fill: rgb(68, 68, 68); fill-opacity: 1; white-space: pre;">−80</text></g><g class="ytick"><text text-anchor="end" x="59" y="4.199999999999999" transform="translate(0,166.79000000000002)" style="font-family: 'Open Sans', verdana, arial, sans-serif; font-size: 12px; fill: rgb(68, 68, 68); fill-opacity: 1; white-space: pre;">−60</text></g><g class="ytick"><text text-anchor="end" x="59" y="4.199999999999999" transform="translate(0,122.15)" style="font-family: 'Open Sans', verdana, arial, sans-serif; font-size: 12px; fill: rgb(68, 68, 68); fill-opacity: 1; white-space: pre;">−40</text></g><g class="ytick"><text text-anchor="end" x="59" y="4.199999999999999" transform="translate(0,77.5)" style="font-family: 'Open Sans', verdana, arial, sans-serif; font-size: 12px; fill: rgb(68, 68, 68); fill-opacity: 1; white-space: pre;">−20</text></g></g><g class="overaxes-above"/></g></g><g class="polarlayer"/><g class="ternarylayer"/><g class="geolayer"/><g class="pielayer"/><g class="glimages"/><defs id="topdefs-b0d39e"><g class="clips"/><clipPath id="legendb0d39e"><rect width="112" height="48" x="0" y="0"/></clipPath></defs><g class="layer-above"><g class="imagelayer"/><g class="shapelayer"/></g><g class="infolayer"><g class="legend" pointer-events="all" transform="translate(576.12, 60)"><rect class="bg" shape-rendering="crispEdges" width="112" height="48" x="0" y="0" style="stroke: rgb(68, 68, 68); stroke-opacity: 1; fill: rgb(255, 255, 255); fill-opacity: 1; stroke-width: 0px;"/><g class="scrollbox" transform="translate(0, 0)" clip-path="url(#legendb0d39e)"><g class="groups"><g class="traces" transform="translate(0, 14.5)" style="opacity: 1;"><g class="layers" style="opacity: 1;"><g class="legendfill"/><g class="legendlines"><path class="js-line" d="M5,0h30" style="fill: none; stroke: rgb(31, 119, 180); stroke-opacity: 1; stroke-width: 2px;"/></g><g class="legendsymbols"><g class="legendpoints"/></g></g><text class="legendtext user-select-none" text-anchor="start" x="40" y="4.680000000000001" style="font-family: 'Open Sans', verdana, arial, sans-serif; font-size: 12px; fill: rgb(68, 68, 68); fill-opacity: 1; white-space: pre;">SARSA</text><rect class="legendtoggle" pointer-events="all" x="0" y="-9.5" width="152" height="19" style="cursor: pointer; fill: rgb(0, 0, 0); fill-opacity: 0;"/></g><g class="traces" transform="translate(0, 33.5)" style="opacity: 1;"><g class="layers" style="opacity: 1;"><g class="legendfill"/><g class="legendlines"><path class="js-line" d="M5,0h30" style="fill: none; stroke: rgb(255, 127, 14); stroke-opacity: 1; stroke-width: 2px;"/></g><g class="legendsymbols"><g class="legendpoints"/></g></g><text class="legendtext user-select-none" text-anchor="start" x="40" y="4.680000000000001" style="font-family: 'Open Sans', verdana, arial, sans-serif; font-size: 12px; fill: rgb(68, 68, 68); fill-opacity: 1; white-space: pre;">Q-Learning</text><rect class="legendtoggle" pointer-events="all" x="0" y="-9.5" width="152" height="19" style="cursor: pointer; fill: rgb(0, 0, 0); fill-opacity: 0;"/></g></g></g><rect class="scrollbar" rx="20" ry="3" width="0" height="0" x="0" y="0" style="fill: rgb(128, 139, 164); fill-opacity: 1;"/></g><g class="g-gtitle"><text class="gtitle" x="350" y="30" text-anchor="middle" dy="0em" style="font-family: 'Open Sans', verdana, arial, sans-serif; font-size: 17px; fill: rgb(68, 68, 68); opacity: 1; font-weight: normal; white-space: pre;">Episode Returns</text></g><g class="g-xtitle"/><g class="g-ytitle"/></g></svg>