<svg class="main-svg" xmlns="http://www.w3.org/2000/svg" xmlns:xlink="http://www.w3.org/1999/xlink" width="700" height="450" style="" viewBox="0 0 700 450"><rect x="0" y="0" width="700" height="450" style="fill: rgb(255, 255, 255); fill-opacity: 1;"/><defs id="defs-64aa61"><g class="clips"><clipPath id="clip64aa61xyplot" class="plotclip"><rect width="460" height="330"/></clipPath><clipPath class="axesclip" id="clip64aa61x"><rect x="60" y="0" width="460" height="450"/></clipPath><clipPath class="axesclip" id="clip64aa61y"><rect x="0" y="60" width="700" height="330"/></clipPath><clipPath class="axesclip" id="clip64aa61xy"><rect x="60" y="60" width="460" height="330"/></clipPath></g><g class="gradients"/></defs><g class="bglayer"/><g class="layer-below"><g class="imagelayer"/><g class="shapelayer"/></g><g class="cartesianlayer"><g class="subplot xy"><g class="layer-subplot"><g class="shapelayer"/><g class="imagelayer"/></g><g class="gridlayer"><g class="x"><path class="xgrid crisp" transform="translate(136.92000000000002,0)" d="M0,60v330" style="stroke: rgb(238, 238, 238); stroke-opacity: 1; stroke-width: 1px;"/><path class="xgrid crisp" transform="translate(213.85,0)" d="M0,60v330" style="stroke: rgb(238, 238, 238); stroke-opacity: 1; stroke-width: 1px;"/><path class="xgrid crisp" transform="translate(290.77,0)" d="M0,60v330" style="stroke: rgb(238, 238, 238); stroke-opacity: 1; stroke-width: 1px;"/><path class="xgrid crisp" transform="translate(367.69,0)" d="M0,60v330" style="stroke: rgb(238, 238, 238); stroke-opacity: 1; stroke-width: 1px;"/><path class="xgrid crisp" transform="translate(444.62,0)" d="M0,60v330" style="stroke: rgb(238, 238, 238); stroke-opacity: 1; stroke-width: 1px;"/></g><g class="y"><path class="ygrid crisp" transform="translate(0,326.5)" d="M60,0h460" style="stroke: rgb(238, 238, 238); stroke-opacity: 1; stroke-width: 1px;"/><path class="ygrid crisp" transform="translate(0,260.08000000000004)" d="M60,0h460" style="stroke: rgb(238, 238, 238); stroke-opacity: 1; stroke-width: 1px;"/><path class="ygrid crisp" transform="translate(0,193.66)" d="M60,0h460" style="stroke: rgb(238, 238, 238); stroke-opacity: 1; stroke-width: 1px;"/><path class="ygrid crisp" transform="translate(0,127.23)" d="M60,0h460" style="stroke: rgb(238, 238, 238); stroke-opacity: 1; stroke-width: 1px;"/></g></g><g class="zerolinelayer"><path class="xzl zl crisp" transform="translate(60,0)" d="M0,60v330" style="stroke: rgb(68, 68, 68); stroke-opacity: 1; stroke-width: 1px;"/></g><path class="xlines-below"/><path class="ylines-below"/><g class="overlines-below"/><g class="xaxislayer-below"/><g class="yaxislayer-below"/><g class="overaxes-below"/><g class="plot" transform="translate(60, 60)" clip-path="url(#clip64aa61xyplot)"><g class="scatterlayer mlayer"><g class="trace scatter trace5ebc70" style="stroke-miterlimit: 2; opacity: 1;"><g class="fills"/><g class="errorbars"/><g class="lines"><path class="js-line" d="M0,17.08L3.08,16.5L4.62,91.56L7.69,136.48L9.23,146.94L13.85,167.45L15.38,173.18L21.54,189.12L23.08,194.1L24.62,199.58L26.15,201.08L27.69,205.15L29.23,206.14L32.31,213.61L33.85,216.52L35.38,218.26L36.92,222.91L40,226.48L41.54,229.72L43.08,231.88L44.62,231.88L46.15,233.79L47.69,238.03L49.23,242.18L50.77,243.42L55.38,251.73L56.92,251.97L60,256.29L61.54,256.38L63.08,261.19L64.62,261.19L66.15,260.44L67.69,262.19L72.31,267.34L73.85,269.99L76.92,267.58L78.46,270.08L81.54,276.05L83.08,277.71L86.15,277.13L87.69,278.71L89.23,280.04L90.77,283.03L92.31,281.45L93.85,281.87L95.38,281.78L96.92,283.69L100,286.02L101.54,286.18L103.08,285.27L104.62,285.93L106.15,287.93L107.69,287.93L109.23,289.42L110.77,288.84L112.31,291.58L113.85,292.24L116.92,291.33L118.46,293.16L120,294.98L121.54,292.49L124.62,293.07L126.15,296.48L127.69,294.9L129.23,296.56L132.31,297.23L133.85,295.81L138.46,298.31L140,297.06L141.54,300.55L143.08,298.97L144.62,297.81L146.15,298.31L147.69,301.63L149.23,299.8L152.31,298.47L153.85,299.3L155.38,299.47L156.92,298.8L160,301.21L161.54,300.71L163.08,300.8L164.62,300.13L166.15,300.13L167.69,303.04L169.23,299.05L170.77,301.71L172.31,301.29L173.85,301.79L175.38,301.46L176.92,303.45L178.46,300.96L180,304.12L181.54,301.71L183.08,301.05L186.15,301.71L187.69,301.54L189.23,301.29L190.77,302.96L192.31,302.29L193.85,302.96L195.38,300.3L196.92,299.63L198.46,303.12L200,300.3L201.54,304.2L203.08,304.28L206.15,300.71L207.69,303.2L209.23,303.29L210.77,305.11L212.31,302.54L213.85,303.29L215.38,304.78L216.92,301.88L218.46,303.2L220,302.54L221.54,304.2L223.08,302.62L229.23,304.2L230.77,303.37L232.31,306.03L233.85,303.79L236.92,305.03L238.46,304.45L240,306.19L241.54,302.96L246.15,306.36L247.69,305.61L249.23,306.77L250.77,305.36L252.31,304.2L253.85,308.68L255.38,307.52L256.92,307.94L260,307.02L261.54,307.19L263.08,306.53L264.62,307.19L266.15,305.53L267.69,307.02L269.23,307.94L270.77,305.53L272.31,305.61L273.85,306.77L275.38,307.11L276.92,309.1L278.46,309.68L280,305.78L281.54,307.69L283.08,306.86L287.69,306.19L289.23,307.94L292.31,302.96L293.85,303.54L295.38,305.78L296.92,302.62L298.46,302.21L300,302.87L301.54,305.53L303.08,303.54L304.62,305.28L306.15,305.86L307.69,303.7L309.23,306.69L310.77,304.62L312.31,305.28L313.85,302.12L315.38,302.54L320,306.86L321.54,306.94L323.08,306.94L324.62,304.78L326.15,306.11L327.69,303.95L329.23,303.95L330.77,307.69L332.31,304.53L333.85,306.44L335.38,304.62L336.92,304.62L338.46,303.12L340,306.44L341.54,308.19L343.08,307.85L344.62,305.45L346.15,306.44L349.23,304.28L350.77,306.03L352.31,305.45L353.85,306.86L356.92,306.77L358.46,305.61L360,305.45L361.54,304.2L363.08,305.28L364.62,304.7L366.15,307.36L367.69,304.86L369.23,304.7L370.77,306.86L372.31,303.87L373.85,304.53L375.38,304.2L376.92,305.53L378.46,305.45L380,304.28L381.54,303.45L383.08,305.45L386.15,304.7L387.69,307.69L390.77,304.95L392.31,306.36L393.85,305.61L395.38,306.11L396.92,303.95L398.46,304.78L400,304.28L401.54,306.36L403.08,305.03L404.62,306.28L406.15,305.03L407.69,305.36L410.77,306.19L412.31,303.62L413.85,305.78L415.38,305.86L418.46,307.11L420,305.03L424.62,305.61L426.15,303.45L427.69,307.6L429.23,305.7L430.77,308.02L432.31,305.78L433.85,306.86L435.38,306.94L436.92,306.11L438.46,307.52L440,307.19L441.54,308.52L444.62,307.69L446.15,306.11L447.69,307.27L449.23,306.53L450.77,308.1L452.31,307.44L453.85,307.27L455.38,303.54L456.92,307.44L458.46,307.19L460,305.7" style="vector-effect: non-scaling-stroke; fill: none; stroke: rgb(31, 119, 180); stroke-opacity: 1; stroke-width: 2px; opacity: 1;"/></g><g class="points"/><g class="text"/></g><g class="trace scatter trace80d883" style="stroke-miterlimit: 2; opacity: 1;"><g class="fills"/><g class="errorbars"/><g class="lines"><path class="js-line" d="M0,19.74L1.54,18.24L3.08,85.08L6.15,185.05L7.69,207.05L9.23,226.98L10.77,235.45L13.85,250.23L15.38,252.31L20,265.09L21.54,266.84L23.08,267.75L24.62,270.66L26.15,272.98L27.69,273.48L32.31,277.46L33.85,280.45L35.38,278.63L36.92,280.7L38.46,282.11L40,281.78L41.54,283.86L43.08,282.7L47.69,287.59L49.23,285.6L52.31,289.84L53.85,289.34L55.38,291.08L56.92,288.51L58.46,290.75L60,291.58L61.54,291.16L63.08,291.91L64.62,291.25L66.15,293.99L67.69,292L69.23,292.58L70.77,294.49L72.31,292.16L73.85,294.82L75.38,295.4L76.92,295.57L78.46,293.74L80,297.23L81.54,295.15L83.08,298.47L84.62,295.48L87.69,296.4L89.23,296.4L92.31,296.48L93.85,299.14L95.38,295.81L96.92,296.64L100,298.06L101.54,297.31L103.08,298.8L104.62,301.46L106.15,300.63L107.69,298.22L109.23,301.21L110.77,299.8L112.31,298.47L113.85,298.8L115.38,297.97L116.92,298.72L118.46,299.3L120,300.71L123.08,299.47L124.62,300.38L127.69,302.04L129.23,299.97L130.77,302.29L132.31,302.71L133.85,302.21L135.38,303.54L136.92,300.88L138.46,302.37L140,302.96L141.54,301.96L143.08,301.54L144.62,304.86L146.15,300.3L147.69,301.54L149.23,303.79L150.77,304.28L153.85,305.53L155.38,302.62L158.46,305.2L160,303.95L161.54,303.54L163.08,304.86L166.15,302.12L167.69,303.54L169.23,303.62L170.77,304.7L172.31,304.7L173.85,305.78L175.38,305.86L176.92,304.03L178.46,305.78L180,306.03L181.54,305.53L183.08,306.77L184.62,305.94L186.15,306.11L187.69,307.44L189.23,305.7L190.77,308.52L192.31,306.77L195.38,306.36L196.92,307.94L198.46,305.78L200,306.94L201.54,305.45L203.08,305.28L204.62,308.77L206.15,305.03L210.77,308.6L212.31,306.11L215.38,306.28L216.92,308.27L218.46,306.69L220,306.94L221.54,304.62L223.08,306.86L224.62,307.94L226.15,304.45L227.69,308.1L229.23,308.02L230.77,307.19L232.31,307.94L233.85,305.86L235.38,306.94L236.92,308.02L238.46,306.53L240,306.03L241.54,307.85L243.08,309.68L244.62,307.11L246.15,307.44L247.69,308.85L250.77,307.11L252.31,307.85L253.85,308.19L255.38,309.51L256.92,309.35L258.46,305.94L260,307.52L261.54,306.36L263.08,308.19L264.62,306.11L269.23,309.6L270.77,308.27L272.31,308.77L273.85,306.03L275.38,308.93L276.92,309.68L278.46,312.75L280,309.51L281.54,312.17L283.08,309.43L284.62,308.35L286.15,308.52L287.69,310.51L289.23,308.93L290.77,307.77L292.31,310.18L293.85,310.01L295.38,308.1L296.92,311.51L298.46,309.27L300,311.51L301.54,311.59L304.62,309.93L306.15,311.18L307.69,310.34L309.23,310.68L310.77,312.09L312.31,311.01L313.85,309.93L315.38,311.18L316.92,309.51L318.46,310.68L320,311.26L321.54,310.93L323.08,311.92L324.62,311.92L326.15,311.76L327.69,310.51L329.23,310.43L330.77,308.02L332.31,311.01L333.85,308.27L335.38,309.35L336.92,308.85L338.46,310.76L340,311.09L341.54,312.75L343.08,310.34L346.15,311.26L347.69,310.68L350.77,310.18L352.31,310.43L353.85,310.34L355.38,311.09L356.92,312.75L358.46,309.02L360,310.76L361.54,307.77L363.08,309.85L364.62,308.27L366.15,310.18L367.69,308.44L370.77,308.93L372.31,309.68L375.38,310.1L376.92,310.43L378.46,307.44L380,308.19L383.08,311.42L384.62,311.51L386.15,307.77L387.69,310.34L390.77,309.93L392.31,310.51L393.85,312.75L395.38,310.68L398.46,309.93L400,308.19L401.54,311.84L403.08,310.76L404.62,309.93L406.15,311.01L407.69,310.18L409.23,310.34L410.77,311.59L412.31,310.26L413.85,310.93L415.38,310.01L418.46,309.76L420,310.84L421.54,313.25L423.08,311.18L426.15,308.77L427.69,309.68L429.23,311.76L430.77,309.85L432.31,310.43L433.85,309.51L435.38,311.76L436.92,310.84L441.54,310.51L443.08,313.5L446.15,312.34L447.69,311.67L450.77,311.26L452.31,311.18L455.38,309.43L456.92,311.51L458.46,310.84L460,311.09" style="vector-effect: non-scaling-stroke; fill: none; stroke: rgb(255, 127, 14); stroke-opacity: 1; stroke-width: 2px; opacity: 1;"/></g><g class="points"/><g class="text"/></g></g></g><g class="overplot"/><path class="xlines-above crisp" d="M0,0" style="fill: none;"/><path class="ylines-above crisp" d="M0,0" style="fill: none;"/><g class="overlines-above"/><g class="xaxislayer-above"><g class="xtick"><text text-anchor="middle" x="0" y="403" transform="translate(60,0)" style="font-family: 'Open Sans', verdana, arial, sans-serif; font-size: 12px; fill: rgb(68, 68, 68); fill-opacity: 1; white-space: pre;">0</text></g><g class="xtick"><text text-anchor="middle" x="0" y="403" transform="translate(136.92000000000002,0)" style="font-family: 'Open Sans', verdana, arial, sans-serif; font-size: 12px; fill: rgb(68, 68, 68); fill-opacity: 1; white-space: pre;">50</text></g><g class="xtick"><text text-anchor="middle" x="0" y="403" transform="translate(213.85,0)" style="font-family: 'Open Sans', verdana, arial, sans-serif; font-size: 12px; fill: rgb(68, 68, 68); fill-opacity: 1; white-space: pre;">100</text></g><g class="xtick"><text text-anchor="middle" x="0" y="403" transform="translate(290.77,0)" style="font-family: 'Open Sans', verdana, arial, sans-serif; font-size: 12px; fill: rgb(68, 68, 68); fill-opacity: 1; white-space: pre;">150</text></g><g class="xtick"><text text-anchor="middle" x="0" y="403" transform="translate(367.69,0)" style="font-family: 'Open Sans', verdana, arial, sans-serif; font-size: 12px; fill: rgb(68, 68, 68); fill-opacity: 1; white-space: pre;">200</text></g><g class="xtick"><text text-anchor="middle" x="0" y="403" transform="translate(444.62,0)" style="font-family: 'Open Sans', verdana, arial, sans-serif; font-size: 12px; fill: rgb(68, 68, 68); fill-opacity: 1; white-space: pre;">250</text></g></g><g class="yaxislayer-above"><g class="ytick"><text text-anchor="end" x="59" y="4.199999999999999" transform="translate(0,326.5)" style="font-family: 'Open Sans', verdana, arial, sans-serif; font-size: 12px; fill: rgb(68, 68, 68); fill-opacity: 1; white-space: pre;">0.2</text></g><g class="ytick"><text text-anchor="end" x="59" y="4.199999999999999" transform="translate(0,260.08000000000004)" style="font-family: 'Open Sans', verdana, arial, sans-serif; font-size: 12px; fill: rgb(68, 68, 68); fill-opacity: 1; white-space: pre;">0.4</text></g><g class="ytick"><text text-anchor="end" x="59" y="4.199999999999999" transform="translate(0,193.66)" style="font-family: 'Open Sans', verdana, arial, sans-serif; font-size: 12px; fill: rgb(68, 68, 68); fill-opacity: 1; white-space: pre;">0.6</text></g><g class="ytick"><text text-anchor="end" x="59" y="4.199999999999999" transform="translate(0,127.23)" style="font-family: 'Open Sans', verdana, arial, sans-serif; font-size: 12px; fill: rgb(68, 68, 68); fill-opacity: 1; white-space: pre;">0.8</text></g><g class="ytick"><text text-anchor="end" x="59" y="4.199999999999999" transform="translate(0,60.81)" style="font-family: 'Open Sans', verdana, arial, sans-serif; font-size: 12px; fill: rgb(68, 68, 68); fill-opacity: 1; white-space: pre;">1</text></g></g><g class="overaxes-above"/></g></g><g class="polarlayer"/><g class="ternarylayer"/><g class="geolayer"/><g class="pielayer"/><g class="glimages"/><defs id="topdefs-64aa61"><g class="clips"/><clipPath id="legend64aa61"><rect width="159" height="48" x="0" y="0"/></clipPath></defs><g class="layer-above"><g class="imagelayer"/><g class="shapelayer"/></g><g class="infolayer"><g class="legend" pointer-events="all" transform="translate(529.2, 60)"><rect class="bg" shape-rendering="crispEdges" width="159" height="48" x="0" y="0" style="stroke: rgb(68, 68, 68); stroke-opacity: 1; fill: rgb(255, 255, 255); fill-opacity: 1; stroke-width: 0px;"/><g class="scrollbox" transform="translate(0, 0)" clip-path="url(#legend64aa61)"><g class="groups"><g class="traces" transform="translate(0, 14.5)" style="opacity: 1;"><g class="layers" style="opacity: 1;"><g class="legendfill"/><g class="legendlines"><path class="js-line" d="M5,0h30" style="fill: none; stroke: rgb(31, 119, 180); stroke-opacity: 1; stroke-width: 2px;"/></g><g class="legendsymbols"><g class="legendpoints"/></g></g><text class="legendtext user-select-none" text-anchor="start" x="40" y="4.680000000000001" style="font-family: 'Open Sans', verdana, arial, sans-serif; font-size: 12px; fill: rgb(68, 68, 68); fill-opacity: 1; white-space: pre;">Q-Learning</text><rect class="legendtoggle" pointer-events="all" x="0" y="-9.5" width="199" height="19" style="cursor: pointer; fill: rgb(0, 0, 0); fill-opacity: 0;"/></g><g class="traces" transform="translate(0, 33.5)" style="opacity: 1;"><g class="layers" style="opacity: 1;"><g class="legendfill"/><g class="legendlines"><path class="js-line" d="M5,0h30" style="fill: none; stroke: rgb(255, 127, 14); stroke-opacity: 1; stroke-width: 2px;"/></g><g class="legendsymbols"><g class="legendpoints"/></g></g><text class="legendtext user-select-none" text-anchor="start" x="40" y="4.680000000000001" style="font-family: 'Open Sans', verdana, arial, sans-serif; font-size: 12px; fill: rgb(68, 68, 68); fill-opacity: 1; white-space: pre;">Double Q-Learning</text><rect class="legendtoggle" pointer-events="all" x="0" y="-9.5" width="199" height="19" style="cursor: pointer; fill: rgb(0, 0, 0); fill-opacity: 0;"/></g></g></g><rect class="scrollbar" rx="20" ry="3" width="0" height="0" x="0" y="0" style="fill: rgb(128, 139, 164); fill-opacity: 1;"/></g><g class="g-gtitle"><text class="gtitle" x="350" y="30" text-anchor="middle" dy="0em" style="font-family: 'Open Sans', verdana, arial, sans-serif; font-size: 17px; fill: rgb(68, 68, 68); opacity: 1; font-weight: normal; white-space: pre;">% Left Actions from A</text></g><g class="g-xtitle"/><g class="g-ytitle"/></g></svg>