<svg class="main-svg" xmlns="http://www.w3.org/2000/svg" xmlns:xlink="http://www.w3.org/1999/xlink" width="700" height="450" style="" viewBox="0 0 700 450"><rect x="0" y="0" width="700" height="450" style="fill: rgb(255, 255, 255); fill-opacity: 1;"/><defs id="defs-d7f51a"><g class="clips"><clipPath id="clipd7f51axyplot" class="plotclip"><rect width="580" height="330"/></clipPath><clipPath class="axesclip" id="clipd7f51ax"><rect x="60" y="0" width="580" height="450"/></clipPath><clipPath class="axesclip" id="clipd7f51ay"><rect x="0" y="60" width="700" height="330"/></clipPath><clipPath class="axesclip" id="clipd7f51axy"><rect x="60" y="60" width="580" height="330"/></clipPath></g><g class="gradients"/></defs><g class="bglayer"/><g class="layer-below"><g class="imagelayer"/><g class="shapelayer"/></g><g class="cartesianlayer"><g class="subplot xy"><g class="layer-subplot"><g class="shapelayer"/><g class="imagelayer"/></g><g class="gridlayer"><g class="x"><path class="xgrid crisp" transform="translate(176.12,0)" d="M0,60v330" style="stroke: rgb(238, 238, 238); stroke-opacity: 1; stroke-width: 1px;"/><path class="xgrid crisp" transform="translate(292.23,0)" d="M0,60v330" style="stroke: rgb(238, 238, 238); stroke-opacity: 1; stroke-width: 1px;"/><path class="xgrid crisp" transform="translate(408.35,0)" d="M0,60v330" style="stroke: rgb(238, 238, 238); stroke-opacity: 1; stroke-width: 1px;"/><path class="xgrid crisp" transform="translate(524.46,0)" d="M0,60v330" style="stroke: rgb(238, 238, 238); stroke-opacity: 1; stroke-width: 1px;"/></g><g class="y"><path class="ygrid crisp" transform="translate(0,318.12)" d="M60,0h580" style="stroke: rgb(238, 238, 238); stroke-opacity: 1; stroke-width: 1px;"/><path class="ygrid crisp" transform="translate(0,260.73)" d="M60,0h580" style="stroke: rgb(238, 238, 238); stroke-opacity: 1; stroke-width: 1px;"/><path class="ygrid crisp" transform="translate(0,203.33)" d="M60,0h580" style="stroke: rgb(238, 238, 238); stroke-opacity: 1; stroke-width: 1px;"/><path class="ygrid crisp" transform="translate(0,145.94)" d="M60,0h580" style="stroke: rgb(238, 238, 238); stroke-opacity: 1; stroke-width: 1px;"/><path class="ygrid crisp" transform="translate(0,88.55)" d="M60,0h580" style="stroke: rgb(238, 238, 238); stroke-opacity: 1; stroke-width: 1px;"/></g></g><g class="zerolinelayer"><path class="xzl zl crisp" transform="translate(60,0)" d="M0,60v330" style="stroke: rgb(68, 68, 68); stroke-opacity: 1; stroke-width: 1px;"/><path class="yzl zl crisp" transform="translate(0,375.51)" d="M60,0h580" style="stroke: rgb(68, 68, 68); stroke-opacity: 1; stroke-width: 1px;"/></g><path class="xlines-below"/><path class="ylines-below"/><g class="overlines-below"/><g class="xaxislayer-below"/><g class="yaxislayer-below"/><g class="overaxes-below"/><g class="plot" transform="translate(60, 60)" clip-path="url(#clipd7f51axyplot)"><g class="scatterlayer mlayer"><g class="trace scatter traceb7db50" style="stroke-miterlimit: 2; opacity: 1;"><g class="fills"/><g class="errorbars"/><g class="lines"><path class="js-line" d="M0,16.5L1.16,272.75L1.74,282.51L2.32,188.96L2.9,293.99L3.48,302.31L4.06,287.39L5.23,267.87L5.81,301.73L6.39,304.89L6.97,300.87L7.55,274.76L8.13,280.79L8.71,299.15L9.29,305.18L9.87,292.55L10.45,277.92L11.03,308.33L12.19,301.73L12.77,303.74L13.35,300.87L13.93,308.62L14.51,310.34L15.1,285.09L16.26,309.77L16.84,274.19L17.42,285.38L18,280.79L19.16,310.34L19.74,293.41L20.32,310.06L20.9,298L21.48,310.34L22.06,307.47L22.64,309.2L23.22,302.31L23.8,310.34L24.96,299.73L25.55,310.34L26.13,293.41L26.71,310.06L27.29,312.93L27.87,305.75L29.03,307.47L29.61,280.79L30.77,306.04L31.35,306.04L31.93,311.78L32.51,311.49L33.09,298L33.67,297.43L34.25,306.9L34.83,297.72L35.42,306.61L36.58,294.85L37.16,301.73L37.74,288.53L38.32,303.74L38.9,304.32L39.48,308.91L40.06,299.44L40.64,309.77L41.22,293.7L41.8,308.91L42.38,308.62L42.96,306.33L44.7,309.2L45.29,312.35L46.45,306.04L47.03,310.92L47.61,312.64L48.19,310.63L48.77,310.63L49.35,312.93L49.93,313.5L50.51,309.2L51.09,312.35L51.67,298.87L52.25,309.77L52.83,308.62L53.41,312.64L53.99,304.03L54.57,310.06L55.74,310.06L56.32,312.35L56.9,313.21L57.48,311.49L58.64,313.5L59.22,309.48L59.8,312.93L60.38,308.62L60.96,313.5L61.54,313.21L62.12,312.35L63.28,312.93L63.86,309.2L64.44,308.62L65.03,312.35L66.19,306.9L66.77,312.93L67.35,304.03L67.93,309.77L69.09,313.21L69.67,302.6L70.83,312.64L71.41,303.17L71.99,295.71L72.57,308.33L73.15,312.64L73.73,310.06L74.31,306.04L74.89,312.64L75.48,313.5L76.06,310.34L77.22,313.5L77.8,307.47L78.38,312.64L78.96,308.05L80.12,313.21L80.7,313.5L81.28,305.18L81.86,308.91L82.44,298.87L83.02,308.05L83.6,313.5L84.18,307.19L84.76,306.61L85.35,309.77L87.09,313.5L87.67,300.87L88.25,309.48L88.83,307.76L89.41,306.61L90.57,313.21L91.15,307.76L91.73,302.88L92.31,309.2L92.89,307.76L93.47,312.35L95.22,313.5L95.8,313.5L96.38,313.5L96.96,310.06L97.54,313.5L98.12,312.93L98.7,304.32L99.28,313.21L99.86,311.2L100.44,309.48L101.6,313.5L102.18,313.5L102.76,312.35L103.34,313.5L106.83,313.5L107.41,310.63L107.99,306.9L108.57,313.5L109.15,311.49L109.73,301.16L110.31,313.5L110.89,307.47L111.47,312.93L112.05,300.87L113.21,313.5L113.79,313.5L114.95,307.47L115.54,311.2L117.28,313.5L117.86,312.93L118.44,313.21L119.02,310.34L120.18,313.5L120.76,313.5L121.34,312.93L121.92,313.5L122.5,313.5L123.08,310.63L124.24,313.5L124.82,313.5L126.57,313.5L127.15,299.44L128.31,312.07L128.89,305.75L130.05,313.5L130.63,313.5L132.95,313.21L133.53,312.64L134.11,307.47L134.69,313.5L135.28,313.5L135.86,312.64L137.02,313.21L137.6,313.5L138.18,313.5L138.76,312.35L139.92,313.21L140.5,313.5L145.15,313.5L145.73,310.06L146.31,313.21L146.89,312.35L147.47,313.21L148.63,313.5L149.21,312.07L150.37,313.5L150.95,305.75L151.53,313.5L152.11,312.35L152.69,313.5L153.27,311.78L153.85,313.5L154.43,313.5L155.02,312.35L155.6,309.48L156.18,313.5L157.34,310.34L157.92,309.77L158.5,312.35L159.08,310.92L159.66,310.92L160.24,312.07L160.82,306.9L161.4,309.48L161.98,303.74L162.56,310.34L163.14,307.76L163.72,309.77L164.88,313.21L165.47,310.92L166.05,310.63L166.63,297.43L167.21,313.21L167.79,311.2L168.37,313.21L168.95,312.07L169.53,312.64L170.11,293.41L170.69,311.78L171.27,311.78L171.85,297.43L172.43,310.34L173.01,308.91L173.59,310.92L174.75,308.33L175.34,311.49L175.92,308.62L176.5,313.21L177.08,312.64L177.66,313.21L178.82,313.5L179.4,312.07L179.98,312.35L180.56,313.5L181.72,313.5L182.3,313.5L183.46,313.5L184.04,311.2L185.21,313.5L185.79,313.5L186.37,313.5L186.95,312.64L187.53,312.93L188.11,308.62L189.27,313.5L189.85,313.5L191.01,313.5L191.59,310.92L192.17,313.21L192.75,311.78L193.33,313.21L193.91,312.35L196.24,313.21L196.82,312.93L197.98,313.21L198.56,310.92L199.14,313.21L199.72,309.2L200.3,313.5L200.88,313.21L201.46,313.5L202.04,312.07L202.62,313.5L206.11,313.5L206.69,309.48L207.85,313.21L208.43,311.2L209.01,313.5L209.59,308.62L210.75,313.5L211.33,313.5L212.49,313.5L213.07,312.35L213.65,313.5L214.23,310.63L214.81,311.2L215.4,313.5L216.56,310.92L217.14,313.5L217.72,311.2L218.3,312.35L219.46,312.93L220.04,306.61L221.2,313.5L221.78,313.5L226.43,313.5L227.01,312.35L227.59,313.5L228.17,312.93L229.33,312.64L229.91,307.19L230.49,313.5L231.07,312.93L231.65,313.5L233.39,313.5L233.97,312.07L234.55,310.34L235.14,313.5L236.3,312.93L236.88,313.5L238.04,312.93L238.62,313.5L239.2,308.91L239.78,313.5L246.17,313.5L246.75,312.35L247.33,313.21L247.91,310.92L248.49,310.63L249.07,307.76L250.23,313.5L250.81,313.5L251.39,312.93L251.97,313.5L252.55,310.92L253.13,313.5L253.71,313.5L254.29,312.64L254.87,313.5L255.46,312.93L256.62,313.5L257.2,313.5L257.78,312.64L258.36,313.5L259.52,312.93L260.1,313.5L264.16,313.5L264.74,310.34L265.91,313.21L266.49,310.06L267.65,313.21L268.23,313.21L268.81,310.63L269.39,313.21L273.45,312.93L274.03,308.33L275.2,313.21L275.78,306.61L277.52,313.21L278.1,313.21L278.68,312.64L279.26,313.21L280.42,312.64L281,309.77L282.16,313.5L282.74,311.78L283.32,312.93L283.9,311.78L285.07,313.5L285.65,313.21L287.39,313.5L287.97,313.5L289.13,313.21L289.71,313.5L290.29,310.92L290.87,312.07L292.03,313.5L292.61,313.5L296.68,313.5L297.26,312.07L297.84,313.5L298.42,310.63L299,308.91L299.58,312.93L300.16,312.35L300.74,312.93L301.32,313.5L301.9,312.35L302.48,313.5L303.06,310.34L304.22,310.63L304.8,313.5L305.39,312.93L305.97,311.2L307.13,313.5L307.71,313.5L308.29,312.07L308.87,313.5L317.58,313.5L318.16,312.35L319.32,313.5L319.9,313.5L320.48,312.07L321.06,312.93L321.64,313.5L322.22,310.34L323.38,313.5L323.96,313.21L325.13,312.64L325.71,311.78L326.87,313.5L327.45,312.93L328.61,313.5L329.19,312.64L329.77,309.77L330.35,312.93L330.93,312.64L331.51,313.21L332.09,313.21L332.67,310.06L333.83,312.64L334.41,312.64L334.99,312.35L335.58,312.93L336.16,312.64L336.74,313.21L339.06,313.21L339.64,311.2L340.8,313.21L341.38,313.5L341.96,312.64L342.54,313.5L343.7,312.64L344.28,313.21L344.86,313.21L345.45,311.49L346.03,312.93L346.61,310.63L347.77,313.21L348.35,312.35L349.51,313.5L350.09,305.75L351.25,312.07L351.83,312.93L352.41,312.93L352.99,310.63L354.15,312.93L354.73,313.5L356.48,313.5L357.06,312.35L358.22,313.5L358.8,312.93L359.38,311.2L359.96,313.5L361.7,313.5L362.28,310.06L364.6,313.5L365.19,313.5L366.35,313.5L366.93,311.2L368.09,313.5L368.67,313.5L370.41,313.5L370.99,312.64L372.73,313.5L373.31,313.5L373.89,313.5L374.47,311.78L375.64,313.5L376.22,313.21L376.8,313.5L377.38,311.78L378.54,309.48L379.12,312.35L379.7,313.5L380.28,310.34L381.44,313.21L382.02,313.5L384.92,313.5L385.51,310.34L386.09,310.34L386.67,313.5L387.25,306.61L387.83,310.06L388.41,310.34L388.99,313.5L393.05,313.5L393.63,312.35L394.79,313.5L395.38,313.21L395.96,313.5L396.54,310.34L397.7,313.5L398.28,313.5L399.44,309.77L400.02,312.93L400.6,307.19L401.18,309.77L402.34,313.5L402.92,313.21L403.5,312.64L404.08,313.21L404.66,312.93L405.25,313.5L405.83,309.48L406.41,312.64L407.57,313.21L408.15,310.34L409.31,313.5L409.89,313.21L410.47,311.49L411.05,313.5L415.12,313.21L415.7,309.2L416.86,313.5L417.44,312.93L418.02,303.74L418.6,313.5L419.18,311.78L419.76,313.21L421.5,313.5L422.08,313.5L424.98,313.5L425.57,312.35L426.73,313.5L427.31,313.5L428.47,312.93L429.05,311.49L430.21,313.5L430.79,313.5L431.37,312.93L431.95,313.5L433.11,312.64L433.69,312.93L434.85,313.5L435.44,313.5L436.6,313.5L437.18,313.5L440.08,313.5L440.66,311.49L441.82,313.5L442.4,313.5L442.98,308.62L443.56,313.5L444.14,312.93L444.72,313.5L448.79,313.5L449.37,310.63L449.95,312.35L450.53,309.77L451.69,312.35L452.27,313.5L452.85,313.5L453.43,310.34L454.59,313.5L455.18,310.92L456.34,313.5L456.92,312.93L457.5,309.77L458.08,310.92L459.24,313.5L459.82,313.5L461.56,312.93L462.14,313.5L463.3,312.07L463.88,312.93L466.21,312.93L466.79,313.21L467.95,312.93L468.53,311.78L469.11,311.2L469.69,313.21L470.85,312.35L471.43,313.21L472.01,312.35L472.59,313.21L473.17,311.78L473.75,312.93L474.33,312.64L474.91,313.21L475.5,312.64L476.08,313.21L478.98,312.64L479.56,309.2L480.14,310.34L480.72,307.47L481.3,307.19L481.88,310.06L483.04,313.21L483.62,313.21L484.2,313.21L484.78,311.2L485.95,313.5L486.53,313.5L487.69,313.5L488.27,310.63L488.85,313.5L489.43,313.21L490.01,313.5L490.59,312.64L491.17,313.5L491.75,310.34L492.33,313.5L494.07,313.5L494.65,311.78L495.82,313.5L496.4,312.93L498.14,313.21L498.72,312.64L499.3,313.21L499.88,310.34L501.04,313.21L501.62,312.07L502.2,311.78L502.78,308.91L503.36,308.91L503.94,313.21L504.52,313.21L505.11,310.34L506.27,313.5L506.85,313.5L507.43,313.5L508.01,302.31L509.17,312.64L509.75,313.5L510.33,312.93L510.91,313.5L512.07,312.93L512.65,313.21L514.39,312.07L514.97,313.21L515.56,312.35L516.14,313.5L516.72,308.33L517.3,312.64L518.46,313.5L519.04,312.93L519.62,313.5L520.2,312.93L520.78,313.21L521.36,310.63L522.52,313.5L523.1,313.5L523.68,308.05L524.26,312.93L524.84,308.33L525.43,312.35L526.01,312.93L526.59,312.35L527.17,312.93L527.75,312.35L528.33,313.5L528.91,312.35L530.07,312.93L530.65,312.93L531.23,312.35L531.81,312.93L533.55,312.64L534.13,313.21L534.71,313.21L535.3,312.07L535.88,312.35L536.46,313.5L537.04,312.93L537.62,310.92L538.78,305.47L539.36,309.48L540.52,313.5L541.1,312.93L542.26,312.07L542.84,312.93L544,312.35L544.58,312.93L545.17,312.93L545.75,312.07L546.33,313.21L546.91,304.6L547.49,313.5L548.07,312.93L548.65,313.5L549.23,312.93L549.81,309.48L550.97,312.35L551.55,310.92L552.13,311.78L552.71,310.92L553.87,312.93L554.45,312.93L555.62,313.5L556.2,313.5L556.78,313.5L557.36,310.92L557.94,309.77L558.52,313.5L559.1,312.93L559.68,311.2L560.84,313.5L561.42,313.5L567.23,313.5L567.81,311.2L568.97,313.5L569.55,313.5L571.87,312.93L572.45,311.2L574.19,313.21L574.77,313.21L575.36,311.49L575.94,313.21L578.26,313.21L578.84,310.92L579.42,312.93L580,312.07" style="vector-effect: non-scaling-stroke; fill: none; stroke: rgb(31, 119, 180); stroke-opacity: 1; stroke-width: 2px; opacity: 1;"/></g><g class="points"/><g class="text"/></g></g></g><g class="overplot"/><path class="xlines-above crisp" d="M0,0" style="fill: none;"/><path class="ylines-above crisp" d="M0,0" style="fill: none;"/><g class="overlines-above"/><g class="xaxislayer-above"><g class="xtick"><text text-anchor="middle" x="0" y="403" transform="translate(60,0)" style="font-family: 'Open Sans', verdana, arial, sans-serif; font-size: 12px; fill: rgb(68, 68, 68); fill-opacity: 1; white-space: pre;">0</text></g><g class="xtick"><text text-anchor="middle" x="0" y="403" transform="translate(176.12,0)" style="font-family: 'Open Sans', verdana, arial, sans-serif; font-size: 12px; fill: rgb(68, 68, 68); fill-opacity: 1; white-space: pre;">200</text></g><g class="xtick"><text text-anchor="middle" x="0" y="403" transform="translate(292.23,0)" style="font-family: 'Open Sans', verdana, arial, sans-serif; font-size: 12px; fill: rgb(68, 68, 68); fill-opacity: 1; white-space: pre;">400</text></g><g class="xtick"><text text-anchor="middle" x="0" y="403" transform="translate(408.35,0)" style="font-family: 'Open Sans', verdana, arial, sans-serif; font-size: 12px; fill: rgb(68, 68, 68); fill-opacity: 1; white-space: pre;">600</text></g><g class="xtick"><text text-anchor="middle" x="0" y="403" transform="translate(524.46,0)" style="font-family: 'Open Sans', verdana, arial, sans-serif; font-size: 12px; fill: rgb(68, 68, 68); fill-opacity: 1; white-space: pre;">800</text></g></g><g class="yaxislayer-above"><g class="ytick"><text text-anchor="end" x="59" y="4.199999999999999" transform="translate(0,375.51)" style="font-family: 'Open Sans', verdana, arial, sans-serif; font-size: 12px; fill: rgb(68, 68, 68); fill-opacity: 1; white-space: pre;">0</text></g><g class="ytick"><text text-anchor="end" x="59" y="4.199999999999999" transform="translate(0,318.12)" style="font-family: 'Open Sans', verdana, arial, sans-serif; font-size: 12px; fill: rgb(68, 68, 68); fill-opacity: 1; white-space: pre;">200</text></g><g class="ytick"><text text-anchor="end" x="59" y="4.199999999999999" transform="translate(0,260.73)" style="font-family: 'Open Sans', verdana, arial, sans-serif; font-size: 12px; fill: rgb(68, 68, 68); fill-opacity: 1; white-space: pre;">400</text></g><g class="ytick"><text text-anchor="end" x="59" y="4.199999999999999" transform="translate(0,203.33)" style="font-family: 'Open Sans', verdana, arial, sans-serif; font-size: 12px; fill: rgb(68, 68, 68); fill-opacity: 1; white-space: pre;">600</text></g><g class="ytick"><text text-anchor="end" x="59" y="4.199999999999999" transform="translate(0,145.94)" style="font-family: 'Open Sans', verdana, arial, sans-serif; font-size: 12px; fill: rgb(68, 68, 68); fill-opacity: 1; white-space: pre;">800</text></g><g class="ytick"><text text-anchor="end" x="59" y="4.199999999999999" transform="translate(0,88.55)" style="font-family: 'Open Sans', verdana, arial, sans-serif; font-size: 12px; fill: rgb(68, 68, 68); fill-opacity: 1; white-space: pre;">1000</text></g></g><g class="overaxes-above"/></g></g><g class="polarlayer"/><g class="ternarylayer"/><g class="geolayer"/><g class="pielayer"/><g class="glimages"/><defs id="topdefs-d7f51a"><g class="clips"/></defs><g class="layer-above"><g class="imagelayer"/><g class="shapelayer"/></g><g class="infolayer"><g class="g-gtitle"><text class="gtitle" x="350" y="30" text-anchor="middle" dy="0em" style="font-family: 'Open Sans', verdana, arial, sans-serif; font-size: 17px; fill: rgb(68, 68, 68); opacity: 1; font-weight: normal; white-space: pre;">Episode Length - 8 Actions</text></g><g class="g-xtitle"/><g class="g-ytitle"/></g></svg>