<svg class="main-svg" xmlns="http://www.w3.org/2000/svg" xmlns:xlink="http://www.w3.org/1999/xlink" width="700" height="450" style="" viewBox="0 0 700 450"><rect x="0" y="0" width="700" height="450" style="fill: rgb(255, 255, 255); fill-opacity: 1;"/><defs id="defs-22435e"><g class="clips"><clipPath id="clip22435exyplot" class="plotclip"><rect width="580" height="330"/></clipPath><clipPath class="axesclip" id="clip22435ex"><rect x="60" y="0" width="580" height="450"/></clipPath><clipPath class="axesclip" id="clip22435ey"><rect x="0" y="60" width="700" height="330"/></clipPath><clipPath class="axesclip" id="clip22435exy"><rect x="60" y="60" width="580" height="330"/></clipPath></g><g class="gradients"/></defs><g class="bglayer"/><g class="layer-below"><g class="imagelayer"/><g class="shapelayer"/></g><g class="cartesianlayer"><g class="subplot xy"><g class="layer-subplot"><g class="shapelayer"/><g class="imagelayer"/></g><g class="gridlayer"><g class="x"><path class="xgrid crisp" transform="translate(205.07,0)" d="M0,60v330" style="stroke: rgb(238, 238, 238); stroke-opacity: 1; stroke-width: 1px;"/><path class="xgrid crisp" transform="translate(350.15,0)" d="M0,60v330" style="stroke: rgb(238, 238, 238); stroke-opacity: 1; stroke-width: 1px;"/><path class="xgrid crisp" transform="translate(495.22,0)" d="M0,60v330" style="stroke: rgb(238, 238, 238); stroke-opacity: 1; stroke-width: 1px;"/></g><g class="y"><path class="ygrid crisp" transform="translate(0,317.58)" d="M60,0h580" style="stroke: rgb(238, 238, 238); stroke-opacity: 1; stroke-width: 1px;"/><path class="ygrid crisp" transform="translate(0,259.63)" d="M60,0h580" style="stroke: rgb(238, 238, 238); stroke-opacity: 1; stroke-width: 1px;"/><path class="ygrid crisp" transform="translate(0,201.67)" d="M60,0h580" style="stroke: rgb(238, 238, 238); stroke-opacity: 1; stroke-width: 1px;"/><path class="ygrid crisp" transform="translate(0,143.72)" d="M60,0h580" style="stroke: rgb(238, 238, 238); stroke-opacity: 1; stroke-width: 1px;"/><path class="ygrid crisp" transform="translate(0,85.77)" d="M60,0h580" style="stroke: rgb(238, 238, 238); stroke-opacity: 1; stroke-width: 1px;"/></g></g><g class="zerolinelayer"><path class="xzl zl crisp" transform="translate(60,0)" d="M0,60v330" style="stroke: rgb(68, 68, 68); stroke-opacity: 1; stroke-width: 1px;"/><path class="yzl zl crisp" transform="translate(0,375.53)" d="M60,0h580" style="stroke: rgb(68, 68, 68); stroke-opacity: 1; stroke-width: 1px;"/></g><path class="xlines-below"/><path class="ylines-below"/><g class="overlines-below"/><g class="xaxislayer-below"/><g class="yaxislayer-below"/><g class="overaxes-below"/><g class="plot" transform="translate(60, 60)" clip-path="url(#clip22435exyplot)"><g class="scatterlayer mlayer"><g class="trace scatter trace5c939a" style="stroke-miterlimit: 2; opacity: 1;"><g class="fills"/><g class="errorbars"/><g class="lines"><path class="js-line" d="M0,16.5L0.87,306.84L1.16,293.51L1.45,297.27L1.74,292.35L2.03,270.33L2.61,254.39L2.9,310.02L3.19,297.27L3.48,241.64L3.77,228.02L4.06,293.51L4.35,245.7L4.64,306.55L4.93,307.7L5.22,307.42L5.51,305.68L5.8,303.07L6.09,262.21L6.38,265.69L6.67,296.69L6.96,263.66L7.25,310.31L7.54,268.3L7.83,280.47L8.41,301.62L8.7,242.51L9.57,308.57L9.86,284.52L10.16,283.37L10.45,310.31L10.74,268.01L11.03,305.68L11.32,308.86L11.61,309.73L11.9,298.14L12.19,282.79L12.48,304.23L12.77,309.73L13.06,300.46L13.35,301.62L13.64,308.57L13.93,302.78L14.22,309.15L14.51,267.14L15.38,306.55L15.67,285.97L16.25,292.64L16.54,311.47L17.41,300.75L17.7,300.46L17.99,309.15L18.28,304.81L18.57,303.07L19.44,308.28L19.73,297.27L20.02,294.38L20.31,307.42L21.47,294.67L21.76,303.07L22.05,285.39L22.34,299.59L22.63,303.07L22.92,267.72L23.21,279.89L23.5,291.48L23.79,300.75L24.08,288.87L24.37,298.43L24.66,298.14L25.53,310.31L25.82,307.99L26.11,284.23L27.27,310.02L27.56,308.57L27.85,302.49L28.43,303.07L28.72,303.65L29.3,301.04L29.59,304.81L29.88,291.48L30.18,292.35L30.47,304.52L30.76,301.62L31.05,279.6L31.34,306.84L31.63,301.04L31.92,290.61L32.5,308.86L32.79,306.84L33.08,301.33L33.37,305.97L33.66,299.01L33.95,301.91L34.24,310.6L34.53,295.25L35.4,310.89L35.69,307.99L35.98,310.31L36.27,303.07L36.56,308.86L36.85,281.34L37.14,310.02L37.72,308.86L38.01,304.23L38.3,305.1L38.59,301.33L38.88,305.97L39.17,292.06L39.46,308.86L40.04,304.81L40.33,288.87L40.62,308.57L41.2,308.28L41.49,307.99L41.78,301.33L42.07,310.31L42.36,304.81L42.65,310.89L43.52,309.15L43.81,310.89L44.68,299.88L44.97,310.89L45.26,307.13L45.55,307.42L45.84,310.6L46.13,304.23L46.42,309.15L46.71,310.31L47.58,306.55L47.87,309.15L48.16,301.04L48.45,311.76L48.74,309.73L49.03,294.09L49.32,309.44L49.61,306.26L49.9,305.39L50.2,309.73L50.49,310.31L50.78,303.65L51.36,309.44L51.65,301.33L51.94,306.55L52.23,302.49L52.52,276.41L53.39,309.15L53.68,294.09L53.97,310.31L54.55,307.42L54.84,307.42L55.42,305.97L55.71,284.52L56,310.31L56.58,303.36L56.87,297.85L57.45,296.11L58.03,312.63L58.32,298.72L58.61,297.85L58.9,307.13L59.19,308.57L59.48,304.23L59.77,304.52L60.06,280.18L60.64,309.73L60.93,298.14L61.22,239.61L62.09,310.02L62.38,298.72L62.67,294.67L62.96,308.86L63.25,299.3L63.54,299.88L63.83,308.57L64.12,296.69L64.41,303.07L64.7,298.72L64.99,302.2L65.28,309.44L65.57,310.89L65.86,298.72L66.44,309.15L66.73,304.23L67.31,309.44L67.6,299.3L67.89,298.14L68.18,282.5L69.05,310.02L69.34,294.38L69.63,312.05L69.92,300.75L70.22,300.17L70.51,305.97L70.8,305.68L71.09,301.91L71.38,298.72L71.67,308.57L72.54,287.42L72.83,295.54L73.12,307.7L73.7,301.62L73.99,301.62L74.28,301.33L74.57,303.94L75.15,288.29L75.44,292.35L75.73,300.46L76.6,311.18L76.89,304.81L77.47,299.01L77.76,302.49L78.05,307.13L78.34,298.72L78.63,310.31L78.92,307.99L79.5,296.4L79.79,221.07L80.37,308.86L80.66,307.42L80.95,307.7L81.24,310.31L81.53,309.44L81.82,298.43L82.4,306.55L82.69,297.56L83.56,310.02L83.85,293.8L84.43,310.89L84.72,284.52L85.3,305.68L85.59,303.07L85.88,294.96L86.75,309.73L87.04,304.81L87.33,294.96L87.62,305.39L87.91,306.26L88.49,311.76L88.78,299.01L89.07,310.6L89.65,307.99L89.94,309.15L90.53,298.14L90.82,306.84L91.11,310.31L91.69,310.02L91.98,311.18L92.56,306.84L92.85,310.6L93.14,304.23L93.43,305.39L93.72,309.15L94.01,289.45L94.3,310.89L94.59,308.57L95.17,287.42L95.46,307.42L96.33,311.47L96.62,303.65L96.91,312.63L97.49,310.89L97.78,311.76L98.36,299.01L98.65,311.18L98.94,310.6L99.23,307.7L100.39,305.97L100.68,309.15L101.26,312.34L101.55,307.99L101.84,305.97L102.13,310.6L102.42,307.42L102.71,287.13L103.29,310.89L103.58,310.02L103.87,303.65L104.16,309.15L104.45,303.07L104.74,306.26L105.03,305.1L105.32,310.89L105.61,301.62L105.9,309.73L106.48,308.57L106.77,311.18L107.64,311.18L107.93,309.73L108.51,304.81L108.8,307.7L109.38,311.76L109.67,303.36L109.96,292.06L110.26,308.57L110.55,298.72L111.42,310.6L111.71,305.97L112,309.44L112.29,302.49L112.58,309.44L112.87,285.39L113.74,310.6L114.03,311.47L114.32,273.22L114.61,305.1L114.9,306.84L115.19,297.56L115.48,300.17L115.77,305.1L116.06,302.78L116.35,312.05L116.64,311.47L116.93,301.33L117.8,311.18L118.09,306.55L118.38,310.02L118.96,308.28L119.25,303.94L119.54,305.68L119.83,292.93L120.7,309.15L120.99,312.05L121.57,306.26L121.86,310.02L122.15,308.28L122.44,312.34L122.73,311.18L123.02,305.1L123.6,311.76L123.89,307.13L124.18,307.42L124.47,305.97L124.76,309.15L125.05,311.18L125.34,301.91L125.63,300.46L125.92,308.57L126.21,307.7L126.5,310.02L127.08,302.78L127.37,308.28L127.66,309.73L127.95,307.42L128.24,307.99L128.53,310.31L129.11,308.28L129.4,284.52L129.69,303.94L130.28,296.98L130.57,295.82L131.44,309.15L131.73,300.46L132.6,310.89L132.89,310.02L133.47,304.81L133.76,307.99L134.05,308.28L134.63,309.73L134.92,306.26L135.21,305.97L135.5,310.31L135.79,311.18L136.08,307.7L136.95,311.18L137.24,309.15L138.11,309.73L138.4,307.99L138.69,310.6L138.98,309.15L139.27,307.99L139.85,310.89L140.14,308.28L140.43,307.7L140.72,308.28L141.01,310.89L141.3,309.73L141.59,304.52L142.46,311.18L142.75,310.02L143.04,305.1L143.33,310.6L143.62,310.6L143.91,298.72L144.49,303.07L144.78,307.7L145.65,300.17L145.94,307.99L146.52,304.81L146.81,298.43L147.68,305.97L147.97,307.42L148.26,310.02L148.55,309.73L148.84,307.13L149.13,302.49L149.42,304.81L149.71,311.18L150.3,303.65L150.88,305.1L151.17,312.05L152.33,303.94L152.62,311.76L152.91,311.18L153.2,305.39L153.78,311.76L154.07,302.78L154.36,310.6L154.94,306.26L155.23,300.75L155.52,310.02L155.81,307.42L156.1,304.23L157.26,310.6L157.55,307.7L157.84,310.02L158.13,307.99L158.42,306.84L158.71,307.7L159,311.18L159.58,303.94L159.87,304.52L160.16,309.73L161.03,302.78L161.32,305.39L161.61,280.18L161.9,306.26L162.19,308.57L162.48,311.76L162.77,304.23L163.06,260.18L163.35,302.49L163.64,299.88L164.22,303.36L164.51,266.85L165.09,308.86L165.38,295.82L165.67,303.94L166.54,309.15L166.83,310.02L167.7,304.23L167.99,307.99L168.28,310.89L168.57,306.55L168.86,303.65L169.15,311.76L169.44,301.33L169.73,310.31L170.03,306.26L170.32,303.94L170.61,309.15L170.9,310.31L171.19,302.49L171.48,310.6L172.06,309.44L172.35,299.01L172.64,307.42L173.22,305.39L173.51,306.84L173.8,289.74L174.09,292.93L174.38,307.13L174.67,304.52L174.96,310.31L175.25,304.23L175.54,307.7L175.83,309.15L176.7,312.63L176.99,304.23L177.28,309.73L177.57,301.91L177.86,305.97L178.15,305.68L178.44,309.15L179.31,292.93L179.6,308.86L179.89,303.94L180.18,304.81L180.47,310.02L180.76,307.7L181.05,308.86L181.34,310.31L181.63,310.89L181.92,307.99L182.5,311.76L182.79,310.6L183.08,306.55L183.66,312.92L183.95,311.47L184.24,306.26L184.53,310.89L184.82,304.52L185.11,292.35L185.4,310.31L185.98,309.73L186.27,307.99L186.56,307.13L186.85,312.05L187.14,305.1L187.43,309.73L187.72,309.73L188.01,289.45L188.3,307.42L188.59,312.05L188.88,299.59L189.46,300.46L189.75,306.84L190.05,304.23L190.34,309.44L190.63,305.68L190.92,312.05L191.5,287.71L191.79,292.93L192.08,294.67L192.37,279.6L192.66,313.21L193.53,298.43L193.82,309.15L194.4,311.18L194.69,307.7L194.98,311.76L195.56,310.6L195.85,310.31L196.43,306.26L196.72,311.18L197.01,307.13L197.59,307.7L197.88,309.73L198.17,310.31L198.46,307.7L198.75,303.94L199.33,305.97L199.62,308.86L199.91,308.28L200.2,310.31L201.07,311.47L201.36,304.81L201.65,312.63L202.23,309.73L202.52,309.73L202.81,310.02L203.1,311.47L203.39,310.89L203.68,308.28L203.97,306.84L204.26,307.13L204.55,310.02L204.84,310.02L205.13,300.46L205.42,305.97L205.71,296.69L206.87,311.47L207.16,307.13L207.45,308.86L207.74,298.72L208.03,311.76L208.61,310.02L208.9,305.39L209.19,304.23L209.48,311.18L209.77,310.02L210.07,302.78L210.65,311.18L210.94,310.02L211.23,305.39L211.81,311.18L212.1,310.31L212.39,307.7L213.26,311.18L213.55,306.84L213.84,311.76L214.42,308.86L214.71,307.13L215,312.92L215.29,311.47L215.58,301.04L215.87,311.76L216.45,308.86L216.74,309.44L217.03,309.44L217.32,311.47L217.61,307.42L217.9,311.18L218.19,311.18L218.48,306.55L219.06,308.28L219.35,310.89L219.64,304.23L220.22,307.42L220.51,310.89L220.8,302.78L221.09,309.15L221.38,309.73L222.54,303.07L222.83,304.23L223.12,301.62L223.41,307.42L224.28,312.63L224.57,309.44L224.86,306.84L225.15,312.34L225.73,307.13L226.02,310.31L226.31,311.47L226.89,310.6L227.18,308.86L227.76,311.76L228.05,310.02L228.34,310.02L228.63,308.86L228.92,310.6L229.21,312.34L229.5,307.42L229.79,311.76L230.09,310.6L230.67,306.84L230.96,308.57L231.25,307.99L231.54,310.31L231.83,308.28L232.12,301.91L232.99,312.05L233.28,307.13L233.57,307.42L233.86,310.31L234.15,306.84L234.44,312.34L234.73,312.34L235.02,312.05L235.31,304.23L235.6,293.8L235.89,305.97L236.18,311.47L236.47,305.1L236.76,305.97L237.05,308.86L237.63,304.52L237.92,306.84L238.21,312.34L238.5,310.6L238.79,311.18L239.08,312.63L240.24,303.36L240.53,310.02L240.82,307.99L241.11,310.89L241.4,280.47L242.27,309.73L242.56,311.76L242.85,300.46L243.14,306.84L243.43,309.73L243.72,307.99L244.01,312.05L246.04,305.68L246.33,311.76L247.49,308.57L247.78,308.28L248.07,309.73L248.36,309.44L248.65,307.99L248.94,303.36L249.23,310.89L249.81,309.73L250.11,301.91L250.69,299.88L250.98,308.57L251.27,307.13L251.56,305.39L251.85,306.55L252.14,311.18L253.01,272.06L253.3,286.55L254.17,307.13L254.46,294.96L255.91,312.34L256.2,310.6L256.49,307.99L257.07,313.5L257.36,305.97L257.94,305.68L258.23,309.15L258.52,300.75L260.26,310.89L260.55,310.02L260.84,298.43L261.13,307.99L261.42,308.57L262,310.6L262.29,310.31L262.58,310.6L263.16,305.97L263.45,307.7L263.74,310.6L264.32,304.23L264.61,309.15L264.9,308.28L265.19,309.15L265.48,301.91L265.77,312.63L266.06,296.4L266.35,308.28L266.64,303.65L266.93,310.6L267.51,307.13L267.8,307.99L268.09,312.05L268.38,311.18L268.67,304.52L269.25,310.89L269.54,298.14L269.83,291.48L270.13,308.86L270.42,303.94L270.71,309.73L271,308.86L271.29,312.63L271.58,305.68L272.16,311.47L272.45,307.99L273.03,310.89L273.32,306.84L274.19,310.6L274.48,307.42L275.64,311.76L275.93,304.81L276.51,312.92L276.8,311.47L277.09,309.73L277.38,310.02L277.67,307.7L277.96,312.34L278.25,310.6L278.54,301.33L278.83,308.86L279.12,268.59L279.41,306.84L279.99,305.97L280.28,312.34L280.86,307.99L281.15,311.18L281.44,301.91L282.02,306.55L282.31,305.97L282.89,309.44L283.18,306.84L283.47,302.2L283.76,309.15L284.05,303.65L284.34,308.86L284.63,311.47L284.92,300.75L285.79,304.52L286.08,298.43L286.37,305.39L286.66,288.58L286.95,309.44L287.53,309.15L287.82,306.26L288.69,265.11L288.98,298.72L289.56,312.34L289.85,301.91L290.15,306.84L290.44,285.1L290.73,277.28L291.02,305.39L291.31,301.33L291.6,308.86L291.89,307.7L292.18,308.86L292.47,309.44L293.05,312.63L293.34,300.75L293.63,274.96L294.5,311.18L294.79,292.06L295.08,307.42L295.37,291.77L295.66,306.84L295.95,306.55L296.24,305.68L296.53,283.94L297.11,304.23L297.4,297.85L297.69,294.09L298.27,310.02L298.56,307.7L298.85,310.02L299.14,308.86L299.43,311.18L300.59,304.23L300.88,310.89L301.46,306.84L301.75,294.96L302.33,310.02L302.62,308.28L302.91,309.44L303.2,311.18L303.49,308.57L303.78,307.99L304.36,305.39L304.65,306.26L304.94,307.13L305.23,308.57L305.52,303.94L305.81,308.57L306.1,290.32L306.39,310.6L306.97,304.81L307.26,306.55L307.55,305.97L307.84,306.26L308.13,310.89L308.42,300.46L308.71,304.52L309,307.99L309.29,310.6L309.58,307.99L309.87,305.1L310.17,308.28L310.46,304.81L310.75,298.72L311.62,308.86L311.91,300.75L312.49,310.02L313.07,309.44L313.36,300.75L313.65,295.82L313.94,297.27L314.23,306.84L315.1,312.05L315.39,306.55L315.68,312.05L315.97,306.84L316.26,302.78L316.84,310.89L317.42,309.73L317.71,310.6L318,311.18L318.29,296.69L318.87,307.7L319.16,304.81L319.45,300.17L320.03,310.02L320.32,295.82L320.61,310.6L320.9,307.42L321.19,301.33L321.48,307.42L321.77,305.97L322.06,297.56L322.35,307.99L322.93,305.68L323.22,272.06L324.38,310.89L324.67,302.2L324.96,307.13L325.54,306.55L325.83,305.1L326.12,308.86L326.41,307.7L326.7,303.65L327.28,310.6L327.57,293.8L327.86,309.15L328.44,306.55L328.73,310.6L329.89,299.3L330.19,310.6L331.06,305.39L331.35,308.57L331.64,310.6L331.93,307.13L332.22,307.7L332.51,310.6L332.8,303.94L333.09,304.23L333.38,311.18L333.96,312.05L334.25,297.56L334.54,299.01L334.83,300.46L335.12,309.15L335.7,308.86L335.99,296.98L336.57,312.34L336.86,305.1L337.15,304.52L337.73,312.05L338.02,282.5L338.6,310.31L338.89,306.26L339.18,311.76L340.05,298.72L340.34,309.15L340.92,292.93L341.21,309.15L341.5,302.2L341.79,310.89L342.08,305.68L342.37,311.47L342.66,312.34L342.95,310.89L343.24,307.99L343.53,304.23L343.82,304.52L344.11,311.76L344.69,307.7L344.98,310.02L345.27,289.16L345.56,309.73L346.14,309.15L346.43,310.31L346.72,310.6L347.01,304.52L347.88,311.76L348.17,306.84L348.75,305.97L349.04,310.31L349.33,306.26L349.62,301.62L349.91,276.99L350.79,308.86L351.08,310.89L351.66,312.05L351.95,300.75L352.24,303.94L352.53,304.81L353.11,312.34L353.4,310.02L353.69,310.31L353.98,312.34L354.27,309.44L354.56,307.7L354.85,307.13L355.14,304.23L356.3,310.6L356.59,312.92L357.46,307.99L357.75,310.31L358.04,309.44L358.33,312.34L358.91,305.1L359.2,311.47L359.49,308.86L359.78,310.02L360.07,312.05L360.36,305.39L360.94,307.13L361.23,308.57L361.81,310.89L362.1,297.56L362.39,279.89L363.26,308.57L363.55,303.94L364.71,312.05L365,292.64L365.87,310.6L366.16,309.73L366.74,301.91L367.03,311.76L367.32,300.17L367.61,303.36L367.9,308.86L368.19,307.42L368.48,308.57L368.77,302.78L369.35,311.47L369.64,308.28L369.93,307.42L370.23,307.13L370.52,308.28L370.81,304.81L371.1,310.6L371.39,311.76L371.68,298.14L371.97,308.57L372.55,306.84L372.84,307.99L373.71,299.88L374,306.55L374.29,310.89L374.58,300.46L374.87,309.15L375.45,308.86L375.74,307.7L376.32,309.44L376.61,308.57L376.9,302.78L377.19,312.05L377.48,310.02L377.77,294.96L378.35,310.31L378.64,305.68L378.93,306.84L379.8,310.89L380.09,306.55L380.38,307.13L380.67,304.52L380.96,301.33L381.25,309.15L381.54,310.31L381.83,306.55L382.41,310.31L382.7,299.3L383.86,309.73L384.15,295.25L384.73,310.89L385.02,309.73L385.31,309.44L386.18,299.88L386.47,305.39L386.76,300.17L387.05,305.1L387.34,307.7L387.63,309.44L387.92,299.59L388.79,311.18L389.08,311.18L389.37,311.76L389.66,310.31L389.95,307.42L390.54,307.7L390.83,311.18L391.41,304.81L391.7,308.86L391.99,309.44L392.28,305.39L392.57,311.76L392.86,308.86L393.15,307.7L393.73,292.35L394.02,308.86L394.31,307.99L394.6,312.05L394.89,290.03L395.18,306.26L395.47,309.44L395.76,312.05L396.05,307.42L396.34,307.13L396.63,310.02L396.92,311.47L397.21,307.7L397.5,299.3L397.79,299.59L398.08,310.6L398.37,299.59L398.66,311.18L398.95,309.44L399.24,300.46L399.53,311.18L399.82,307.42L400.11,310.31L400.4,304.52L400.69,305.97L400.98,311.47L401.27,306.84L401.85,307.7L402.14,307.42L402.43,301.33L402.72,309.44L403.01,308.86L403.59,304.81L403.88,307.13L404.17,310.31L404.46,308.57L404.75,309.73L405.04,310.31L405.33,310.02L405.62,307.42L405.91,305.97L406.2,310.02L406.78,305.97L407.07,309.73L407.36,311.76L407.65,308.86L407.94,310.89L408.23,310.89L408.81,308.57L409.1,312.34L409.39,307.42L409.68,310.89L409.97,311.18L410.27,304.52L410.56,310.02L410.85,310.89L412.01,299.01L412.3,306.55L412.59,307.42L412.88,300.75L413.75,310.31L414.04,305.39L414.33,296.98L414.62,306.26L414.91,310.89L415.2,310.89L415.49,305.68L415.78,310.31L416.07,309.73L416.36,305.39L416.65,310.6L417.23,308.86L417.52,307.42L417.81,307.42L418.1,309.15L418.39,308.28L418.68,308.57L418.97,304.52L419.84,311.47L420.13,310.02L420.42,294.67L420.71,307.7L421,305.97L421.58,294.09L421.87,307.7L422.16,309.44L422.45,306.55L423.03,310.02L423.32,303.94L423.61,308.28L424.19,306.26L424.48,306.84L424.77,309.15L425.06,302.78L425.35,310.02L425.64,284.23L426.22,310.6L426.51,298.43L426.8,311.47L427.38,309.44L427.67,311.76L428.25,309.44L428.54,280.18L428.83,311.76L429.41,309.73L429.7,309.44L430.29,299.59L430.58,299.88L430.87,302.49L431.45,293.22L431.74,308.86L432.03,312.63L432.32,303.94L432.61,303.36L432.9,300.17L433.48,311.76L433.77,307.99L434.06,310.6L434.64,307.99L434.93,310.6L435.51,304.52L435.8,311.47L436.67,304.81L436.96,307.99L437.54,311.18L437.83,306.55L438.12,312.05L438.7,309.73L438.99,309.44L439.28,310.31L439.57,300.75L440.15,311.18L440.44,304.81L440.73,310.02L441.31,307.13L441.6,308.28L441.89,309.73L442.47,310.02L442.76,309.15L443.05,306.84L443.34,307.42L443.63,308.28L443.92,309.44L444.21,301.91L444.79,308.86L445.08,289.74L445.37,309.73L445.95,306.84L446.24,309.44L446.53,304.52L446.82,305.68L447.11,310.02L447.69,311.47L447.98,308.57L448.27,302.49L448.85,305.1L449.14,306.84L449.72,306.55L450.02,303.94L450.31,299.3L450.6,309.73L450.89,291.77L451.47,300.17L451.76,305.68L452.05,302.49L452.34,308.28L452.63,312.34L452.92,305.68L453.21,310.31L453.5,301.91L453.79,307.99L454.37,307.42L454.66,306.26L454.95,298.43L455.24,306.55L455.53,311.76L455.82,301.33L456.11,308.86L456.4,308.57L456.69,304.23L456.98,309.44L457.27,307.42L457.56,309.15L457.85,303.94L458.14,309.15L458.43,301.62L458.72,308.28L459.01,310.02L459.3,302.2L459.59,310.6L459.88,303.36L460.17,308.28L460.75,312.34L461.04,306.26L461.33,311.47L461.62,309.44L461.91,305.97L462.49,309.44L462.78,287.13L463.36,271.49L463.65,310.02L464.23,302.2L464.52,312.34L464.81,311.18L465.1,306.26L465.39,308.86L465.68,306.55L465.97,303.36L466.26,302.2L466.55,310.89L467.13,310.31L467.42,304.52L467.71,311.47L468.29,308.57L468.58,305.39L469.16,311.18L469.45,303.07L470.04,310.89L470.33,307.13L470.62,301.04L471.49,310.89L471.78,311.76L472.07,303.94L472.65,307.99L472.94,310.89L473.23,299.3L473.52,307.42L473.81,311.47L474.1,304.23L474.39,310.31L474.68,310.6L474.97,310.89L475.26,304.23L475.55,312.34L475.84,307.13L476.13,302.78L477,310.31L477.29,309.44L477.58,307.42L477.87,310.6L478.16,307.13L478.45,303.07L478.74,307.13L479.03,306.84L479.32,303.07L479.61,311.76L479.9,293.22L480.77,312.05L481.06,304.52L481.35,310.02L481.64,306.55L481.93,305.97L482.22,307.99L482.51,278.73L482.8,283.66L483.09,301.62L483.38,269.75L483.67,302.78L483.96,307.7L484.25,301.04L484.54,302.78L484.83,305.39L485.41,311.18L485.7,305.97L485.99,311.76L486.57,310.89L486.86,311.76L487.15,306.84L487.44,310.89L487.73,311.18L488.6,306.84L488.89,310.89L489.47,310.02L489.76,299.01L490.35,312.05L490.64,311.76L490.93,312.05L491.22,312.05L491.51,309.73L491.8,312.05L492.09,310.89L492.38,307.7L492.67,308.28L492.96,306.84L493.25,312.05L493.54,305.1L493.83,301.62L494.41,311.47L494.7,311.18L494.99,310.89L495.28,310.6L495.57,304.81L496.15,310.6L496.44,309.15L496.73,306.84L497.31,310.31L497.6,310.02L497.89,304.52L498.18,302.2L498.47,310.6L498.76,310.02L499.05,312.05L499.34,310.6L499.63,310.89L499.92,304.81L500.21,289.45L500.5,295.25L500.79,309.73L501.08,304.52L501.37,306.26L501.66,308.28L501.95,304.81L502.24,307.99L502.53,311.18L502.82,303.65L503.4,305.1L503.69,310.6L504.56,298.72L504.85,308.28L505.14,311.76L505.72,311.47L506.01,312.92L506.3,305.97L506.88,309.15L507.17,309.44L507.75,312.05L508.04,309.15L508.33,309.44L508.62,311.18L509.78,309.73L510.08,310.89L510.37,312.05L510.66,308.28L510.95,308.57L511.24,311.18L511.53,306.55L511.82,308.28L512.11,311.18L512.4,299.88L512.69,310.02L512.98,307.99L513.56,302.49L513.85,306.55L514.14,303.65L514.43,311.18L514.72,311.76L515.01,294.67L515.88,311.76L516.17,310.89L516.46,310.89L516.75,306.26L517.33,311.18L517.62,304.81L518.49,312.34L518.78,311.47L519.94,299.88L520.23,310.6L520.52,309.15L520.81,311.47L521.1,309.73L521.39,308.86L521.68,310.89L521.97,301.33L523.13,310.89L523.42,310.6L523.71,312.63L524,307.13L524.29,305.1L524.58,312.05L525.45,307.13L525.74,308.57L526.03,311.47L526.32,294.96L526.9,309.44L527.19,306.84L527.48,305.68L528.64,309.73L528.93,304.52L529.22,307.42L529.51,303.94L529.8,301.33L530.68,311.47L530.97,304.52L531.26,309.44L531.84,306.55L532.13,301.33L533,312.05L533.29,311.47L533.58,307.99L533.87,308.57L534.16,310.6L534.74,303.65L535.03,307.42L535.32,296.11L535.61,310.02L536.19,309.15L536.48,308.86L536.77,305.68L537.06,309.44L537.35,291.77L538.22,309.44L538.51,311.47L538.8,311.18L539.09,309.15L539.38,309.15L539.67,310.89L539.96,310.6L540.25,307.13L541.12,311.76L541.41,309.44L541.7,311.47L541.99,298.14L542.86,310.89L543.15,310.02L543.44,308.28L543.73,303.65L544.02,309.73L544.31,308.86L544.6,308.57L544.89,309.73L545.47,311.76L545.76,306.84L546.05,309.15L546.34,307.42L546.63,307.13L546.92,311.76L547.5,310.89L547.79,309.73L548.08,307.13L548.37,307.7L548.66,292.64L549.53,312.05L549.82,311.47L550.12,305.1L550.7,308.57L550.99,310.89L551.57,311.76L551.86,310.31L552.44,310.6L552.73,310.02L553.6,312.34L553.89,309.73L554.18,309.44L554.47,307.13L554.76,305.97L555.05,309.15L555.34,308.28L555.63,310.89L556.21,311.47L556.5,309.15L556.79,296.69L557.08,310.31L557.37,311.47L557.95,299.88L558.24,308.28L558.53,291.48L558.82,310.31L559.11,304.23L559.4,298.72L559.69,305.39L559.98,311.18L560.27,306.84L560.56,312.34L560.85,311.47L561.43,307.13L561.72,302.2L562.01,311.47L562.59,307.13L562.88,305.39L563.75,297.27L564.04,307.42L564.33,310.31L564.91,309.73L565.2,302.78L565.78,312.63L566.07,305.39L566.65,311.18L566.94,307.13L567.23,307.99L567.52,311.47L568.1,305.39L568.39,310.6L568.97,307.7L569.26,310.89L569.84,308.57L570.14,311.47L570.43,311.47L570.72,310.31L571.01,312.92L571.3,311.47L571.59,310.6L571.88,311.76L572.17,308.28L572.75,308.86L573.04,305.1L573.62,304.23L574.2,312.63L574.49,311.18L574.78,308.57L575.07,301.04L575.36,310.89L575.65,304.81L575.94,309.73L576.23,310.31L576.52,307.7L576.81,302.49L577.1,312.34L577.68,296.69L577.97,306.55L578.26,309.44L578.55,308.57L578.84,310.6L579.13,310.02L579.42,311.76L580,303.65" style="vector-effect: non-scaling-stroke; fill: none; stroke: rgb(31, 119, 180); stroke-opacity: 1; stroke-width: 2px; opacity: 1;"/></g><g class="points"/><g class="text"/></g></g></g><g class="overplot"/><path class="xlines-above crisp" d="M0,0" style="fill: none;"/><path class="ylines-above crisp" d="M0,0" style="fill: none;"/><g class="overlines-above"/><g class="xaxislayer-above"><g class="xtick"><text text-anchor="middle" x="0" y="403" transform="translate(60,0)" style="font-family: 'Open Sans', verdana, arial, sans-serif; font-size: 12px; fill: rgb(68, 68, 68); fill-opacity: 1; white-space: pre;">0</text></g><g class="xtick"><text text-anchor="middle" x="0" y="403" transform="translate(205.07,0)" style="font-family: 'Open Sans', verdana, arial, sans-serif; font-size: 12px; fill: rgb(68, 68, 68); fill-opacity: 1; white-space: pre;">500</text></g><g class="xtick"><text text-anchor="middle" x="0" y="403" transform="translate(350.15,0)" style="font-family: 'Open Sans', verdana, arial, sans-serif; font-size: 12px; fill: rgb(68, 68, 68); fill-opacity: 1; white-space: pre;">1000</text></g><g class="xtick"><text text-anchor="middle" x="0" y="403" transform="translate(495.22,0)" style="font-family: 'Open Sans', verdana, arial, sans-serif; font-size: 12px; fill: rgb(68, 68, 68); fill-opacity: 1; white-space: pre;">1500</text></g></g><g class="yaxislayer-above"><g class="ytick"><text text-anchor="end" x="59" y="4.199999999999999" transform="translate(0,375.53)" style="font-family: 'Open Sans', verdana, arial, sans-serif; font-size: 12px; fill: rgb(68, 68, 68); fill-opacity: 1; white-space: pre;">0</text></g><g class="ytick"><text text-anchor="end" x="59" y="4.199999999999999" transform="translate(0,317.58)" style="font-family: 'Open Sans', verdana, arial, sans-serif; font-size: 12px; fill: rgb(68, 68, 68); fill-opacity: 1; white-space: pre;">200</text></g><g class="ytick"><text text-anchor="end" x="59" y="4.199999999999999" transform="translate(0,259.63)" style="font-family: 'Open Sans', verdana, arial, sans-serif; font-size: 12px; fill: rgb(68, 68, 68); fill-opacity: 1; white-space: pre;">400</text></g><g class="ytick"><text text-anchor="end" x="59" y="4.199999999999999" transform="translate(0,201.67)" style="font-family: 'Open Sans', verdana, arial, sans-serif; font-size: 12px; fill: rgb(68, 68, 68); fill-opacity: 1; white-space: pre;">600</text></g><g class="ytick"><text text-anchor="end" x="59" y="4.199999999999999" transform="translate(0,143.72)" style="font-family: 'Open Sans', verdana, arial, sans-serif; font-size: 12px; fill: rgb(68, 68, 68); fill-opacity: 1; white-space: pre;">800</text></g><g class="ytick"><text text-anchor="end" x="59" y="4.199999999999999" transform="translate(0,85.77)" style="font-family: 'Open Sans', verdana, arial, sans-serif; font-size: 12px; fill: rgb(68, 68, 68); fill-opacity: 1; white-space: pre;">1000</text></g></g><g class="overaxes-above"/></g></g><g class="polarlayer"/><g class="ternarylayer"/><g class="geolayer"/><g class="pielayer"/><g class="glimages"/><defs id="topdefs-22435e"><g class="clips"/></defs><g class="layer-above"><g class="imagelayer"/><g class="shapelayer"/></g><g class="infolayer"><g class="g-gtitle"><text class="gtitle" x="350" y="30" text-anchor="middle" dy="0em" style="font-family: 'Open Sans', verdana, arial, sans-serif; font-size: 17px; fill: rgb(68, 68, 68); opacity: 1; font-weight: normal; white-space: pre;">Episode Length - 4 Actions</text></g><g class="g-xtitle"/><g class="g-ytitle"/></g></svg>