<svg class="main-svg" xmlns="http://www.w3.org/2000/svg" xmlns:xlink="http://www.w3.org/1999/xlink" width="700" height="450" style="" viewBox="0 0 700 450"><rect x="0" y="0" width="700" height="450" style="fill: rgb(255, 255, 255); fill-opacity: 1;"/><defs id="defs-4ca95f"><g class="clips"><clipPath id="clip4ca95fxyplot" class="plotclip"><rect width="580" height="330"/></clipPath><clipPath class="axesclip" id="clip4ca95fx"><rect x="60" y="0" width="580" height="450"/></clipPath><clipPath class="axesclip" id="clip4ca95fy"><rect x="0" y="60" width="700" height="330"/></clipPath><clipPath class="axesclip" id="clip4ca95fxy"><rect x="60" y="60" width="580" height="330"/></clipPath></g><g class="gradients"/></defs><g class="bglayer"/><g class="layer-below"><g class="imagelayer"/><g class="shapelayer"/></g><g class="cartesianlayer"><g class="subplot xy"><g class="layer-subplot"><g class="shapelayer"/><g class="imagelayer"/></g><g class="gridlayer"><g class="x"><path class="xgrid crisp" transform="translate(176.12,0)" d="M0,60v330" style="stroke: rgb(238, 238, 238); stroke-opacity: 1; stroke-width: 1px;"/><path class="xgrid crisp" transform="translate(292.23,0)" d="M0,60v330" style="stroke: rgb(238, 238, 238); stroke-opacity: 1; stroke-width: 1px;"/><path class="xgrid crisp" transform="translate(408.35,0)" d="M0,60v330" style="stroke: rgb(238, 238, 238); stroke-opacity: 1; stroke-width: 1px;"/><path class="xgrid crisp" transform="translate(524.46,0)" d="M0,60v330" style="stroke: rgb(238, 238, 238); stroke-opacity: 1; stroke-width: 1px;"/></g><g class="y"><path class="ygrid crisp" transform="translate(0,318.54)" d="M60,0h580" style="stroke: rgb(238, 238, 238); stroke-opacity: 1; stroke-width: 1px;"/><path class="ygrid crisp" transform="translate(0,261.59000000000003)" d="M60,0h580" style="stroke: rgb(238, 238, 238); stroke-opacity: 1; stroke-width: 1px;"/><path class="ygrid crisp" transform="translate(0,204.64)" d="M60,0h580" style="stroke: rgb(238, 238, 238); stroke-opacity: 1; stroke-width: 1px;"/><path class="ygrid crisp" transform="translate(0,147.69)" d="M60,0h580" style="stroke: rgb(238, 238, 238); stroke-opacity: 1; stroke-width: 1px;"/><path class="ygrid crisp" transform="translate(0,90.74)" d="M60,0h580" style="stroke: rgb(238, 238, 238); stroke-opacity: 1; stroke-width: 1px;"/></g></g><g class="zerolinelayer"><path class="xzl zl crisp" transform="translate(60,0)" d="M0,60v330" style="stroke: rgb(68, 68, 68); stroke-opacity: 1; stroke-width: 1px;"/><path class="yzl zl crisp" transform="translate(0,375.49)" d="M60,0h580" style="stroke: rgb(68, 68, 68); stroke-opacity: 1; stroke-width: 1px;"/></g><path class="xlines-below"/><path class="ylines-below"/><g class="overlines-below"/><g class="xaxislayer-below"/><g class="yaxislayer-below"/><g class="overaxes-below"/><g class="plot" transform="translate(60, 60)" clip-path="url(#clip4ca95fxyplot)"><g class="scatterlayer mlayer"><g class="trace scatter trace42f4b9" style="stroke-miterlimit: 2; opacity: 1;"><g class="fills"/><g class="errorbars"/><g class="lines"><path class="js-line" d="M0,16.5L0.58,204.44L1.16,159.16L1.74,289.87L2.32,260.82L2.9,274.2L3.48,305.81L4.06,303.82L4.64,277.34L5.23,302.11L5.81,271.93L6.39,296.13L6.97,287.3L7.55,300.4L8.13,296.7L8.71,271.64L9.29,308.09L9.87,253.7L11.03,306.1L11.61,309.51L12.19,308.66L12.77,304.1L13.35,303.25L13.93,283.32L14.51,279.61L15.1,306.38L15.68,311.22L16.26,291L16.84,296.13L17.42,310.65L18,302.68L18.58,302.96L19.16,279.33L20.9,309.23L21.48,310.65L22.06,299.83L22.64,312.08L23.8,308.66L24.38,307.8L25.55,311.51L26.13,273.92L27.87,308.37L28.45,312.65L29.03,311.79L29.61,309.51L30.19,310.37L30.77,293L31.35,310.08L31.93,305.24L32.51,299.55L33.09,281.61L33.67,310.94L34.25,307.24L34.83,310.08L35.42,310.37L36,304.67L37.16,312.65L37.74,295.56L38.32,294.71L38.9,312.65L39.48,289.87L40.06,310.94L40.64,305.81L41.22,310.37L42.38,309.8L42.96,306.38L43.54,310.65L44.12,309.51L44.7,310.65L45.29,302.68L45.87,312.36L46.45,312.93L47.03,303.82L47.61,307.8L48.19,297.84L48.77,309.8L49.35,307.8L49.93,312.93L51.09,305.24L51.67,310.37L52.25,309.23L52.83,312.36L53.41,312.36L53.99,282.75L54.57,310.37L55.16,306.95L55.74,295.28L56.32,312.36L56.9,303.25L58.06,311.79L58.64,309.8L59.22,310.65L59.8,310.08L60.38,305.24L60.96,308.66L61.54,311.51L62.12,310.37L62.7,313.5L63.28,312.36L63.86,312.93L64.44,310.08L65.61,305.81L66.19,312.08L67.35,313.5L67.93,313.5L68.51,313.22L69.09,311.51L69.67,312.65L70.25,311.51L70.83,311.22L71.41,303.82L72.57,308.94L73.15,313.5L73.73,312.65L74.31,313.5L75.48,313.5L76.06,310.94L77.22,313.22L77.8,313.5L80.7,313.5L81.28,310.94L82.44,312.93L83.02,313.5L83.6,311.51L84.18,313.5L85.35,312.93L85.93,307.52L86.51,312.65L87.09,307.24L87.67,313.22L88.25,312.08L88.83,312.65L89.41,312.93L89.99,310.37L90.57,310.08L91.15,313.5L91.73,313.5L92.31,310.94L92.89,310.08L93.47,310.65L94.05,312.36L94.63,311.22L95.22,311.22L95.8,308.66L96.38,310.94L96.96,308.09L98.12,312.65L98.7,313.22L99.86,313.5L100.44,310.37L101.6,313.22L102.18,313.22L103.34,310.94L103.92,312.93L104.5,311.22L105.09,304.96L105.67,310.37L106.25,303.25L106.83,313.22L107.41,310.37L107.99,313.5L108.57,304.96L109.15,312.93L109.73,313.5L110.31,311.22L110.89,313.22L111.47,310.65L112.05,313.5L112.63,312.08L113.21,313.5L113.79,313.22L114.37,312.93L114.95,313.5L115.54,309.23L116.12,313.22L116.7,312.93L117.28,313.5L121.34,313.5L121.92,312.08L122.5,313.5L123.08,313.22L123.66,313.5L124.24,313.5L124.82,310.94L125.41,308.37L125.99,308.94L126.57,312.93L127.15,312.08L127.73,313.5L128.31,312.65L128.89,308.09L130.05,313.5L130.63,312.65L132.37,313.22L132.95,310.37L133.53,310.37L134.11,308.37L134.69,310.65L135.28,309.8L135.86,307.24L136.44,312.93L137.02,309.51L137.6,312.08L138.76,312.93L139.34,312.65L140.5,313.5L141.08,312.93L141.66,312.65L142.24,313.22L142.82,313.22L143.4,312.36L143.98,312.93L144.56,310.65L145.73,313.5L146.31,313.5L147.47,313.5L148.05,311.79L149.21,313.22L149.79,311.51L150.37,313.5L150.95,313.22L151.53,311.22L152.11,312.65L152.69,310.94L154.43,313.5L155.02,313.5L155.6,312.93L156.18,310.65L157.34,313.5L157.92,311.79L158.5,309.8L159.08,312.93L160.24,313.5L160.82,313.5L161.4,308.09L161.98,313.5L163.14,310.65L163.72,311.22L164.3,311.22L164.88,299.55L165.47,313.5L166.05,302.96L167.21,313.22L167.79,308.94L168.95,313.5L169.53,313.5L170.11,313.5L170.69,312.65L171.27,313.5L171.85,311.22L173.01,313.5L173.59,313.5L177.08,313.5L177.66,310.65L178.82,311.22L179.4,313.5L180.56,312.65L181.14,312.65L181.72,313.22L182.3,311.79L182.88,313.5L183.46,306.95L184.62,313.5L185.21,299.26L186.37,312.93L186.95,313.5L187.53,312.65L188.11,313.22L189.27,312.93L189.85,313.5L196.82,313.5L197.4,312.65L198.56,313.5L199.14,313.5L199.72,313.22L200.3,307.8L201.46,313.5L202.04,307.8L203.2,312.08L203.78,313.5L204.36,313.5L204.94,311.22L206.11,313.5L206.69,312.93L207.27,309.8L207.85,313.5L208.43,307.52L209.01,313.5L211.33,312.93L211.91,312.65L213.65,313.5L214.23,313.5L214.81,313.22L215.4,310.94L216.56,313.5L217.14,308.94L218.3,312.65L218.88,312.93L219.46,313.22L220.04,311.51L221.2,313.22L221.78,312.93L222.94,313.22L223.52,309.23L224.1,310.08L224.68,313.22L225.85,300.12L226.43,311.79L227.01,312.93L227.59,310.65L229.91,313.5L230.49,313.5L232.23,312.93L232.81,313.5L233.39,309.23L233.97,311.79L235.14,312.65L235.72,312.36L236.88,313.22L237.46,313.22L238.04,312.65L238.62,313.22L239.78,313.22L240.36,310.08L240.94,313.22L241.52,312.36L242.1,313.5L242.68,311.79L243.26,313.22L246.17,313.5L246.75,307.24L247.91,313.5L248.49,308.94L249.65,313.5L250.23,310.94L250.81,313.5L251.39,313.22L251.97,313.22L252.55,313.22L253.13,308.37L253.71,313.5L254.29,307.24L254.87,313.5L255.46,313.22L256.04,311.79L257.2,313.5L257.78,313.5L261.26,312.93L261.84,308.66L263,313.5L263.58,313.22L265.33,313.5L265.91,312.08L267.07,313.5L267.65,313.22L268.81,313.5L269.39,313.22L269.97,311.22L270.55,299.83L271.13,313.5L271.71,307.8L272.87,312.93L273.45,306.95L274.03,305.53L274.61,311.22L275.2,309.51L275.78,312.93L276.36,311.22L276.94,312.08L278.1,313.22L278.68,312.65L279.26,312.36L279.84,313.22L280.42,297.27L281,312.93L281.58,313.22L282.16,304.96L283.9,312.93L284.48,313.5L285.65,313.5L286.23,307.8L287.39,313.5L287.97,313.22L288.55,312.93L289.13,313.5L292.61,313.22L293.19,307.8L294.35,313.5L294.93,312.36L296.1,313.5L296.68,312.65L297.26,309.23L297.84,313.5L298.42,312.65L299,313.5L301.32,312.65L301.9,313.22L303.64,312.93L304.22,311.79L305.39,313.5L305.97,312.65L306.55,310.65L307.13,313.5L308.29,313.5L308.87,313.5L310.03,313.22L310.61,313.5L311.19,313.5L311.77,312.36L312.93,313.22L313.51,313.5L315.26,312.93L315.84,313.22L317.58,312.36L318.16,313.5L318.74,312.65L319.32,313.5L319.9,313.5L320.48,310.37L321.06,313.5L321.64,313.22L322.22,313.5L322.8,309.51L323.38,313.5L324.54,313.5L325.13,310.65L326.29,313.5L326.87,313.5L328.03,312.65L328.61,313.22L330.35,313.22L330.93,306.1L331.51,313.5L332.09,312.93L332.67,313.5L333.25,312.93L333.83,313.5L334.41,312.93L334.99,306.95L336.16,313.5L336.74,313.5L338.48,312.36L339.06,312.93L340.22,313.5L340.8,309.51L341.38,310.37L341.96,313.22L342.54,307.52L343.12,310.37L344.28,313.22L344.86,310.08L345.45,312.36L346.03,307.52L346.61,313.22L347.19,310.94L348.35,313.5L348.93,313.5L350.67,312.08L351.25,312.65L351.83,313.22L352.41,311.51L352.99,313.5L353.57,312.36L354.15,310.37L354.73,312.36L355.32,313.22L355.9,311.51L357.06,313.5L357.64,312.93L358.22,309.8L358.8,311.22L359.96,313.5L360.54,312.93L361.12,313.22L361.7,312.08L362.86,312.65L363.44,311.51L364.6,313.22L365.19,312.36L366.35,313.5L366.93,313.5L367.51,310.08L368.09,311.22L369.25,313.5L369.83,313.5L371.57,309.51L372.15,313.22L372.73,313.22L373.31,312.36L373.89,313.22L374.47,308.94L375.64,313.22L376.22,309.23L376.8,313.22L377.38,312.65L377.96,312.93L378.54,309.8L379.12,312.65L379.7,312.36L380.28,300.4L380.86,311.22L381.44,310.94L382.02,312.65L382.6,312.08L383.18,305.24L383.76,313.22L384.34,311.79L384.92,305.81L385.51,313.22L386.09,311.79L386.67,312.93L387.25,313.5L387.83,310.37L388.41,307.8L388.99,312.93L389.57,313.5L390.15,307.8L391.31,313.22L391.89,313.5L393.05,313.5L393.63,310.94L394.21,312.08L394.79,309.8L395.96,313.22L396.54,310.65L397.7,313.5L398.28,313.5L399.44,312.65L400.02,313.22L402.34,312.93L402.92,312.08L403.5,313.22L404.08,309.51L404.66,312.93L405.25,310.65L406.41,313.22L406.99,312.93L408.15,310.65L408.73,310.65L409.31,308.37L409.89,310.37L410.47,307.52L411.05,313.5L411.63,310.65L412.21,313.5L413.95,313.5L414.53,305.81L415.12,313.5L415.7,312.65L416.28,313.5L416.86,313.5L417.44,312.65L419.76,313.5L420.34,311.22L421.5,313.5L422.08,312.93L424.4,313.5L424.98,310.37L425.57,313.5L426.15,307.52L427.31,313.5L427.89,312.93L429.05,313.22L429.63,313.5L430.21,313.5L430.79,312.65L431.95,313.5L432.53,312.36L433.69,313.5L434.27,313.5L437.18,313.22L437.76,310.94L438.92,313.5L439.5,313.22L441.24,313.5L441.82,313.5L443.56,313.5L444.14,307.24L445.89,313.5L446.47,312.93L447.05,313.5L447.63,312.93L448.79,313.5L449.37,313.5L451.69,313.5L452.27,311.51L453.43,313.5L454.01,313.5L455.76,313.22L456.34,310.94L458.08,313.5L458.66,311.51L459.24,306.95L459.82,312.36L460.4,313.22L460.98,312.65L462.14,313.22L462.72,313.22L463.88,312.93L464.46,312.36L465.05,312.08L465.63,313.22L469.11,312.93L469.69,312.36L470.27,312.36L470.85,309.8L471.43,313.22L472.01,310.37L473.17,313.22L473.75,312.65L476.08,313.22L476.66,313.22L477.24,313.22L477.82,309.8L478.4,312.93L478.98,310.37L479.56,306.38L480.14,312.08L480.72,312.93L481.3,312.36L482.46,312.93L483.04,313.5L483.62,313.5L484.2,312.65L485.37,313.5L485.95,313.5L491.17,312.93L491.75,312.08L492.91,313.5L493.49,313.5L496.4,313.5L496.98,311.51L498.14,313.5L498.72,311.22L499.3,313.5L499.88,312.93L500.46,313.22L501.04,308.66L501.62,312.93L502.78,313.5L503.36,313.22L505.11,313.5L505.69,312.36L506.27,313.5L506.85,310.65L507.43,313.5L508.01,312.65L508.59,313.5L510.33,313.5L510.91,312.08L512.07,313.5L512.65,313.22L514.39,313.5L514.97,313.5L520.78,313.5L521.36,312.36L521.94,310.37L522.52,313.5L523.68,313.22L524.26,312.36L525.43,313.5L526.01,313.5L527.17,313.5L527.75,310.08L528.91,313.5L529.49,313.5L530.07,312.93L530.65,313.5L531.23,312.65L531.81,313.5L532.39,313.5L532.97,310.37L533.55,313.22L534.13,312.93L534.71,312.93L535.88,313.5L536.46,312.36L537.62,313.5L538.2,313.5L538.78,312.65L539.36,313.22L539.94,313.5L540.52,304.1L541.1,313.5L541.68,312.93L542.26,313.5L542.84,311.22L543.42,313.5L545.75,313.5L546.33,312.08L547.49,313.5L548.07,310.37L549.23,313.22L549.81,312.36L550.39,309.51L550.97,309.8L551.55,312.93L552.13,312.36L552.71,312.93L553.87,312.65L554.45,311.22L555.04,313.22L555.62,312.36L556.78,312.93L557.36,311.79L557.94,310.37L558.52,313.22L563.16,313.22L563.74,312.36L564.9,313.22L565.49,312.93L566.65,312.36L567.23,312.65L568.39,313.5L568.97,310.65L570.13,312.93L570.71,313.22L572.45,312.93L573.03,313.5L574.77,313.22L575.36,313.22L577.68,313.22L578.26,310.65L578.84,313.22L579.42,312.65L580,313.5" style="vector-effect: non-scaling-stroke; fill: none; stroke: rgb(31, 119, 180); stroke-opacity: 1; stroke-width: 2px; opacity: 1;"/></g><g class="points"/><g class="text"/></g></g></g><g class="overplot"/><path class="xlines-above crisp" d="M0,0" style="fill: none;"/><path class="ylines-above crisp" d="M0,0" style="fill: none;"/><g class="overlines-above"/><g class="xaxislayer-above"><g class="xtick"><text text-anchor="middle" x="0" y="403" transform="translate(60,0)" style="font-family: 'Open Sans', verdana, arial, sans-serif; font-size: 12px; fill: rgb(68, 68, 68); fill-opacity: 1; white-space: pre;">0</text></g><g class="xtick"><text text-anchor="middle" x="0" y="403" transform="translate(176.12,0)" style="font-family: 'Open Sans', verdana, arial, sans-serif; font-size: 12px; fill: rgb(68, 68, 68); fill-opacity: 1; white-space: pre;">200</text></g><g class="xtick"><text text-anchor="middle" x="0" y="403" transform="translate(292.23,0)" style="font-family: 'Open Sans', verdana, arial, sans-serif; font-size: 12px; fill: rgb(68, 68, 68); fill-opacity: 1; white-space: pre;">400</text></g><g class="xtick"><text text-anchor="middle" x="0" y="403" transform="translate(408.35,0)" style="font-family: 'Open Sans', verdana, arial, sans-serif; font-size: 12px; fill: rgb(68, 68, 68); fill-opacity: 1; white-space: pre;">600</text></g><g class="xtick"><text text-anchor="middle" x="0" y="403" transform="translate(524.46,0)" style="font-family: 'Open Sans', verdana, arial, sans-serif; font-size: 12px; fill: rgb(68, 68, 68); fill-opacity: 1; white-space: pre;">800</text></g></g><g class="yaxislayer-above"><g class="ytick"><text text-anchor="end" x="59" y="4.199999999999999" transform="translate(0,375.49)" style="font-family: 'Open Sans', verdana, arial, sans-serif; font-size: 12px; fill: rgb(68, 68, 68); fill-opacity: 1; white-space: pre;">0</text></g><g class="ytick"><text text-anchor="end" x="59" y="4.199999999999999" transform="translate(0,318.54)" style="font-family: 'Open Sans', verdana, arial, sans-serif; font-size: 12px; fill: rgb(68, 68, 68); fill-opacity: 1; white-space: pre;">200</text></g><g class="ytick"><text text-anchor="end" x="59" y="4.199999999999999" transform="translate(0,261.59000000000003)" style="font-family: 'Open Sans', verdana, arial, sans-serif; font-size: 12px; fill: rgb(68, 68, 68); fill-opacity: 1; white-space: pre;">400</text></g><g class="ytick"><text text-anchor="end" x="59" y="4.199999999999999" transform="translate(0,204.64)" style="font-family: 'Open Sans', verdana, arial, sans-serif; font-size: 12px; fill: rgb(68, 68, 68); fill-opacity: 1; white-space: pre;">600</text></g><g class="ytick"><text text-anchor="end" x="59" y="4.199999999999999" transform="translate(0,147.69)" style="font-family: 'Open Sans', verdana, arial, sans-serif; font-size: 12px; fill: rgb(68, 68, 68); fill-opacity: 1; white-space: pre;">800</text></g><g class="ytick"><text text-anchor="end" x="59" y="4.199999999999999" transform="translate(0,90.74)" style="font-family: 'Open Sans', verdana, arial, sans-serif; font-size: 12px; fill: rgb(68, 68, 68); fill-opacity: 1; white-space: pre;">1000</text></g></g><g class="overaxes-above"/></g></g><g class="polarlayer"/><g class="ternarylayer"/><g class="geolayer"/><g class="pielayer"/><g class="glimages"/><defs id="topdefs-4ca95f"><g class="clips"/></defs><g class="layer-above"><g class="imagelayer"/><g class="shapelayer"/></g><g class="infolayer"><g class="g-gtitle"><text class="gtitle" x="350" y="30" text-anchor="middle" dy="0em" style="font-family: 'Open Sans', verdana, arial, sans-serif; font-size: 17px; fill: rgb(68, 68, 68); opacity: 1; font-weight: normal; white-space: pre;">Episode Length - 9 Actions</text></g><g class="g-xtitle"/><g class="g-ytitle"/></g></svg>