<svg class="main-svg" xmlns="http://www.w3.org/2000/svg" xmlns:xlink="http://www.w3.org/1999/xlink" width="700" height="450" style="" viewBox="0 0 700 450"><rect x="0" y="0" width="700" height="450" style="fill: rgb(255, 255, 255); fill-opacity: 1;"/><defs id="defs-a145a3"><g class="clips"><clipPath id="clipa145a3xyplot" class="plotclip"><rect width="580" height="330"/></clipPath><clipPath class="axesclip" id="clipa145a3x"><rect x="60" y="0" width="580" height="450"/></clipPath><clipPath class="axesclip" id="clipa145a3y"><rect x="0" y="60" width="700" height="330"/></clipPath><clipPath class="axesclip" id="clipa145a3xy"><rect x="60" y="60" width="580" height="330"/></clipPath></g><g class="gradients"/></defs><g class="bglayer"/><g class="layer-below"><g class="imagelayer"/><g class="shapelayer"/></g><g class="cartesianlayer"><g class="subplot xy"><g class="layer-subplot"><g class="shapelayer"/><g class="imagelayer"/></g><g class="gridlayer"><g class="x"><path class="xgrid crisp" transform="translate(176,0)" d="M0,60v330" style="stroke: rgb(238, 238, 238); stroke-opacity: 1; stroke-width: 1px;"/><path class="xgrid crisp" transform="translate(292.58000000000004,0)" d="M0,60v330" style="stroke: rgb(238, 238, 238); stroke-opacity: 1; stroke-width: 1px;"/><path class="xgrid crisp" transform="translate(409.17,0)" d="M0,60v330" style="stroke: rgb(238, 238, 238); stroke-opacity: 1; stroke-width: 1px;"/><path class="xgrid crisp" transform="translate(525.75,0)" d="M0,60v330" style="stroke: rgb(238, 238, 238); stroke-opacity: 1; stroke-width: 1px;"/></g><g class="y"><path class="ygrid crisp" transform="translate(0,309.75)" d="M60,0h580" style="stroke: rgb(238, 238, 238); stroke-opacity: 1; stroke-width: 1px;"/><path class="ygrid crisp" transform="translate(0,232)" d="M60,0h580" style="stroke: rgb(238, 238, 238); stroke-opacity: 1; stroke-width: 1px;"/><path class="ygrid crisp" transform="translate(0,154.25)" d="M60,0h580" style="stroke: rgb(238, 238, 238); stroke-opacity: 1; stroke-width: 1px;"/><path class="ygrid crisp" transform="translate(0,76.5)" d="M60,0h580" style="stroke: rgb(238, 238, 238); stroke-opacity: 1; stroke-width: 1px;"/></g></g><g class="zerolinelayer"><path class="yzl zl crisp" transform="translate(0,387.49)" d="M60,0h580" style="stroke: rgb(68, 68, 68); stroke-opacity: 1; stroke-width: 1px;"/></g><path class="xlines-below"/><path class="ylines-below"/><g class="overlines-below"/><g class="xaxislayer-below"/><g class="yaxislayer-below"/><g class="overaxes-below"/><g class="plot" transform="translate(60, 60)" clip-path="url(#clipa145a3xyplot)"><g class="scatterlayer mlayer"><g class="trace scatter trace736ba8" style="stroke-miterlimit: 2; opacity: 1;"><g class="fills"/><g class="errorbars"/><g class="lines"><path class="js-line" d="M0,291.73L2.91,288.62L5.83,279.29L8.74,302.62L11.66,307.28L17.49,266.85L20.4,310.39L23.32,290.18L26.23,307.28L29.15,310.39L32.06,310.39L34.97,262.19L37.89,288.62L40.8,285.51L43.72,288.62L46.63,293.29L49.55,282.4L52.46,302.62L55.38,301.06L58.29,310.39L61.21,305.73L64.12,305.73L67.04,308.84L69.95,285.51L72.86,308.84L75.78,291.73L78.69,308.84L81.61,294.84L84.52,313.5L87.44,246.64L90.35,299.51L93.27,285.51L96.18,304.17L99.1,246.64L102.01,282.4L104.92,304.17L107.84,308.84L110.75,304.17L113.67,291.73L116.58,290.18L119.5,307.28L122.41,291.73L125.33,311.95L128.24,294.84L131.16,302.62L134.07,290.18L136.98,201.54L139.9,302.62L142.81,302.62L145.73,271.52L148.64,210.87L151.56,305.73L154.47,283.96L157.39,299.51L160.3,293.29L163.22,269.96L166.13,304.17L169.05,262.19L171.96,308.84L174.87,294.84L177.79,308.84L183.62,277.74L186.53,282.4L189.45,299.51L192.36,257.52L195.28,288.62L198.19,288.62L201.11,265.3L204.02,290.18L206.93,290.18L209.85,305.73L212.76,288.62L215.68,161.11L218.59,288.62L221.51,243.53L227.34,293.29L230.25,280.85L233.17,294.84L236.08,168.89L238.99,305.73L241.91,252.86L244.82,221.76L247.74,226.42L250.65,288.62L253.57,302.62L256.48,224.87L259.4,220.2L262.31,285.51L265.23,204.65L268.14,311.95L271.06,224.87L273.97,280.85L276.88,282.4L279.8,274.63L282.71,203.1L285.63,277.74L288.54,192.21L291.46,293.29L294.37,296.4L297.29,231.09L300.2,257.52L303.12,305.73L306.03,248.19L308.94,276.18L311.86,285.51L314.77,251.3L317.69,262.19L320.6,283.96L323.52,156.45L326.43,184.44L329.35,285.51L332.26,229.53L335.18,305.73L338.09,210.87L341.01,213.98L343.92,106.69L346.83,111.35L349.75,213.98L352.66,162.67L355.58,293.29L358.49,140.9L361.41,18.05L364.32,144.01L367.24,280.85L370.15,16.5L373.07,212.43L375.98,18.05L378.89,83.36L381.81,277.74L384.72,111.35L387.64,204.65L390.55,249.75L393.47,38.27L396.38,108.24L399.3,123.79L402.21,109.8L405.13,16.5L408.04,131.57L410.95,293.29L413.87,16.5L416.78,158L419.7,128.46L422.61,16.5L425.53,168.89L428.44,220.2L431.36,16.5L434.27,16.5L437.19,176.66L440.1,42.93L443.02,16.5L445.93,128.46L448.84,117.57L451.76,49.15L454.67,16.5L457.59,145.56L460.5,80.25L463.42,262.19L466.33,39.82L469.25,16.5L472.16,77.14L475.08,16.5L480.9,16.5L483.82,154.89L486.73,33.6L489.65,16.5L492.56,16.5L495.48,134.68L498.39,172L501.31,139.34L504.22,145.56L507.14,133.12L510.05,16.5L512.96,16.5L515.88,189.1L518.79,78.7L521.71,16.5L524.62,103.58L527.54,16.5L530.45,16.5L533.37,16.5L536.28,91.14L539.2,148.67L542.11,16.5L547.94,16.5L550.85,123.79L553.77,16.5L556.68,16.5L559.6,140.9L562.51,158L565.43,201.54L568.34,195.32L574.17,16.5L577.09,55.37L580,16.5" style="vector-effect: non-scaling-stroke; fill: none; stroke: rgb(31, 119, 180); stroke-opacity: 1; stroke-width: 2px; opacity: 1;"/></g><g class="points"/><g class="text"/></g></g></g><g class="overplot"/><path class="xlines-above crisp" d="M0,0" style="fill: none;"/><path class="ylines-above crisp" d="M0,0" style="fill: none;"/><g class="overlines-above"/><g class="xaxislayer-above"><g class="xtick"><text text-anchor="middle" x="0" y="403" transform="translate(176,0)" style="font-family: 'Open Sans', verdana, arial, sans-serif; font-size: 12px; fill: rgb(68, 68, 68); fill-opacity: 1; white-space: pre;">200</text></g><g class="xtick"><text text-anchor="middle" x="0" y="403" transform="translate(292.58000000000004,0)" style="font-family: 'Open Sans', verdana, arial, sans-serif; font-size: 12px; fill: rgb(68, 68, 68); fill-opacity: 1; white-space: pre;">400</text></g><g class="xtick"><text text-anchor="middle" x="0" y="403" transform="translate(409.17,0)" style="font-family: 'Open Sans', verdana, arial, sans-serif; font-size: 12px; fill: rgb(68, 68, 68); fill-opacity: 1; white-space: pre;">600</text></g><g class="xtick"><text text-anchor="middle" x="0" y="403" transform="translate(525.75,0)" style="font-family: 'Open Sans', verdana, arial, sans-serif; font-size: 12px; fill: rgb(68, 68, 68); fill-opacity: 1; white-space: pre;">800</text></g></g><g class="yaxislayer-above"><g class="ytick"><text text-anchor="end" x="59" y="4.199999999999999" transform="translate(0,387.49)" style="font-family: 'Open Sans', verdana, arial, sans-serif; font-size: 12px; fill: rgb(68, 68, 68); fill-opacity: 1; white-space: pre;">0</text></g><g class="ytick"><text text-anchor="end" x="59" y="4.199999999999999" transform="translate(0,309.75)" style="font-family: 'Open Sans', verdana, arial, sans-serif; font-size: 12px; fill: rgb(68, 68, 68); fill-opacity: 1; white-space: pre;">50</text></g><g class="ytick"><text text-anchor="end" x="59" y="4.199999999999999" transform="translate(0,232)" style="font-family: 'Open Sans', verdana, arial, sans-serif; font-size: 12px; fill: rgb(68, 68, 68); fill-opacity: 1; white-space: pre;">100</text></g><g class="ytick"><text text-anchor="end" x="59" y="4.199999999999999" transform="translate(0,154.25)" style="font-family: 'Open Sans', verdana, arial, sans-serif; font-size: 12px; fill: rgb(68, 68, 68); fill-opacity: 1; white-space: pre;">150</text></g><g class="ytick"><text text-anchor="end" x="59" y="4.199999999999999" transform="translate(0,76.5)" style="font-family: 'Open Sans', verdana, arial, sans-serif; font-size: 12px; fill: rgb(68, 68, 68); fill-opacity: 1; white-space: pre;">200</text></g></g><g class="overaxes-above"/></g></g><g class="polarlayer"/><g class="ternarylayer"/><g class="geolayer"/><g class="pielayer"/><g class="glimages"/><defs id="topdefs-a145a3"><g class="clips"/></defs><g class="layer-above"><g class="imagelayer"/><g class="shapelayer"/></g><g class="infolayer"><g class="g-gtitle"><text class="gtitle" x="350" y="30" text-anchor="middle" dy="0em" style="font-family: 'Open Sans', verdana, arial, sans-serif; font-size: 17px; fill: rgb(68, 68, 68); opacity: 1; font-weight: normal; white-space: pre;">REINFORCE with Baseline - CartPole-v0</text></g><g class="g-xtitle"><text class="xtitle" x="350" y="442" text-anchor="middle" style="font-family: 'Open Sans', verdana, arial, sans-serif; font-size: 14px; fill: rgb(68, 68, 68); opacity: 1; font-weight: normal; white-space: pre;">Episode</text></g><g class="g-ytitle"><text class="ytitle" transform="rotate(-90,22,225)" x="22" y="225" text-anchor="middle" style="font-family: 'Open Sans', verdana, arial, sans-serif; font-size: 14px; fill: rgb(68, 68, 68); opacity: 1; font-weight: normal; white-space: pre;">Episode Reward</text></g></g></svg>